<svg version="1.1" xmlns="http://www.w3.org/2000/svg" xmlns:xlink="http://www.w3.org/1999/xlink" width="86.6" height="264.94375" viewBox="0,0,86.6,264.94375"><g transform="translate(-196.7,-48)"><g data-paper-data="{&quot;isPaintingLayer&quot;:true}" fill-rule="nonzero" stroke="none" stroke-width="1" stroke-linecap="butt" stroke-linejoin="miter" stroke-miterlimit="10" stroke-dasharray="" stroke-dashoffset="0" style="mix-blend-mode: normal"><g data-paper-data="{&quot;index&quot;:null}"><g><path d="M209.5,204.9c0,6.1 -1.5,4.7 -1.5,4.7c-1.3,2.5 -1.9,0.2 -1.9,0.2c-0.3,1.4 -1.3,0.9 -1.7,-0.2c-0.5,-1.3 -0.5,-3.8 -0.5,-3.8c-0.3,2.9 -0.4,4.6 -1.3,4c-0.6,-0.4 -0.6,-3.2 -0.5,-4.5c0.1,-1.4 0.8,-5.7 0.8,-5.7c0,0 -1.8,4.5 -3.3,3.5c-0.7,-0.5 1.1,-2.4 2.4,-5.2c1.9,-4.2 4.7,-5.1 4.7,-5.1c7.8,-0.3 2.8,9.3 2.8,12.1z" fill="#ffe9b8"/><path d="M207.5,208.4c-0.1,-0.7 -0.2,-1.6 -0.2,-2.5c0,-0.9 0.2,-1.7 0.3,-2.4c0.1,-0.7 0.3,-1.1 0.3,-1.1c0,0 0,0.4 0,1.1c0,0.3 0,0.7 0,1.1c0,0.4 0,0.9 0,1.3c0,0.5 0,0.9 0,1.3c0,0.4 0,0.8 0,1.1c0,0.6 0,1.1 0,1.1c0,0 -0.2,-0.4 -0.4,-1z" fill="#bd875f"/><path d="M205.6,208.6c-0.1,-0.3 -0.2,-0.8 -0.2,-1.2c-0.1,-0.4 -0.1,-0.9 -0.1,-1.4c0,-0.5 0,-1 0.1,-1.4c0,-0.4 0.1,-0.9 0.2,-1.2c0.2,-0.7 0.4,-1.1 0.4,-1.1c0,0 0,0.1 0,0.3c0,0.2 0,0.5 0,0.9c-0.1,0.3 -0.1,0.8 -0.1,1.2c0,0.5 0,0.9 0,1.4c0,1 0,1.9 0,2.6c0,0.7 0,1.2 0,1.2c0,0 -0.2,-0.4 -0.3,-1.3z" fill="#bd875f"/><path d="M203.6,206.6c0,-0.2 -0.1,-0.6 -0.1,-0.9c0,-0.4 0,-0.7 0,-1.1c0,-0.7 0.1,-1.5 0.3,-2c0.1,-0.6 0.3,-0.9 0.3,-0.9c0,0 0,0.4 0,0.9c0,0.2 0,0.6 0,0.9c0,0.4 0,0.7 0,1.1c0,0.7 0,1.5 -0.1,2c0,0.5 -0.1,0.9 -0.1,0.9c0,0 -0.1,-0.4 -0.3,-0.9z" fill="#bd875f"/><path d="M205.5,193.5c-0.1,0 -0.3,0.2 -0.5,0.4c-0.2,0.2 -0.4,0.4 -0.6,0.7c-0.2,0.3 -0.4,0.6 -0.6,0.9c-0.4,0.5 -0.8,1.2 -1.2,1.6c-0.3,0.4 -0.6,0.7 -0.6,0.7c0,0 0.1,-0.4 0.3,-0.9c0.1,-0.3 0.2,-0.6 0.4,-0.9c0.2,-0.3 0.4,-0.6 0.6,-0.9c0.4,-0.6 1,-1.2 1.5,-1.5c0.3,-0.2 0.5,-0.3 0.7,-0.3c0.2,0 0.3,0 0.3,0c0,0 -0.1,0 -0.3,0.2z" fill="#bd875f"/><path d="M203.5,199.4c0.2,-0.1 0.4,-0.2 0.7,-0.3c0.3,-0.1 0.6,-0.2 0.8,-0.4c0.3,-0.1 0.5,-0.3 0.7,-0.5c0.2,-0.2 0.4,-0.3 0.6,-0.5c0.2,-0.2 0.3,-0.3 0.4,-0.4c0.1,-0.1 0.2,-0.2 0.2,-0.2c0,0 -0.1,0.1 -0.1,0.2c0,0.1 -0.1,0.3 -0.2,0.5c-0.1,0.2 -0.3,0.5 -0.5,0.7c-0.2,0.2 -0.4,0.4 -0.7,0.6c-0.3,0.2 -0.6,0.3 -0.9,0.4c-0.3,0.1 -0.6,0.1 -0.8,0.1c-0.5,0 -0.8,-0.1 -0.8,-0.1c0,0 0.4,-0.1 0.6,-0.1z" fill="#bd875f"/></g><g><g><path d="M221.6,162.1c1.1,2.8 -2.8,15.7 -6.2,22.7c-3.1,6.6 -4.7,9.9 -4.7,9.9c-1.8,0.2 -3.6,0.3 -4.5,-1.6c0,0 2,-7.9 2.8,-12.4c1.3,-6.9 3.4,-17 6.3,-20.6c1.5,-1.8 5.1,-1.1 6.3,2z" fill="#714fab"/><path d="M212.6,166c-0.3,1 -0.6,2.2 -0.9,3.4c-0.3,1.2 -0.7,2.6 -1,3.9c-0.3,1.3 -0.6,2.6 -0.9,3.9c-0.2,1.2 -0.5,2.4 -0.7,3.4c-0.4,2.1 -0.7,3.4 -0.7,3.4c0,0 0.1,-0.3 0.1,-0.9c0.1,-0.6 0.2,-1.5 0.3,-2.5c0,-0.6 0.1,-1.1 0.2,-1.7c0.1,-0.5 0.2,-1.2 0.3,-1.8c0.3,-1.3 0.6,-2.7 0.9,-4c0.4,-1.3 0.7,-2.7 1.1,-3.9c0.3,-1.2 0.8,-2.3 1.1,-3.3c0.7,-2 1.3,-3.2 1.3,-3.2c0,0 -0.4,1.3 -1.1,3.3z" fill="#3b2b78"/></g><path d="M212.7,190.1c0.6,-1.2 1.2,-2.7 1.9,-4.3c0.7,-1.6 1.4,-3.3 2.1,-5c0.7,-1.7 1.3,-3.5 1.9,-5.1c0.6,-1.6 1.1,-3.2 1.5,-4.5c0.3,-0.7 0.4,-1.3 0.6,-1.8c0.2,-0.5 0.3,-1 0.4,-1.4c0.2,-0.8 0.3,-1.2 0.3,-1.2c0,0 0,0.5 -0.2,1.3c-0.1,0.8 -0.3,2 -0.7,3.3c-0.2,0.7 -0.4,1.4 -0.6,2.2c-0.2,0.8 -0.4,1.6 -0.7,2.4c-0.5,1.6 -1.1,3.4 -1.8,5.1c-0.7,1.7 -1.5,3.4 -2.2,5c-0.7,1.6 -1.5,3.1 -2.1,4.3c-0.6,1.2 -1.2,2.2 -1.6,2.9c-0.4,0.7 -0.7,1.1 -0.7,1.1c0,0 0.8,-1.7 1.9,-4.3z" fill="#3b2b78"/></g><g><path d="M216.9,137.3c1,-4.1 6.8,-20.8 12,-10.3c4.9,10.1 -7,44.6 -12.1,40.3c-5,-4.3 -2.2,-20.8 0.1,-30z" fill="#714fab"/><path d="M218.1,134.3c-0.3,0.9 -0.6,2.1 -0.9,3.3c-0.3,1.2 -0.6,2.5 -0.9,3.8c-0.3,1.3 -0.6,2.7 -0.8,3.9c-0.2,1.2 -0.4,2.4 -0.6,3.4c-0.2,1 -0.3,1.8 -0.4,2.4c-0.1,0.6 -0.2,0.9 -0.2,0.9c0,0 0,-0.3 0,-0.9c0,-0.5 0.1,-1.4 0.2,-2.4c0.1,-1 0.3,-2.2 0.5,-3.4c0.2,-1.2 0.5,-2.6 0.8,-3.9c0.3,-1.3 0.7,-2.6 1,-3.8c0.3,-1.2 0.7,-2.3 1,-3.3c0.6,-2 1.2,-3.2 1.2,-3.2c0,0 -0.3,1.3 -0.9,3.2z" fill="#3b2b78"/><path d="M225.9,123.5c0.3,0.1 0.6,0.2 1,0.5c0.4,0.3 0.8,0.7 1.2,1.2c0.3,0.3 0.4,0.6 0.6,0.9c0.2,0.4 0.4,0.7 0.5,1.1c0.3,0.7 0.5,1.6 0.7,2.5c0.1,0.4 0.1,0.9 0.2,1.4c0.1,0.5 0.1,1 0.1,1.5c0.1,1 0.1,2.1 0,3.1c-0.1,1.1 -0.1,2.1 -0.3,3.2c-0.2,1 -0.3,2.1 -0.5,3.1c-0.2,1 -0.4,2 -0.6,3c-0.2,1 -0.5,1.9 -0.7,2.8c-0.2,0.9 -0.5,1.7 -0.7,2.5c-1,3 -1.7,5 -1.7,5c0,0 0.5,-2 1.4,-5.1c0.2,-0.8 0.4,-1.6 0.6,-2.5c0.2,-0.9 0.5,-1.8 0.7,-2.8c0.2,-1 0.4,-2 0.6,-3c0.3,-1 0.3,-2.1 0.5,-3.1c0.2,-1 0.2,-2.1 0.3,-3.1c0.1,-1 0.1,-2 0.1,-3c0,-0.2 0,-0.5 0,-0.7c-0.1,-0.2 -0.1,-0.5 -0.1,-0.7c0,-0.5 -0.1,-0.9 -0.1,-1.4c-0.2,-0.9 -0.3,-1.8 -0.6,-2.5c-0.1,-0.3 -0.2,-0.7 -0.4,-1c-0.2,-0.3 -0.3,-0.7 -0.5,-0.9c-0.4,-0.5 -0.8,-0.9 -1.1,-1.2c-0.4,-0.3 -0.7,-0.5 -0.9,-0.6c-0.3,-0.1 -0.4,-0.1 -0.4,-0.1c0,0 0.1,0 0.1,-0.1z" fill="#3b2b78"/></g></g><g data-paper-data="{&quot;index&quot;:null}"><g><g><path d="M259.5,242.7c5.4,9.5 -0.6,54.9 -0.6,54.9c-2.9,3.3 -6.7,0.8 -6.7,0.8l-4.5,-50.8c-0.3,-9.5 8.3,-10.9 11.8,-4.9z" fill="#63b7ce"/><g fill="#3b8293"><path d="M261.1,271.6c0,0.6 -0.1,1.2 -0.1,1.8c-2,0.8 -4.2,1.1 -6.1,1.1c-1.9,0 -3.7,-0.4 -5,-0.7l-0.1,-1.7c2.6,0.7 7.3,1.5 11.3,-0.5z"/><path d="M261.6,265.9c-0.1,0.6 -0.1,1.2 -0.1,1.8c-2.2,1 -4.4,1.3 -6.4,1.3c-2.2,0 -4.2,-0.4 -5.6,-0.8l-0.2,-1.7c2.5,0.8 7.6,1.8 12.3,-0.6z"/><path d="M250.7,240c1.6,-1.1 3.6,-1.2 5.4,-0.4c-1.5,0.3 -2.9,0.4 -4.2,0.4c-0.4,0 -0.8,0 -1.2,0z"/><path d="M254.9,279.3c-1.7,0 -3.3,-0.2 -4.6,-0.5l-0.1,-1.7c2.6,0.6 6.8,1.2 10.7,-0.6c0,0.6 -0.1,1.2 -0.1,1.8c-2,0.7 -4,1 -5.9,1z"/><path d="M255,284.8c-1.5,0 -2.9,-0.2 -4.1,-0.4l-0.1,-1.7c2.5,0.6 6.2,0.9 9.7,-0.5c-0.1,0.5 -0.1,1.1 -0.2,1.7c-1.8,0.6 -3.6,0.8 -5.3,0.9z"/><path d="M255,263.6c-2.4,0 -4.6,-0.4 -6.1,-0.8l-0.1,-1.7c2.6,0.7 7.9,1.8 12.8,-0.3c0,0.6 0,1.1 0,1.7c-2.2,0.8 -4.5,1.1 -6.6,1.1z"/><path d="M254.8,257.6c-2.6,0 -4.8,-0.4 -6.4,-0.8l-0.1,-1.7c2.7,0.7 8.2,1.7 13.2,-0.2c0,-1.4 -0.1,-2.7 -0.2,-3.9c-2.2,0.7 -4.4,0.9 -6.4,0.9c-2.8,0 -5.3,-0.5 -6.9,-0.9l-0.2,-1.7c2.4,0.7 8,1.9 13.3,0.1c0.3,2.2 0.4,4.6 0.5,7.2c-2.3,0.8 -4.6,1.1 -6.8,1z"/><path d="M253.5,245.3c-2.2,0 -4.2,-0.3 -5.7,-0.6c0.1,-0.5 0.2,-1 0.4,-1.5c2.8,0.6 7.2,1 11.3,-0.3c0.2,0.5 0.4,1 0.6,1.5c-2.2,0.8 -4.5,1 -6.6,0.9z"/></g><path d="M259.9,244.1c0.1,0.3 0.3,0.7 0.4,1.2c0.2,0.5 0.3,1.1 0.5,1.9c0.2,0.7 0.3,1.6 0.4,2.5c0.1,0.9 0.2,1.9 0.3,3c0.1,1.1 0.2,2.2 0.2,3.4c0.1,1.1 0.1,2.4 0.1,3.6c0,1.2 0,2.4 0,3.7c0,2.5 -0.2,5.1 -0.3,7.4c0,1.2 -0.1,2.3 -0.2,3.4c0,1 -0.1,2.1 -0.2,3c-0.2,1.9 -0.4,3.4 -0.5,4.5c-0.1,1.1 -0.2,1.7 -0.2,1.7c0,0 0.1,-2.5 0.3,-6.3c0.1,-1.9 0.2,-4.1 0.3,-6.4c0.1,-2.3 0.2,-4.8 0.2,-7.3c0.1,-1.2 0.1,-2.5 0.1,-3.7c0,-1.2 0,-2.4 0,-3.6c0,-1.2 -0.1,-2.3 -0.1,-3.4c-0.1,-1.1 -0.1,-2.1 -0.2,-3c-0.1,-1.9 -0.4,-3.4 -0.6,-4.5c-0.1,-0.5 -0.2,-0.9 -0.3,-1.2c-0.1,-0.3 -0.2,-0.4 -0.2,-0.4c0,0 0.1,0.2 0,0.5z" fill="#466d8c"/><path d="M248.2,253.2c0.2,1.2 0.4,3 0.6,5c0.2,2 0.4,4.4 0.7,7c0.3,2.5 0.5,5.3 0.8,8c0.3,2.7 0.5,5.4 0.7,8c0.2,2.5 0.3,4.9 0.5,7c0.1,2.1 0.2,3.8 0.3,5c0.1,1.2 0.1,1.9 0.1,1.9c0,0 -0.1,-0.7 -0.2,-1.9c-0.2,-1.2 -0.4,-3 -0.6,-5c-0.2,-2 -0.4,-4.4 -0.7,-7c-0.3,-2.5 -0.5,-5.3 -0.8,-8c-0.3,-2.7 -0.5,-5.4 -0.7,-8c-0.2,-2.5 -0.3,-4.9 -0.5,-7c-0.1,-2.1 -0.2,-3.8 -0.3,-5c-0.1,-1.2 -0.1,-1.9 -0.1,-1.9c0,0 0.1,0.7 0.2,1.9z" fill="#466d8c"/></g><g><path d="M260.7,305.5l-0.1,4.1c-1.7,1.2 -4.6,1.2 -4.6,1.2v-1c-0.9,0 -5.3,1.8 -8.9,2.8c-3.6,1 -10,-0.5 -10,-0.5l-0.1,-1.3c3.3,-7.3 23.8,-5.3 23.7,-5.3z" fill="#17110b"/><path d="M250.6,285.5c0,0 3.4,3.7 10.1,-0.1c0,0 -0.3,13.9 -0.3,16.5c0,2.5 2,5.8 -2.9,6.6c-4.9,0.8 -7.4,3 -12.6,3.2c-5.2,0.2 -7.9,-0.9 -7.9,-0.9c0,0 -0.2,-3 1.9,-4.4c2.2,-1.4 8.9,-3.4 10.7,-6.2c1.8,-2.8 1,-14.7 1,-14.7z" fill="#4f3b26"/><path d="M237.3,309.4c0.1,-0.5 0.2,-1 0.4,-1.6c0.2,-0.6 0.7,-1.2 1.4,-1.6c0.6,-0.3 1.4,-0.6 2.2,-1c0.8,-0.3 1.6,-0.7 2.5,-1.1c1.7,-0.8 3.5,-1.7 4.9,-3.1c0.7,-0.7 1.2,-1.5 1.4,-2.4c0.1,-1 0.2,-2 0.3,-2.9c0.1,-1.9 0.2,-3.7 0.2,-5.2c0.1,-3.1 0.1,-5.1 0.1,-5.1c0,0 0.1,2.1 0.2,5.1c0,1.5 0,3.3 -0.1,5.2c-0.1,0.9 -0.1,1.9 -0.3,2.9c-0.2,1.1 -0.9,2 -1.6,2.7c-1.5,1.5 -3.4,2.4 -5.1,3.2c-1.7,0.9 -3.4,1.4 -4.8,2c-0.7,0.3 -1.1,0.9 -1.4,1.4c-0.3,0.5 -0.4,1.1 -0.5,1.5c-0.1,0.9 -0.1,1.4 -0.1,1.4c0,0 -0.1,-0.5 0.3,-1.4z" fill="#241b10"/><path d="M251.9,286.3c0.2,0.1 0.5,0.2 0.9,0.3c0.7,0.2 1.8,0.3 2.9,0.2c0.3,-0.1 0.5,0 0.8,-0.1c0.3,0 0.6,0 0.8,-0.1c0.2,0 0.5,-0.1 0.7,-0.1c0.2,-0.1 0.4,-0.1 0.6,-0.2c0.4,-0.1 0.8,-0.2 1,-0.3c0.3,-0.1 0.4,-0.1 0.4,-0.1c0,0 -0.1,0.1 -0.3,0.2c-0.2,0.1 -0.5,0.4 -0.9,0.5c-0.4,0.2 -0.9,0.4 -1.4,0.5c-0.2,0.1 -0.5,0.1 -0.8,0.2c-0.3,0.1 -0.6,0.1 -0.9,0.1c-0.6,0 -1.2,0 -1.7,-0.1c-0.5,-0.1 -1,-0.2 -1.4,-0.4c-0.8,-0.4 -1.2,-0.8 -1.2,-0.8c0,0 0.1,0.1 0.5,0.2z" fill="#241b10"/><path d="M260.6,291c0,1.1 0,2.3 0,3.7c0,1.4 0,2.8 0,4.3c0,0.8 0,1.5 0,2.2c0,0.8 0.1,1.4 0.2,2.1c0.2,1.4 0.3,2.7 -0.2,3.8c-0.3,0.5 -0.7,0.9 -1.1,1.1c-0.2,0 -0.4,0.1 -0.6,0.2c-0.2,0 -0.3,0.1 -0.5,0.1c-0.3,0.1 -0.5,0.1 -0.7,0.1c-0.2,0 -0.3,0 -0.3,0c0,0 0.1,0 0.3,0c0.1,-0.1 0.4,-0.1 0.7,-0.2c0.2,-0.1 0.3,-0.1 0.5,-0.2c0.1,-0.1 0.3,-0.2 0.5,-0.3c0.3,-0.3 0.7,-0.6 0.9,-1.1c0.4,-1 0.2,-2.3 0,-3.6c-0.1,-0.6 -0.2,-1.4 -0.2,-2.1c0,-0.7 0,-1.5 0,-2.2c0,-1.5 0.1,-2.9 0.1,-4.3c0.1,-1.3 0.2,-2.6 0.2,-3.7c0.1,-2.2 0.2,-3.6 0.2,-3.6c0,0 0,1.5 0,3.7z" fill="#241b10"/><path d="M242.5,305.2c0.3,0.1 0.7,0.3 1,0.6c0.3,0.3 0.6,0.6 0.7,0.9c0.1,0.3 0.2,0.5 0.2,0.5c0,0 -0.2,-0.1 -0.4,-0.3c-0.2,-0.2 -0.5,-0.4 -0.8,-0.7c-0.3,-0.2 -0.6,-0.5 -0.8,-0.7c-0.2,-0.2 -0.4,-0.3 -0.4,-0.3c0,0 0.2,-0.1 0.5,0z" fill="#241b10"/><path d="M246.8,303.1c0.3,0 0.8,0.2 1.1,0.5c0.3,0.3 0.6,0.7 0.7,1c0.2,0.3 0.2,0.5 0.2,0.5c0,0 0,0 -0.1,-0.1c-0.1,0 -0.2,-0.1 -0.3,-0.2c-0.3,-0.2 -0.6,-0.5 -0.9,-0.7c-0.3,-0.3 -0.7,-0.5 -0.9,-0.7c-0.2,-0.2 -0.4,-0.3 -0.4,-0.3c0,0 0.2,0 0.6,0z" fill="#241b10"/><path d="M249.9,300c0.3,0 0.7,0 1.1,0.2c0.2,0.1 0.3,0.2 0.5,0.3c0.2,0.2 0.3,0.3 0.4,0.4c0.2,0.2 0.3,0.4 0.3,0.4c0,0 0,0 -0.1,0c-0.1,0 -0.2,0 -0.3,-0.1c-0.2,-0.1 -0.6,-0.3 -0.9,-0.4c-0.2,-0.1 -0.3,-0.1 -0.5,-0.2c-0.1,-0.1 -0.3,-0.2 -0.4,-0.2c-0.2,-0.1 -0.4,-0.2 -0.4,-0.2c0,0 0.2,-0.1 0.3,-0.2z" fill="#241b10"/><path d="M251.1,295.3c0.3,0.1 0.7,0.1 1.1,0.1c0.2,0 0.4,0 0.6,0c0.2,0 0.3,0 0.5,0c0.3,0 0.5,0 0.5,0c0,0 -0.2,0.2 -0.5,0.3c-0.1,0.1 -0.3,0.2 -0.5,0.2c-0.2,0.1 -0.5,0.1 -0.7,0.1c-0.3,0 -0.5,0 -0.7,-0.1c-0.2,0 -0.4,-0.1 -0.5,-0.2c-0.3,-0.2 -0.4,-0.4 -0.4,-0.4c0,0 0.2,0 0.6,0z" fill="#241b10"/><path d="M251.2,289.7c0.1,0 0.3,0.1 0.5,0.1c0.2,0 0.4,0.1 0.6,0.1c0.4,0 0.8,0.1 1.1,0.1c0.3,0 0.5,0 0.5,0c0,0 0,0 -0.1,0.1c-0.1,0 -0.2,0.1 -0.4,0.2c-0.2,0 -0.4,0.1 -0.6,0.1c-0.2,0.1 -0.5,0 -0.7,0c-0.4,-0.1 -0.8,-0.3 -1.1,-0.5c-0.3,-0.2 -0.4,-0.4 -0.4,-0.4c0,0 0.2,0 0.6,0.2z" fill="#241b10"/><path d="M256.1,306.9c0,-0.4 0.1,-0.9 0.2,-1.4c0,-0.3 0.1,-0.5 0.2,-0.8c0,-0.3 0.2,-0.5 0.3,-0.8c0.3,-0.5 0.6,-1 1,-1.3c0.2,-0.1 0.4,-0.3 0.6,-0.4c0.2,-0.1 0.4,-0.2 0.6,-0.3c0.4,-0.1 0.8,-0.2 1,-0.2c0.3,0 0.4,0 0.4,0c0,0 -0.1,0 -0.3,0.1c-0.1,0.1 -0.3,0.1 -0.4,0.2c-0.2,0.1 -0.3,0.2 -0.5,0.3c-0.2,0.1 -0.3,0.3 -0.5,0.4c-0.2,0.2 -0.3,0.3 -0.5,0.5c-0.2,0.2 -0.3,0.4 -0.5,0.6c-0.1,0.2 -0.3,0.4 -0.4,0.6c-0.5,0.9 -0.8,1.9 -1,2.7c-0.2,0.8 -0.3,1.3 -0.3,1.3c0,0 -0.1,-0.5 0.1,-1.5z" fill="#241b10"/></g></g><g><path d="M252.1,249.7c-8.2,1.2 -10.9,-39.7 -8,-50.9c2.9,-11.1 15.6,-12.3 17.1,5.5c1.5,17.7 1.7,43.8 -9.1,45.4z" fill="#63b7ce"/><g><g fill="#3b8293"><path d="M247.8,233.9c-1.3,-0.3 -2.5,-0.7 -3.4,-1.1c-0.1,-0.6 -0.2,-1.3 -0.3,-1.9c0.9,0.5 2.3,1.1 4.1,1.5c3,0.6 7.6,0.8 13.3,-1.9c-0.1,0.6 -0.1,1.2 -0.2,1.8c-3.6,1.5 -6.8,2 -9.4,2c-1.6,0 -2.9,-0.2 -4.1,-0.4z"/><path d="M247.5,211.3c-2,-0.4 -3.5,-1 -4.6,-1.5c0.1,-0.6 0.1,-1.1 0.1,-1.7c1,0.5 2.6,1.2 4.9,1.7c3,0.6 7.7,0.8 13.5,-1.5c0,0.5 0.1,1 0.1,1.6c-3.6,1.4 -6.9,1.8 -9.6,1.8c-1.7,0 -3.1,-0.2 -4.4,-0.4z"/><path d="M246.1,194.2c0.3,-0.5 0.7,-0.9 1.1,-1.3c0.2,0.1 0.5,0.1 0.8,0.2c2.2,0.4 5.4,0.6 9.2,-0.2c0.4,0.4 0.8,0.9 1.1,1.4c-2.3,0.6 -4.4,0.8 -6.3,0.8c-1.7,0 -3.2,-0.1 -4.4,-0.4c-0.5,-0.1 -1,-0.2 -1.5,-0.5z"/><path d="M247.6,199.7c-1.4,-0.2 -2.6,-0.6 -3.5,-1c0.2,-0.5 0.3,-1 0.5,-1.5c0.9,0.4 2.1,0.7 3.4,1c2.7,0.6 6.7,0.8 11.7,-0.8c0.2,0.5 0.4,1 0.5,1.5c-3.1,1 -5.8,1.3 -8.2,1.3c-1.7,-0.1 -3.2,-0.2 -4.4,-0.5z"/><path d="M247.6,205.5c-1.8,-0.4 -3.2,-0.9 -4.3,-1.4c0.1,-0.6 0.1,-1.2 0.2,-1.7c1,0.5 2.5,1.1 4.5,1.5c2.9,0.6 7.4,0.8 13,-1.3c0.1,0.5 0.2,1 0.2,1.6c-3.5,1.2 -6.6,1.6 -9.2,1.6c-1.7,0 -3.2,-0.2 -4.4,-0.3z"/><path d="M247.8,239.6c-0.8,-0.2 -1.5,-0.5 -2.2,-0.7c-0.1,-0.6 -0.3,-1.3 -0.4,-1.9c0.9,0.4 1.9,0.7 3.1,1c2.8,0.6 7.2,0.8 12.5,-1.5c-0.1,0.7 -0.3,1.3 -0.4,1.9c-3.3,1.2 -6.1,1.6 -8.5,1.6c-1.6,0 -3,-0.2 -4.1,-0.4z"/><path d="M253.6,245.5c-2.5,0 -4.7,-0.4 -6.3,-0.8c-0.2,-0.6 -0.4,-1.2 -0.6,-1.8c2.3,0.6 7.3,1.6 12.2,0.3c-0.3,0.6 -0.6,1.2 -0.9,1.8c-1.5,0.3 -3,0.4 -4.4,0.5z"/><path d="M247.6,228.8c-1.6,-0.4 -2.8,-0.8 -3.8,-1.3c-0.1,-0.7 -0.1,-1.3 -0.2,-1.9c1,0.5 2.4,1.2 4.4,1.6c3.1,0.7 7.9,0.8 13.9,-2c0,0.6 -0.1,1.2 -0.1,1.8c-3.9,1.7 -7.3,2.2 -10.1,2.2c-1.6,0 -3,-0.2 -4.1,-0.4z"/><path d="M247.5,223.1c-1.7,-0.4 -3.1,-0.9 -4.2,-1.4c0,-0.6 -0.1,-1.2 -0.1,-1.8c1,0.5 2.6,1.2 4.7,1.6c3.1,0.6 8,0.8 14,-1.7c0,0.6 0,1.1 0,1.7c-3.8,1.5 -7.2,2 -10,2c-1.7,0 -3.2,-0.2 -4.4,-0.4z"/><path d="M247.3,216.9c-1.9,-0.4 -3.4,-1 -4.5,-1.5c0,-0.6 0,-1.2 0,-1.8c1,0.6 2.7,1.3 5,1.8c3.2,0.6 8,0.8 13.9,-1.6c0.1,0.6 0.1,1.1 0.1,1.7c-3.8,1.4 -7.1,1.9 -9.9,1.9c-1.7,0 -3.2,-0.2 -4.6,-0.5z"/></g><path d="M259.4,241.7c0.4,-1.1 0.8,-2.7 1.1,-4.6c0.2,-0.9 0.3,-2 0.5,-3.1c0.1,-1.1 0.3,-2.3 0.4,-3.5c0.1,-1.3 0.2,-2.5 0.3,-3.8c0.1,-1.3 0.1,-2.6 0.1,-3.9c0,-1.3 0,-2.6 0,-3.9c0,-1.3 0,-2.6 -0.1,-3.8c0,-1.2 0,-2.4 -0.1,-3.5c-0.1,-1.2 -0.1,-2.2 -0.2,-3.2c-0.1,-1.9 -0.2,-3.6 -0.3,-4.7c-0.1,-1.1 -0.1,-1.8 -0.1,-1.8c0,0 0.1,0.7 0.2,1.8c0.1,1.1 0.3,2.7 0.5,4.7c0.1,1 0.2,2.1 0.3,3.2c0.1,1.1 0.1,2.3 0.2,3.5c0.1,1.2 0.1,2.5 0.1,3.8c0,1.3 0,2.6 0,3.9c-0.1,1.3 -0.1,2.6 -0.2,3.9c-0.1,1.3 -0.2,2.6 -0.3,3.8c-0.1,1.2 -0.4,2.4 -0.5,3.5c-0.2,1.1 -0.4,2.1 -0.6,3.1c-0.1,1 -0.4,1.8 -0.6,2.6c-0.2,0.8 -0.4,1.5 -0.6,2c-0.4,1.1 -0.7,1.7 -0.7,1.7c0,0 0.2,-0.6 0.6,-1.7z" fill="#466d8c"/><path d="M244.2,198.2c0,0.3 -0.1,0.7 -0.2,1.3c-0.2,1.1 -0.3,2.8 -0.5,4.8c-0.2,2 -0.3,4.3 -0.3,6.8c0,1.3 0,2.6 0,3.9c0,1.3 0.1,2.7 0.1,4c0,1.4 0.1,2.7 0.2,4c0.2,1.3 0.3,2.6 0.4,3.8c0.1,1.3 0.3,2.5 0.4,3.6c0.2,1.1 0.4,2.2 0.5,3.2c0.1,1 0.2,1.9 0.4,2.7c0.2,0.8 0.3,1.5 0.4,2.1c0.2,1.1 0.3,1.8 0.3,1.8c0,0 -0.1,-0.7 -0.4,-1.8c-0.2,-0.6 -0.3,-1.3 -0.5,-2.1c-0.2,-0.8 -0.3,-1.7 -0.5,-2.7c-0.2,-1 -0.4,-2.1 -0.6,-3.2c-0.2,-1.2 -0.4,-2.4 -0.5,-3.6c-0.1,-1.2 -0.3,-2.5 -0.4,-3.8c-0.1,-1.3 -0.2,-2.7 -0.3,-4c0,-1.3 -0.1,-2.7 -0.1,-4c0,-1.3 0,-2.6 0,-3.9c0,-1.2 0.1,-2.5 0.2,-3.6c0.1,-1.1 0.2,-2.2 0.3,-3.2c0.2,-2 0.5,-3.7 0.7,-4.8c0.1,-0.5 0.2,-1 0.3,-1.3c0.1,-0.4 0.2,-0.5 0.2,-0.5c0,0 -0.1,0.1 -0.1,0.5z" fill="#466d8c"/></g></g></g><g data-paper-data="{&quot;index&quot;:null}"><g><g><path d="M233.8,237.5c5.4,9.5 -0.6,54.9 -0.6,54.9c-2.9,3.3 -6.7,0.8 -6.7,0.8l-4.5,-50.8c-0.3,-9.5 8.3,-11 11.8,-4.9z" fill="#63b7ce"/><g fill="#3b8293"><path d="M235.5,266.4c0,0.6 -0.1,1.2 -0.1,1.8c-2,0.8 -4.2,1.1 -6.1,1.1c-1.9,0 -3.7,-0.4 -5,-0.7l-0.1,-1.7c2.5,0.7 7.2,1.5 11.3,-0.5z"/><path d="M236,260.7c-0.1,0.6 -0.1,1.2 -0.1,1.8c-2.2,1 -4.4,1.3 -6.4,1.3c-2.2,0 -4.2,-0.4 -5.6,-0.8l-0.2,-1.7c2.4,0.7 7.6,1.8 12.3,-0.6z"/><path d="M225,234.8c1.6,-1.1 3.6,-1.2 5.4,-0.4c-1.5,0.3 -2.9,0.4 -4.2,0.4c-0.3,0 -0.7,0 -1.2,0z"/><path d="M229.3,274.1c-1.7,0 -3.3,-0.2 -4.6,-0.5l-0.1,-1.7c2.6,0.6 6.8,1.2 10.7,-0.6c0,0.6 -0.1,1.2 -0.1,1.8c-2,0.7 -4,1 -5.9,1z"/><path d="M229.4,279.6c-1.5,0 -2.9,-0.2 -4.1,-0.4l-0.1,-1.7c2.5,0.6 6.2,0.9 9.7,-0.5c-0.1,0.5 -0.1,1.1 -0.2,1.7c-1.8,0.6 -3.7,0.8 -5.3,0.9z"/><path d="M229.4,258.3c-2.4,0 -4.6,-0.4 -6.1,-0.8l-0.1,-1.7c2.6,0.7 7.9,1.8 12.8,-0.3c0,0.6 0,1.1 0,1.7c-2.2,0.9 -4.5,1.2 -6.6,1.1z"/><path d="M229.1,252.4c-2.6,0 -4.8,-0.4 -6.4,-0.8l-0.1,-1.7c2.7,0.7 8.2,1.7 13.2,-0.2c0,-1.4 -0.1,-2.7 -0.2,-3.9c-2.2,0.7 -4.4,0.9 -6.4,0.9c-2.8,0 -5.3,-0.5 -6.9,-0.9l-0.1,-1.7c2.4,0.7 8,1.9 13.3,0.1c0.3,2.2 0.4,4.6 0.5,7.2c-2.3,0.8 -4.7,1.1 -6.9,1z"/><path d="M227.9,240.1c-2.2,0 -4.2,-0.3 -5.7,-0.6c0.1,-0.5 0.2,-1 0.4,-1.5c2.8,0.6 7.2,1 11.3,-0.3c0.2,0.5 0.4,1 0.6,1.5c-2.2,0.7 -4.5,1 -6.6,0.9z"/></g><path d="M234.3,238.9c0.1,0.3 0.3,0.7 0.4,1.2c0.2,0.5 0.3,1.1 0.5,1.9c0.2,0.7 0.3,1.6 0.4,2.5c0.1,0.9 0.2,1.9 0.3,3c0.1,1.1 0.2,2.2 0.2,3.4c0.1,1.1 0.1,2.4 0.1,3.6c0,1.2 0,2.4 0,3.7c0,2.5 -0.2,5.1 -0.3,7.4c0,1.2 -0.1,2.3 -0.2,3.4c0,1 -0.1,2.1 -0.2,3c-0.2,1.9 -0.4,3.4 -0.5,4.5c-0.1,1.1 -0.2,1.7 -0.2,1.7c0,0 0.1,-2.5 0.3,-6.3c0.1,-1.9 0.2,-4.1 0.3,-6.4c0.1,-2.3 0.2,-4.8 0.2,-7.3c0.1,-1.2 0.1,-2.5 0.1,-3.7c0,-1.2 0,-2.4 0,-3.6c0,-1.2 -0.1,-2.3 -0.1,-3.4c-0.1,-1.1 -0.1,-2.1 -0.2,-3c-0.1,-1.9 -0.4,-3.4 -0.6,-4.5c-0.1,-0.5 -0.2,-0.9 -0.3,-1.2c-0.1,-0.3 -0.2,-0.4 -0.2,-0.4c0,0 0.1,0.2 0,0.5z" fill="#466d8c"/><path d="M222.5,248c0.2,1.2 0.4,3 0.6,5c0.2,2 0.4,4.4 0.7,7c0.3,2.5 0.5,5.3 0.8,8c0.3,2.7 0.5,5.4 0.7,8c0.2,2.5 0.3,4.9 0.5,7c0.1,2.1 0.2,3.8 0.3,5c0.1,1.2 0.1,1.9 0.1,1.9c0,0 -0.1,-0.7 -0.2,-1.9c-0.2,-1.2 -0.4,-3 -0.6,-5c-0.2,-2 -0.4,-4.4 -0.7,-7c-0.3,-2.5 -0.5,-5.3 -0.8,-8c-0.3,-2.7 -0.5,-5.4 -0.7,-8c-0.2,-2.5 -0.3,-4.9 -0.5,-7c-0.1,-2.1 -0.2,-3.8 -0.3,-5c-0.1,-1.2 -0.1,-1.9 -0.1,-1.9c0,0 0.1,0.7 0.2,1.9z" fill="#466d8c"/></g><g><path d="M235.1,300.3l-0.1,4.1c-1.7,1.2 -4.6,1.2 -4.6,1.2v-1c-0.9,0 -5.3,1.8 -8.9,2.8c-3.6,1 -10,-0.5 -10,-0.5l-0.1,-1.3c3.3,-7.4 23.7,-5.4 23.7,-5.3z" fill="#17110b"/><path d="M224.9,280.3c0,0 3.4,3.7 10.1,-0.1c0,0 -0.3,13.9 -0.3,16.5c0,2.5 2,5.8 -2.9,6.6c-4.9,0.7 -7.4,3 -12.6,3.2c-5.2,0.2 -7.9,-0.9 -7.9,-0.9c0,0 -0.2,-3 1.9,-4.4c2.1,-1.4 8.9,-3.4 10.7,-6.2c1.8,-2.8 1,-14.7 1,-14.7z" fill="#4f3b26"/><path d="M211.7,304.2c0.1,-0.5 0.2,-1 0.4,-1.6c0.2,-0.6 0.7,-1.2 1.4,-1.6c0.6,-0.3 1.4,-0.6 2.2,-1c0.8,-0.3 1.6,-0.7 2.5,-1.1c1.7,-0.8 3.5,-1.7 4.9,-3.1c0.7,-0.7 1.2,-1.5 1.4,-2.4c0.1,-1 0.2,-2 0.3,-2.9c0.1,-1.9 0.2,-3.7 0.2,-5.2c0.1,-3.1 0.1,-5.1 0.1,-5.1c0,0 0.1,2.1 0.2,5.1c0,1.5 0,3.3 -0.1,5.2c-0.1,0.9 -0.1,1.9 -0.3,2.9c-0.2,1.1 -0.9,2 -1.6,2.7c-1.5,1.5 -3.4,2.4 -5.1,3.2c-1.7,0.9 -3.4,1.4 -4.8,2c-0.7,0.3 -1.1,0.9 -1.4,1.4c-0.3,0.5 -0.4,1.1 -0.5,1.5c-0.1,0.9 -0.1,1.4 -0.1,1.4c0,0 -0.1,-0.5 0.3,-1.4z" fill="#241b10"/><path d="M226.2,281.1c0.2,0.1 0.5,0.2 0.9,0.3c0.7,0.2 1.8,0.3 2.9,0.2c0.3,-0.1 0.5,0 0.8,-0.1c0.3,0 0.6,0 0.8,-0.1c0.2,0 0.5,-0.1 0.7,-0.1c0.2,-0.1 0.4,-0.1 0.6,-0.2c0.4,-0.1 0.8,-0.2 1,-0.3c0.3,-0.1 0.4,-0.1 0.4,-0.1c0,0 -0.1,0.1 -0.3,0.2c-0.2,0.1 -0.5,0.4 -0.9,0.5c-0.4,0.2 -0.9,0.4 -1.4,0.5c-0.2,0.1 -0.5,0.1 -0.8,0.2c-0.3,0.1 -0.6,0.1 -0.9,0.1c-0.6,0 -1.2,0 -1.7,-0.1c-0.5,-0.1 -1,-0.2 -1.4,-0.4c-0.8,-0.4 -1.2,-0.8 -1.2,-0.8c0,0 0.2,0 0.5,0.2z" fill="#241b10"/><path d="M234.9,285.8c0,1.1 0,2.3 0,3.7c0,1.4 0,2.8 0,4.3c0,0.8 0,1.5 0,2.2c0,0.8 0.1,1.4 0.2,2.1c0.2,1.4 0.3,2.7 -0.2,3.8c-0.3,0.5 -0.7,0.9 -1.1,1.1c-0.2,0 -0.4,0.1 -0.6,0.2c-0.2,0 -0.3,0.1 -0.5,0.1c-0.3,0.1 -0.5,0.1 -0.7,0.1c-0.2,0 -0.3,0 -0.3,0c0,0 0.1,0 0.3,0c0.1,-0.1 0.4,-0.1 0.7,-0.2c0.2,-0.1 0.3,-0.1 0.5,-0.2c0.1,-0.1 0.3,-0.2 0.5,-0.3c0.3,-0.3 0.7,-0.6 0.9,-1.1c0.4,-1 0.2,-2.3 0,-3.6c-0.1,-0.6 -0.2,-1.4 -0.2,-2.1c0,-0.7 0,-1.5 0,-2.2c0,-1.5 0.1,-2.9 0.1,-4.3c0.1,-1.3 0.2,-2.6 0.2,-3.7c0.1,-2.2 0.2,-3.6 0.2,-3.6c0,0 0.1,1.5 0,3.7z" fill="#241b10"/><path d="M216.9,299.9c0.3,0.1 0.7,0.3 1,0.6c0.3,0.3 0.6,0.6 0.7,0.9c0.1,0.3 0.2,0.5 0.2,0.5c0,0 -0.2,-0.1 -0.4,-0.3c-0.2,-0.2 -0.5,-0.4 -0.8,-0.7c-0.3,-0.2 -0.6,-0.5 -0.8,-0.7c-0.2,-0.2 -0.4,-0.3 -0.4,-0.3c0,0 0.2,0 0.5,0z" fill="#241b10"/><path d="M221.1,297.9c0.3,0 0.8,0.2 1.1,0.5c0.3,0.3 0.6,0.7 0.7,1c0.2,0.3 0.2,0.5 0.2,0.5c0,0 0,0 -0.1,-0.1c-0.1,0 -0.2,-0.1 -0.3,-0.2c-0.3,-0.2 -0.6,-0.5 -0.9,-0.7c-0.3,-0.3 -0.7,-0.5 -0.9,-0.7c-0.2,-0.2 -0.4,-0.3 -0.4,-0.3c0,0 0.2,0 0.6,0z" fill="#241b10"/><path d="M224.3,294.8c0.3,0 0.7,0 1.1,0.2c0.2,0.1 0.3,0.2 0.5,0.3c0.2,0.2 0.3,0.3 0.4,0.4c0.2,0.2 0.3,0.4 0.3,0.4c0,0 0,0 -0.1,0c-0.1,0 -0.2,0 -0.3,-0.1c-0.2,-0.1 -0.6,-0.3 -0.9,-0.4c-0.2,-0.1 -0.3,-0.1 -0.5,-0.2c-0.1,-0.1 -0.3,-0.2 -0.4,-0.2c-0.2,-0.1 -0.4,-0.2 -0.4,-0.2c0,0 0.1,-0.1 0.3,-0.2z" fill="#241b10"/><path d="M225.5,290.1c0.3,0.1 0.7,0.1 1.1,0.1c0.2,0 0.4,0 0.6,0c0.2,0 0.3,0 0.5,0c0.3,0 0.5,0 0.5,0c0,0 -0.2,0.2 -0.5,0.3c-0.1,0.1 -0.3,0.2 -0.5,0.2c-0.2,0.1 -0.5,0.1 -0.7,0.1c-0.3,0 -0.5,0 -0.7,-0.1c-0.2,0 -0.4,-0.1 -0.5,-0.2c-0.3,-0.2 -0.4,-0.4 -0.4,-0.4c0,0 0.2,0 0.6,0z" fill="#241b10"/><path d="M225.6,284.5c0.1,0 0.3,0.1 0.5,0.1c0.2,0 0.4,0.1 0.6,0.1c0.4,0 0.8,0.1 1.1,0.1c0.3,0 0.5,0 0.5,0c0,0 0,0 -0.1,0.1c-0.1,0 -0.2,0.1 -0.4,0.2c-0.2,0 -0.4,0.1 -0.6,0.1c-0.2,0.1 -0.5,0 -0.7,0c-0.4,-0.1 -0.8,-0.3 -1.1,-0.5c-0.3,-0.2 -0.4,-0.4 -0.4,-0.4c0,0 0.2,0 0.6,0.2z" fill="#241b10"/><path d="M230.5,301.7c0,-0.4 0.1,-0.9 0.2,-1.4c0,-0.3 0.1,-0.5 0.2,-0.8c0,-0.3 0.2,-0.5 0.3,-0.8c0.3,-0.5 0.6,-1 1,-1.3c0.2,-0.1 0.4,-0.3 0.6,-0.4c0.2,-0.1 0.4,-0.2 0.6,-0.3c0.4,-0.1 0.8,-0.2 1,-0.2c0.3,0 0.4,0 0.4,0c0,0 -0.1,0 -0.3,0.1c-0.1,0.1 -0.3,0.1 -0.4,0.2c-0.2,0.1 -0.3,0.2 -0.5,0.3c-0.2,0.1 -0.3,0.3 -0.5,0.4c-0.2,0.2 -0.3,0.3 -0.5,0.5c-0.2,0.2 -0.3,0.4 -0.5,0.6c-0.1,0.2 -0.3,0.4 -0.4,0.6c-0.5,0.9 -0.8,1.9 -1,2.7c-0.2,0.8 -0.3,1.3 -0.3,1.3c0,0 -0.1,-0.5 0.1,-1.5z" fill="#241b10"/></g></g><g><path d="M226.4,244.4c-8.2,1.2 -10.9,-39.7 -8,-50.9c2.9,-11.1 15.6,-12.3 17.1,5.5c1.5,17.8 1.8,43.9 -9.1,45.4z" fill="#63b7ce"/><g><g fill="#3b8293"><path d="M222.2,228.7c-1.3,-0.3 -2.5,-0.7 -3.4,-1.1c-0.1,-0.6 -0.2,-1.3 -0.3,-1.9c0.9,0.5 2.3,1.1 4.1,1.5c3,0.6 7.6,0.8 13.3,-1.9c-0.1,0.6 -0.1,1.2 -0.2,1.8c-3.6,1.5 -6.8,2 -9.4,2c-1.6,0 -3,-0.2 -4.1,-0.4z"/><path d="M221.9,206.1c-2,-0.4 -3.5,-1 -4.6,-1.5c0.1,-0.6 0.1,-1.1 0.1,-1.7c1,0.5 2.6,1.2 4.9,1.7c3,0.6 7.7,0.8 13.5,-1.5c0,0.5 0.1,1 0.1,1.6c-3.6,1.4 -6.9,1.8 -9.6,1.8c-1.7,0 -3.2,-0.2 -4.4,-0.4z"/><path d="M220.5,189c0.3,-0.5 0.7,-0.9 1.1,-1.3c0.2,0.1 0.5,0.1 0.8,0.2c2.2,0.4 5.4,0.6 9.2,-0.2c0.4,0.4 0.8,0.9 1.1,1.4c-2.3,0.6 -4.4,0.8 -6.3,0.8c-1.7,0 -3.2,-0.1 -4.4,-0.4c-0.6,-0.1 -1.1,-0.2 -1.5,-0.5z"/><path d="M222,194.4c-1.4,-0.2 -2.6,-0.6 -3.5,-1c0.2,-0.5 0.3,-1 0.5,-1.5c0.9,0.4 2.1,0.7 3.4,1c2.7,0.6 6.7,0.8 11.7,-0.8c0.2,0.5 0.4,1 0.5,1.5c-3.1,1 -5.8,1.3 -8.2,1.3c-1.7,0 -3.2,-0.2 -4.4,-0.5z"/><path d="M221.9,200.3c-1.8,-0.4 -3.2,-0.9 -4.3,-1.4c0.1,-0.6 0.1,-1.2 0.2,-1.7c1,0.5 2.5,1.1 4.5,1.5c2.9,0.6 7.4,0.8 13,-1.3c0.1,0.5 0.2,1 0.2,1.6c-3.5,1.2 -6.6,1.6 -9.2,1.6c-1.7,0 -3.1,-0.2 -4.4,-0.3z"/><path d="M222.1,234.4c-0.8,-0.2 -1.5,-0.5 -2.2,-0.7c-0.1,-0.6 -0.3,-1.3 -0.4,-1.9c0.9,0.4 1.9,0.7 3.1,1c2.8,0.6 7.2,0.8 12.5,-1.5c-0.1,0.7 -0.3,1.3 -0.4,1.9c-3.3,1.2 -6.1,1.6 -8.5,1.6c-1.5,0 -2.9,-0.2 -4.1,-0.4z"/><path d="M227.9,240.3c-2.5,0 -4.7,-0.4 -6.3,-0.8c-0.2,-0.6 -0.4,-1.2 -0.6,-1.8c2.3,0.6 7.3,1.6 12.2,0.3c-0.3,0.6 -0.6,1.2 -0.9,1.8c-1.5,0.3 -3,0.4 -4.4,0.5z"/><path d="M221.9,223.6c-1.6,-0.4 -2.8,-0.8 -3.8,-1.3c-0.1,-0.7 -0.1,-1.3 -0.2,-1.9c1,0.5 2.4,1.2 4.4,1.6c3.1,0.7 7.9,0.8 13.9,-2c0,0.6 -0.1,1.2 -0.1,1.8c-3.9,1.7 -7.3,2.2 -10.1,2.2c-1.6,0 -2.9,-0.2 -4.1,-0.4z"/><path d="M221.8,217.9c-1.7,-0.4 -3.1,-0.9 -4.2,-1.4c0,-0.6 -0.1,-1.2 -0.1,-1.8c1,0.5 2.6,1.2 4.7,1.6c3.1,0.6 8,0.8 14,-1.7c0,0.6 0,1.1 0,1.7c-3.8,1.5 -7.2,2 -10,2c-1.7,0 -3.1,-0.2 -4.4,-0.4z"/><path d="M221.7,211.7c-1.9,-0.4 -3.4,-1 -4.5,-1.5c0,-0.6 0,-1.2 0,-1.8c1,0.6 2.7,1.3 5,1.8c3.2,0.6 8,0.8 13.9,-1.6c0.1,0.6 0.1,1.1 0.1,1.7c-3.8,1.4 -7.1,1.9 -9.9,1.9c-1.7,0 -3.2,-0.2 -4.6,-0.5z"/></g><path d="M233.7,236.5c0.4,-1.1 0.8,-2.7 1.1,-4.6c0.2,-0.9 0.3,-2 0.5,-3.1c0.1,-1.1 0.3,-2.3 0.4,-3.5c0.1,-1.3 0.2,-2.5 0.3,-3.8c0.1,-1.3 0.1,-2.6 0.1,-3.9c0,-1.3 0,-2.6 0,-3.9c0,-1.3 0,-2.6 -0.1,-3.8c0,-1.2 0,-2.4 -0.1,-3.5c-0.1,-1.2 -0.1,-2.2 -0.2,-3.2c-0.1,-1.9 -0.2,-3.6 -0.3,-4.7c-0.1,-1.1 -0.1,-1.8 -0.1,-1.8c0,0 0.1,0.7 0.2,1.8c0.1,1.1 0.3,2.7 0.5,4.7c0.1,1 0.2,2.1 0.3,3.2c0.1,1.1 0.1,2.3 0.2,3.5c0.1,1.2 0.1,2.5 0.1,3.8c0,1.3 0,2.6 0,3.9c-0.1,1.3 -0.1,2.6 -0.2,3.9c-0.1,1.3 -0.2,2.6 -0.3,3.8c-0.1,1.2 -0.4,2.4 -0.5,3.5c-0.2,1.1 -0.4,2.1 -0.6,3.1c-0.1,1 -0.4,1.8 -0.6,2.6c-0.2,0.8 -0.4,1.5 -0.6,2c-0.4,1.1 -0.7,1.7 -0.7,1.7c0,0 0.3,-0.6 0.6,-1.7z" fill="#466d8c"/><path d="M218.6,192.9c0,0.3 -0.1,0.7 -0.2,1.3c-0.2,1.1 -0.3,2.8 -0.5,4.8c-0.2,2 -0.3,4.3 -0.3,6.8c0,1.3 0,2.6 0,3.9c0,1.3 0.1,2.7 0.1,4c0,1.4 0.1,2.7 0.2,4c0.2,1.3 0.3,2.6 0.4,3.8c0.1,1.3 0.3,2.5 0.4,3.6c0.2,1.1 0.4,2.2 0.5,3.2c0.1,1 0.2,1.9 0.4,2.7c0.2,0.8 0.3,1.5 0.4,2.1c0.2,1.1 0.3,1.8 0.3,1.8c0,0 -0.1,-0.7 -0.4,-1.8c-0.2,-0.6 -0.3,-1.3 -0.5,-2.1c-0.2,-0.8 -0.3,-1.7 -0.5,-2.7c-0.2,-1 -0.4,-2.1 -0.6,-3.2c-0.2,-1.2 -0.4,-2.4 -0.5,-3.6c-0.1,-1.2 -0.3,-2.5 -0.4,-3.8c-0.1,-1.3 -0.2,-2.7 -0.3,-4c0,-1.3 -0.1,-2.7 -0.1,-4c0,-1.3 0,-2.6 0,-3.9c0,-1.2 0.1,-2.5 0.2,-3.6c0.1,-1.1 0.2,-2.2 0.3,-3.2c0.2,-2 0.5,-3.7 0.7,-4.8c0.1,-0.5 0.2,-1 0.3,-1.3c0.1,-0.4 0.2,-0.5 0.2,-0.5c0,0 -0.1,0.2 -0.1,0.5z" fill="#466d8c"/></g></g></g><g data-paper-data="{&quot;index&quot;:null}"><g><path d="M248.1,162.9c28.3,14.3 35.2,91.9 35.2,91.9c-46.7,25 -86.6,-2 -86.6,-2c2,-22.3 11.5,-73.1 28,-89.5c6.8,-6.8 18.5,-2.8 23.4,-0.4z" fill="#714fab"/><path d="M222.9,165.3c-0.2,0.2 -0.5,0.7 -0.9,1.2c-0.4,0.6 -0.8,1.2 -1.3,2c-0.5,0.7 -1,1.6 -1.6,2.6c-0.6,1 -1.2,2 -1.8,3.2c-0.6,1.1 -1.2,2.3 -1.8,3.6c-0.6,1.3 -1.2,2.6 -1.8,4c-0.6,1.4 -1.2,2.8 -1.7,4.2c-0.6,1.4 -1.1,2.8 -1.6,4.2c-0.5,1.4 -0.9,2.8 -1.4,4.1c-0.5,1.4 -0.9,2.7 -1.3,3.9c-0.4,1.2 -0.8,2.4 -1.1,3.5c-0.3,1.1 -0.7,2.1 -0.9,3c-0.3,0.9 -0.5,1.7 -0.7,2.3c-0.4,1.3 -0.6,2 -0.6,2c0,0 0.2,-0.7 0.5,-2c0.1,-0.6 0.3,-1.4 0.5,-2.3c0.2,-0.9 0.5,-1.9 0.8,-3c0.3,-1.1 0.6,-2.3 1,-3.5c0.4,-1.2 0.7,-2.6 1.2,-3.9c0.4,-1.3 0.9,-2.7 1.4,-4.1c0.5,-1.4 1,-2.8 1.6,-4.2c0.6,-1.4 1.2,-2.8 1.8,-4.2c0.5,-1.4 1.2,-2.7 1.8,-4c0.6,-1.2 1.3,-2.5 1.9,-3.6c0.7,-1.2 1.3,-2.2 1.9,-3.2c0.6,-1 1.2,-1.8 1.7,-2.6c0.5,-0.7 1,-1.4 1.4,-1.9c0.4,-0.5 0.8,-0.9 1,-1.2c0.2,-0.3 0.3,-0.4 0.3,-0.4c0,0 -0.1,0.1 -0.3,0.3z" fill="#3b2b78"/><path d="M251.5,164.6c0.4,0.3 0.9,0.7 1.6,1.2c0.4,0.2 0.7,0.6 1.1,0.9c0.4,0.3 0.8,0.7 1.2,1.1c0.9,0.8 1.8,1.8 2.7,2.9c0.4,0.6 0.9,1.2 1.4,1.8c0.5,0.6 0.9,1.2 1.4,1.9c0.5,0.7 0.9,1.4 1.4,2.1c0.5,0.8 1,1.5 1.4,2.3c0.5,0.8 0.9,1.6 1.4,2.4c0.5,0.8 0.9,1.7 1.3,2.5c0.9,1.7 1.6,3.5 2.4,5.2c0.7,1.7 1.4,3.5 2.1,5.3c0.6,1.7 1.2,3.5 1.8,5.2c0.5,1.8 1,3.4 1.5,5c0.5,1.6 0.8,3.1 1.2,4.5c0.3,1.4 0.7,2.7 0.9,3.8c0.3,1.2 0.5,2.2 0.7,3c0.4,1.7 0.6,2.6 0.6,2.6c0,0 -0.3,-1 -0.7,-2.6c-0.2,-0.8 -0.5,-1.8 -0.8,-2.9c-0.3,-1.2 -0.7,-2.4 -1.1,-3.8c-0.4,-1.3 -0.8,-2.8 -1.3,-4.4c-0.5,-1.5 -1,-3.2 -1.6,-4.9c-0.6,-1.7 -1.3,-3.4 -1.9,-5.2c-0.7,-1.8 -1.4,-3.5 -2.2,-5.3c-0.8,-1.8 -1.5,-3.5 -2.4,-5.2c-0.5,-0.8 -0.9,-1.7 -1.3,-2.5c-0.4,-0.8 -0.9,-1.6 -1.3,-2.4c-0.5,-0.8 -1,-1.6 -1.4,-2.3c-0.5,-0.7 -0.9,-1.4 -1.4,-2.1c-0.5,-0.7 -0.9,-1.4 -1.4,-2c-0.5,-0.6 -1,-1.2 -1.4,-1.8c-0.9,-1.1 -1.8,-2.1 -2.6,-2.9c-0.4,-0.5 -0.8,-0.9 -1.2,-1.2c-0.4,-0.3 -0.7,-0.6 -1,-0.9c-0.6,-0.5 -1.1,-0.9 -1.5,-1.2c-0.4,-0.3 -0.6,-0.4 -0.6,-0.4c0,0 0.2,0.2 1,0.3z" fill="#3b2b78"/><path d="M251.2,167.8c0.6,0.6 1.3,1.2 1.9,2c0.7,0.7 1.3,1.6 1.9,2.5c0.5,0.9 1,1.8 1.5,2.7c0.4,0.9 0.8,1.8 1.1,2.5c0.3,0.7 0.4,1.4 0.6,1.8c0.1,0.4 0.2,0.7 0.2,0.7c0,0 -0.1,-0.3 -0.3,-0.7c-0.2,-0.4 -0.4,-1 -0.8,-1.7c-0.4,-0.7 -0.8,-1.5 -1.3,-2.4c-0.5,-0.9 -1,-1.8 -1.6,-2.7c-0.6,-0.8 -1.2,-1.7 -1.8,-2.5c-0.6,-0.8 -1.2,-1.5 -1.7,-2.1c-0.5,-0.6 -1,-1.1 -1.3,-1.4c-0.3,-0.3 -0.5,-0.5 -0.5,-0.5c0,0 0.9,0.6 2.1,1.8z" fill="#3b2b78"/><path d="M230.5,173.5c-0.3,1.5 -0.7,3.3 -1.1,5.2c-0.3,1.9 -0.7,4 -1.1,6c-0.3,2 -0.7,4.1 -1,6c-0.1,1 -0.3,1.9 -0.4,2.8c-0.1,0.9 -0.2,1.7 -0.3,2.5c-0.1,1.5 -0.3,2.8 -0.4,3.7c-0.1,0.9 -0.2,1.4 -0.2,1.4c0,0 0,-0.5 0,-1.4c0,-1 0.1,-2.2 0.2,-3.8c0,-0.8 0.1,-1.6 0.2,-2.5c0,-0.9 0.2,-1.8 0.3,-2.8c0.3,-1.9 0.6,-4 1,-6c0.4,-2.1 0.8,-4.1 1.2,-6c0.5,-1.9 0.9,-3.7 1.3,-5.2c0.8,-3 1.4,-5 1.4,-5c0,0 -0.4,2 -1.1,5.1z" fill="#3b2b78"/><path d="M234.8,171.2c0,1 0,2.1 -0.1,3.3c0,1.2 -0.1,2.5 -0.2,3.8c-0.1,1.2 -0.2,2.5 -0.3,3.7c-0.1,1.2 -0.2,2.3 -0.3,3.3c-0.2,1.9 -0.4,3.2 -0.4,3.2c0,0 0,-1.3 0.1,-3.2c0,-1 0,-2.1 0.1,-3.3c0,-1.2 0.1,-2.5 0.2,-3.8c0.1,-1.2 0.2,-2.5 0.3,-3.7c0.1,-1.2 0.2,-2.3 0.3,-3.3c0.2,-1.9 0.4,-3.2 0.4,-3.2c0,0 0,1.2 -0.1,3.2z" fill="#3b2b78"/></g><path d="M200.2,254.7c1.1,0.6 2.4,1.3 4,2c1.5,0.8 3.3,1.5 5.3,2.3c2,0.7 4.2,1.5 6.5,2.2c2.3,0.7 4.8,1.3 7.4,1.9c2.5,0.6 5.2,1 8,1.4c2.8,0.3 5.6,0.6 8.4,0.6h2.1c0.7,0 1.4,0 2.1,0c1.4,0 2.8,-0.1 4.2,-0.2c2.8,-0.2 5.5,-0.5 8.1,-1c1.3,-0.1 2.6,-0.5 3.8,-0.7c1.2,-0.3 2.4,-0.6 3.6,-0.9c2.4,-0.5 4.6,-1.3 6.6,-1.9c1,-0.3 2,-0.7 2.9,-1c0.4,-0.2 0.9,-0.3 1.3,-0.5c0.4,-0.2 0.8,-0.3 1.2,-0.5c1.6,-0.7 3,-1.2 4.1,-1.8c2.2,-1.1 3.5,-1.7 3.5,-1.7c0,0 -1.3,0.7 -3.5,1.8c-1.1,0.6 -2.5,1.2 -4.1,1.9c-1.6,0.8 -3.4,1.4 -5.4,2.2c-2.1,0.6 -4.2,1.4 -6.6,2c-1.1,0.3 -2.3,0.6 -3.6,0.9c-1.2,0.3 -2.5,0.6 -3.8,0.8c-2.6,0.4 -5.3,0.8 -8.1,1c-1.4,0.1 -2.8,0.2 -4.2,0.2c-1.5,0 -2.9,0 -4.3,0c-2.9,0 -5.7,-0.3 -8.5,-0.6c-2.8,-0.4 -5.5,-0.8 -8.1,-1.4c-2.6,-0.6 -5.1,-1.3 -7.4,-2c-2.4,-0.7 -4.5,-1.5 -6.5,-2.3c-3.9,-1.6 -7.1,-3.3 -9.2,-4.5c-2.1,-1.3 -3.3,-2.1 -3.3,-2.1c0,0 1.2,0.8 3.5,1.9z" fill="#3b2b78"/></g><path d="M235.1,92.6c13.9,-5.6 15.7,26.9 15.7,26.9c-1.7,-2 -6.9,-4.4 -17.7,-4.4c-10.8,0.1 -10.1,2.7 -10.1,2.7c0,0 -1.8,-19.6 12.1,-25.2z" data-paper-data="{&quot;index&quot;:null}" fill="#211910"/><g data-paper-data="{&quot;index&quot;:null}"><path d="M243.6,109c0,0 -2,8.7 -0.1,10.9c2,2.2 9.8,5.9 9.8,5.9c0,0 -10.1,15.3 -20.6,8.3c-10.5,-7 -4.7,-11.1 -4.7,-11.1c0,0 6.1,-1 5.2,-8.2c0.1,0 4.9,-9.8 10.4,-5.8z" fill="#ffe9b8"/><g><path d="M232.9,119.1c-0.1,1.5 3.1,2.3 5.9,2.1c2.8,-0.3 4.6,-1.6 4.1,-3c0,0 4.9,5.5 11.9,6.9c6.9,1.4 2.5,13.7 -0.8,18.7c-3.4,5 -1,18.2 -4.5,21.9c-1.2,1.3 -2.3,0.8 -2.3,0.8c0,0 -1,1 -3.3,1.2c-4.4,0.4 -4.8,-1 -7.4,0c-4.4,1.6 -6.7,0.2 -6.7,0.2c0,0 -2.6,0.2 -3.6,-1c-0.3,-0.4 -0.9,-0.7 -0.9,-0.7c0,0 -0.9,0 -1.7,-1.4c-1.4,-2.4 0.2,-9.5 0.5,-16.5c0.2,-4.7 0.7,-9 -0.1,-11.4c-1.6,-5.4 -1.3,-13.1 1.6,-13.5c4.3,-0.7 7.3,-4.3 7.3,-4.3z" fill="#714fab"/><path d="M251.6,160.6c0.1,0.4 0.1,0.9 0,1.5c-0.1,0.5 -0.2,1.1 -0.4,1.7c-0.1,0.2 -0.3,0.5 -0.4,0.8c-0.1,0.2 -0.3,0.5 -0.5,0.7c-0.2,0.2 -0.4,0.4 -0.6,0.6c-0.3,0.2 -0.5,0.3 -0.7,0.4c-0.2,0.1 -0.4,0.2 -0.6,0.2c-0.2,0 -0.4,0 -0.5,0c-0.3,0 -0.4,0 -0.4,0c0,0 0.1,0 0.4,-0.1c0.1,0 0.2,0 0.4,-0.1c0.1,0 0.3,-0.1 0.5,-0.2c0.1,-0.1 0.3,-0.3 0.5,-0.4c0.2,-0.2 0.3,-0.4 0.5,-0.6c0.1,-0.2 0.3,-0.4 0.4,-0.7c0.1,-0.3 0.2,-0.5 0.3,-0.8c0.2,-0.5 0.3,-1.1 0.4,-1.6c0.1,-0.6 0.2,-1.1 0.2,-1.5c0.1,-0.9 0.1,-1.5 0.1,-1.5c0,0 0.1,0.6 0.4,1.6z" fill="#3b2b78"/><path d="M225,166c-0.2,0 -0.5,0 -0.9,-0.2c-0.4,-0.2 -0.7,-0.6 -1,-1.1c-0.3,-0.5 -0.5,-1.1 -0.6,-1.8c-0.2,-1.4 -0.2,-3 0,-4.7c0.1,-0.8 0.2,-1.7 0.3,-2.6c0.1,-0.9 0.2,-1.8 0.3,-2.7c0.2,-1.8 0.4,-3.6 0.5,-5.3c0.2,-1.7 0.3,-3.3 0.4,-4.7c0.1,-1.4 0.2,-2.5 0.2,-3.3c0,-0.8 0,-1.3 0,-1.3c0,0 0.1,0.5 0.1,1.3c0,0.8 0,1.9 0,3.3c-0.1,1.4 -0.1,3 -0.2,4.7c-0.1,1.8 -0.3,3.6 -0.4,5.4c-0.1,0.9 -0.2,1.8 -0.3,2.7c-0.1,0.9 -0.2,1.8 -0.3,2.6c-0.2,1.7 -0.4,3.3 -0.2,4.6c0,0.7 0.2,1.3 0.4,1.8c0.2,0.5 0.6,0.9 0.9,1.1c0.4,0.2 0.7,0.3 0.9,0.3c0.2,0 0.3,0 0.3,0c0,0 -0.1,0 -0.4,-0.1z" fill="#3b2b78"/><path d="M225.1,165.8c0.2,0.2 0.4,0.4 0.7,0.6c0.3,0.2 0.6,0.4 0.9,0.6c0.3,0.2 0.7,0.3 1,0.4c0.3,0.1 0.6,0.2 0.9,0.2c0.3,0.1 0.5,0.1 0.7,0.1c0.2,0 0.3,0 0.3,0c0,0 -0.1,0.1 -0.3,0.1c-0.2,0 -0.4,0.1 -0.7,0.1c-0.3,0.1 -0.6,0.1 -1,0c-0.4,-0.1 -0.7,-0.2 -1.1,-0.4c-0.7,-0.3 -1.2,-1 -1.5,-1.5c-0.2,-0.3 -0.2,-0.5 -0.3,-0.7c-0.1,-0.2 -0.1,-0.3 -0.1,-0.3c0,0 0.3,0.4 0.5,0.8z" fill="#3b2b78"/><path d="M226.9,165c0.3,0.6 0.9,1.3 1.8,2c0.9,0.7 2.1,1.2 3.5,1.1c0.7,0 1.4,-0.2 2.1,-0.4c0.7,-0.2 1.4,-0.5 2.2,-0.6c0.8,-0.1 1.6,-0.2 2.4,0c0.4,0.1 0.8,0.2 1.1,0.3c0.3,0.1 0.6,0.1 1,0.1c1.4,0 2.7,0 3.8,-0.2c0.6,-0.2 1,-0.4 1.4,-0.6c0.4,-0.2 0.7,-0.5 0.8,-0.8c0.1,-0.3 0.2,-0.5 0.2,-0.7c0,-0.2 0,-0.3 0,-0.3c0,0 0.1,0.4 -0.1,1c-0.1,0.3 -0.3,0.7 -0.7,1c-0.3,0.3 -0.8,0.5 -1.4,0.7c-1.1,0.4 -2.5,0.4 -3.9,0.4c-0.3,0 -0.7,0 -1.1,-0.1c-0.4,0 -0.8,-0.1 -1.1,-0.2c-0.7,-0.1 -1.4,-0.1 -2.1,0c-0.7,0.1 -1.4,0.4 -2.1,0.6c-0.7,0.3 -1.5,0.4 -2.2,0.4c-1.5,0 -2.8,-0.5 -3.7,-1.3c-0.9,-0.8 -1.4,-1.6 -1.7,-2.2c-0.3,-0.6 -0.4,-1 -0.4,-1c0,0 0.2,0.3 0.2,0.8z" fill="#3b2b78"/><path d="M242.9,118.8c0,0.2 0,0.7 -0.3,1.1c-0.1,0.2 -0.3,0.4 -0.5,0.6c-0.2,0.2 -0.4,0.4 -0.7,0.5c-0.3,0.1 -0.6,0.2 -0.9,0.3c-0.4,0.1 -0.7,0.2 -1,0.2c-0.7,0 -1.3,0 -1.9,0c-0.3,0 -0.6,-0.1 -0.9,-0.1c-0.3,0 -0.6,-0.1 -0.8,-0.1c-0.9,-0.2 -1.5,-0.4 -1.5,-0.4c0,0 0.7,0 1.6,0.1c0.5,0 1,0 1.6,0c0.6,0 1.2,0 1.8,-0.1c0.3,0 0.6,-0.1 0.9,-0.1c0.3,-0.1 0.5,-0.2 0.8,-0.3c0.3,-0.2 0.5,-0.2 0.7,-0.4c0.2,-0.2 0.4,-0.3 0.5,-0.5c0.3,-0.4 0.5,-0.7 0.5,-1c0.1,-0.2 0.1,-0.4 0.1,-0.4c0,0 0.1,0.1 0,0.6z" fill="#3b2b78"/><path d="M236.3,123c-0.1,1.3 -0.3,3.1 -0.5,4.8c-0.2,1.8 -0.5,3.5 -0.7,4.8c-0.1,0.7 -0.2,1.2 -0.3,1.6c-0.1,0.4 -0.1,0.6 -0.1,0.6c0,0 0,-0.2 0,-0.6c0,-0.4 0,-0.9 0,-1.6c0.1,-1.3 0.3,-3.1 0.5,-4.8c0.2,-1.8 0.5,-3.5 0.8,-4.8c0.3,-1.2 0.5,-2.1 0.5,-2.1c0,0 -0.1,0.9 -0.2,2.1z" fill="#3b2b78"/><path d="M245.8,120.5c0.6,0.4 1.4,1 2.3,1.6c0.5,0.3 0.9,0.5 1.3,0.8c0.4,0.3 0.8,0.5 1.1,0.7c0.3,0.2 0.6,0.3 0.8,0.4c0.2,0.1 0.3,0.2 0.3,0.2c0,0 -0.5,-0.1 -1.3,-0.3c-0.4,-0.1 -0.9,-0.3 -1.3,-0.5c-0.4,-0.2 -0.9,-0.5 -1.3,-0.8c-0.4,-0.3 -0.8,-0.6 -1.2,-0.9c-0.4,-0.3 -0.7,-0.6 -1,-0.9c-0.6,-0.6 -0.9,-1 -0.9,-1c0,0 0.4,0.2 1.2,0.7z" fill="#3b2b78"/><path d="M232.4,119.8c-0.2,0.2 -0.4,0.5 -0.7,0.7c-0.3,0.2 -0.6,0.5 -0.9,0.7c-0.4,0.2 -0.7,0.4 -1,0.6c-0.3,0.2 -0.6,0.3 -0.9,0.4c-0.6,0.2 -1,0.2 -1,0.2c0,0 0.1,0 0.2,-0.1c0.2,-0.1 0.4,-0.3 0.6,-0.4c0.3,-0.1 0.5,-0.3 0.8,-0.5c0.3,-0.2 0.6,-0.4 0.9,-0.6c0.6,-0.4 1.2,-0.9 1.7,-1.2c0.5,-0.3 0.8,-0.5 0.8,-0.5c0,0 -0.2,0.4 -0.5,0.7z" fill="#3b2b78"/><path d="M234.79469,124.40088c-0.55228,-0.00263 -0.99786,-0.45247 -0.99523,-1.00475c0.00263,-0.55228 0.45247,-0.99786 1.00475,-0.99523c0.55228,0.00263 0.99786,0.45247 0.99523,1.00475c-0.00263,0.55228 -0.45247,0.99786 -1.00475,0.99523z" fill="#9ea69a"/><path d="M234.09466,128.90085c-0.55228,-0.00263 -0.99786,-0.45247 -0.99523,-1.00475c0.00263,-0.55228 0.45247,-0.99786 1.00475,-0.99523c0.55228,0.00263 0.99786,0.45247 0.99523,1.00475c-0.00263,0.55228 -0.45247,0.99786 -1.00475,0.99523z" fill="#9ea69a"/><path d="M233.59467,132.70097c-0.55228,-0.00263 -0.99786,-0.45247 -0.99523,-1.00475c0.00263,-0.55228 0.45247,-0.99786 1.00475,-0.99523c0.55228,0.00263 0.99786,0.45247 0.99523,1.00475c-0.00263,0.55228 -0.45247,0.99786 -1.00475,0.99523z" fill="#9ea69a"/></g></g><g data-paper-data="{&quot;index&quot;:null}"><g><g><path d="M269.3,207.7c-0.2,2.5 -1.2,2.1 -1.2,2.1c-0.9,4.6 -2,2.4 -2,2.4c-0.8,1.5 -1.3,1 -1.4,-0.4c-0.1,-1.3 0.1,-3.6 0.1,-3.6c-0.4,1.9 -1.1,4.9 -1.7,4.7c-0.6,-0.1 -0.9,-2.3 -0.4,-3.5c0.6,-1.7 -0.6,-5.9 -0.6,-5.9c0,0 0.2,4.7 -1.5,4.4c-0.9,-0.1 0,-2.5 0,-5.5c-0.1,-4.4 2.1,-6.3 2.1,-6.3c6.8,-3.4 6.7,9.2 6.6,11.6z" fill="#ffe9b8"/><path d="M263.9,211.2c0.1,-0.3 0.1,-0.7 0.2,-1.2c0.1,-0.4 0.2,-0.9 0.2,-1.4c0.1,-0.4 0.1,-0.9 0.1,-1.4c0,-0.5 0,-0.9 0,-1.3c0,-0.4 0,-0.7 0,-0.9c0,-0.2 0,-0.3 0,-0.3c0,0 0,0.1 0.1,0.3c0.1,0.2 0.2,0.5 0.2,0.9c0,0.4 0.1,0.8 0.1,1.3c0.1,0.5 0,1 0,1.5c0,0.5 -0.1,1 -0.2,1.5c-0.1,0.4 -0.3,0.8 -0.4,1.2c-0.3,0.7 -0.6,1.1 -0.6,1.1c0,0 0.1,-0.5 0.3,-1.3z" fill="#bd875f"/><path d="M266.3,210.9c0.1,-0.7 0.2,-1.6 0.2,-2.5c0.1,-0.4 0.1,-0.9 0.1,-1.3c0,-0.4 0,-0.9 0,-1.2c0,-0.3 0,-0.6 0,-0.8c0,-0.2 0,-0.3 0,-0.3c0,0 0,0.1 0.1,0.3c0,0.2 0.1,0.4 0.2,0.8c0.2,0.7 0.3,1.6 0.2,2.6c-0.1,0.5 -0.1,1 -0.2,1.4c-0.1,0.5 -0.2,0.9 -0.3,1.2c-0.2,0.7 -0.5,1.1 -0.5,1.1c0,0 0.1,-0.4 0.2,-1.3z" fill="#bd875f"/><path d="M267.9,209c0,-0.5 0,-1.2 0,-1.9c0,-0.3 0,-0.7 0,-1c0.1,-0.3 0.1,-0.6 0.1,-0.9c0.1,-0.5 0.1,-0.9 0.1,-0.9c0,0 0.2,0.4 0.3,0.9c0.2,0.5 0.2,1.2 0.2,1.9c0,0.3 -0.1,0.7 -0.1,1c-0.1,0.3 -0.2,0.6 -0.2,0.9c-0.2,0.6 -0.3,0.9 -0.3,0.9c0,0 0,-0.4 -0.1,-0.9z" fill="#bd875f"/></g><path d="M261.9,197.1c-0.1,0.1 -0.2,0.4 -0.3,0.6c-0.1,0.3 -0.1,0.6 -0.2,0.9c-0.1,0.3 -0.1,0.6 -0.2,1c-0.1,0.7 -0.3,1.4 -0.4,1.9c-0.1,0.5 -0.2,0.9 -0.2,0.9c0,0 -0.1,-0.3 -0.1,-0.9c0,-0.2 0,-0.6 0,-0.9c0.1,-0.4 0.1,-0.7 0.2,-1.1c0.1,-0.7 0.4,-1.4 0.7,-1.9c0.2,-0.2 0.4,-0.4 0.5,-0.5c0.1,-0.1 0.2,-0.1 0.2,-0.1c0,0 -0.1,0 -0.2,0.1z" fill="#bd875f"/></g><g><g><path d="M264.6,162.5c2,2.1 3.3,15.5 2.9,23.3c-0.4,7.2 -0.6,10.9 -0.6,10.9c-1.6,0.9 -3.3,1.6 -4.8,0.2c0,0 -1.1,-8.1 -2.1,-12.5c-1.5,-6.9 -3.4,-17 -2.1,-21.5c0.7,-2.2 4.3,-2.9 6.7,-0.4z" fill="#714fab"/><path d="M257.8,169.1c0.1,1 0.2,2.2 0.4,3.5c0.2,1.3 0.4,2.6 0.6,4c0.1,1.4 0.4,2.7 0.6,4c0.2,1.3 0.4,2.5 0.6,3.5c0.4,2.1 0.7,3.4 0.7,3.4c0,0 -0.1,-0.3 -0.3,-0.9c-0.2,-0.6 -0.4,-1.4 -0.7,-2.4c-0.1,-0.5 -0.3,-1 -0.4,-1.6c-0.1,-0.6 -0.3,-1.2 -0.4,-1.8c-0.2,-1.3 -0.5,-2.6 -0.7,-4c-0.2,-1.3 -0.4,-2.7 -0.5,-4c-0.1,-1.3 -0.1,-2.5 -0.2,-3.5c-0.1,-2 0,-3.4 0,-3.4c0,0 0.1,1.3 0.3,3.2z" fill="#3b2b78"/></g><path d="M267,191.7c0.1,-1.3 0.2,-3 0.2,-4.7c0,-1.7 0.1,-3.6 0,-5.4c0,-1.8 -0.1,-3.7 -0.2,-5.4c-0.1,-1.7 -0.3,-3.3 -0.4,-4.7c-0.1,-0.7 -0.1,-1.3 -0.2,-1.9c-0.1,-0.5 -0.1,-1 -0.2,-1.4c0,-0.8 -0.1,-1.3 -0.1,-1.3c0,0 0.1,0.4 0.3,1.2c0.2,0.8 0.4,1.9 0.6,3.3c0.1,0.7 0.2,1.4 0.3,2.2c0.1,0.8 0.1,1.6 0.2,2.5c0.2,1.7 0.3,3.5 0.3,5.4c0,1.9 0,3.8 -0.1,5.5c0,1.7 -0.2,3.3 -0.3,4.7c-0.1,1.3 -0.3,2.5 -0.4,3.3c-0.1,0.8 -0.2,1.3 -0.2,1.3c0,0 0.2,-1.8 0.2,-4.6z" fill="#3b2b78"/></g><g><path d="M250.7,141.2c-0.6,-4.2 -1.6,-21.8 7.1,-14.1c8.4,7.4 10.6,43.9 4.3,41.9c-6.3,-2.1 -10,-18.4 -11.4,-27.8z" fill="#714fab"/><path d="M250.8,138c0.2,1 0.3,2.1 0.5,3.4c0.2,1.2 0.4,2.6 0.6,3.9c0.2,1.3 0.4,2.7 0.7,3.9c0.3,1.3 0.5,2.4 0.7,3.4c0.2,1 0.4,1.8 0.5,2.4c0.1,0.6 0.2,0.9 0.2,0.9c0,0 -0.1,-0.3 -0.3,-0.9c-0.2,-0.5 -0.5,-1.3 -0.8,-2.3c-0.3,-1 -0.6,-2.2 -0.9,-3.4c-0.3,-1.2 -0.6,-2.6 -0.8,-3.9c-0.2,-1.3 -0.3,-2.6 -0.5,-3.9c-0.2,-1.3 -0.2,-2.5 -0.3,-3.5c-0.1,-2 -0.1,-3.4 -0.1,-3.4c0,0 0.1,1.4 0.5,3.4z" fill="#3b2b78"/><path d="M253.9,125.3c0.2,0 0.6,0 1.1,0.1c0.5,0.1 1,0.3 1.6,0.7c0.3,0.1 0.6,0.4 0.9,0.6c0.4,0.2 0.6,0.5 0.9,0.8c0.6,0.6 1,1.3 1.6,2.1c0.2,0.4 0.5,0.9 0.7,1.3c0.2,0.3 0.3,0.5 0.4,0.7c0.1,0.2 0.2,0.5 0.3,0.7c0.4,1 0.8,2 1.1,3c0.3,1 0.7,2 0.9,3.1c0.2,1.1 0.5,2.1 0.7,3.2c0.1,1 0.3,2.1 0.5,3.1c0.2,1 0.3,2 0.4,2.9c0.1,0.9 0.2,1.8 0.3,2.6c0.2,3.2 0.3,5.4 0.3,5.4c0,0 -0.2,-2.2 -0.6,-5.4c-0.1,-0.8 -0.3,-1.7 -0.4,-2.6c-0.1,-0.9 -0.2,-1.9 -0.4,-2.9c-0.2,-1 -0.4,-2.1 -0.6,-3.1c-0.1,-1 -0.5,-2 -0.7,-3.1c-0.2,-1.1 -0.6,-2.1 -0.9,-3.1c-0.3,-1 -0.7,-2 -1.1,-2.9c-0.1,-0.2 -0.2,-0.5 -0.3,-0.7c-0.1,-0.3 -0.2,-0.5 -0.3,-0.7c-0.2,-0.5 -0.4,-0.9 -0.6,-1.3c-0.5,-0.7 -0.9,-1.5 -1.5,-2.1c-0.3,-0.3 -0.5,-0.6 -0.8,-0.8c-0.3,-0.3 -0.5,-0.5 -0.8,-0.7c-0.5,-0.4 -1.1,-0.7 -1.5,-0.8c-0.5,-0.2 -0.8,-0.2 -1.1,-0.2c-0.3,0 -0.4,0 -0.4,0c0,0 0.2,-0.1 0.3,0.1z" fill="#3b2b78"/></g></g><g data-paper-data="{&quot;index&quot;:null}"><g><path d="M247.6,122c27.8,4.1 26,45.6 26,45.6c-3.3,10.2 -35,7.3 -35,7.3c-0.5,-20.5 -3.9,-46 -3.9,-46l2.9,-9.4c6.5,-3.6 10.2,-4 10.2,-4z" fill="#122f42"/><path d="M226.4,115.8c0,0 2,0.2 7.1,3.9l1.3,9.6c0,0 -6.5,25.8 -8.3,45.9c0,0 -16.8,-0.5 -21.2,-7.2c0,0 2.3,-41.4 21.7,-45.8z" fill="#122f42"/><g><path d="M232,129.7c0.1,-0.2 0.2,-0.4 0.3,-0.6c0.3,-0.3 0.6,-0.6 0.9,-0.9l0.2,-0.1l0.1,0.1c0.2,0.2 0.5,0.3 0.7,0.4c0.3,0.1 0.5,0.2 0.8,0.2c0.3,0 0.6,0 0.8,-0.1c0.1,-0.1 0.2,-0.1 0.3,-0.2l0.1,-0.1l0.1,-0.1v-0.1h0.3c0.3,0.1 0.7,0.2 1,0.4c0.1,0.1 0.3,0.2 0.4,0.4c0.1,0.2 0.1,0.5 0.1,0.7c-0.1,0.2 -0.2,0.4 -0.3,0.5c-0.1,0.2 -0.2,0.3 -0.4,0.4c-0.3,0.2 -0.7,0.3 -1,0.4c-0.7,0.1 -1.4,0.1 -2.1,0c-0.3,-0.1 -0.7,-0.1 -1,-0.2c-0.2,0 -0.3,0 -0.5,-0.1c-0.2,0 -0.4,-0.1 -0.5,-0.2c-0.3,-0.1 -0.4,-0.5 -0.3,-0.8zM232.7,130.4c0.2,0.1 0.3,0.2 0.5,0.2c0.3,0.1 0.7,0.2 1,0.2c0.7,0 1.4,0 2,-0.1c0.3,-0.1 0.6,-0.2 0.9,-0.4c0.1,-0.1 0.2,-0.2 0.3,-0.3c0.1,-0.2 0.2,-0.3 0.2,-0.4c0,-0.3 -0.1,-0.5 -0.4,-0.6c-0.3,-0.2 -0.6,-0.2 -0.9,-0.3l0.3,-0.1c-0.1,0.1 -0.1,0.2 -0.2,0.2c-0.1,0 -0.1,0.1 -0.2,0.1c-0.2,0 -0.3,0.1 -0.5,0.1c-0.3,0 -0.6,0 -0.9,0c-0.6,0 -1.1,-0.2 -1.7,-0.4h0.3c-0.3,0.3 -0.6,0.5 -0.8,0.8c-0.1,0.1 -0.2,0.3 -0.2,0.4c0,0.1 0,0.2 0.1,0.3c0.2,0.1 0.3,0.2 0.2,0.3z" fill="#141b30"/><g><path d="M232.89365,130.50095c-0.66274,-0.00316 -1.19744,-0.54297 -1.19429,-1.20571c0.00316,-0.66274 0.54297,-1.19744 1.20571,-1.19429c0.66274,0.00316 1.19744,0.54297 1.19429,1.20571c-0.00316,0.66274 -0.54297,1.19744 -1.20571,1.19429z" fill="#b5aec4"/><path d="M232.1,129.4c-0.1,-0.2 -0.1,-0.5 0.1,-0.8c0.2,-0.3 0.6,-0.3 0.8,-0.3c0.3,0.1 0.4,0.1 0.4,0.1c0,0 -0.2,0 -0.4,0c-0.1,0 -0.2,0.1 -0.3,0.1c-0.1,0 -0.2,0.1 -0.3,0.2c-0.2,0.2 -0.2,0.5 -0.2,0.7c0,0.3 0,0.4 0,0.4c0,0 -0.1,-0.1 -0.1,-0.4z" fill="#ffffff"/><path d="M233.8,129.2c0.1,0.2 0.1,0.5 -0.1,0.8c-0.2,0.3 -0.6,0.3 -0.8,0.3c-0.3,-0.1 -0.4,-0.1 -0.4,-0.1c0,0 0.2,0 0.4,0c0.1,0 0.2,-0.1 0.3,-0.1c0.1,0 0.2,-0.1 0.3,-0.2c0.2,-0.2 0.2,-0.5 0.2,-0.7c0,-0.3 0,-0.4 0,-0.4c0,0 0.1,0.1 0.1,0.4z" fill="#ffffff"/></g><g><path d="M237.19375,130.50092c-0.66274,-0.00316 -1.19744,-0.54297 -1.19429,-1.20571c0.00316,-0.66274 0.54297,-1.19744 1.20571,-1.19429c0.66274,0.00316 1.19744,0.54297 1.19429,1.20571c-0.00316,0.66274 -0.54297,1.19744 -1.20571,1.19429z" fill="#b5aec4"/><path d="M236.4,129.4c-0.1,-0.2 -0.1,-0.5 0.1,-0.8c0.2,-0.3 0.6,-0.3 0.8,-0.3c0.3,0.1 0.4,0.1 0.4,0.1c0,0 -0.2,0 -0.4,0c-0.1,0 -0.2,0.1 -0.3,0.1c-0.1,0 -0.2,0.1 -0.3,0.2c-0.2,0.2 -0.2,0.5 -0.2,0.7c0,0.3 0,0.4 0,0.4c0,0 -0.1,-0.1 -0.1,-0.4z" fill="#ffffff"/><path d="M238.1,129.2c0.1,0.2 0.1,0.5 -0.1,0.8c-0.2,0.3 -0.6,0.3 -0.8,0.3c-0.3,-0.1 -0.4,-0.1 -0.4,-0.1c0,0 0.2,0 0.4,0c0.1,0 0.2,-0.1 0.3,-0.1c0.1,0 0.2,-0.1 0.3,-0.2c0.2,-0.2 0.2,-0.5 0.2,-0.7c0,-0.3 0,-0.4 0,-0.4c0,0 0.1,0.1 0.1,0.4z" fill="#ffffff"/></g></g></g><path d="M250.4,122.7c1.5,0.3 3.6,1 6,2.3c1.2,0.6 2.4,1.4 3.6,2.4c1.2,1 2.4,2.1 3.5,3.4c1.1,1.3 2.2,2.7 3.1,4.2c0.9,1.5 1.7,3.1 2.5,4.7c0.3,0.8 0.7,1.7 1,2.5c0.2,0.8 0.5,1.7 0.8,2.5c0.2,0.8 0.5,1.7 0.7,2.5c0.2,0.8 0.4,1.7 0.6,2.5c0.3,1.7 0.6,3.3 0.8,4.8c0.2,1.5 0.3,3 0.4,4.3c0.2,1.4 0.2,2.6 0.2,3.7c0,1.1 0,2 0,2.8c0,1.6 0,2.5 0,2.5c0,0 0,-0.9 -0.1,-2.5c0,-0.8 0,-1.7 -0.1,-2.8c-0.1,-1 -0.1,-2.3 -0.3,-3.6c-0.1,-1.4 -0.3,-2.8 -0.5,-4.3c-0.2,-1.5 -0.6,-3.1 -0.9,-4.7c-0.2,-0.8 -0.4,-1.7 -0.6,-2.5c-0.2,-0.8 -0.5,-1.7 -0.7,-2.5c-0.3,-0.8 -0.6,-1.7 -0.9,-2.5c-0.3,-0.9 -0.7,-1.7 -1,-2.5c-0.7,-1.6 -1.5,-3.2 -2.4,-4.7c-0.9,-1.6 -2,-2.9 -3,-4.2c-1.1,-1.3 -2.2,-2.4 -3.4,-3.4c-1.2,-1 -2.4,-1.8 -3.5,-2.5c-2.3,-1.3 -4.4,-2.1 -5.9,-2.5c-1.5,-0.4 -2.4,-0.5 -2.4,-0.5c0,0 0.8,0 2.5,0.6z" fill="#141b30"/><path d="M235.1,133.6c0.2,1.2 0.4,2.9 0.7,4.9c0.2,2 0.5,4.4 0.8,6.9c0.2,2.5 0.5,5.2 0.8,7.9c0.2,2.7 0.4,5.4 0.6,7.9c0.2,2.5 0.3,4.9 0.4,6.9c0.1,2 0.1,3.7 0.1,4.9c0,1.2 0,1.9 0,1.9c0,0 -0.1,-0.7 -0.1,-1.9c0,-1.2 -0.2,-2.9 -0.3,-4.9c-0.1,-2 -0.3,-4.4 -0.5,-6.9c-0.2,-2.5 -0.4,-5.2 -0.7,-7.9c-1,-10.8 -2,-21.6 -2,-21.6c0,0 0.1,0.7 0.2,1.9z" fill="#141b30"/><path d="M226.7,173.5c0.1,-1.1 0.3,-2.8 0.5,-4.8c0.2,-2 0.5,-4.3 0.9,-6.8c0.3,-2.5 0.8,-5.2 1.2,-7.8c0.4,-2.6 0.9,-5.2 1.4,-7.7c0.5,-2.5 1,-4.7 1.5,-6.7c0.4,-2 0.9,-3.6 1.2,-4.7c0.3,-1.2 0.5,-1.8 0.5,-1.8c0,0 -0.1,0.7 -0.4,1.8c-0.3,1.1 -0.6,2.7 -1,4.7c-0.4,1.9 -0.8,4.2 -1.3,6.7c-0.5,2.4 -1,5.1 -1.4,7.7c-0.5,2.6 -0.9,5.2 -1.3,7.7c-0.4,2.5 -0.8,4.8 -1.1,6.8c-0.3,2 -0.5,3.6 -0.7,4.8c-0.1,1.1 -0.2,1.8 -0.2,1.8c0,0 0.1,-0.7 0.2,-1.7z" fill="#141b30"/><path d="M205.4,165.6c0.1,-1.4 0.3,-3.5 0.6,-6c0.3,-2.4 0.7,-5.3 1.4,-8.4c0.4,-1.5 0.8,-3.1 1.2,-4.7c0.4,-1.6 0.9,-3.2 1.5,-4.8c0.6,-1.5 1.2,-3.1 1.9,-4.6c0.7,-1.5 1.5,-3 2.3,-4.3c0.4,-0.6 0.8,-1.3 1.3,-1.9c0.4,-0.7 0.8,-1.2 1.3,-1.8c0.9,-1.1 1.9,-2.1 2.8,-2.9c0.4,-0.4 0.9,-0.8 1.4,-1.1c0.3,-0.2 0.5,-0.3 0.7,-0.5c0.3,-0.1 0.5,-0.3 0.7,-0.4c0.8,-0.5 1.6,-0.9 2.3,-1.2c0.7,-0.3 1.2,-0.5 1.6,-0.6c0.4,-0.1 0.6,-0.2 0.6,-0.2c0,0 -0.2,0.1 -0.6,0.2c-0.4,0.2 -1,0.4 -1.6,0.7c-0.7,0.3 -1.5,0.7 -2.3,1.3c-0.2,0.1 -0.4,0.3 -0.6,0.4c-0.2,0.1 -0.4,0.3 -0.6,0.5c-0.5,0.4 -1,0.8 -1.4,1.2c-0.9,0.9 -1.8,1.9 -2.7,3c-0.5,0.6 -0.9,1.2 -1.3,1.8c-0.4,0.6 -0.8,1.2 -1.2,1.9c-0.8,1.3 -1.5,2.7 -2.2,4.2c-0.6,1.5 -1.2,3 -1.8,4.6c-0.5,1.5 -1.1,3.1 -1.5,4.7c-0.5,1.6 -0.8,3.2 -1.2,4.7c-0.7,3.1 -1.2,5.9 -1.6,8.4c-0.4,2.5 -0.7,4.5 -0.8,6c-0.1,1.5 -0.2,2.3 -0.2,2.3c0,0 0,-0.9 0,-2.5z" fill="#141b30"/><path d="M227.9,124.1c0.5,0.4 1.1,1 1.7,1.6c0.3,0.3 0.6,0.6 0.9,0.8c0.3,0.2 0.6,0.4 0.9,0.6c0.3,0.1 0.5,0.2 0.7,0.3c0.2,0.1 0.3,0.1 0.3,0.1c0,0 -0.1,0 -0.3,0c-0.2,-0.1 -0.5,-0.1 -0.8,-0.2c-0.3,-0.1 -0.6,-0.3 -1,-0.5c-0.3,-0.2 -0.7,-0.5 -1,-0.8c-0.7,-0.6 -1.2,-1.3 -1.6,-1.9c-0.3,-0.6 -0.5,-1 -0.5,-1c0,0 0.3,0.3 0.7,1z" fill="#141b30"/><path d="M246.7,124.1c-0.4,0.5 -0.9,1.2 -1.6,1.8c-0.4,0.3 -0.7,0.6 -1.1,0.8c-0.3,0.2 -0.7,0.4 -1,0.5c-0.3,0.1 -0.6,0.1 -0.8,0.1c-0.2,0 -0.3,0 -0.3,0c0,0 0.1,0 0.3,-0.1c0.2,0 0.4,-0.2 0.7,-0.3c0.3,-0.1 0.6,-0.4 0.9,-0.6c0.4,-0.3 0.7,-0.5 1,-0.8c0.6,-0.6 1.2,-1.1 1.7,-1.6c0.5,-0.5 0.8,-0.8 0.8,-0.8c0,0 -0.2,0.4 -0.6,1z" fill="#141b30"/></g><g data-paper-data="{&quot;index&quot;:null}"><path d="M235.9,82.8c15.8,1.2 34.8,12.6 34.2,13.9c-1.1,2.9 -30.4,0 -36.4,0c-6,0 -31,-5.3 -29.4,-7.8c2.2,-3.4 15.9,-7.3 31.6,-6.1z" fill="#0c252b"/><g><g><g><g><path d="M223.1,114.3c-2.1,5.3 1.5,7.3 1.5,7.3c-6.2,-0.7 -4.1,-11.5 -4.1,-11.5c-3.1,5.4 0.9,8.8 0.9,8.8c-4,-0.7 -3.9,-8.9 -1,-13c2.9,-4.1 2.2,-10.9 2,-16.5c0,0 6.7,8.8 0.7,24.9z" fill="#382a1b"/><path d="M223.7,121.5c-0.4,0 -1.2,-0.3 -1.8,-0.9c-0.7,-0.7 -1.2,-1.6 -1.5,-2.6c-0.1,-0.5 -0.2,-1 -0.3,-1.6c-0.1,-0.6 -0.2,-1.1 -0.2,-1.7c0,-1.1 0.1,-2.2 0.2,-3.3c0.2,-1 0.4,-2 0.7,-2.8c0.2,-0.8 0.6,-1.5 0.8,-1.9c0.1,-0.2 0.2,-0.4 0.3,-0.5c0.1,-0.1 0.1,-0.2 0.1,-0.2c0,0 -0.1,0.3 -0.2,0.7c-0.1,0.2 -0.2,0.5 -0.3,0.8c-0.1,0.3 -0.2,0.7 -0.3,1.1c-0.2,0.8 -0.4,1.8 -0.5,2.8c-0.1,1 -0.2,2.1 -0.1,3.2c0,0.5 0,1.1 0.1,1.6c0.1,0.6 0.2,1.1 0.3,1.6c0.3,0.9 0.7,1.8 1.2,2.4c0.5,0.6 1.1,1 1.6,1.1c0.4,0.2 0.7,0.2 0.7,0.2c0,0 -0.3,0.1 -0.8,0z" fill="#241b10"/><path d="M220,118.3c-0.5,-0.4 -1.1,-1.1 -1.5,-2.1c-0.2,-0.5 -0.3,-1.1 -0.4,-1.7c0,-0.6 0,-1.3 0,-1.9c0,-1.3 0.2,-2.7 0.7,-4.1c0.5,-1.3 1.4,-2.4 1.9,-3.6c0.5,-1.2 0.9,-2.3 1.2,-3.3c0.2,-1 0.4,-1.9 0.5,-2.5c0.1,-0.6 0.1,-1 0.1,-1c0,0 0,0.4 0,1c0,0.6 -0.1,1.5 -0.3,2.5c-0.3,1.1 -0.5,2.3 -1.1,3.5c-0.5,1.2 -1.4,2.3 -1.8,3.6c-0.5,1.2 -0.7,2.6 -0.8,3.9c-0.1,0.6 -0.1,1.2 -0.1,1.8c0,0.6 0.1,1.1 0.3,1.6c0.3,1 0.8,1.7 1.3,2.1c0.5,0.4 0.8,0.5 0.8,0.5c0,0 -0.3,0 -0.8,-0.3z" fill="#241b10"/></g><path d="M249.8,100.3c-1.8,5.8 -2.9,8.9 -5.8,11.8c-4.9,4.9 -12.2,6.1 -12.2,6.1c-12.2,-9.5 -8.1,-18.7 -8.1,-18.7c0,0 -2.5,-9.3 0.6,-14c9.5,-14.5 31,-3.7 25.5,14.8z" fill="#ffe9b8"/><path d="M237.48941,101.10055c-0.55228,-0.00263 -0.99551,-0.94496 -0.98999,-2.10476c0.00552,-1.1598 0.45771,-2.09787 1.00999,-2.09524c0.55228,0.00263 0.99551,0.94496 0.98999,2.10476c-0.00552,1.1598 -0.45771,2.09787 -1.00999,2.09524z" fill="#382a1b"/><path d="M227.48931,101.10054c-0.55228,-0.00263 -0.99551,-0.94496 -0.98999,-2.10476c0.00552,-1.1598 0.45771,-2.09787 1.00999,-2.09524c0.55228,0.00263 0.99551,0.94496 0.98999,2.10476c-0.00552,1.1598 -0.45771,2.09787 -1.00999,2.09524z" fill="#382a1b"/><path d="M227.1,95.3c2,-0.2 2.5,2.9 2.5,2.9c-2.9,-2.1 -4.5,-0.7 -4.5,-0.7c0,0 0,-2 2,-2.2z" fill="#ffc8a6"/><path d="M240.1,97.5c0,0 -1.5,-1.4 -4.5,0.7c0,0 0.6,-3.1 2.5,-2.9c1.9,0.2 2,2.2 2,2.2z" fill="#ffc8a6"/><path d="M229.1,98.1c-0.5,-0.2 -1.1,-0.6 -1.8,-0.7c-0.2,0 -0.3,-0.1 -0.5,-0.1c-0.2,0 -0.3,0 -0.5,0c-0.3,0 -0.6,0 -0.9,0.1c-0.2,0.1 -0.5,0.1 -0.6,0.2c-0.1,0.1 -0.2,0.1 -0.2,0.1c0.1,0 0.3,-0.3 0.8,-0.6c0.1,-0.1 0.2,-0.2 0.4,-0.2c0.1,0 0.3,-0.1 0.5,-0.1c0.4,0 0.8,0 1.2,0.1c0.4,0.1 0.8,0.2 1.1,0.4c0.3,0.2 0.6,0.4 0.8,0.6c0.4,0.4 0.6,0.7 0.6,0.7c0,0 -0.3,-0.2 -0.9,-0.5z" fill="#382a1b"/><path d="M235.7,97.8c0.2,-0.2 0.5,-0.4 0.8,-0.6c0.4,-0.2 0.7,-0.3 1.1,-0.4c0.4,0 0.8,-0.1 1.2,0c0.2,0 0.3,0 0.5,0.1c0.1,0.1 0.3,0.1 0.4,0.2c0.5,0.3 0.7,0.6 0.7,0.6c0,0 0,0 -0.2,-0.1c-0.1,-0.1 -0.3,-0.2 -0.6,-0.2c-0.3,-0.1 -0.6,-0.1 -0.9,-0.1c-0.2,0 -0.3,0 -0.5,0c-0.2,0 -0.3,0.1 -0.5,0.1c-0.7,0.1 -1.3,0.5 -1.8,0.7c-0.5,0.3 -0.8,0.5 -0.8,0.5c0,0 0.2,-0.3 0.6,-0.8z" fill="#382a1b"/><path d="M235.6,94.7c0.3,-0.2 0.7,-0.4 1.1,-0.6c0.4,-0.1 0.9,-0.2 1.4,-0.2c0.2,0 0.5,0.1 0.7,0.1c0.3,0 0.5,0.1 0.7,0.2c0.4,0.2 0.7,0.4 1,0.6c0.3,0.2 0.5,0.5 0.6,0.6c0.1,0.1 0.2,0.2 0.2,0.2c0,0 -0.1,0 -0.3,-0.1c-0.2,-0.1 -0.4,-0.3 -0.7,-0.4c-0.3,-0.1 -0.6,-0.3 -1,-0.4c-0.4,-0.1 -0.8,-0.2 -1.2,-0.2c-0.4,0 -0.8,0 -1.2,0.1c-0.3,0.1 -0.7,0.3 -1,0.4c-0.6,0.2 -1,0.5 -1,0.5c0,0 0.2,-0.4 0.7,-0.8z" fill="#382a1b"/><path d="M224.7,94.7c0.3,-0.2 0.7,-0.4 1.1,-0.6c0.4,-0.1 0.9,-0.2 1.4,-0.2c0.2,0 0.5,0.1 0.7,0.1c0.3,0 0.5,0.1 0.7,0.2c0.4,0.2 0.7,0.4 1,0.6c0.3,0.2 0.5,0.5 0.6,0.6c0.1,0.1 0.2,0.2 0.2,0.2c0,0 -0.1,0 -0.3,-0.1c-0.2,-0.1 -0.4,-0.3 -0.7,-0.4c-0.3,-0.1 -0.6,-0.3 -1,-0.4c-0.4,-0.1 -0.8,-0.2 -1.2,-0.2c-0.4,0 -0.8,0 -1.2,0.1c-0.3,0.1 -0.7,0.3 -1,0.4c-0.6,0.2 -1,0.5 -1,0.5c0,0 0.2,-0.4 0.7,-0.8z" fill="#382a1b"/><path d="M229.6,107.6c-0.2,-0.2 -0.4,-0.5 -0.5,-0.9c-0.1,-0.4 -0.1,-1 0,-1.5c0,-0.3 0.1,-0.6 0.2,-0.8c0.1,-0.3 0.2,-0.5 0.3,-0.8c0.8,-2.1 1.5,-4.1 1.5,-4.1c0,0 -0.6,2.1 -1.1,4.2c-0.2,0.5 -0.3,1 -0.4,1.5c0,0.5 0,0.9 0,1.3c0.1,0.8 0.3,1.3 0.3,1.3c0,0 -0.1,-0.1 -0.3,-0.2z" fill="#a16a51"/><path d="M231.7,107c0.1,0 0.3,0 0.4,0c0.1,0.1 0.2,0.3 0.2,0.5c0,0.2 -0.1,0.3 -0.1,0.3c0,0 -0.1,-0.1 -0.2,-0.1c-0.1,-0.1 -0.2,-0.1 -0.3,-0.2c-0.1,-0.1 -0.1,-0.2 -0.2,-0.3c-0.1,-0.1 -0.1,-0.2 -0.1,-0.2c0,0 0.2,0 0.3,0z" fill="#a16a51"/><path d="M229.9,111.6c0.8,0 1.8,0.1 2.8,0.1c0.5,0 1,0 1.5,0c0.5,-0.1 0.9,-0.1 1.3,-0.1c0.4,-0.1 0.7,-0.1 0.9,-0.1c0.3,0 0.4,0 0.4,0c0,0 -0.4,0.2 -1.2,0.4c-0.7,0.2 -1.8,0.4 -2.8,0.4c-0.5,0 -1,0 -1.5,-0.1c-0.5,-0.1 -0.9,-0.2 -1.3,-0.3c-0.8,-0.2 -1.2,-0.5 -1.2,-0.5c0,0 0.5,0.1 1.1,0.2z" fill="#a16a51"/><g><path d="M228.2,90.8c-0.7,-0.9 -0.4,-4 -0.4,-4c-0.5,1.5 -0.7,4 -0.7,4c-1.5,-3.2 0.5,-6.5 0.5,-6.5c-2.2,2.5 -1.8,7 -1.8,7c-2,0.1 -4.2,1.7 -4.2,1.7c-0.5,-5.2 1.3,-9.5 3.5,-11.8c4.9,-5.2 11,-3.4 11,-3.4c2.6,-0.8 8.9,-0.1 12.7,4.3c4.1,4.7 5.1,13.1 6.1,21.9c0.5,3.8 0.9,4.8 3.1,8.5c2.5,4.1 -1.1,6 -1.1,6c2.2,-2.7 -1.9,-7.2 -1.9,-7.2c0,0 1.9,7.2 -0.1,9.8c-2.1,2.6 -7.3,1.9 -7.3,1.9c3.4,-2 1.6,-10.3 1.6,-10.3c0.8,10 -4.3,10.3 -4.3,10.3c5.8,-1.4 1.3,-28 1.3,-28c-1.6,-1.4 -4.4,-2.2 -4.4,-2.2c0.9,-1.4 0.4,-4.9 0.4,-4.9c0.2,2.8 -1.5,4.4 -1.5,4.4c0.5,-2.1 -0.7,-5 -0.7,-5c0.5,2 -0.1,4.7 -0.1,4.7c-4.8,-1.3 -10.5,-1.3 -10.5,-1.3c-1.2,-3.9 0.7,-7.6 0.7,-7.6c-1.6,2.1 -1.7,7.7 -1.9,7.7z" fill="#382a1b"/><path d="M245.4,122.9c0.2,-0.1 0.5,-0.2 0.7,-0.4c0.3,-0.2 0.5,-0.4 0.8,-0.7c0.3,-0.3 0.5,-0.6 0.7,-1c0.2,-0.4 0.3,-0.9 0.5,-1.3c0.1,-0.5 0.3,-1 0.4,-1.5c0,-0.5 0.2,-1 0.2,-1.5c0.1,-0.6 0.2,-1.1 0.2,-1.6c0.1,-0.5 0.1,-1 0.1,-1.5c0,-0.5 0,-0.9 0,-1.4c0,-0.5 0,-0.9 0,-1.3c-0.1,-1.6 -0.1,-2.7 -0.1,-2.7c0,0 0.2,1 0.4,2.6c0,0.4 0.1,0.8 0.1,1.3c0,0.4 0.1,0.9 0.1,1.4c0,0.5 0,1 0,1.5c0,0.5 -0.1,1.1 -0.1,1.6c-0.1,0.6 -0.2,1.1 -0.3,1.6c-0.1,0.5 -0.3,1 -0.4,1.5c-0.2,0.4 -0.3,0.9 -0.6,1.3c-0.2,0.5 -0.5,0.8 -0.8,1.1c-0.3,0.3 -0.6,0.5 -0.9,0.7c-0.3,0.1 -0.6,0.2 -0.8,0.3c-0.2,0.1 -0.4,0.1 -0.5,0.1c-0.1,0 -0.2,0 -0.2,0c0,0 0.3,0 0.5,-0.1z" fill="#241b10"/><path d="M247.8,123.1c0.2,0 0.4,0 0.6,-0.1c0.2,0 0.4,-0.1 0.7,-0.2c0.1,-0.1 0.3,-0.1 0.4,-0.2c0.1,-0.1 0.3,-0.2 0.4,-0.3c0.2,-0.1 0.3,-0.2 0.4,-0.3c0.1,-0.1 0.2,-0.3 0.3,-0.4c0.1,-0.1 0.2,-0.2 0.3,-0.4l0.3,-0.5c0.2,-0.3 0.3,-0.7 0.4,-1c0.1,-0.4 0.2,-0.7 0.3,-1.1c0.1,-0.4 0.1,-0.8 0.2,-1.1c0.1,-0.7 0.1,-1.3 0.2,-1.9c0,-1.1 0.1,-1.9 0.1,-1.9c0,0 0.2,0.7 0.3,1.9c0,0.6 0.1,1.3 0,2c0,0.3 0,0.7 -0.1,1.1c-0.1,0.3 -0.2,0.7 -0.3,1.1c-0.2,0.4 -0.3,0.8 -0.5,1.1c-0.2,0.4 -0.4,0.7 -0.7,1c-0.1,0.2 -0.2,0.3 -0.4,0.4c-0.1,0.1 -0.2,0.2 -0.4,0.3c-0.1,0 -0.3,0.1 -0.4,0.2c-0.1,0.1 -0.3,0.2 -0.4,0.2c-0.3,0.1 -0.6,0.1 -0.8,0.1c-0.2,0 -0.4,0 -0.6,0c-0.3,0 -0.5,-0.1 -0.5,-0.1c0,0 0.2,0 0.2,0.1z" fill="#241b10"/><path d="M249.9,123c0.6,0 1.4,-0.1 2.3,-0.4c0.5,-0.2 1,-0.4 1.4,-0.7c0.5,-0.3 0.9,-0.7 1.2,-1.2c0.4,-0.4 0.6,-1 0.7,-1.6c0.1,-0.6 0.1,-1.3 0.1,-1.9c0,-1.2 -0.2,-2.5 -0.4,-3.7c-0.2,-1.2 -0.4,-2.3 -0.6,-3.3c-0.4,-1.9 -0.6,-3.2 -0.6,-3.2c0,0 0.4,1.2 0.9,3.2c0.5,1.9 1.2,4.5 1.3,7.1c0,0.7 -0.1,1.3 -0.2,2c-0.2,0.6 -0.4,1.3 -0.8,1.8c-0.3,0.5 -0.8,0.9 -1.3,1.2c-0.5,0.3 -1,0.5 -1.5,0.6c-1,0.2 -1.8,0.2 -2.4,0.2c-0.6,0 -0.9,-0.1 -0.9,-0.1c0,0 0.3,0 0.8,0z" fill="#241b10"/><path d="M236.7,77.8c0.4,-0.1 1,-0.2 1.7,-0.2c1.4,0 3.6,0.1 5.9,1.1c1.2,0.5 2.4,1.2 3.4,2.2c1,1 2,2.2 2.8,3.5c1.7,2.7 2.6,5.9 3.2,9.2c0.6,3.3 0.9,6.6 1.3,9.7c0.2,1.6 0.4,3.1 0.8,4.4c0.4,1.4 1,2.6 1.7,3.6c0.6,1.1 1.2,2.2 1.4,3.2c0.3,1 0,2 -0.4,2.6c-0.4,0.7 -0.9,1.1 -1.2,1.3c-0.3,0.2 -0.5,0.3 -0.5,0.3c0,0 0.2,-0.1 0.5,-0.4c0.3,-0.2 0.7,-0.7 1,-1.3c0.3,-0.6 0.5,-1.5 0.2,-2.4c-0.3,-0.9 -0.8,-1.9 -1.5,-2.9c-0.7,-1 -1.2,-2.3 -1.6,-3.7c-0.4,-1.4 -0.6,-2.9 -0.8,-4.5c-0.4,-3.1 -0.6,-6.4 -1.2,-9.7c-0.6,-3.3 -1.5,-6.5 -3.1,-9.2c-0.7,-1.3 -1.7,-2.5 -2.7,-3.5c-1.1,-1 -2.2,-1.8 -3.3,-2.3c-2.2,-1.1 -4.4,-1.2 -5.8,-1.2c-0.7,0 -1.3,0 -1.7,0.1c-0.4,0.1 -0.6,0.1 -0.6,0.1c0,0 0.2,-0.1 0.5,0z" fill="#241b10"/><path d="M247.3,106.8c-0.3,-2.1 -0.6,-4.9 -1,-7.7c-0.1,-1.4 -0.3,-2.8 -0.5,-4.1c-0.2,-1.3 -0.3,-2.6 -0.5,-3.6c-0.2,-1 -0.4,-1.9 -0.5,-2.5c-0.1,-0.6 -0.2,-0.9 -0.2,-0.9c0,0 0.1,0.3 0.3,0.9c0.2,0.6 0.4,1.5 0.7,2.5c0.6,2 1,4.8 1.4,7.6c0.2,0.7 0.2,1.4 0.3,2.1c0.1,0.7 0.1,1.3 0.2,2c0.2,1.3 0.2,2.5 0.3,3.6c0.1,1.1 0.1,2 0.1,2.6c0,0.6 0,1 0,1c0,0 -0.2,-1.4 -0.6,-3.5z" fill="#241b10"/><path d="M241.4,90.9c0.1,-0.4 0.3,-0.9 0.4,-1.4c0.1,-0.5 0.1,-1 0.1,-1.6c0,-0.2 0,-0.5 0,-0.8c0,-0.3 0,-0.5 -0.1,-0.8c0,-0.3 -0.1,-0.6 -0.1,-0.8c-0.1,-0.3 -0.2,-0.5 -0.2,-0.7c-0.1,-0.4 -0.2,-0.7 -0.3,-1c-0.1,-0.3 -0.1,-0.4 -0.1,-0.4c0,0 0.1,0.1 0.2,0.3c0.1,0.3 0.3,0.6 0.5,1c0.2,0.5 0.4,0.9 0.5,1.5c0.1,0.3 0.2,0.6 0.2,0.9c0.1,0.3 0.1,0.6 0.1,0.9c0,0.6 0,1.3 -0.2,1.8c-0.1,0.5 -0.4,1 -0.6,1.4c-0.5,0.8 -1,1.1 -1,1.1c0,0 0.3,-0.5 0.6,-1.4z" fill="#241b10"/><path d="M239.9,90.8c0,-0.7 0,-1.6 -0.1,-2.5c-0.1,-0.9 -0.2,-1.8 -0.3,-2.5c-0.1,-0.3 -0.1,-0.6 -0.2,-0.8c-0.1,-0.2 -0.1,-0.3 -0.1,-0.3c0,0 0.1,0.1 0.2,0.3c0.1,0.2 0.3,0.5 0.4,0.8c0.3,0.6 0.5,1.6 0.6,2.5c0,1 -0.1,1.9 -0.2,2.6c-0.1,0.7 -0.3,1.1 -0.3,1.1c0,0 0,-0.4 0,-1.2z" fill="#241b10"/><path d="M237.1,78.6c0.5,0.1 1.1,0.2 1.7,0.6c0.3,0.2 0.6,0.4 0.8,0.6c0.2,0.2 0.4,0.5 0.5,0.7c0.1,0.3 0.2,0.5 0.2,0.6c0.1,0.1 0.1,0.2 0.1,0.2c-0.1,0 -0.3,-0.3 -0.6,-0.6c-0.3,-0.3 -0.8,-0.7 -1.3,-1c-0.5,-0.4 -1.1,-0.6 -1.5,-0.8c-0.4,-0.2 -0.7,-0.3 -0.7,-0.3c0,0 0.3,-0.1 0.8,0z" fill="#241b10"/><path d="M231.4,89.3c0,-0.9 0,-2.1 0.1,-3.3c0.1,-0.6 0.1,-1.2 0.3,-1.8c0.1,-0.6 0.3,-1.1 0.5,-1.5c0.2,-0.5 0.4,-0.8 0.6,-1c0.2,-0.2 0.3,-0.3 0.3,-0.3c0,0 -0.1,0.2 -0.2,0.4c-0.1,0.2 -0.2,0.6 -0.3,1c-0.2,0.9 -0.4,2 -0.5,3.2c-0.1,1.2 -0.2,2.4 -0.3,3.3c-0.1,0.9 -0.2,1.5 -0.2,1.5c0,0 -0.1,-0.6 -0.3,-1.5z" fill="#241b10"/><path d="M228.4,89.4c0,-0.9 0.1,-2.1 0.4,-3.3c0.1,-0.6 0.3,-1.2 0.5,-1.7c0.2,-0.5 0.4,-1 0.7,-1.4c0.1,-0.2 0.3,-0.4 0.4,-0.5c0.1,-0.1 0.2,-0.2 0.3,-0.3c0.2,-0.2 0.3,-0.3 0.3,-0.3c0,0 0,0.1 -0.3,0.3c0,0.1 -0.1,0.2 -0.2,0.4c-0.1,0.1 -0.2,0.3 -0.3,0.5c-0.3,0.7 -0.6,1.9 -0.9,3c-0.2,1.2 -0.4,2.3 -0.6,3.2c-0.2,0.9 -0.3,1.5 -0.3,1.5c0,0 0,-0.6 0,-1.4z" fill="#241b10"/><path d="M226.6,89.6c-0.1,-0.4 -0.2,-1 -0.2,-1.5c0,-0.6 0.1,-1.1 0.2,-1.7c0.1,-0.3 0.2,-0.5 0.3,-0.8c0.2,-0.3 0.3,-0.6 0.4,-0.8c0.2,-0.5 0.5,-0.9 0.8,-1.2c0.2,-0.4 0.5,-0.6 0.7,-0.8c0.2,-0.2 0.3,-0.3 0.3,-0.3c0,0 -0.1,0.1 -0.2,0.3c-0.1,0.2 -0.3,0.5 -0.5,0.9c-0.1,0.2 -0.2,0.4 -0.3,0.6c-0.1,0.2 -0.2,0.5 -0.3,0.7c-0.1,0.2 -0.2,0.5 -0.3,0.7c-0.1,0.3 -0.1,0.5 -0.2,0.8c-0.2,0.6 -0.3,1.1 -0.3,1.6c-0.1,0.5 0,1 0,1.4c0.1,0.8 0.3,1.3 0.3,1.3c0,0 -0.4,-0.4 -0.7,-1.2z" fill="#241b10"/><path d="M223.4,90.7c-0.2,-0.7 -0.3,-1.5 -0.2,-2.4c0.1,-0.4 0.2,-0.8 0.3,-1.2c0.2,-0.4 0.3,-0.7 0.5,-1c0.1,-0.2 0.3,-0.4 0.4,-0.6c0.1,-0.1 0.2,-0.2 0.2,-0.2c0,0 0,0.1 -0.1,0.3c0,0.1 -0.1,0.4 -0.2,0.7c-0.1,0.6 -0.3,1.4 -0.4,2.2c-0.1,0.8 -0.1,1.6 -0.1,2.2c0,0.6 0.1,1 0.1,1c0,0 -0.2,-0.3 -0.5,-1z" fill="#241b10"/><path d="M221.4,91.7c0,-0.7 -0.1,-1.7 0,-2.8c0.1,-1.1 0.4,-2.5 0.9,-3.8c0.5,-1.4 1.3,-2.7 2.3,-3.9c0.5,-0.6 1,-1.1 1.6,-1.6c0.6,-0.5 1.2,-0.9 1.8,-1.3c1.3,-0.7 2.7,-1 3.8,-1.1c1.2,-0.1 2.1,0 2.8,0.1c0.6,0.1 1,0.2 1,0.2c0,0 -0.3,0 -1,0c-0.6,0 -1.6,0 -2.7,0.2c-1.1,0.2 -2.3,0.6 -3.5,1.3c-1.1,0.7 -2.3,1.8 -3.2,2.9c-1,1.1 -1.8,2.4 -2.3,3.7c-0.5,1.3 -0.8,2.6 -1,3.7c-0.3,2.2 -0.1,3.7 -0.1,3.7c0,0 -0.1,-0.4 -0.4,-1.3z" fill="#241b10"/><path d="M234,78.7c-0.7,0.1 -1.6,0.3 -2.5,0.7c-0.2,0.1 -0.4,0.2 -0.6,0.3c-0.2,0.1 -0.4,0.2 -0.6,0.3c-0.4,0.2 -0.8,0.4 -1.1,0.6c-0.4,0.1 -0.6,0.3 -0.8,0.4c-0.2,0.1 -0.3,0.2 -0.3,0.2c0,0 0.1,-0.1 0.2,-0.3c0.1,-0.1 0.3,-0.4 0.6,-0.6c0.5,-0.6 1.4,-1.1 2.3,-1.5c0.4,-0.2 0.9,-0.3 1.4,-0.4c0.5,-0.1 0.9,-0.1 1.3,-0.1c0.8,0.1 1.2,0.3 1.2,0.3c0,0 -0.5,0 -1.1,0.1z" fill="#241b10"/></g></g><path d="M234.1,117.5c0.7,-0.3 1.5,-0.6 2.3,-0.9c0.8,-0.4 1.7,-0.8 2.5,-1.2c0.4,-0.3 0.8,-0.5 1.2,-0.7c0.4,-0.2 0.8,-0.4 1.2,-0.7c0.4,-0.2 0.8,-0.5 1.1,-0.7c0.3,-0.2 0.6,-0.5 0.9,-0.7c0.2,-0.2 0.5,-0.4 0.7,-0.6c0.2,-0.2 0.3,-0.4 0.5,-0.5c0.3,-0.3 0.5,-0.5 0.5,-0.5c0,0 -0.2,0.2 -0.3,0.5c-0.2,0.3 -0.6,0.8 -1.1,1.3c-0.3,0.3 -0.6,0.5 -0.9,0.8c-0.3,0.3 -0.6,0.5 -1,0.8c-0.4,0.3 -0.8,0.5 -1.2,0.8c-0.4,0.2 -0.9,0.5 -1.3,0.7c-0.9,0.4 -1.8,0.8 -2.6,1.1c-0.9,0.3 -1.7,0.5 -2.4,0.7c-1.4,0.3 -2.4,0.4 -2.4,0.4c0,0 0.9,-0.2 2.3,-0.6z" fill="#bd875f"/></g><g><g><path d="M224.8,82c0,0 3.5,-14 20.4,-34c0,0 6.5,29.1 6.6,38.4c0,0 -2.6,-3.1 -12.7,-4.3c-3.9,-0.5 -10,-1.8 -14.3,-0.1z" fill="#122f42"/><path d="M251.4,83.4c-0.1,-1 -0.3,-2.5 -0.6,-4.2c-0.3,-1.7 -0.6,-3.7 -1,-5.9c-0.4,-2.2 -0.8,-4.5 -1.2,-6.8c-0.4,-2.3 -0.8,-4.6 -1.2,-6.8c-0.4,-2.2 -0.8,-4.2 -1.1,-5.9c-0.6,-3.5 -1.1,-5.8 -1.1,-5.8c0,0 0.7,2.3 1.5,5.7c0.4,1.7 0.9,3.7 1.3,5.9c0.4,2.2 0.9,4.5 1.3,6.8c0.4,2.3 0.8,4.6 1.1,6.8c0.3,2.2 0.6,4.3 0.8,6c0.2,1.7 0.3,3.2 0.4,4.2c0.1,1 0.1,1.6 0.1,1.6c0,0 0,-0.6 -0.3,-1.6z" fill="#141b30"/><path d="M225.6,79.4c0.4,-1 0.9,-2.4 1.6,-4.1c0.8,-1.6 1.6,-3.6 2.7,-5.6c0.5,-1 1.1,-2.1 1.7,-3.1c0.5,-1 1.2,-2.1 1.8,-3.1c1.3,-2 2.7,-4 4,-5.9c0.7,-0.9 1.4,-1.8 2,-2.6c0.7,-0.9 1.3,-1.6 1.9,-2.3c0.6,-0.7 1.1,-1.4 1.6,-1.9c0.5,-0.5 0.9,-1 1.3,-1.4c0.7,-0.8 1.1,-1.2 1.1,-1.2c0,0 -0.4,0.5 -1.1,1.3c-0.3,0.4 -0.7,0.9 -1.2,1.5c-0.5,0.6 -1,1.3 -1.6,2c-0.6,0.7 -1.2,1.4 -1.8,2.3c-0.6,0.9 -1.2,1.7 -1.9,2.7c-1.3,1.8 -2.6,3.8 -3.9,5.9c-0.7,1 -1.3,2.1 -1.9,3.1c-0.6,1.1 -1.2,2.1 -1.7,3.1c-1.1,2 -2,3.9 -2.8,5.5c-0.8,1.6 -1.4,3 -1.8,4c-0.4,1 -0.6,1.6 -0.6,1.6c0,0 0.2,-0.6 0.6,-1.8z" fill="#141b30"/></g><g><path d="M225.5,79.5c13.2,-1.5 25.9,3.2 25.9,3.2c0.6,1.2 0.3,2.3 0.3,2.3c0,0 -8,-2.5 -13.2,-3.3c-5.2,-0.8 -13.4,-0.6 -13.4,-0.6c-0.3,-0.9 0.5,-1.6 0.4,-1.6z" fill="#63b7ce"/><path d="M229.3,80.8c1.2,0.1 2.7,0.1 4.3,0.2c1.6,0.1 3.3,0.3 5,0.5c0.8,0.1 1.7,0.3 2.5,0.4c0.8,0.2 1.6,0.3 2.4,0.5c0.8,0.1 1.5,0.3 2.2,0.5c0.7,0.2 1.4,0.4 2,0.6c1.2,0.4 2.2,0.8 2.9,1c0.7,0.3 1.1,0.4 1.1,0.4c0,0 -0.4,-0.1 -1.1,-0.3c-0.4,-0.1 -0.8,-0.2 -1.3,-0.3c-0.5,-0.1 -1.1,-0.2 -1.7,-0.4c-0.6,-0.2 -1.3,-0.4 -2,-0.5c-0.7,-0.2 -1.4,-0.3 -2.2,-0.5c-1.6,-0.3 -3.2,-0.6 -4.9,-0.8c-1.7,-0.2 -3.3,-0.5 -4.9,-0.6c-1.6,-0.1 -3,-0.2 -4.3,-0.3c-2.5,-0.1 -4.2,-0.1 -4.2,-0.1c0,0 1.7,-0.2 4.2,-0.3z" fill="#466d8c"/><path d="M226.8,79.3c0.7,-0.1 1.8,-0.2 3,-0.3c1.2,-0.1 2.7,-0.1 4.2,-0.1c1.5,0.1 3.2,0.2 4.8,0.4c1.7,0.2 3.3,0.5 4.8,0.8c0.8,0.1 1.5,0.3 2.2,0.5c0.7,0.2 1.3,0.4 1.9,0.6c1.2,0.3 2.1,0.7 2.8,1c0.6,0.2 1,0.4 1,0.4c0,0 -0.4,-0.1 -1.1,-0.3c-0.3,-0.1 -0.7,-0.3 -1.2,-0.4c-0.5,-0.1 -1,-0.2 -1.6,-0.4c-0.6,-0.2 -1.2,-0.4 -1.9,-0.5c-0.7,-0.1 -1.4,-0.3 -2.2,-0.4c-1.6,-0.3 -3.2,-0.5 -4.8,-0.7c-1.6,-0.2 -3.3,-0.3 -4.8,-0.4c-1.5,0 -3,-0.1 -4.2,-0.1c-2.5,0 -4.1,0.1 -4.1,0.1c0,0 0.4,-0.1 1.2,-0.2z" fill="#466d8c"/></g><g><g><path d="M244.1,82.6c17.2,4.4 26,13.9 26,13.9c-6.1,-6.5 -31.7,-11.8 -34.3,-11.9c-28.7,-1.6 -31.5,4.3 -31.5,4.3c4.1,-5.9 22.6,-10.7 39.8,-6.3z" fill="#122f42"/><path d="M205.1,87.8c0.3,-0.3 0.7,-0.6 1.1,-1c0.4,-0.3 0.9,-0.7 1.5,-1.1c0.6,-0.4 1.2,-0.8 1.9,-1.2c0.7,-0.4 1.5,-0.8 2.3,-1.1c0.8,-0.3 1.6,-0.6 2.5,-0.9c0.4,-0.1 0.9,-0.3 1.3,-0.4l1.3,-0.3l1.4,-0.3c0.5,0 1,-0.1 1.4,-0.2c0.4,-0.1 0.9,-0.1 1.3,-0.2c0.4,0 0.9,-0.1 1.3,-0.1c0.9,-0.1 1.7,-0.2 2.5,-0.2c0.8,0 1.5,-0.1 2.2,-0.1c1.3,0 2.5,0.1 3.3,0.1c0.8,0.1 1.3,0.1 1.3,0.1c0,0 -0.5,0.1 -1.3,0.1c-0.8,0.1 -1.9,0.1 -3.3,0.2c-0.7,0.1 -1.4,0.1 -2.2,0.2c-0.8,0.1 -1.6,0.2 -2.5,0.3c-0.4,0.1 -0.9,0.1 -1.3,0.2c-0.4,0 -0.9,0.1 -1.3,0.2c-0.4,0 -0.9,0.1 -1.3,0.2l-1.3,0.3l-1.3,0.3c-0.4,0.1 -0.9,0.3 -1.3,0.4c-0.9,0.3 -1.7,0.6 -2.5,0.9c-0.8,0.3 -1.6,0.7 -2.3,1c-0.7,0.4 -1.3,0.7 -1.9,1.1c-0.6,0.3 -1.1,0.7 -1.6,1c-0.4,0.3 -0.8,0.6 -1.1,0.9c-0.6,0.5 -0.9,0.9 -0.9,0.9c0,0 0.2,-0.4 0.8,-1.3z" fill="#141b30"/><path d="M246,83c0.7,0.2 1.9,0.4 3.2,0.8c0.6,0.2 1.4,0.4 2.1,0.7c0.7,0.3 1.5,0.6 2.3,0.9c0.8,0.3 1.6,0.7 2.4,1.1c0.9,0.3 1.7,0.8 2.5,1.2c0.8,0.5 1.6,0.9 2.4,1.4c0.7,0.5 1.5,1 2.2,1.5c0.7,0.5 1.4,1 2,1.5c0.6,0.5 1.2,1 1.7,1.4c1.1,0.8 1.9,1.7 2.5,2.2c0.6,0.6 0.9,0.9 0.9,0.9c0,0 -0.4,-0.3 -1,-0.8c-0.3,-0.2 -0.7,-0.6 -1.1,-0.9c-0.4,-0.3 -1,-0.7 -1.5,-1.1c-0.6,-0.4 -1.1,-0.9 -1.8,-1.3c-0.6,-0.4 -1.3,-0.9 -2,-1.4c-0.7,-0.4 -1.4,-0.9 -2.2,-1.4c-0.8,-0.5 -1.6,-0.9 -2.4,-1.4c-0.8,-0.5 -1.6,-0.9 -2.4,-1.3c-0.8,-0.4 -1.6,-0.8 -2.4,-1.1c-0.8,-0.4 -1.6,-0.7 -2.3,-1c-0.8,-0.3 -1.5,-0.6 -2.1,-0.8c-1.3,-0.5 -2.4,-0.8 -3.2,-1c-0.7,-0.2 -1.2,-0.3 -1.2,-0.3c0,0 0.4,0 1.4,0.2z" fill="#141b30"/></g><path d="M211.8,85.7c1.4,-0.4 3.6,-0.8 6.2,-1.1c2.6,-0.3 5.6,-0.5 8.9,-0.5c3.3,0 6.8,0.2 10.3,0.6c3.5,0.5 6.9,1.2 10.1,2c3.2,0.9 6.1,1.8 8.6,2.6c2.5,0.8 4.5,1.7 5.9,2.3c1.4,0.6 2.2,1 2.2,1c0,0 -0.8,-0.3 -2.2,-0.9c-1.5,-0.6 -3.5,-1.3 -6,-2.1c-2.5,-0.8 -5.4,-1.6 -8.6,-2.4c-3.1,-0.8 -6.6,-1.5 -10,-1.9c-3.5,-0.4 -6.9,-0.7 -10.2,-0.7c-3.3,-0.1 -6.3,0.1 -8.9,0.3c-2.6,0.2 -4.8,0.5 -6.3,0.8c-1.5,0.3 -2.3,0.5 -2.3,0.6c-0.1,-0.1 0.8,-0.4 2.3,-0.6z" fill="#141b30"/></g></g></g></g></g></g></svg>