<svg version="1.1" xmlns="http://www.w3.org/2000/svg" xmlns:xlink="http://www.w3.org/1999/xlink" width="91.74375" height="264.94375" viewBox="0,0,91.74375,264.94375"><g transform="translate(-196.6,-48)"><g data-paper-data="{&quot;isPaintingLayer&quot;:true}" fill-rule="nonzero" stroke="none" stroke-width="1" stroke-linecap="butt" stroke-linejoin="miter" stroke-miterlimit="10" stroke-dasharray="" stroke-dashoffset="0" style="mix-blend-mode: normal"><g data-paper-data="{&quot;index&quot;:null}"><g><path d="M206.34375,202.7c-0.6,6.1 -2,4.5 -2,4.5c-1.6,2.4 -1.9,0 -1.9,0c-0.5,1.4 -1.4,0.8 -1.7,-0.4c-0.3,-1.3 0,-3.8 0,-3.8c-0.6,2.9 -0.9,4.6 -1.7,3.9c-0.5,-0.4 -0.3,-3.2 0,-4.5c0.2,-1.4 1.4,-5.6 1.4,-5.6c0,0 -2.3,4.2 -3.7,3.1c-0.7,-0.6 1.3,-2.2 2.9,-4.9c2.3,-3.9 5.2,-4.5 5.2,-4.5c7.8,0.6 1.7,9.6 1.5,12.2z" fill="#ffe9b8"/><path d="M203.94375,206.1c-0.1,-0.7 -0.1,-1.6 0,-2.5c0.2,-0.9 0.4,-1.8 0.6,-2.4c0.2,-0.6 0.4,-1 0.4,-1c0,0 0,0.4 -0.1,1.1c0,0.3 -0.1,0.7 -0.1,1.1c-0.1,0.4 -0.1,0.9 -0.2,1.3c-0.1,0.5 -0.1,0.9 -0.2,1.3c0,0.4 -0.1,0.8 -0.1,1.1c-0.1,0.7 -0.1,1.1 -0.1,1.1c0,0 -0.1,-0.4 -0.2,-1.1z" fill="#bd875f"/><path d="M201.84375,206.2c-0.1,-0.3 -0.1,-0.7 -0.1,-1.2c0,-0.4 0,-0.9 0.1,-1.4c0.1,-0.5 0.2,-1 0.3,-1.4c0.1,-0.5 0.3,-0.9 0.4,-1.2c0.3,-0.7 0.5,-1.1 0.5,-1.1c0,0 0,0.1 0,0.3c0,0.3 0,0.5 -0.1,0.9c-0.1,0.4 -0.1,0.8 -0.2,1.2c-0.1,0.5 -0.1,0.9 -0.2,1.4c-0.1,1 -0.2,1.9 -0.3,2.6c-0.1,0.7 -0.1,1.2 -0.1,1.2c0,0 -0.2,-0.5 -0.3,-1.3z" fill="#bd875f"/><path d="M200.24375,204c0,-0.2 0,-0.6 0,-0.9c0,-0.4 0.1,-0.7 0.1,-1.1c0.1,-0.8 0.3,-1.5 0.5,-2c0.2,-0.5 0.4,-0.8 0.4,-0.8c0,0 0,0.4 -0.1,0.9c0,0.3 -0.1,0.6 -0.1,0.9c0,0.3 -0.1,0.6 -0.1,1c-0.1,0.7 -0.3,1.4 -0.4,1.9c-0.1,0.5 -0.2,0.9 -0.2,0.9c0,0 -0.1,-0.3 -0.1,-0.8z" fill="#bd875f"/><path d="M203.54375,191.1c-0.1,0.1 -0.3,0.2 -0.5,0.4c-0.2,0.1 -0.5,0.4 -0.7,0.6c-0.2,0.3 -0.5,0.5 -0.7,0.8c-0.5,0.5 -1,1.1 -1.4,1.5c-0.4,0.4 -0.7,0.7 -0.7,0.7c0,0 0.1,-0.4 0.4,-0.9c0.1,-0.2 0.3,-0.5 0.5,-0.8c0.2,-0.3 0.4,-0.6 0.7,-0.9c0.5,-0.6 1.2,-1 1.7,-1.3c0.3,-0.1 0.5,-0.2 0.7,-0.2c0.2,0 0.3,0 0.3,0c0,0 -0.1,0 -0.3,0.1z" fill="#bd875f"/><path d="M201.14375,196.8c0.2,0 0.4,-0.1 0.7,-0.2c0.3,-0.1 0.5,-0.2 0.8,-0.3c0.2,-0.1 0.5,-0.3 0.7,-0.4c0.2,-0.2 0.4,-0.3 0.6,-0.5c0.1,-0.2 0.3,-0.3 0.4,-0.4c0.1,-0.1 0.2,-0.1 0.2,-0.1c0,0 0,0.1 -0.1,0.2c-0.1,0.1 -0.1,0.3 -0.3,0.5c-0.1,0.2 -0.3,0.4 -0.5,0.6c-0.2,0.2 -0.5,0.3 -0.8,0.5c-0.3,0.1 -0.6,0.3 -0.9,0.3c-0.3,0 -0.6,0 -0.8,0c-0.5,0 -0.8,-0.2 -0.8,-0.2c0,0 0.3,0 0.8,0z" fill="#bd875f"/></g><g><g><path d="M223.04375,161.8c0.8,2.8 -4.6,15.2 -8.7,21.8c-3.8,6.1 -5.8,9.3 -5.8,9.3c-1.8,0 -3.7,-0.1 -4.3,-2.1c0,0 2.9,-7.7 4.2,-12c2,-6.7 5.2,-16.5 8.5,-19.8c1.7,-1.6 5.2,-0.5 6.1,2.8z" fill="#714fab"/><path d="M213.74375,164.4c-0.4,1 -0.8,2.1 -1.3,3.3c-0.5,1.2 -0.9,2.5 -1.4,3.8c-0.4,1.3 -0.9,2.6 -1.3,3.8c-0.4,1.2 -0.8,2.3 -1.1,3.3c-0.6,2 -1,3.3 -1,3.3c0,0 0.1,-0.3 0.2,-0.9c0.1,-0.6 0.2,-1.4 0.5,-2.4c0.1,-0.5 0.2,-1 0.4,-1.6c0.1,-0.6 0.3,-1.2 0.5,-1.8c0.4,-1.2 0.8,-2.5 1.3,-3.8c0.5,-1.3 1,-2.6 1.5,-3.8c0.5,-1.2 1,-2.3 1.5,-3.2c0.9,-1.8 1.6,-3 1.6,-3c0,0 -0.6,1.2 -1.4,3z" fill="#3b2b78"/></g><path d="M211.34375,188.8c0.7,-1.2 1.5,-2.6 2.4,-4.1c0.9,-1.5 1.8,-3.2 2.6,-4.8c0.8,-1.6 1.7,-3.2 2.4,-4.8c0.8,-1.6 1.5,-3 2,-4.3c0.2,-0.6 0.5,-1.2 0.7,-1.7c0.2,-0.6 0.4,-1 0.5,-1.4c0.3,-0.8 0.5,-1.2 0.5,-1.2c0,0 -0.2,0.4 -0.4,1.2c-0.3,0.8 -0.6,1.9 -1.1,3.2c-0.2,0.7 -0.5,1.4 -0.8,2.1c-0.3,0.7 -0.6,1.5 -1,2.3c-0.7,1.6 -1.5,3.3 -2.4,4.9c-0.9,1.6 -1.8,3.2 -2.7,4.7c-0.9,1.5 -1.8,2.8 -2.6,4c-0.8,1.1 -1.5,2 -2,2.7c-0.5,0.6 -0.8,1 -0.8,1c0,0 1,-1.6 2.7,-3.8z" fill="#3b2b78"/></g><g><path d="M221.14375,136.5c1.5,-4 9.1,-19.9 13,-9c3.8,10.6 -11.9,43.5 -16.4,38.7c-4.6,-4.7 0,-20.8 3.4,-29.7z" fill="#714fab"/><path d="M222.64375,133.8c-0.3,0.9 -0.7,2 -1.2,3.2c-0.4,1.2 -0.9,2.4 -1.3,3.7c-0.5,1.2 -0.9,2.5 -1.3,3.7c-0.4,1.2 -0.7,2.3 -1,3.3c-0.3,0.9 -0.6,1.7 -0.7,2.3c-0.2,0.6 -0.3,0.9 -0.3,0.9c0,0 0,-0.3 0.1,-0.9c0.1,-0.6 0.3,-1.4 0.5,-2.4c0.2,-1 0.4,-2.2 0.8,-3.4c0.4,-1.2 0.8,-2.5 1.2,-3.8c0.4,-1.3 0.9,-2.5 1.4,-3.7c0.5,-1.2 1,-2.3 1.4,-3.2c0.9,-1.8 1.6,-3 1.6,-3c0,0 -0.5,1.3 -1.2,3.3z" fill="#3b2b78"/><path d="M231.64375,124c0.2,0.1 0.5,0.3 0.9,0.6c0.4,0.3 0.8,0.7 1.1,1.3c0.2,0.2 0.3,0.6 0.5,0.9c0.2,0.3 0.3,0.7 0.4,1.1c0.2,0.8 0.3,1.7 0.4,2.6c0,0.4 0,0.9 0,1.4c0,0.5 0,1 -0.1,1.5c-0.1,1 -0.2,2.1 -0.4,3.1c-0.1,1 -0.3,2.1 -0.6,3.1c-0.3,1.1 -0.5,2.1 -0.9,3.1c-0.4,1 -0.7,1.9 -1,2.9c-0.3,1 -0.7,1.8 -1,2.7c-0.4,0.9 -0.7,1.7 -1,2.4c-1.4,2.9 -2.3,4.8 -2.3,4.8c0,0 0.8,-1.9 2,-4.9c0.3,-0.7 0.6,-1.5 0.9,-2.4c0.3,-0.9 0.7,-1.8 1,-2.7c0.3,-0.9 0.6,-1.9 0.9,-2.9c0.3,-0.9 0.5,-2 0.8,-3c0.3,-1 0.5,-2.1 0.7,-3.1c0.2,-1 0.3,-2 0.4,-3c0.1,-0.2 0.1,-0.5 0.1,-0.7c0,-0.2 0,-0.5 0,-0.7c0,-0.5 0,-0.9 0,-1.4c-0.1,-0.9 -0.1,-1.7 -0.3,-2.5c-0.1,-0.4 -0.2,-0.8 -0.3,-1.1c-0.2,-0.3 -0.2,-0.6 -0.4,-0.9c-0.2,-0.6 -0.6,-1.1 -0.9,-1.4c-0.3,-0.4 -0.6,-0.6 -0.8,-0.7c-0.2,-0.2 -0.3,-0.2 -0.3,-0.2c0,0 0.1,0 0.2,0.1z" fill="#3b2b78"/></g></g><g data-paper-data="{&quot;index&quot;:null}"><g><g><path d="M264.44375,242.7c5.4,9.5 -0.6,54.9 -0.6,54.9c-2.9,3.3 -6.7,0.8 -6.7,0.8l-4.5,-50.8c-0.3,-9.5 8.3,-10.9 11.8,-4.9z" fill="#63b7ce"/><g fill="#3b8293"><path d="M266.14375,271.6c0,0.6 -0.1,1.2 -0.1,1.8c-2,0.8 -4.2,1.1 -6.1,1.1c-1.9,0 -3.7,-0.4 -5,-0.7l-0.1,-1.7c2.5,0.7 7.2,1.5 11.3,-0.5z"/><path d="M266.64375,265.9c-0.1,0.6 -0.1,1.2 -0.1,1.8c-2.2,1 -4.4,1.3 -6.4,1.3c-2.2,0 -4.2,-0.4 -5.6,-0.8l-0.2,-1.7c2.4,0.8 7.6,1.8 12.3,-0.6z"/><path d="M255.64375,240c1.6,-1.1 3.6,-1.2 5.4,-0.4c-1.5,0.3 -2.9,0.4 -4.2,0.4c-0.4,0 -0.7,0 -1.2,0z"/><path d="M259.84375,279.3c-1.7,0 -3.3,-0.2 -4.6,-0.5l-0.1,-1.7c2.6,0.6 6.8,1.2 10.7,-0.6c0,0.6 -0.1,1.2 -0.1,1.8c-1.9,0.7 -3.9,1 -5.9,1z"/><path d="M260.04375,284.8c-1.5,0 -2.9,-0.2 -4.1,-0.4l-0.1,-1.7c2.5,0.6 6.2,0.9 9.7,-0.5c-0.1,0.5 -0.1,1.1 -0.2,1.7c-1.9,0.6 -3.7,0.8 -5.3,0.9z"/><path d="M260.04375,263.6c-2.4,0 -4.6,-0.4 -6.1,-0.8l-0.1,-1.7c2.6,0.7 7.9,1.8 12.8,-0.3c0,0.6 0,1.1 0,1.7c-2.3,0.8 -4.5,1.1 -6.6,1.1z"/><path d="M259.74375,257.6c-2.6,0 -4.8,-0.4 -6.4,-0.8l-0.1,-1.7c2.7,0.7 8.2,1.7 13.2,-0.2c0,-1.4 -0.1,-2.7 -0.2,-3.9c-2.2,0.7 -4.4,0.9 -6.4,0.9c-2.8,0 -5.3,-0.5 -6.9,-0.9l-0.1,-1.7c2.4,0.7 8,1.9 13.3,0.1c0.3,2.2 0.4,4.6 0.5,7.2c-2.3,0.8 -4.7,1.1 -6.9,1z"/><path d="M258.54375,245.3c-2.2,0 -4.2,-0.3 -5.7,-0.6c0.1,-0.5 0.2,-1 0.4,-1.5c2.8,0.6 7.2,1 11.3,-0.3c0.2,0.5 0.4,1 0.6,1.5c-2.3,0.8 -4.5,1 -6.6,0.9z"/></g><path d="M264.94375,244.1c0.1,0.3 0.3,0.7 0.4,1.2c0.2,0.5 0.3,1.1 0.5,1.9c0.2,0.7 0.3,1.6 0.4,2.5c0.1,0.9 0.2,1.9 0.3,3c0.1,1.1 0.2,2.2 0.2,3.4c0.1,1.1 0.1,2.4 0.1,3.6c0,1.2 0,2.4 0,3.7c0,2.5 -0.2,5.1 -0.3,7.4c0,1.2 -0.1,2.3 -0.2,3.4c0,1 -0.1,2.1 -0.2,3c-0.2,1.9 -0.4,3.4 -0.5,4.5c-0.1,1.1 -0.2,1.7 -0.2,1.7c0,0 0.1,-2.5 0.3,-6.3c0.1,-1.9 0.2,-4.1 0.3,-6.4c0.1,-2.3 0.2,-4.8 0.2,-7.3c0.1,-1.2 0.1,-2.5 0.1,-3.7c0,-1.2 0,-2.4 0,-3.6c0,-1.2 -0.1,-2.3 -0.1,-3.4c-0.1,-1.1 -0.1,-2.1 -0.2,-3c-0.1,-1.9 -0.4,-3.4 -0.6,-4.5c-0.1,-0.5 -0.2,-0.9 -0.3,-1.2c-0.1,-0.3 -0.2,-0.4 -0.2,-0.4c0,0 0.1,0.2 0,0.5z" fill="#466d8c"/><path d="M253.14375,253.2c0.2,1.2 0.4,3 0.6,5c0.2,2 0.4,4.4 0.7,7c0.3,2.5 0.5,5.3 0.8,8c0.3,2.7 0.5,5.4 0.7,8c0.2,2.5 0.3,4.9 0.5,7c0.1,2.1 0.2,3.8 0.3,5c0.1,1.2 0.1,1.9 0.1,1.9c0,0 -0.1,-0.7 -0.2,-1.9c-0.2,-1.2 -0.4,-3 -0.6,-5c-0.2,-2 -0.4,-4.4 -0.7,-7c-0.3,-2.5 -0.5,-5.3 -0.8,-8c-0.3,-2.7 -0.5,-5.4 -0.7,-8c-0.2,-2.5 -0.3,-4.9 -0.5,-7c-0.1,-2.1 -0.2,-3.8 -0.3,-5c-0.1,-1.2 -0.1,-1.9 -0.1,-1.9c0,0 0.1,0.7 0.2,1.9z" fill="#466d8c"/></g><g><path d="M265.64375,305.5l-0.1,4.1c-1.7,1.2 -4.6,1.2 -4.6,1.2v-1c-0.9,0 -5.3,1.8 -8.9,2.8c-3.6,1 -10,-0.5 -10,-0.5l-0.1,-1.3c3.4,-7.3 23.8,-5.3 23.7,-5.3z" fill="#17110b"/><path d="M255.54375,285.5c0,0 3.4,3.7 10.1,-0.1c0,0 -0.3,13.9 -0.3,16.5c0,2.5 2,5.8 -2.9,6.6c-4.9,0.8 -7.4,3 -12.6,3.2c-5.2,0.2 -7.9,-0.9 -7.9,-0.9c0,0 -0.2,-3 1.9,-4.4c2.2,-1.4 8.9,-3.4 10.7,-6.2c1.8,-2.8 1,-14.7 1,-14.7z" fill="#4f3b26"/><path d="M242.24375,309.4c0.1,-0.5 0.2,-1 0.4,-1.6c0.2,-0.6 0.7,-1.2 1.4,-1.6c0.6,-0.3 1.4,-0.6 2.2,-1c0.8,-0.3 1.6,-0.7 2.5,-1.1c1.7,-0.8 3.5,-1.7 4.9,-3.1c0.7,-0.7 1.2,-1.5 1.4,-2.4c0.1,-1 0.2,-2 0.3,-2.9c0.1,-1.9 0.2,-3.7 0.2,-5.2c0.1,-3.1 0.1,-5.1 0.1,-5.1c0,0 0.1,2.1 0.2,5.1c0,1.5 0,3.3 -0.1,5.2c-0.1,0.9 -0.1,1.9 -0.3,2.9c-0.2,1.1 -0.9,2 -1.6,2.7c-1.5,1.5 -3.4,2.4 -5.1,3.2c-1.7,0.9 -3.4,1.4 -4.8,2c-0.7,0.3 -1.1,0.9 -1.4,1.4c-0.3,0.5 -0.4,1.1 -0.5,1.5c-0.1,0.9 -0.1,1.4 -0.1,1.4c0,0 0,-0.5 0.3,-1.4z" fill="#241b10"/><path d="M256.84375,286.3c0.2,0.1 0.5,0.2 0.9,0.3c0.7,0.2 1.8,0.3 2.9,0.2c0.3,-0.1 0.5,0 0.8,-0.1c0.3,0 0.6,0 0.8,-0.1c0.2,0 0.5,-0.1 0.7,-0.1c0.2,-0.1 0.4,-0.1 0.6,-0.2c0.4,-0.1 0.8,-0.2 1,-0.3c0.3,-0.1 0.4,-0.1 0.4,-0.1c0,0 -0.1,0.1 -0.3,0.2c-0.2,0.1 -0.5,0.4 -0.9,0.5c-0.4,0.2 -0.9,0.4 -1.4,0.5c-0.2,0.1 -0.5,0.1 -0.8,0.2c-0.3,0.1 -0.6,0.1 -0.9,0.1c-0.6,0 -1.2,0 -1.7,-0.1c-0.5,-0.1 -1,-0.2 -1.4,-0.4c-0.8,-0.4 -1.2,-0.8 -1.2,-0.8c0,0 0.1,0.1 0.5,0.2z" fill="#241b10"/><path d="M265.54375,291c0,1.1 0,2.3 0,3.7c0,1.4 0,2.8 0,4.3c0,0.8 0,1.5 0,2.2c0,0.8 0.1,1.4 0.2,2.1c0.2,1.4 0.3,2.7 -0.2,3.8c-0.3,0.5 -0.7,0.9 -1.1,1.1c-0.2,0 -0.4,0.1 -0.6,0.2c-0.2,0 -0.3,0.1 -0.5,0.1c-0.3,0.1 -0.5,0.1 -0.7,0.1c-0.2,0 -0.3,0 -0.3,0c0,0 0.1,0 0.3,0c0.1,-0.1 0.4,-0.1 0.7,-0.2c0.2,-0.1 0.3,-0.1 0.5,-0.2c0.1,-0.1 0.3,-0.2 0.5,-0.3c0.3,-0.3 0.7,-0.6 0.9,-1.1c0.4,-1 0.2,-2.3 0,-3.6c-0.1,-0.6 -0.2,-1.4 -0.2,-2.1c0,-0.7 0,-1.5 0,-2.2c0,-1.5 0.1,-2.9 0.1,-4.3c0.1,-1.3 0.2,-2.6 0.2,-3.7c0.1,-2.2 0.2,-3.6 0.2,-3.6c0,0 0,1.5 0,3.7z" fill="#241b10"/><path d="M247.44375,305.2c0.3,0.1 0.7,0.3 1,0.6c0.3,0.3 0.6,0.6 0.7,0.9c0.1,0.3 0.2,0.5 0.2,0.5c0,0 -0.2,-0.1 -0.4,-0.3c-0.2,-0.2 -0.5,-0.4 -0.8,-0.7c-0.3,-0.2 -0.6,-0.5 -0.8,-0.7c-0.2,-0.2 -0.4,-0.3 -0.4,-0.3c0,0 0.3,-0.1 0.5,0z" fill="#241b10"/><path d="M251.74375,303.1c0.3,0 0.8,0.2 1.1,0.5c0.3,0.3 0.6,0.7 0.7,1c0.2,0.3 0.2,0.5 0.2,0.5c0,0 0,0 -0.1,-0.1c-0.1,0 -0.2,-0.1 -0.3,-0.2c-0.3,-0.2 -0.6,-0.5 -0.9,-0.7c-0.3,-0.3 -0.7,-0.5 -0.9,-0.7c-0.2,-0.2 -0.4,-0.3 -0.4,-0.3c0,0 0.2,0 0.6,0z" fill="#241b10"/><path d="M254.84375,300c0.3,0 0.7,0 1.1,0.2c0.2,0.1 0.3,0.2 0.5,0.3c0.2,0.2 0.3,0.3 0.4,0.4c0.2,0.2 0.3,0.4 0.3,0.4c0,0 0,0 -0.1,0c-0.1,0 -0.2,0 -0.3,-0.1c-0.2,-0.1 -0.6,-0.3 -0.9,-0.4c-0.2,-0.1 -0.3,-0.1 -0.5,-0.2c-0.1,-0.1 -0.3,-0.2 -0.4,-0.2c-0.2,-0.1 -0.4,-0.2 -0.4,-0.2c0,0 0.2,-0.1 0.3,-0.2z" fill="#241b10"/><path d="M256.04375,295.3c0.3,0.1 0.7,0.1 1.1,0.1c0.2,0 0.4,0 0.6,0c0.2,0 0.3,0 0.5,0c0.3,0 0.5,0 0.5,0c0,0 -0.2,0.2 -0.5,0.3c-0.1,0.1 -0.3,0.2 -0.5,0.2c-0.2,0.1 -0.5,0.1 -0.7,0.1c-0.3,0 -0.5,0 -0.7,-0.1c-0.2,0 -0.4,-0.1 -0.5,-0.2c-0.3,-0.2 -0.4,-0.4 -0.4,-0.4c0,0 0.3,0 0.6,0z" fill="#241b10"/><path d="M256.24375,289.7c0.1,0 0.3,0.1 0.5,0.1c0.2,0 0.4,0.1 0.6,0.1c0.4,0 0.8,0.1 1.1,0.1c0.3,0 0.5,0 0.5,0c0,0 0,0 -0.1,0.1c-0.1,0 -0.2,0.1 -0.4,0.2c-0.2,0 -0.4,0.1 -0.6,0.1c-0.2,0.1 -0.5,0 -0.7,0c-0.4,-0.1 -0.8,-0.3 -1.1,-0.5c-0.3,-0.2 -0.4,-0.4 -0.4,-0.4c0,0 0.2,0 0.6,0.2z" fill="#241b10"/><path d="M261.14375,306.9c0,-0.4 0.1,-0.9 0.2,-1.4c0,-0.3 0.1,-0.5 0.2,-0.8c0,-0.3 0.2,-0.5 0.3,-0.8c0.3,-0.5 0.6,-1 1,-1.3c0.2,-0.1 0.4,-0.3 0.6,-0.4c0.2,-0.1 0.4,-0.2 0.6,-0.3c0.4,-0.1 0.8,-0.2 1,-0.2c0.3,0 0.4,0 0.4,0c0,0 -0.1,0 -0.3,0.1c-0.1,0.1 -0.3,0.1 -0.4,0.2c-0.2,0.1 -0.3,0.2 -0.5,0.3c-0.2,0.1 -0.3,0.3 -0.5,0.4c-0.2,0.2 -0.3,0.3 -0.5,0.5c-0.2,0.2 -0.3,0.4 -0.5,0.6c-0.1,0.2 -0.3,0.4 -0.4,0.6c-0.5,0.9 -0.8,1.9 -1,2.7c-0.2,0.8 -0.3,1.3 -0.3,1.3c0,0 -0.1,-0.5 0.1,-1.5z" fill="#241b10"/></g></g><g><path d="M257.04375,249.7c-8.2,1.2 -10.9,-39.7 -8,-50.9c2.9,-11.2 15.6,-12.3 17.1,5.5c1.5,17.8 1.7,43.8 -9.1,45.4z" fill="#63b7ce"/><g><g fill="#3b8293"><path d="M252.74375,233.9c-1.3,-0.3 -2.5,-0.7 -3.4,-1.1c-0.1,-0.6 -0.2,-1.3 -0.3,-1.9c0.9,0.5 2.3,1.1 4.1,1.5c3,0.6 7.6,0.8 13.3,-1.9c-0.1,0.6 -0.1,1.2 -0.2,1.8c-3.6,1.5 -6.8,2 -9.4,2c-1.5,0 -2.9,-0.2 -4.1,-0.4z"/><path d="M252.54375,211.3c-2,-0.4 -3.5,-1 -4.6,-1.5c0.1,-0.6 0.1,-1.1 0.1,-1.7c1,0.5 2.6,1.2 4.9,1.7c3,0.6 7.7,0.8 13.5,-1.5c0,0.5 0.1,1 0.1,1.6c-3.6,1.4 -6.9,1.8 -9.6,1.8c-1.7,0 -3.2,-0.2 -4.4,-0.4z"/><path d="M251.14375,194.2c0.3,-0.5 0.7,-0.9 1.1,-1.3c0.2,0.1 0.5,0.1 0.8,0.2c2.2,0.4 5.4,0.6 9.2,-0.2c0.4,0.4 0.8,0.9 1.1,1.4c-2.3,0.6 -4.4,0.8 -6.3,0.8c-1.7,0 -3.2,-0.1 -4.4,-0.4c-0.6,-0.1 -1.1,-0.2 -1.5,-0.5z"/><path d="M252.54375,199.7c-1.4,-0.2 -2.6,-0.6 -3.5,-1c0.2,-0.5 0.3,-1 0.5,-1.5c0.9,0.4 2.1,0.7 3.4,1c2.7,0.6 6.7,0.8 11.7,-0.8c0.2,0.5 0.4,1 0.5,1.5c-3.1,1 -5.8,1.3 -8.2,1.3c-1.7,-0.1 -3.1,-0.2 -4.4,-0.5z"/><path d="M252.54375,205.5c-1.8,-0.4 -3.2,-0.9 -4.3,-1.4c0.1,-0.6 0.1,-1.2 0.2,-1.7c1,0.5 2.5,1.1 4.5,1.5c2.9,0.6 7.4,0.8 13,-1.3c0.1,0.5 0.2,1 0.2,1.6c-3.5,1.2 -6.6,1.6 -9.2,1.6c-1.7,0 -3.2,-0.2 -4.4,-0.3z"/><path d="M252.74375,239.6c-0.8,-0.2 -1.5,-0.5 -2.2,-0.7c-0.1,-0.6 -0.3,-1.3 -0.4,-1.9c0.9,0.4 1.9,0.7 3.1,1c2.8,0.6 7.2,0.8 12.5,-1.5c-0.1,0.7 -0.3,1.3 -0.4,1.9c-3.3,1.2 -6.1,1.6 -8.5,1.6c-1.6,0 -2.9,-0.2 -4.1,-0.4z"/><path d="M258.54375,245.5c-2.5,0 -4.7,-0.4 -6.3,-0.8c-0.2,-0.6 -0.4,-1.2 -0.6,-1.8c2.3,0.6 7.3,1.6 12.2,0.3c-0.3,0.6 -0.6,1.2 -0.9,1.8c-1.5,0.3 -3,0.4 -4.4,0.5z"/><path d="M252.54375,228.8c-1.6,-0.4 -2.8,-0.8 -3.8,-1.3c-0.1,-0.7 -0.1,-1.3 -0.2,-1.9c1,0.5 2.4,1.2 4.4,1.6c3.1,0.7 7.9,0.8 13.9,-2c0,0.6 -0.1,1.2 -0.1,1.8c-3.9,1.7 -7.3,2.2 -10.1,2.2c-1.6,0 -3,-0.2 -4.1,-0.4z"/><path d="M252.44375,223.1c-1.7,-0.4 -3.1,-0.9 -4.2,-1.4c0,-0.6 -0.1,-1.2 -0.1,-1.8c1,0.5 2.6,1.2 4.7,1.6c3.1,0.6 8,0.8 14,-1.7c0,0.6 0,1.1 0,1.7c-3.8,1.5 -7.2,2 -10,2c-1.7,0 -3.2,-0.2 -4.4,-0.4z"/><path d="M252.24375,216.9c-1.9,-0.4 -3.4,-1 -4.5,-1.5c0,-0.6 0,-1.2 0,-1.8c1,0.6 2.7,1.3 5,1.8c3.2,0.6 8,0.8 13.9,-1.6c0.1,0.6 0.1,1.1 0.1,1.7c-3.8,1.4 -7.1,1.9 -9.9,1.9c-1.6,0 -3.1,-0.2 -4.6,-0.5z"/></g><path d="M264.34375,241.7c0.4,-1.1 0.8,-2.7 1.1,-4.6c0.2,-0.9 0.3,-2 0.5,-3.1c0.1,-1.1 0.3,-2.3 0.4,-3.5c0.1,-1.3 0.2,-2.5 0.3,-3.8c0.1,-1.3 0.1,-2.6 0.1,-3.9c0,-1.3 0,-2.6 0,-3.9c0,-1.3 0,-2.6 -0.1,-3.8c0,-1.2 0,-2.4 -0.1,-3.5c-0.1,-1.2 -0.1,-2.2 -0.2,-3.2c-0.1,-1.9 -0.2,-3.6 -0.3,-4.7c-0.1,-1.1 -0.1,-1.8 -0.1,-1.8c0,0 0.1,0.7 0.2,1.8c0.1,1.1 0.3,2.7 0.5,4.7c0.1,1 0.2,2.1 0.3,3.2c0.1,1.1 0.1,2.3 0.2,3.5c0.1,1.2 0.1,2.5 0.1,3.8c0,1.3 0,2.6 0,3.9c-0.1,1.3 -0.1,2.6 -0.2,3.9c-0.1,1.3 -0.2,2.6 -0.3,3.8c-0.1,1.2 -0.4,2.4 -0.5,3.5c-0.2,1.1 -0.4,2.1 -0.6,3.1c-0.1,1 -0.4,1.8 -0.6,2.6c-0.2,0.8 -0.4,1.5 -0.6,2c-0.4,1.1 -0.7,1.7 -0.7,1.7c0,0 0.3,-0.6 0.6,-1.7z" fill="#466d8c"/><path d="M249.24375,198.2c0,0.3 -0.1,0.7 -0.2,1.3c-0.2,1.1 -0.3,2.8 -0.5,4.8c-0.2,2 -0.3,4.3 -0.3,6.8c0,1.3 0,2.6 0,3.9c0,1.3 0.1,2.7 0.1,4c0,1.4 0.1,2.7 0.2,4c0.2,1.3 0.3,2.6 0.4,3.8c0.1,1.3 0.3,2.5 0.4,3.6c0.2,1.1 0.4,2.2 0.5,3.2c0.1,1 0.2,1.9 0.4,2.7c0.2,0.8 0.3,1.5 0.4,2.1c0.2,1.1 0.3,1.8 0.3,1.8c0,0 -0.1,-0.7 -0.4,-1.8c-0.2,-0.6 -0.3,-1.3 -0.5,-2.1c-0.2,-0.8 -0.3,-1.7 -0.5,-2.7c-0.2,-1 -0.4,-2.1 -0.6,-3.2c-0.2,-1.2 -0.4,-2.4 -0.5,-3.6c-0.1,-1.2 -0.3,-2.5 -0.4,-3.8c-0.1,-1.3 -0.2,-2.7 -0.3,-4c0,-1.3 -0.1,-2.7 -0.1,-4c0,-1.3 0,-2.6 0,-3.9c0,-1.2 0.1,-2.5 0.2,-3.6c0.1,-1.1 0.2,-2.2 0.3,-3.2c0.2,-2 0.5,-3.7 0.7,-4.8c0.1,-0.5 0.2,-1 0.3,-1.3c0.1,-0.4 0.2,-0.5 0.2,-0.5c0,0 -0.1,0.1 -0.1,0.5z" fill="#466d8c"/></g></g></g><g data-paper-data="{&quot;index&quot;:null}"><g><g><path d="M238.74375,237.5c5.4,9.5 -0.6,54.9 -0.6,54.9c-2.9,3.3 -6.7,0.8 -6.7,0.8l-4.5,-50.8c-0.2,-9.5 8.4,-11 11.8,-4.9z" fill="#63b7ce"/><g fill="#3b8293"><path d="M240.44375,266.4c0,0.6 -0.1,1.2 -0.1,1.8c-2,0.8 -4.2,1.1 -6.1,1.1c-1.9,0 -3.7,-0.4 -5,-0.7l-0.1,-1.7c2.6,0.7 7.2,1.5 11.3,-0.5z"/><path d="M240.94375,260.7c-0.1,0.6 -0.1,1.2 -0.1,1.8c-2.2,1 -4.4,1.3 -6.4,1.3c-2.2,0 -4.2,-0.4 -5.6,-0.8l-0.2,-1.7c2.5,0.7 7.6,1.8 12.3,-0.6z"/><path d="M230.04375,234.8c1.6,-1.1 3.6,-1.2 5.4,-0.4c-1.5,0.3 -2.9,0.4 -4.2,0.4c-0.4,0 -0.8,0 -1.2,0z"/><path d="M234.24375,274.1c-1.7,0 -3.3,-0.2 -4.6,-0.5l-0.1,-1.7c2.6,0.6 6.8,1.2 10.7,-0.6c0,0.6 -0.1,1.2 -0.1,1.8c-2,0.7 -4,1 -5.9,1z"/><path d="M234.34375,279.6c-1.5,0 -2.9,-0.2 -4.1,-0.4l-0.1,-1.7c2.5,0.6 6.2,0.9 9.7,-0.5c-0.1,0.5 -0.1,1.1 -0.2,1.7c-1.8,0.6 -3.6,0.8 -5.3,0.9z"/><path d="M234.34375,258.3c-2.4,0 -4.6,-0.4 -6.1,-0.8l-0.1,-1.7c2.6,0.7 7.9,1.8 12.8,-0.3c0,0.6 0,1.1 0,1.7c-2.2,0.9 -4.5,1.2 -6.6,1.1z"/><path d="M234.04375,252.4c-2.6,0 -4.8,-0.4 -6.4,-0.8l-0.1,-1.7c2.7,0.7 8.2,1.7 13.2,-0.2c0,-1.4 -0.1,-2.7 -0.2,-3.9c-2.2,0.7 -4.4,0.9 -6.4,0.9c-2.8,0 -5.3,-0.5 -6.9,-0.9l-0.1,-1.7c2.4,0.7 8,1.9 13.3,0.1c0.3,2.2 0.4,4.6 0.5,7.2c-2.3,0.8 -4.6,1.1 -6.9,1z"/><path d="M232.84375,240.1c-2.2,0 -4.2,-0.3 -5.7,-0.6c0.1,-0.5 0.2,-1 0.4,-1.5c2.8,0.6 7.2,1 11.3,-0.3c0.2,0.5 0.4,1 0.6,1.5c-2.2,0.7 -4.5,1 -6.6,0.9z"/></g><path d="M239.24375,238.9c0.1,0.3 0.3,0.7 0.4,1.2c0.2,0.5 0.3,1.1 0.5,1.9c0.2,0.7 0.3,1.6 0.4,2.5c0.1,0.9 0.2,1.9 0.3,3c0.1,1.1 0.2,2.2 0.2,3.4c0.1,1.1 0.1,2.4 0.1,3.6c0,1.2 0,2.4 0,3.7c0,2.5 -0.2,5.1 -0.3,7.4c0,1.2 -0.1,2.3 -0.2,3.4c0,1 -0.1,2.1 -0.2,3c-0.2,1.9 -0.4,3.4 -0.5,4.5c-0.1,1.1 -0.2,1.7 -0.2,1.7c0,0 0.1,-2.5 0.3,-6.3c0.1,-1.9 0.2,-4.1 0.3,-6.4c0.1,-2.3 0.2,-4.8 0.2,-7.3c0.1,-1.2 0.1,-2.5 0.1,-3.7c0,-1.2 0,-2.4 0,-3.6c0,-1.2 -0.1,-2.3 -0.1,-3.4c-0.1,-1.1 -0.1,-2.1 -0.2,-3c-0.1,-1.9 -0.4,-3.4 -0.6,-4.5c-0.1,-0.5 -0.2,-0.9 -0.3,-1.2c-0.1,-0.3 -0.2,-0.4 -0.2,-0.4c0,0 0.1,0.2 0,0.5z" fill="#466d8c"/><path d="M227.54375,248c0.2,1.2 0.4,3 0.6,5c0.2,2 0.4,4.4 0.7,7c0.3,2.5 0.5,5.3 0.8,8c0.3,2.7 0.5,5.4 0.7,8c0.2,2.5 0.3,4.9 0.5,7c0.1,2.1 0.2,3.8 0.3,5c0.1,1.2 0.1,1.9 0.1,1.9c0,0 -0.1,-0.7 -0.2,-1.9c-0.2,-1.2 -0.4,-3 -0.6,-5c-0.2,-2 -0.4,-4.4 -0.7,-7c-0.3,-2.5 -0.5,-5.3 -0.8,-8c-0.3,-2.7 -0.5,-5.4 -0.7,-8c-0.2,-2.5 -0.3,-4.9 -0.5,-7c-0.1,-2.1 -0.2,-3.8 -0.3,-5c-0.1,-1.2 -0.1,-1.9 -0.1,-1.9c0,0 0,0.7 0.2,1.9z" fill="#466d8c"/></g><g><path d="M240.04375,300.3l-0.1,4.1c-1.7,1.2 -4.6,1.2 -4.6,1.2v-1c-0.9,0 -5.3,1.8 -8.9,2.8c-3.6,1 -10,-0.5 -10,-0.5l-0.1,-1.3c3.3,-7.4 23.7,-5.4 23.7,-5.3z" fill="#17110b"/><path d="M229.84375,280.3c0,0 3.4,3.7 10.1,-0.1c0,0 -0.3,13.9 -0.3,16.5c0,2.5 2,5.8 -2.9,6.6c-4.9,0.8 -7.4,3 -12.6,3.2c-5.2,0.2 -7.9,-0.9 -7.9,-0.9c0,0 -0.2,-3 1.9,-4.4c2.1,-1.4 8.9,-3.4 10.7,-6.2c1.8,-2.8 1,-14.7 1,-14.7z" fill="#4f3b26"/><path d="M216.64375,304.2c0.1,-0.5 0.2,-1 0.4,-1.6c0.2,-0.6 0.7,-1.2 1.4,-1.6c0.6,-0.3 1.4,-0.6 2.2,-1c0.8,-0.3 1.6,-0.7 2.5,-1.1c1.7,-0.8 3.5,-1.7 4.9,-3.1c0.7,-0.7 1.2,-1.5 1.4,-2.4c0.1,-1 0.2,-2 0.3,-2.9c0.1,-1.9 0.2,-3.7 0.2,-5.2c0.1,-3.1 0.1,-5.1 0.1,-5.1c0,0 0.1,2.1 0.2,5.1c0,1.5 0,3.3 -0.1,5.2c-0.1,0.9 -0.1,1.9 -0.3,2.9c-0.2,1.1 -0.9,2 -1.6,2.7c-1.5,1.5 -3.4,2.4 -5.1,3.2c-1.7,0.9 -3.4,1.4 -4.8,2c-0.7,0.3 -1.1,0.9 -1.4,1.4c-0.3,0.5 -0.4,1.1 -0.5,1.5c-0.1,0.9 -0.1,1.4 -0.1,1.4c0,0 -0.1,-0.5 0.3,-1.4z" fill="#241b10"/><path d="M231.24375,281.1c0.2,0.1 0.5,0.2 0.9,0.3c0.7,0.2 1.8,0.3 2.9,0.2c0.3,-0.1 0.5,0 0.8,-0.1c0.3,0 0.6,0 0.8,-0.1c0.2,0 0.5,-0.1 0.7,-0.1c0.2,-0.1 0.4,-0.1 0.6,-0.2c0.4,-0.1 0.8,-0.2 1,-0.3c0.3,-0.1 0.4,-0.1 0.4,-0.1c0,0 -0.1,0.1 -0.3,0.2c-0.2,0.1 -0.5,0.4 -0.9,0.5c-0.4,0.2 -0.9,0.4 -1.4,0.5c-0.2,0.1 -0.5,0.1 -0.8,0.2c-0.3,0.1 -0.6,0.1 -0.9,0.1c-0.6,0 -1.2,0 -1.7,-0.1c-0.5,-0.1 -1,-0.2 -1.4,-0.4c-0.8,-0.4 -1.2,-0.8 -1.2,-0.8c0,0 0.1,0 0.5,0.2z" fill="#241b10"/><path d="M239.84375,285.8c0,1.1 0,2.3 0,3.7c0,1.4 0,2.8 0,4.3c0,0.8 0,1.5 0,2.2c0,0.8 0.1,1.4 0.2,2.1c0.2,1.4 0.3,2.7 -0.2,3.8c-0.3,0.5 -0.7,0.9 -1.1,1.1c-0.2,0 -0.4,0.1 -0.6,0.2c-0.2,0 -0.3,0.1 -0.5,0.1c-0.3,0.1 -0.5,0.1 -0.7,0.1c-0.2,0 -0.3,0 -0.3,0c0,0 0.1,0 0.3,0c0.1,-0.1 0.4,-0.1 0.7,-0.2c0.2,-0.1 0.3,-0.1 0.5,-0.2c0.1,-0.1 0.3,-0.2 0.5,-0.3c0.3,-0.3 0.7,-0.6 0.9,-1.1c0.4,-1 0.2,-2.3 0,-3.6c-0.1,-0.6 -0.2,-1.4 -0.2,-2.1c0,-0.7 0,-1.5 0,-2.2c0,-1.5 0.1,-2.9 0.1,-4.3c0.1,-1.3 0.2,-2.6 0.2,-3.7c0.1,-2.2 0.2,-3.6 0.2,-3.6c0,0 0.1,1.5 0,3.7z" fill="#241b10"/><path d="M221.84375,299.9c0.3,0.1 0.7,0.3 1,0.6c0.3,0.3 0.6,0.6 0.7,0.9c0.1,0.3 0.2,0.5 0.2,0.5c0,0 -0.2,-0.1 -0.4,-0.3c-0.2,-0.2 -0.5,-0.4 -0.8,-0.7c-0.3,-0.2 -0.6,-0.5 -0.8,-0.7c-0.2,-0.2 -0.4,-0.3 -0.4,-0.3c0,0 0.2,0 0.5,0z" fill="#241b10"/><path d="M226.04375,297.9c0.3,0 0.8,0.2 1.1,0.5c0.3,0.3 0.6,0.7 0.7,1c0.2,0.3 0.2,0.5 0.2,0.5c0,0 0,0 -0.1,-0.1c-0.1,0 -0.2,-0.1 -0.3,-0.2c-0.3,-0.2 -0.6,-0.5 -0.9,-0.7c-0.3,-0.3 -0.7,-0.5 -0.9,-0.7c-0.2,-0.2 -0.4,-0.3 -0.4,-0.3c0,0 0.3,0 0.6,0z" fill="#241b10"/><path d="M229.24375,294.8c0.3,0 0.7,0 1.1,0.2c0.2,0.1 0.3,0.2 0.5,0.3c0.2,0.2 0.3,0.3 0.4,0.4c0.2,0.2 0.3,0.4 0.3,0.4c0,0 0,0 -0.1,0c-0.1,0 -0.2,0 -0.3,-0.1c-0.2,-0.1 -0.6,-0.3 -0.9,-0.4c-0.2,-0.1 -0.3,-0.1 -0.5,-0.2c-0.1,-0.1 -0.3,-0.2 -0.4,-0.2c-0.2,-0.1 -0.4,-0.2 -0.4,-0.2c0,0 0.2,-0.1 0.3,-0.2z" fill="#241b10"/><path d="M230.44375,290.1c0.3,0.1 0.7,0.1 1.1,0.1c0.2,0 0.4,0 0.6,0c0.2,0 0.3,0 0.5,0c0.3,0 0.5,0 0.5,0c0,0 -0.2,0.2 -0.5,0.3c-0.1,0.1 -0.3,0.2 -0.5,0.2c-0.2,0.1 -0.5,0.1 -0.7,0.1c-0.3,0 -0.5,0 -0.7,-0.1c-0.2,0 -0.4,-0.1 -0.5,-0.2c-0.3,-0.2 -0.4,-0.4 -0.4,-0.4c0,0 0.2,0 0.6,0z" fill="#241b10"/><path d="M230.54375,284.5c0.1,0 0.3,0.1 0.5,0.1c0.2,0 0.4,0.1 0.6,0.1c0.4,0 0.8,0.1 1.1,0.1c0.3,0 0.5,0 0.5,0c0,0 0,0 -0.1,0.1c-0.1,0 -0.2,0.1 -0.4,0.2c-0.2,0 -0.4,0.1 -0.6,0.1c-0.2,0.1 -0.5,0 -0.7,0c-0.4,-0.1 -0.8,-0.3 -1.1,-0.5c-0.3,-0.2 -0.4,-0.4 -0.4,-0.4c0,0 0.2,0 0.6,0.2z" fill="#241b10"/><path d="M235.44375,301.7c0,-0.4 0.1,-0.9 0.2,-1.4c0,-0.3 0.1,-0.5 0.2,-0.8c0,-0.3 0.2,-0.5 0.3,-0.8c0.3,-0.5 0.6,-1 1,-1.3c0.2,-0.1 0.4,-0.3 0.6,-0.4c0.2,-0.1 0.4,-0.2 0.6,-0.3c0.4,-0.1 0.8,-0.2 1,-0.2c0.3,0 0.4,0 0.4,0c0,0 -0.1,0 -0.3,0.1c-0.1,0.1 -0.3,0.1 -0.4,0.2c-0.2,0.1 -0.3,0.2 -0.5,0.3c-0.2,0.1 -0.3,0.3 -0.5,0.4c-0.2,0.2 -0.3,0.3 -0.5,0.5c-0.2,0.2 -0.3,0.4 -0.5,0.6c-0.1,0.2 -0.3,0.4 -0.4,0.6c-0.5,0.9 -0.8,1.9 -1,2.7c-0.2,0.8 -0.3,1.3 -0.3,1.3c0,0 -0.1,-0.5 0.1,-1.5z" fill="#241b10"/></g></g><g><path d="M231.44375,244.4c-8.2,1.2 -10.9,-39.7 -8,-50.9c2.9,-11.1 15.6,-12.3 17.1,5.5c1.5,17.8 1.7,43.9 -9.1,45.4z" fill="#63b7ce"/><g><g fill="#3b8293"><path d="M227.14375,228.7c-1.3,-0.3 -2.5,-0.7 -3.4,-1.1c-0.1,-0.6 -0.2,-1.3 -0.3,-1.9c0.9,0.5 2.3,1.1 4.1,1.5c3,0.6 7.6,0.8 13.3,-1.9c-0.1,0.6 -0.1,1.2 -0.2,1.8c-3.6,1.5 -6.8,2 -9.4,2c-1.6,0 -2.9,-0.2 -4.1,-0.4z"/><path d="M226.84375,206.1c-2,-0.4 -3.5,-1 -4.6,-1.5c0.1,-0.6 0.1,-1.1 0.1,-1.7c1,0.5 2.6,1.2 4.9,1.7c3,0.6 7.7,0.8 13.5,-1.5c0,0.5 0.1,1 0.1,1.6c-3.6,1.4 -6.9,1.8 -9.6,1.8c-1.7,0 -3.1,-0.2 -4.4,-0.4z"/><path d="M225.44375,189c0.3,-0.5 0.7,-0.9 1.1,-1.3c0.2,0.1 0.5,0.1 0.8,0.2c2.2,0.4 5.4,0.6 9.2,-0.2c0.4,0.4 0.8,0.9 1.1,1.4c-2.3,0.6 -4.4,0.8 -6.3,0.8c-1.7,0 -3.2,-0.1 -4.4,-0.4c-0.5,-0.1 -1,-0.2 -1.5,-0.5z"/><path d="M226.94375,194.4c-1.4,-0.2 -2.6,-0.6 -3.5,-1c0.2,-0.5 0.3,-1 0.5,-1.5c0.9,0.4 2.1,0.7 3.4,1c2.7,0.6 6.7,0.8 11.7,-0.8c0.2,0.5 0.4,1 0.5,1.5c-3.1,1 -5.8,1.3 -8.2,1.3c-1.7,0 -3.2,-0.2 -4.4,-0.5z"/><path d="M226.94375,200.3c-1.8,-0.4 -3.2,-0.9 -4.3,-1.4c0.1,-0.6 0.1,-1.2 0.2,-1.7c1,0.5 2.5,1.1 4.5,1.5c2.9,0.6 7.4,0.8 13,-1.3c0.1,0.5 0.2,1 0.2,1.6c-3.5,1.2 -6.6,1.6 -9.2,1.6c-1.7,0 -3.2,-0.2 -4.4,-0.3z"/><path d="M227.14375,234.4c-0.8,-0.2 -1.5,-0.5 -2.2,-0.7c-0.1,-0.6 -0.3,-1.3 -0.4,-1.9c0.9,0.4 1.9,0.7 3.1,1c2.8,0.6 7.2,0.8 12.5,-1.5c-0.1,0.7 -0.3,1.3 -0.4,1.9c-3.3,1.2 -6.1,1.6 -8.5,1.6c-1.6,0 -3,-0.2 -4.1,-0.4z"/><path d="M232.94375,240.3c-2.5,0 -4.7,-0.4 -6.3,-0.8c-0.2,-0.6 -0.4,-1.2 -0.6,-1.8c2.3,0.6 7.3,1.6 12.2,0.3c-0.3,0.6 -0.6,1.2 -0.9,1.8c-1.6,0.3 -3.1,0.4 -4.4,0.5z"/><path d="M226.94375,223.6c-1.6,-0.4 -2.8,-0.8 -3.8,-1.3c-0.1,-0.7 -0.1,-1.3 -0.2,-1.9c1,0.5 2.4,1.2 4.4,1.6c3.1,0.7 7.9,0.8 13.9,-2c0,0.6 -0.1,1.2 -0.1,1.8c-3.9,1.7 -7.3,2.2 -10.1,2.2c-1.6,0 -3,-0.2 -4.1,-0.4z"/><path d="M226.84375,217.9c-1.7,-0.4 -3.1,-0.9 -4.2,-1.4c0,-0.6 -0.1,-1.2 -0.1,-1.8c1,0.5 2.6,1.2 4.7,1.6c3.1,0.6 8,0.8 14,-1.7c0,0.6 0,1.1 0,1.7c-3.8,1.5 -7.2,2 -10,2c-1.7,0 -3.2,-0.2 -4.4,-0.4z"/><path d="M226.64375,211.7c-1.9,-0.4 -3.4,-1 -4.5,-1.5c0,-0.6 0,-1.2 0,-1.8c1,0.6 2.7,1.3 5,1.8c3.2,0.6 8,0.8 13.9,-1.6c0.1,0.6 0.1,1.1 0.1,1.7c-3.8,1.4 -7.1,1.9 -9.9,1.9c-1.7,0 -3.2,-0.2 -4.6,-0.5z"/></g><path d="M238.74375,236.5c0.4,-1.1 0.8,-2.7 1.1,-4.6c0.2,-0.9 0.3,-2 0.5,-3.1c0.1,-1.1 0.3,-2.3 0.4,-3.5c0.1,-1.3 0.2,-2.5 0.3,-3.8c0.1,-1.3 0.1,-2.6 0.1,-3.9c0,-1.3 0,-2.6 0,-3.9c0,-1.3 0,-2.6 -0.1,-3.8c0,-1.2 0,-2.4 -0.1,-3.5c-0.1,-1.2 -0.1,-2.2 -0.2,-3.2c-0.1,-1.9 -0.2,-3.6 -0.3,-4.7c-0.1,-1.1 -0.1,-1.8 -0.1,-1.8c0,0 0.1,0.7 0.2,1.8c0.1,1.1 0.3,2.7 0.5,4.7c0.1,1 0.2,2.1 0.3,3.2c0.1,1.1 0.1,2.3 0.2,3.5c0.1,1.2 0.1,2.5 0.1,3.8c0,1.3 0,2.6 0,3.9c-0.1,1.3 -0.1,2.6 -0.2,3.9c-0.1,1.3 -0.2,2.6 -0.3,3.8c-0.1,1.2 -0.4,2.4 -0.5,3.5c-0.2,1.1 -0.4,2.1 -0.6,3.1c-0.1,1 -0.4,1.8 -0.6,2.6c-0.2,0.8 -0.4,1.5 -0.6,2c-0.4,1.1 -0.7,1.7 -0.7,1.7c0,0 0.2,-0.6 0.6,-1.7z" fill="#466d8c"/><path d="M223.54375,192.9c0,0.3 -0.1,0.7 -0.2,1.3c-0.2,1.1 -0.3,2.8 -0.5,4.8c-0.2,2 -0.3,4.3 -0.3,6.8c0,1.3 0,2.6 0,3.9c0,1.3 0.1,2.7 0.1,4c0,1.4 0.1,2.7 0.2,4c0.2,1.3 0.3,2.6 0.4,3.8c0.1,1.3 0.3,2.5 0.4,3.6c0.2,1.1 0.4,2.2 0.5,3.2c0.1,1 0.2,1.9 0.4,2.7c0.2,0.8 0.3,1.5 0.4,2.1c0.2,1.1 0.3,1.8 0.3,1.8c0,0 -0.1,-0.7 -0.4,-1.8c-0.2,-0.6 -0.3,-1.3 -0.5,-2.1c-0.2,-0.8 -0.3,-1.7 -0.5,-2.7c-0.2,-1 -0.4,-2.1 -0.6,-3.2c-0.2,-1.2 -0.4,-2.4 -0.5,-3.6c-0.1,-1.2 -0.3,-2.5 -0.4,-3.8c-0.1,-1.3 -0.2,-2.7 -0.3,-4c0,-1.3 -0.1,-2.7 -0.1,-4c0,-1.3 0,-2.6 0,-3.9c0,-1.2 0.1,-2.5 0.2,-3.6c0.1,-1.1 0.2,-2.2 0.3,-3.2c0.2,-2 0.5,-3.7 0.7,-4.8c0.1,-0.5 0.2,-1 0.3,-1.3c0.1,-0.4 0.2,-0.5 0.2,-0.5c0,0 -0.1,0.2 -0.1,0.5z" fill="#466d8c"/></g></g></g><g data-paper-data="{&quot;index&quot;:null}"><g><path d="M253.14375,162.9c28.3,14.3 35.2,91.9 35.2,91.9c-46.7,25 -86.6,-2 -86.6,-2c2,-22.3 11.5,-73.1 28,-89.5c6.8,-6.8 18.4,-2.8 23.4,-0.4z" fill="#714fab"/><path d="M227.84375,165.3c-0.2,0.2 -0.5,0.7 -0.9,1.2c-0.4,0.6 -0.8,1.2 -1.3,2c-0.5,0.7 -1,1.6 -1.6,2.6c-0.6,1 -1.2,2 -1.8,3.2c-0.6,1.1 -1.2,2.3 -1.8,3.6c-0.6,1.3 -1.2,2.6 -1.8,4c-0.6,1.4 -1.2,2.8 -1.7,4.2c-0.6,1.4 -1.1,2.8 -1.6,4.2c-0.5,1.4 -0.9,2.8 -1.4,4.1c-0.5,1.4 -0.9,2.7 -1.3,3.9c-0.4,1.2 -0.8,2.4 -1.1,3.5c-0.3,1.1 -0.7,2.1 -0.9,3c-0.3,0.9 -0.5,1.7 -0.7,2.3c-0.4,1.3 -0.6,2 -0.6,2c0,0 0.2,-0.7 0.5,-2c0.1,-0.6 0.3,-1.4 0.5,-2.3c0.2,-0.9 0.5,-1.9 0.8,-3c0.3,-1.1 0.6,-2.3 1,-3.5c0.4,-1.2 0.7,-2.6 1.2,-3.9c0.4,-1.3 0.9,-2.7 1.4,-4.1c0.5,-1.4 1,-2.8 1.6,-4.2c0.6,-1.4 1.2,-2.8 1.8,-4.2c0.5,-1.4 1.2,-2.7 1.8,-4c0.6,-1.2 1.3,-2.5 1.9,-3.6c0.7,-1.2 1.3,-2.2 1.9,-3.2c0.6,-1 1.2,-1.8 1.7,-2.6c0.5,-0.7 1,-1.4 1.4,-1.9c0.4,-0.5 0.8,-0.9 1,-1.2c0.2,-0.3 0.3,-0.4 0.3,-0.4c0,0 -0.1,0.1 -0.3,0.3z" fill="#3b2b78"/><path d="M256.54375,164.6c0.4,0.3 0.9,0.7 1.6,1.2c0.4,0.2 0.7,0.6 1.1,0.9c0.4,0.3 0.8,0.7 1.2,1.1c0.9,0.8 1.8,1.8 2.7,2.9c0.4,0.6 0.9,1.2 1.4,1.8c0.5,0.6 0.9,1.2 1.4,1.9c0.5,0.7 0.9,1.4 1.4,2.1c0.5,0.8 1,1.5 1.4,2.3c0.5,0.8 0.9,1.6 1.4,2.4c0.5,0.8 0.9,1.7 1.3,2.5c0.9,1.7 1.6,3.5 2.4,5.2c0.7,1.7 1.4,3.5 2.1,5.3c0.6,1.7 1.2,3.5 1.8,5.2c0.5,1.8 1,3.4 1.5,5c0.5,1.6 0.8,3.1 1.2,4.5c0.3,1.4 0.7,2.7 0.9,3.8c0.3,1.2 0.5,2.2 0.7,3c0.4,1.7 0.6,2.6 0.6,2.6c0,0 -0.3,-1 -0.7,-2.6c-0.2,-0.8 -0.5,-1.8 -0.8,-2.9c-0.3,-1.2 -0.7,-2.4 -1.1,-3.8c-0.4,-1.3 -0.8,-2.8 -1.3,-4.4c-0.5,-1.5 -1,-3.2 -1.6,-4.9c-0.6,-1.7 -1.3,-3.4 -1.9,-5.2c-0.7,-1.8 -1.4,-3.5 -2.2,-5.3c-0.8,-1.8 -1.5,-3.5 -2.4,-5.2c-0.5,-0.8 -0.9,-1.7 -1.3,-2.5c-0.4,-0.8 -0.9,-1.6 -1.3,-2.4c-0.5,-0.8 -1,-1.6 -1.4,-2.3c-0.5,-0.7 -0.9,-1.4 -1.4,-2.1c-0.5,-0.7 -0.9,-1.4 -1.4,-2c-0.5,-0.6 -1,-1.2 -1.4,-1.8c-0.9,-1.1 -1.8,-2.1 -2.6,-2.9c-0.4,-0.5 -0.8,-0.9 -1.2,-1.2c-0.4,-0.3 -0.7,-0.6 -1,-0.9c-0.6,-0.5 -1.1,-0.9 -1.5,-1.2c-0.4,-0.3 -0.6,-0.4 -0.6,-0.4c0,0 0.2,0.2 1,0.3z" fill="#3b2b78"/><path d="M256.24375,167.8c0.6,0.6 1.3,1.2 1.9,2c0.7,0.7 1.3,1.6 1.9,2.5c0.5,0.9 1,1.8 1.5,2.7c0.4,0.9 0.8,1.8 1.1,2.5c0.3,0.7 0.4,1.4 0.6,1.8c0.1,0.4 0.2,0.7 0.2,0.7c0,0 -0.1,-0.3 -0.3,-0.7c-0.2,-0.4 -0.4,-1 -0.8,-1.7c-0.4,-0.7 -0.8,-1.5 -1.3,-2.4c-0.5,-0.9 -1,-1.8 -1.6,-2.7c-0.6,-0.8 -1.2,-1.7 -1.8,-2.5c-0.6,-0.8 -1.2,-1.5 -1.7,-2.1c-0.5,-0.6 -1,-1.1 -1.3,-1.4c-0.3,-0.3 -0.5,-0.5 -0.5,-0.5c0,0 0.9,0.6 2.1,1.8z" fill="#3b2b78"/><path d="M235.44375,173.5c-0.3,1.5 -0.7,3.3 -1.1,5.2c-0.3,1.9 -0.7,4 -1.1,6c-0.3,2 -0.7,4.1 -1,6c-0.1,1 -0.3,1.9 -0.4,2.8c-0.1,0.9 -0.2,1.7 -0.3,2.5c-0.1,1.5 -0.3,2.8 -0.4,3.7c-0.1,0.9 -0.2,1.4 -0.2,1.4c0,0 0,-0.5 0,-1.4c0,-1 0.1,-2.2 0.2,-3.8c0,-0.8 0.1,-1.6 0.2,-2.5c0,-0.9 0.2,-1.8 0.3,-2.8c0.3,-1.9 0.6,-4 1,-6c0.4,-2.1 0.8,-4.1 1.2,-6c0.5,-1.9 0.9,-3.7 1.3,-5.2c0.8,-3 1.4,-5 1.4,-5c0,0 -0.4,2 -1.1,5.1z" fill="#3b2b78"/><path d="M239.74375,171.2c0,1 0,2.1 -0.1,3.3c0,1.2 -0.1,2.5 -0.2,3.8c-0.1,1.2 -0.2,2.5 -0.3,3.7c-0.1,1.2 -0.2,2.3 -0.3,3.3c-0.2,1.9 -0.4,3.2 -0.4,3.2c0,0 0,-1.3 0.1,-3.2c0,-1 0,-2.1 0.1,-3.3c0,-1.2 0.1,-2.5 0.2,-3.8c0.1,-1.2 0.2,-2.5 0.3,-3.7c0.1,-1.2 0.2,-2.3 0.3,-3.3c0.2,-1.9 0.4,-3.2 0.4,-3.2c0,0 0,1.2 -0.1,3.2z" fill="#3b2b78"/></g><path d="M205.14375,254.7c1.1,0.6 2.4,1.3 4,2c1.5,0.8 3.3,1.5 5.3,2.3c2,0.7 4.2,1.5 6.5,2.2c2.3,0.7 4.8,1.3 7.4,1.9c2.5,0.6 5.2,1 8,1.4c2.8,0.3 5.6,0.6 8.4,0.6h2.1c0.7,0 1.4,0 2.1,0c1.4,0 2.8,-0.1 4.2,-0.2c2.8,-0.2 5.5,-0.5 8.1,-1c1.3,-0.1 2.6,-0.5 3.8,-0.7c1.2,-0.3 2.4,-0.6 3.6,-0.9c2.4,-0.5 4.6,-1.3 6.6,-1.9c1,-0.3 2,-0.7 2.9,-1c0.4,-0.2 0.9,-0.3 1.3,-0.5c0.4,-0.2 0.8,-0.3 1.2,-0.5c1.6,-0.7 3,-1.2 4.1,-1.8c2.2,-1.1 3.5,-1.7 3.5,-1.7c0,0 -1.3,0.7 -3.5,1.8c-1.1,0.6 -2.5,1.2 -4.1,1.9c-1.6,0.8 -3.4,1.4 -5.4,2.2c-2.1,0.6 -4.2,1.4 -6.6,2c-1.1,0.3 -2.3,0.6 -3.6,0.9c-1.2,0.3 -2.5,0.6 -3.8,0.8c-2.6,0.4 -5.3,0.8 -8.1,1c-1.4,0.1 -2.8,0.2 -4.2,0.2c-1.5,0 -2.9,0 -4.3,0c-2.9,0 -5.7,-0.3 -8.5,-0.6c-2.8,-0.4 -5.5,-0.8 -8.1,-1.4c-2.6,-0.6 -5.1,-1.3 -7.4,-2c-2.4,-0.7 -4.5,-1.5 -6.5,-2.3c-3.9,-1.6 -7.1,-3.3 -9.2,-4.5c-2.1,-1.3 -3.3,-2.1 -3.3,-2.1c0,0 1.2,0.8 3.5,1.9z" fill="#3b2b78"/></g><path d="M240.14375,92.6c13.9,-5.6 15.7,26.9 15.7,26.9c-1.7,-2 -6.9,-4.4 -17.7,-4.4c-10.8,0.1 -10.1,2.7 -10.1,2.7c0,0 -1.8,-19.6 12.1,-25.2z" data-paper-data="{&quot;index&quot;:null}" fill="#211910"/><g data-paper-data="{&quot;index&quot;:null}"><path d="M248.64375,109c0,0 -2,8.7 -0.1,10.9c2,2.2 9.8,5.9 9.8,5.9c0,0 -10.1,15.3 -20.6,8.3c-10.5,-7 -4.7,-11.1 -4.7,-11.1c0,0 6.1,-1 5.2,-8.2c0,0 4.9,-9.8 10.4,-5.8z" fill="#ffe9b8"/><g><path d="M237.84375,119.1c-0.1,1.5 3.1,2.3 5.9,2.1c2.8,-0.3 4.6,-1.6 4.1,-3c0,0 4.9,5.5 11.9,6.9c6.9,1.4 2.5,13.7 -0.8,18.7c-3.4,5 -1,18.2 -4.5,21.9c-1.2,1.3 -2.3,0.8 -2.3,0.8c0,0 -1,1 -3.3,1.2c-4.4,0.4 -4.8,-1 -7.4,0c-4.4,1.6 -6.7,0.2 -6.7,0.2c0,0 -2.6,0.2 -3.6,-1c-0.3,-0.4 -0.9,-0.7 -0.9,-0.7c0,0 -0.9,0 -1.7,-1.4c-1.4,-2.4 0.2,-9.5 0.5,-16.5c0.2,-4.7 0.7,-9 -0.1,-11.4c-1.6,-5.4 -1.3,-13.1 1.6,-13.5c4.3,-0.7 7.3,-4.3 7.3,-4.3z" fill="#714fab"/><path d="M256.54375,160.6c0.1,0.4 0.1,0.9 0,1.5c-0.1,0.5 -0.2,1.1 -0.4,1.7c-0.1,0.2 -0.3,0.5 -0.4,0.8c-0.1,0.2 -0.3,0.5 -0.5,0.7c-0.2,0.2 -0.4,0.4 -0.6,0.6c-0.3,0.2 -0.5,0.3 -0.7,0.4c-0.2,0.1 -0.4,0.2 -0.6,0.2c-0.2,0 -0.4,0 -0.5,0c-0.3,0 -0.4,0 -0.4,0c0,0 0.1,0 0.4,-0.1c0.1,0 0.2,0 0.4,-0.1c0.1,0 0.3,-0.1 0.5,-0.2c0.1,-0.1 0.3,-0.3 0.5,-0.4c0.2,-0.2 0.3,-0.4 0.5,-0.6c0.1,-0.2 0.3,-0.4 0.4,-0.7c0.1,-0.3 0.2,-0.5 0.3,-0.8c0.2,-0.5 0.3,-1.1 0.4,-1.6c0.1,-0.6 0.2,-1.1 0.2,-1.5c0.1,-0.9 0.1,-1.5 0.1,-1.5c0,0 0.2,0.6 0.4,1.6z" fill="#3b2b78"/><path d="M229.94375,166c-0.2,0 -0.5,0 -0.9,-0.2c-0.4,-0.2 -0.7,-0.6 -1,-1.1c-0.3,-0.5 -0.5,-1.1 -0.6,-1.8c-0.2,-1.4 -0.2,-3 0,-4.7c0.1,-0.8 0.2,-1.7 0.3,-2.6c0.1,-0.9 0.2,-1.8 0.3,-2.7c0.2,-1.8 0.4,-3.6 0.5,-5.3c0.2,-1.7 0.3,-3.3 0.4,-4.7c0.1,-1.4 0.2,-2.5 0.2,-3.3c0,-0.8 0,-1.3 0,-1.3c0,0 0.1,0.5 0.1,1.3c0,0.8 0,1.9 0,3.3c-0.1,1.4 -0.1,3 -0.2,4.7c-0.1,1.8 -0.3,3.6 -0.4,5.4c-0.1,0.9 -0.2,1.8 -0.3,2.7c-0.1,0.9 -0.2,1.8 -0.3,2.6c-0.2,1.7 -0.4,3.3 -0.2,4.6c0,0.7 0.2,1.3 0.4,1.8c0.2,0.5 0.6,0.9 0.9,1.1c0.4,0.2 0.7,0.3 0.9,0.3c0.2,0 0.3,0 0.3,0c0,0 -0.1,0 -0.4,-0.1z" fill="#3b2b78"/><path d="M230.14375,165.8c0.2,0.2 0.4,0.4 0.7,0.6c0.3,0.2 0.6,0.4 0.9,0.6c0.3,0.2 0.7,0.3 1,0.4c0.3,0.1 0.6,0.2 0.9,0.2c0.3,0.1 0.5,0.1 0.7,0.1c0.2,0 0.3,0 0.3,0c0,0 -0.1,0.1 -0.3,0.1c-0.2,0 -0.4,0.1 -0.7,0.1c-0.3,0.1 -0.6,0.1 -1,0c-0.4,-0.1 -0.7,-0.2 -1.1,-0.4c-0.7,-0.3 -1.2,-1 -1.5,-1.5c-0.2,-0.3 -0.2,-0.5 -0.3,-0.7c-0.1,-0.2 -0.1,-0.3 -0.1,-0.3c0,0 0.2,0.4 0.5,0.8z" fill="#3b2b78"/><path d="M231.94375,165c0.3,0.6 0.9,1.3 1.8,2c0.9,0.7 2.1,1.2 3.5,1.1c0.7,0 1.4,-0.2 2.1,-0.4c0.7,-0.2 1.4,-0.5 2.2,-0.6c0.8,-0.1 1.6,-0.2 2.4,0c0.4,0.1 0.8,0.2 1.1,0.3c0.3,0.1 0.6,0.1 1,0.1c1.4,0 2.7,0 3.8,-0.2c0.6,-0.2 1,-0.4 1.4,-0.6c0.4,-0.2 0.7,-0.5 0.8,-0.8c0.1,-0.3 0.2,-0.5 0.2,-0.7c0,-0.2 0,-0.3 0,-0.3c0,0 0.1,0.4 -0.1,1c-0.1,0.3 -0.3,0.7 -0.7,1c-0.3,0.3 -0.8,0.5 -1.4,0.7c-1.1,0.4 -2.5,0.4 -3.9,0.4c-0.3,0 -0.7,0 -1.1,-0.1c-0.4,0 -0.8,-0.1 -1.1,-0.2c-0.7,-0.1 -1.4,-0.1 -2.1,0c-0.7,0.1 -1.4,0.4 -2.1,0.6c-0.7,0.3 -1.5,0.4 -2.2,0.4c-1.5,0 -2.8,-0.5 -3.7,-1.3c-0.9,-0.8 -1.4,-1.6 -1.7,-2.2c-0.3,-0.6 -0.4,-1 -0.4,-1c0,0 0.1,0.3 0.2,0.8z" fill="#3b2b78"/><path d="M247.94375,118.6c0,0.3 0,0.7 -0.4,1.3c-0.1,0.2 -0.3,0.4 -0.5,0.6c-0.2,0.2 -0.4,0.4 -0.7,0.5c-0.3,0.1 -0.6,0.2 -0.9,0.3c-0.4,0.1 -0.7,0.2 -1,0.2c-0.7,0 -1.3,0 -1.9,0c-0.3,0 -0.6,-0.1 -0.9,-0.1c-0.3,0 -0.6,-0.1 -0.8,-0.1c-0.9,-0.2 -1.5,-0.4 -1.5,-0.4c0,0 0.7,0 1.6,0.1c0.5,0 1,0 1.6,0c0.6,0 1.2,0 1.8,-0.1c0.3,0 0.6,-0.1 0.9,-0.1c0.3,-0.1 0.5,-0.2 0.8,-0.3c0.3,-0.2 0.5,-0.2 0.7,-0.4c0.2,-0.2 0.4,-0.3 0.5,-0.5c0.3,-0.4 0.5,-0.7 0.5,-1c0.1,-0.2 0.1,-0.4 0.1,-0.4c0,0 0.1,0.1 0.1,0.4z" fill="#3b2b78"/><path d="M241.24375,123c-0.1,1.3 -0.3,3.1 -0.5,4.8c-0.2,1.8 -0.5,3.5 -0.7,4.8c-0.1,0.7 -0.2,1.2 -0.3,1.6c-0.1,0.4 -0.1,0.6 -0.1,0.6c0,0 0,-0.2 0,-0.6c0,-0.4 0,-0.9 0,-1.6c0.1,-1.3 0.3,-3.1 0.5,-4.8c0.2,-1.8 0.5,-3.5 0.8,-4.8c0.3,-1.2 0.5,-2.1 0.5,-2.1c0,0 0,0.9 -0.2,2.1z" fill="#3b2b78"/><path d="M250.74375,120.5c0.6,0.4 1.4,1 2.3,1.6c0.5,0.3 0.9,0.5 1.3,0.8c0.4,0.3 0.8,0.5 1.1,0.7c0.3,0.2 0.6,0.3 0.8,0.4c0.2,0.1 0.3,0.2 0.3,0.2c0,0 -0.5,-0.1 -1.3,-0.3c-0.4,-0.1 -0.9,-0.3 -1.3,-0.5c-0.4,-0.2 -0.9,-0.5 -1.3,-0.8c-0.4,-0.3 -0.8,-0.6 -1.2,-0.9c-0.4,-0.3 -0.7,-0.6 -1,-0.9c-0.6,-0.6 -0.9,-1 -0.9,-1c0,0 0.4,0.2 1.2,0.7z" fill="#3b2b78"/><path d="M237.34375,119.8c-0.2,0.2 -0.4,0.5 -0.7,0.7c-0.3,0.2 -0.6,0.5 -0.9,0.7c-0.4,0.2 -0.7,0.4 -1,0.6c-0.3,0.2 -0.6,0.3 -0.9,0.4c-0.6,0.2 -1,0.2 -1,0.2c0,0 0.1,0 0.2,-0.1c0.2,-0.1 0.4,-0.3 0.6,-0.4c0.3,-0.1 0.5,-0.3 0.8,-0.5c0.3,-0.2 0.6,-0.4 0.9,-0.6c0.6,-0.4 1.2,-0.9 1.7,-1.2c0.5,-0.3 0.8,-0.5 0.8,-0.5c0,0 -0.2,0.4 -0.5,0.7z" fill="#3b2b78"/><path d="M239.83844,124.40086c-0.55228,-0.00263 -0.99786,-0.45247 -0.99523,-1.00475c0.00263,-0.55228 0.45247,-0.99786 1.00475,-0.99523c0.55228,0.00263 0.99786,0.45247 0.99523,1.00475c-0.00263,0.55228 -0.45247,0.99786 -1.00475,0.99523z" fill="#9ea69a"/><path d="M239.03842,128.90085c-0.55228,-0.00263 -0.99786,-0.45247 -0.99523,-1.00475c0.00263,-0.55228 0.45247,-0.99786 1.00475,-0.99523c0.55228,0.00263 0.99786,0.45247 0.99523,1.00475c-0.00263,0.55228 -0.45247,0.99786 -1.00475,0.99523z" fill="#9ea69a"/><path d="M238.63843,132.70095c-0.55228,-0.00263 -0.99786,-0.45247 -0.99523,-1.00475c0.00263,-0.55228 0.45247,-0.99786 1.00475,-0.99523c0.55228,0.00263 0.99786,0.45247 0.99523,1.00475c-0.00263,0.55228 -0.45247,0.99786 -1.00475,0.99523z" fill="#9ea69a"/></g></g><g data-paper-data="{&quot;index&quot;:null}"><g><g><path d="M274.44375,189.9c1,2.2 0,2.4 0,2.4c1.6,4.4 -0.5,3.1 -0.5,3.1c0.1,1.7 -0.6,1.6 -1.4,0.4c-0.8,-1.1 -1.8,-3.2 -1.8,-3.2c0.6,1.9 1.5,4.8 0.9,4.9c-0.6,0.2 -2,-1.5 -2.2,-2.8c-0.3,-1.7 -3.5,-4.7 -3.5,-4.7c0,0 2.5,4 0.9,4.6c-0.9,0.3 -1.3,-2.2 -2.8,-4.8c-2.2,-3.9 -1.3,-6.6 -1.3,-6.6c4.1,-6.4 10.4,4.5 11.7,6.7z" fill="#ffe9b8"/><path d="M271.34375,195.7c-0.1,-0.4 -0.2,-0.8 -0.4,-1.2c-0.2,-0.4 -0.4,-0.9 -0.6,-1.3c-0.2,-0.5 -0.4,-0.9 -0.6,-1.3c-0.2,-0.4 -0.4,-0.8 -0.6,-1.1c-0.1,-0.3 -0.3,-0.6 -0.4,-0.8c-0.1,-0.2 -0.2,-0.3 -0.2,-0.3c0,0 0,0 0.2,0.2c0.1,0.2 0.4,0.4 0.6,0.7c0.3,0.3 0.5,0.6 0.8,1c0.2,0.4 0.5,0.8 0.7,1.3c0.2,0.5 0.4,0.9 0.5,1.4c0.2,0.5 0.2,0.9 0.3,1.3c0.1,0.8 0,1.3 0,1.3c0,0 0,-0.5 -0.3,-1.2z" fill="#bd875f"/><path d="M273.44375,194.2c-0.3,-0.7 -0.7,-1.5 -1.1,-2.3c-0.2,-0.4 -0.4,-0.8 -0.6,-1.2c-0.2,-0.3 -0.4,-0.7 -0.6,-1c-0.2,-0.3 -0.3,-0.5 -0.4,-0.7c-0.1,-0.2 -0.2,-0.3 -0.2,-0.3c0,0 0.1,0.1 0.2,0.2c0.1,0.1 0.4,0.3 0.6,0.6c0.5,0.6 1.1,1.4 1.5,2.2c0.2,0.4 0.4,0.9 0.5,1.3c0.1,0.4 0.2,0.9 0.3,1.2c0.2,0.7 0.1,1.2 0.1,1.2c0,0 -0.1,-0.4 -0.3,-1.2z" fill="#bd875f"/><path d="M273.84375,191.7c-0.3,-0.5 -0.7,-1.1 -1,-1.7c-0.2,-0.3 -0.3,-0.6 -0.5,-0.9c-0.2,-0.3 -0.3,-0.6 -0.4,-0.8c-0.2,-0.5 -0.4,-0.8 -0.4,-0.8c0,0 0.3,0.2 0.7,0.6c0.3,0.4 0.8,1 1.1,1.6c0.1,0.3 0.3,0.6 0.4,0.9c0.1,0.3 0.2,0.7 0.3,0.9c0.1,0.5 0.2,0.9 0.2,0.9c0,0 -0.2,-0.3 -0.4,-0.7z" fill="#bd875f"/></g><path d="M262.54375,184.4c0,0.1 0.1,0.3 0.1,0.6c0,0.3 0.1,0.6 0.2,0.9c0.1,0.3 0.2,0.7 0.3,1c0.2,0.7 0.4,1.4 0.6,1.9c0.1,0.5 0.2,0.9 0.2,0.9c0,0 -0.2,-0.3 -0.5,-0.8c-0.2,-0.2 -0.4,-0.5 -0.5,-0.8c-0.1,-0.3 -0.3,-0.6 -0.4,-1c-0.2,-0.7 -0.3,-1.4 -0.3,-2c0.1,-0.3 0.1,-0.5 0.2,-0.7c0.1,-0.1 0.2,-0.2 0.2,-0.2c0,0 -0.1,0.1 -0.1,0.2z" fill="#bd875f"/></g><g><g><path d="M287.24375,156.4c0.3,2.9 -6.9,14.3 -12,20.2c-4.8,5.4 -6,6.9 -6,6.9c-2.7,2.3 -4.8,0.6 -5.1,-1.4c0,0 4,-7.1 6,-11.2c3,-6.4 7.7,-15.6 11.5,-18.3c1.8,-1.3 5.1,0.3 5.6,3.8z" fill="#714fab"/><path d="M277.44375,157.6c-0.5,0.9 -1.1,1.9 -1.8,3c-0.7,1.1 -1.3,2.3 -2,3.5c-0.7,1.2 -1.3,2.4 -1.9,3.5c-0.6,1.1 -1.2,2.2 -1.6,3.1c-0.9,1.9 -1.5,3.1 -1.5,3.1c0,0 0.1,-0.3 0.3,-0.9c0.2,-0.5 0.5,-1.4 0.9,-2.3c0.2,-0.4 0.5,-1 0.7,-1.5c0.3,-0.5 0.5,-1.1 0.8,-1.7c0.6,-1.2 1.2,-2.4 1.9,-3.6c0.7,-1.2 1.4,-2.4 2.1,-3.5c0.7,-1.1 1.4,-2.1 2,-2.9c1.2,-1.7 2.1,-2.7 2.1,-2.7c0,0 -0.8,1.1 -2,2.9z" fill="#3b2b78"/></g><path d="M271.24375,181.2c0.9,-1.1 1.9,-2.4 3,-3.7c1.1,-1.4 2.2,-2.8 3.3,-4.3c1.2,-1.5 2.2,-3 3.2,-4.4c1,-1.5 1.9,-2.8 2.6,-4c0.4,-0.6 0.7,-1.1 1,-1.6c0.2,-0.5 0.5,-1 0.7,-1.3c0.5,-0.7 0.7,-1.1 0.7,-1.1c0,0 -0.2,0.4 -0.6,1.1c-0.4,0.8 -0.9,1.8 -1.6,3c-0.3,0.6 -0.7,1.2 -1.1,1.9c-0.4,0.7 -0.8,1.4 -1.3,2.1c-0.9,1.5 -2,3 -3.1,4.5c-1.1,1.5 -2.3,3 -3.4,4.3c-1.2,1.3 -2.2,2.5 -3.2,3.5c-1,1 -1.8,1.8 -2.4,2.4c-0.6,0.6 -0.9,0.9 -0.9,0.9c0,0 1.3,-1.4 3.1,-3.3z" fill="#3b2b78"/></g><g><path d="M262.04375,140.8c-2.7,-3.3 -12.5,-18 -1.1,-15.8c11,2.1 31.4,32.4 25,33.9c-6.5,1.5 -17.9,-10.7 -23.9,-18.1z" fill="#714fab"/><path d="M260.54375,138c0.6,0.8 1.3,1.7 2.1,2.7c0.8,0.9 1.6,2 2.5,3c0.9,1 1.8,2.1 2.6,3c0.8,1 1.6,1.9 2.3,2.6c0.7,0.8 1.3,1.4 1.7,1.8c0.4,0.5 0.6,0.7 0.6,0.7c0,0 -0.2,-0.2 -0.7,-0.6c-0.4,-0.4 -1.1,-0.9 -1.8,-1.6c-0.8,-0.7 -1.6,-1.5 -2.5,-2.4c-0.9,-1 -1.8,-2 -2.7,-3c-0.9,-1 -1.7,-2.1 -2.5,-3.1c-0.8,-1 -1.4,-2 -2,-2.8c-1.1,-1.7 -1.8,-2.9 -1.8,-2.9c0,0 0.8,1 2.2,2.6z" fill="#3b2b78"/><path d="M256.54375,125.4c0.2,-0.2 0.5,-0.4 1,-0.5c0.4,-0.1 1,-0.2 1.7,-0.2c0.4,0 0.7,0.1 1.1,0.1c0.4,0.1 0.8,0.2 1.2,0.3c0.8,0.2 1.6,0.6 2.5,1c0.5,0.2 0.9,0.4 1.3,0.7c0.2,0.1 0.4,0.3 0.6,0.4c0.2,0.2 0.4,0.3 0.6,0.5c0.8,0.6 1.7,1.3 2.5,2c0.8,0.7 1.7,1.4 2.4,2.2c0.7,0.8 1.5,1.6 2.2,2.4c0.7,0.8 1.4,1.6 2.1,2.4c0.7,0.7 1.2,1.6 1.8,2.3c0.6,0.7 1.1,1.4 1.6,2.1c1.8,2.7 3,4.5 3,4.5c0,0 -1.3,-1.7 -3.3,-4.3c-0.5,-0.7 -1.1,-1.4 -1.7,-2.1c-0.6,-0.7 -1.3,-1.5 -1.9,-2.3c-0.7,-0.8 -1.4,-1.6 -2.1,-2.4c-0.6,-0.8 -1.4,-1.5 -2.2,-2.3c-0.7,-0.8 -1.5,-1.5 -2.3,-2.2c-0.8,-0.8 -1.6,-1.4 -2.4,-2c-0.2,-0.2 -0.4,-0.3 -0.6,-0.5c-0.2,-0.1 -0.4,-0.3 -0.6,-0.4c-0.4,-0.3 -0.8,-0.6 -1.2,-0.8c-0.9,-0.3 -1.6,-0.8 -2.4,-1c-0.4,-0.1 -0.7,-0.3 -1.1,-0.3c-0.3,-0.1 -0.7,-0.2 -1,-0.2c-0.7,-0.1 -1.2,0 -1.7,0.1c-0.4,0.1 -0.8,0.3 -1,0.4c-0.2,0.1 -0.3,0.2 -0.3,0.2c0,0 0.1,-0.1 0.2,-0.1z" fill="#3b2b78"/></g></g><g data-paper-data="{&quot;index&quot;:null}"><g><path d="M253.04375,121.9c25.9,5.8 33.6,30.6 33.6,30.6c-3.3,10.2 -28.3,18.6 -28.3,18.6c-6.1,-16.7 -18.2,-42.2 -18.2,-42.2l2.9,-9.4c6.5,-3.6 10.2,-4 10.2,-4z" fill="#122f42"/><path d="M231.94375,115.8c0,0 2,0.2 7.1,3.9l1.3,9.6c0,0 -6.5,25.8 -8.3,45.9c0,0 -16.8,-0.5 -21.2,-7.2c0,0 2.3,-41.4 21.7,-45.8z" fill="#122f42"/><g><path d="M237.44375,129.7c0.1,-0.2 0.2,-0.4 0.3,-0.6c0.3,-0.3 0.6,-0.6 0.9,-0.9l0.2,-0.1l0.1,0.1c0.2,0.2 0.5,0.3 0.7,0.4c0.3,0.1 0.5,0.2 0.8,0.2c0.3,0 0.6,0 0.8,-0.1c0.1,-0.1 0.2,-0.1 0.3,-0.2l0.1,-0.1l0.1,-0.1v-0.1h0.3c0.3,0.1 0.7,0.2 1,0.4c0.1,0.1 0.3,0.2 0.4,0.4c0.1,0.2 0.1,0.5 0.1,0.7c-0.1,0.2 -0.2,0.4 -0.3,0.5c-0.1,0.2 -0.2,0.3 -0.4,0.4c-0.3,0.2 -0.7,0.3 -1,0.4c-0.7,0.1 -1.4,0.1 -2.1,0c-0.3,-0.1 -0.7,-0.1 -1,-0.2c-0.2,0 -0.3,0 -0.5,-0.1c-0.2,0 -0.4,-0.1 -0.5,-0.2c-0.2,-0.1 -0.4,-0.5 -0.3,-0.8zM238.24375,130.5c0.2,0.1 0.3,0.2 0.5,0.2c0.3,0.1 0.7,0.2 1,0.2c0.7,0 1.4,0 2,-0.1c0.3,-0.1 0.6,-0.2 0.9,-0.4c0.1,-0.1 0.2,-0.2 0.3,-0.3c0.1,-0.2 0.2,-0.3 0.2,-0.4c0,-0.3 -0.1,-0.5 -0.4,-0.6c-0.3,-0.2 -0.6,-0.2 -0.9,-0.3l0.3,-0.1c-0.1,0.1 -0.1,0.2 -0.2,0.2c-0.1,0 -0.1,0.1 -0.2,0.1c-0.2,0 -0.3,0.1 -0.5,0.1c-0.3,0 -0.6,0 -0.9,0c-0.6,0 -1.1,-0.2 -1.7,-0.4h0.3c-0.3,0.3 -0.6,0.5 -0.8,0.8c-0.1,0.1 -0.2,0.3 -0.2,0.4c0,0.1 0,0.2 0.1,0.3c0.1,0 0.2,0.1 0.2,0.3z" fill="#141b30"/><g><path d="M238.3374,130.50093c-0.66274,-0.00316 -1.19744,-0.54297 -1.19429,-1.20571c0.00316,-0.66274 0.54297,-1.19744 1.20571,-1.19429c0.66274,0.00316 1.19744,0.54297 1.19429,1.20571c-0.00316,0.66274 -0.54297,1.19744 -1.20571,1.19429z" fill="#b5aec4"/><path d="M237.54375,129.4c-0.1,-0.2 -0.1,-0.5 0.1,-0.8c0.2,-0.3 0.6,-0.3 0.8,-0.3c0.3,0.1 0.4,0.1 0.4,0.1c0,0 -0.2,0 -0.4,0c-0.1,0 -0.2,0.1 -0.3,0.1c-0.1,0 -0.2,0.1 -0.3,0.2c-0.2,0.2 -0.2,0.5 -0.2,0.7c0,0.3 0,0.4 0,0.4c0,0 -0.1,-0.1 -0.1,-0.4z" fill="#ffffff"/><path d="M239.34375,129.2c0.1,0.2 0.1,0.5 -0.1,0.8c-0.2,0.3 -0.6,0.3 -0.8,0.3c-0.3,-0.1 -0.4,-0.1 -0.4,-0.1c0,0 0.2,0 0.4,0c0.1,0 0.2,-0.1 0.3,-0.1c0.1,0 0.2,-0.1 0.3,-0.2c0.2,-0.2 0.2,-0.5 0.2,-0.7c0,-0.3 0,-0.4 0,-0.4c0,0 0,0.1 0.1,0.4z" fill="#ffffff"/></g><g><path d="M242.6375,130.5009c-0.66274,-0.00316 -1.19744,-0.54297 -1.19429,-1.20571c0.00316,-0.66274 0.54297,-1.19744 1.20571,-1.19429c0.66274,0.00316 1.19744,0.54297 1.19429,1.20571c-0.00316,0.66274 -0.54297,1.19744 -1.20571,1.19429z" fill="#b5aec4"/><path d="M241.84375,129.4c-0.1,-0.2 -0.1,-0.5 0.1,-0.8c0.2,-0.3 0.6,-0.3 0.8,-0.3c0.3,0.1 0.4,0.1 0.4,0.1c0,0 -0.2,0 -0.4,0c-0.1,0 -0.2,0.1 -0.3,0.1c-0.1,0 -0.2,0.1 -0.3,0.2c-0.2,0.2 -0.2,0.5 -0.2,0.7c0,0.3 0,0.4 0,0.4c0,0 -0.1,-0.1 -0.1,-0.4z" fill="#ffffff"/><path d="M243.54375,129.2c0.1,0.2 0.1,0.5 -0.1,0.8c-0.2,0.3 -0.6,0.3 -0.8,0.3c-0.3,-0.1 -0.4,-0.1 -0.4,-0.1c0,0 0.2,0 0.4,0c0.1,0 0.2,-0.1 0.3,-0.1c0.1,0 0.2,-0.1 0.3,-0.2c0.2,-0.2 0.2,-0.5 0.2,-0.7c0,-0.3 0,-0.4 0,-0.4c0,0 0.1,0.1 0.1,0.4z" fill="#ffffff"/></g></g></g><path d="M255.34375,122.6c0.6,0.1 1.3,0.3 2.2,0.6c0.5,0.1 0.9,0.2 1.4,0.4c0.5,0.2 1,0.4 1.5,0.6c1,0.4 2.1,0.9 3.2,1.5c1.1,0.6 2.3,1.2 3.4,2c0.6,0.4 1.2,0.8 1.8,1.2c0.5,0.4 1.1,0.9 1.7,1.3c0.3,0.3 0.6,0.5 0.9,0.7l0.8,0.7l1.7,1.5c1,1 2,2.1 3,3.2c0.9,1.1 1.8,2.2 2.7,3.3c0.8,1.1 1.5,2.2 2.2,3.3c0.7,1.1 1.2,2.1 1.8,3.1c0.5,1 1,1.9 1.4,2.7c0.3,0.8 0.6,1.5 0.9,2.1c0.5,1.2 0.8,1.9 0.8,1.9c0,0 -0.3,-0.6 -0.9,-1.8c-0.3,-0.6 -0.6,-1.3 -1,-2.1c-0.4,-0.8 -0.9,-1.6 -1.5,-2.6c-0.5,-0.9 -1.1,-2 -1.8,-3c-0.8,-1.1 -1.5,-2.2 -2.3,-3.3c-0.9,-1.1 -1.8,-2.2 -2.7,-3.3c-1,-1 -2,-2.1 -3,-3.1l-1.6,-1.5l-0.8,-0.7c-0.3,-0.3 -0.6,-0.5 -0.9,-0.7c-0.6,-0.4 -1.1,-0.9 -1.7,-1.3c-0.5,-0.4 -1.1,-0.8 -1.7,-1.2c-1.2,-0.8 -2.3,-1.4 -3.4,-2.1c-1.1,-0.6 -2.2,-1.2 -3.2,-1.6c-0.5,-0.2 -0.9,-0.4 -1.4,-0.6c-0.4,-0.2 -0.9,-0.3 -1.3,-0.5c-0.8,-0.3 -1.6,-0.5 -2.2,-0.7c-1.3,-0.4 -2,-0.5 -2,-0.5c0,0 0.7,0 2,0.5z" fill="#141b30"/><path d="M243.44375,136c0.9,1.9 2.1,4.1 3.2,6.5c1.1,2.4 2.3,4.9 3.5,7.5c1.2,2.6 2.3,5.2 3.3,7.6c1,2.5 1.9,4.8 2.6,6.8c0.4,1 0.6,1.9 0.9,2.7c0.3,0.8 0.5,1.5 0.7,2.1c0.3,1.2 0.5,1.9 0.5,1.9c0,0 -0.2,-0.6 -0.6,-1.8c-0.2,-0.6 -0.5,-1.3 -0.8,-2.1c-0.3,-0.8 -0.6,-1.7 -1,-2.7c-0.7,-2 -1.7,-4.3 -2.7,-6.7c-1,-2.5 -2.1,-5 -3.3,-7.6c-1.1,-2.5 -2.3,-5.1 -3.4,-7.5c-1.1,-2.3 -2.1,-4.6 -3,-6.5c-1.8,-3.8 -3,-6.4 -3,-6.4c0,0 1.4,2.5 3.1,6.2z" fill="#141b30"/><path d="M232.24375,173.5c0.1,-1.1 0.3,-2.8 0.5,-4.8c0.2,-2 0.5,-4.3 0.9,-6.8c0.3,-2.5 0.8,-5.2 1.2,-7.8c0.4,-2.6 0.9,-5.2 1.4,-7.7c0.5,-2.5 1,-4.7 1.5,-6.7c0.4,-2 0.9,-3.6 1.2,-4.7c0.3,-1.2 0.5,-1.8 0.5,-1.8c0,0 -0.1,0.7 -0.4,1.8c-0.3,1.1 -0.6,2.7 -1,4.7c-0.4,1.9 -0.8,4.2 -1.3,6.7c-0.5,2.4 -1,5.1 -1.4,7.7c-0.5,2.6 -0.9,5.2 -1.3,7.7c-0.4,2.5 -0.8,4.8 -1.1,6.8c-0.3,2 -0.5,3.6 -0.7,4.8c-0.1,1.1 -0.2,1.8 -0.2,1.8c0,0 0,-0.7 0.2,-1.7z" fill="#141b30"/><path d="M210.84375,165.6c0.1,-1.4 0.3,-3.5 0.6,-6c0.3,-2.4 0.7,-5.3 1.4,-8.4c0.4,-1.5 0.8,-3.1 1.2,-4.7c0.4,-1.6 0.9,-3.2 1.5,-4.8c0.6,-1.5 1.2,-3.1 1.9,-4.6c0.7,-1.5 1.5,-3 2.3,-4.3c0.4,-0.6 0.8,-1.3 1.3,-1.9c0.4,-0.7 0.8,-1.2 1.3,-1.8c0.9,-1.1 1.9,-2.1 2.8,-2.9c0.4,-0.4 0.9,-0.8 1.4,-1.1c0.3,-0.2 0.5,-0.3 0.7,-0.5c0.3,-0.1 0.5,-0.3 0.7,-0.4c0.8,-0.5 1.6,-0.9 2.3,-1.2c0.7,-0.3 1.2,-0.5 1.6,-0.6c0.4,-0.1 0.6,-0.2 0.6,-0.2c0,0 -0.2,0.1 -0.6,0.2c-0.4,0.2 -1,0.4 -1.6,0.7c-0.7,0.3 -1.5,0.7 -2.3,1.3c-0.2,0.1 -0.4,0.3 -0.6,0.4c-0.2,0.1 -0.4,0.3 -0.6,0.5c-0.5,0.4 -1,0.8 -1.4,1.2c-0.9,0.9 -1.8,1.9 -2.7,3c-0.5,0.6 -0.9,1.2 -1.3,1.8c-0.4,0.6 -0.8,1.2 -1.2,1.9c-0.8,1.3 -1.5,2.7 -2.2,4.2c-0.6,1.5 -1.2,3 -1.8,4.6c-0.5,1.5 -1.1,3.1 -1.5,4.7c-0.5,1.6 -0.8,3.2 -1.2,4.7c-0.7,3.1 -1.2,5.9 -1.6,8.4c-0.4,2.5 -0.7,4.5 -0.8,6c-0.1,1.5 -0.2,2.3 -0.2,2.3c0,0 0.1,-0.9 0,-2.5z" fill="#141b30"/><path d="M233.34375,124.1c0.5,0.4 1.1,1 1.7,1.6c0.3,0.3 0.6,0.6 0.9,0.8c0.3,0.2 0.6,0.4 0.9,0.6c0.3,0.1 0.5,0.2 0.7,0.3c0.2,0.1 0.3,0.1 0.3,0.1c0,0 -0.1,0 -0.3,0c-0.2,-0.1 -0.5,-0.1 -0.8,-0.2c-0.3,-0.1 -0.6,-0.3 -1,-0.5c-0.3,-0.2 -0.7,-0.5 -1,-0.8c-0.7,-0.6 -1.2,-1.3 -1.6,-1.9c-0.3,-0.6 -0.5,-1 -0.5,-1c0,0 0.3,0.3 0.7,1z" fill="#141b30"/><path d="M252.14375,124.1c-0.4,0.5 -0.9,1.2 -1.6,1.8c-0.4,0.3 -0.7,0.6 -1.1,0.8c-0.3,0.2 -0.7,0.4 -1,0.5c-0.3,0.1 -0.6,0.1 -0.8,0.1c-0.2,0 -0.3,0 -0.3,0c0,0 0.1,0 0.3,-0.1c0.2,0 0.4,-0.2 0.7,-0.3c0.3,-0.1 0.6,-0.4 0.9,-0.6c0.4,-0.3 0.7,-0.5 1,-0.8c0.6,-0.6 1.2,-1.1 1.7,-1.6c0.5,-0.5 0.8,-0.8 0.8,-0.8c0,0 -0.2,0.4 -0.6,1z" fill="#141b30"/></g><g data-paper-data="{&quot;index&quot;:null}"><path d="M240.94375,82.8c15.7,1.2 34.7,12.6 34.2,13.9c-1.1,2.9 -30.4,0 -36.4,0c-6,0 -31,-5.3 -29.4,-7.8c2.2,-3.4 15.9,-7.3 31.6,-6.1z" fill="#0c252b"/><g><g><g><g><path d="M228.04375,114.3c-2.1,5.3 1.5,7.3 1.5,7.3c-6.2,-0.7 -4.1,-11.5 -4.1,-11.5c-3.1,5.4 0.9,8.8 0.9,8.8c-4,-0.7 -3.9,-8.9 -1,-13c2.9,-4.1 2.2,-10.9 2,-16.5c0,0 6.8,8.8 0.7,24.9z" fill="#382a1b"/><path d="M228.74375,121.5c-0.4,0 -1.2,-0.3 -1.8,-0.9c-0.7,-0.7 -1.2,-1.6 -1.5,-2.6c-0.1,-0.5 -0.2,-1 -0.3,-1.6c-0.1,-0.6 -0.2,-1.1 -0.2,-1.7c0,-1.1 0.1,-2.2 0.2,-3.3c0.2,-1 0.4,-2 0.7,-2.8c0.2,-0.8 0.6,-1.5 0.8,-1.9c0.1,-0.2 0.2,-0.4 0.3,-0.5c0.1,-0.1 0.1,-0.2 0.1,-0.2c0,0 -0.1,0.3 -0.3,0.7c-0.1,0.2 -0.2,0.5 -0.3,0.8c-0.1,0.3 -0.2,0.7 -0.3,1.1c-0.2,0.8 -0.4,1.8 -0.5,2.8c-0.1,1 -0.2,2.1 -0.1,3.2c0,0.5 0,1.1 0.1,1.6c0.1,0.6 0.2,1.1 0.3,1.6c0.3,0.9 0.7,1.8 1.2,2.4c0.5,0.6 1.1,1 1.6,1.1c0.4,0.2 0.7,0.2 0.7,0.2c0,0 -0.2,0.1 -0.7,0z" fill="#241b10"/><path d="M225.04375,118.3c-0.5,-0.4 -1.1,-1.1 -1.5,-2.1c-0.2,-0.5 -0.3,-1.1 -0.4,-1.7c0,-0.6 0,-1.3 0,-1.9c0,-1.3 0.2,-2.7 0.7,-4.1c0.5,-1.3 1.4,-2.4 1.9,-3.6c0.5,-1.2 0.9,-2.3 1.2,-3.3c0.2,-1 0.4,-1.9 0.5,-2.5c0.1,-0.6 0.1,-1 0.1,-1c0,0 0,0.4 0,1c0,0.6 -0.1,1.5 -0.3,2.5c-0.3,1.1 -0.5,2.3 -1.1,3.5c-0.5,1.2 -1.4,2.3 -1.8,3.6c-0.5,1.2 -0.7,2.6 -0.8,3.9c-0.1,0.6 -0.1,1.2 -0.1,1.8c0,0.6 0.1,1.1 0.3,1.6c0.3,1 0.8,1.7 1.3,2.1c0.5,0.4 0.8,0.5 0.8,0.5c0,0 -0.4,0 -0.8,-0.3z" fill="#241b10"/></g><path d="M254.74375,100.3c-1.8,5.8 -2.9,8.9 -5.8,11.8c-4.9,4.9 -12.2,6.1 -12.2,6.1c-12.2,-9.5 -8.1,-18.7 -8.1,-18.7c0,0 -2.5,-9.3 0.6,-14c9.5,-14.5 31,-3.7 25.5,14.8z" fill="#ffe9b8"/><path d="M242.43316,101.10055c-0.55228,-0.00263 -0.99551,-0.94496 -0.98999,-2.10476c0.00552,-1.1598 0.45771,-2.09787 1.00999,-2.09524c0.55228,0.00263 0.99551,0.94496 0.98999,2.10476c-0.00552,1.1598 -0.45771,2.09787 -1.00999,2.09524z" fill="#382a1b"/><path d="M232.43306,101.10054c-0.55228,-0.00263 -0.99551,-0.94496 -0.98999,-2.10476c0.00552,-1.1598 0.45771,-2.09787 1.00999,-2.09524c0.55228,0.00263 0.99551,0.94496 0.98999,2.10476c-0.00552,1.1598 -0.45771,2.09787 -1.00999,2.09524z" fill="#382a1b"/><path d="M232.04375,95.5c2,-0.2 2.5,2.7 2.5,2.7c-2.9,-2.1 -4.5,-0.7 -4.5,-0.7c0,0 0,-1.8 2,-2z" fill="#ffc8a6"/><path d="M245.14375,97.5c0,0 -1.5,-1.4 -4.5,0.7c0,0 0.6,-3.1 2.5,-2.9c1.9,0.2 2,2.2 2,2.2z" fill="#ffc8a6"/><path d="M234.14375,98.1c-0.5,-0.2 -1.1,-0.6 -1.8,-0.7c-0.2,0 -0.3,-0.1 -0.5,-0.1c-0.2,0 -0.3,0 -0.5,0c-0.3,0 -0.6,0 -0.9,0.1c-0.2,0.1 -0.5,0.1 -0.6,0.2c-0.1,0.1 -0.2,0.1 -0.2,0.1c0.1,0 0.3,-0.3 0.8,-0.6c0.1,-0.1 0.2,-0.2 0.4,-0.2c0.1,0 0.3,-0.1 0.5,-0.1c0.4,0 0.8,0 1.2,0.1c0.4,0.1 0.8,0.2 1.1,0.4c0.3,0.2 0.6,0.4 0.8,0.6c0.4,0.4 0.6,0.7 0.6,0.7c0,0 -0.3,-0.2 -0.9,-0.5z" fill="#382a1b"/><path d="M240.74375,97.8c0.2,-0.2 0.5,-0.4 0.8,-0.6c0.4,-0.2 0.7,-0.3 1.1,-0.4c0.4,0 0.8,-0.1 1.2,0c0.2,0 0.3,0 0.5,0.1c0.1,0.1 0.3,0.1 0.4,0.2c0.5,0.3 0.7,0.6 0.7,0.6c0,0 0,0 -0.2,-0.1c-0.1,-0.1 -0.3,-0.2 -0.6,-0.2c-0.3,-0.1 -0.6,-0.1 -0.9,-0.1c-0.2,0 -0.3,0 -0.5,0c-0.2,0 -0.3,0.1 -0.5,0.1c-0.7,0.1 -1.3,0.5 -1.8,0.7c-0.5,0.3 -0.8,0.5 -0.8,0.5c0,0 0.2,-0.3 0.6,-0.8z" fill="#382a1b"/><path d="M240.34375,96.1c0.6,-0.3 1.5,-0.7 2.4,-0.9c0.5,-0.1 1,-0.2 1.4,-0.2c0.4,0 0.8,0 1.2,0.1c0.3,0 0.6,0.1 0.8,0.2c0.2,0.1 0.3,0.1 0.3,0.1c0,0 -0.1,0 -0.3,0c-0.2,0 -0.5,0 -0.8,0c-0.7,0.1 -1.6,0.2 -2.5,0.4c-0.9,0.2 -1.7,0.4 -2.4,0.6c-0.7,0.2 -1.1,0.3 -1.1,0.3c0,0 0.4,-0.3 1,-0.6z" fill="#382a1b"/><path d="M230.04375,95.2c0.6,0 1.4,0 2.2,0.2c0.8,0.2 1.6,0.4 2.1,0.7c0.6,0.2 0.9,0.5 0.9,0.5c0,0 -0.1,-0.1 -0.3,-0.1c-0.2,0 -0.4,0 -0.7,-0.1c-0.6,-0.1 -1.3,-0.2 -2.1,-0.4c-0.8,-0.2 -1.5,-0.4 -2.1,-0.5c-0.6,-0.2 -1,-0.3 -1,-0.3c0,0 0.4,-0.1 1,0z" fill="#382a1b"/><path d="M234.64375,107.6c-0.2,-0.2 -0.4,-0.5 -0.5,-0.9c-0.1,-0.4 -0.1,-1 0,-1.5c0,-0.3 0.1,-0.6 0.2,-0.8c0.1,-0.3 0.2,-0.5 0.3,-0.8c0.8,-2.1 1.5,-4.1 1.5,-4.1c0,0 -0.6,2.1 -1.1,4.2c-0.2,0.5 -0.3,1 -0.4,1.5c0,0.5 0,0.9 0,1.3c0.1,0.8 0.3,1.3 0.3,1.3c0,0 -0.2,-0.1 -0.3,-0.2z" fill="#a16a51"/><path d="M236.64375,106.8c0.2,0 0.4,0.1 0.5,0.2c0.1,0.1 0.2,0.3 0.2,0.5c0,0.2 -0.1,0.3 -0.1,0.3c0,0 -0.1,-0.1 -0.2,-0.1c-0.1,-0.1 -0.2,-0.1 -0.3,-0.2c-0.1,-0.1 -0.1,-0.2 -0.2,-0.3c-0.1,-0.1 -0.1,-0.2 -0.1,-0.2c0,0 0.1,0 0.2,-0.2z" fill="#a16a51"/><path d="M235.44375,111.6c0.8,-0.1 1.8,-0.2 2.9,-0.4c1.1,-0.2 2.1,-0.3 2.9,-0.5c0.4,-0.1 0.8,-0.1 1,-0.2c0.3,-0.1 0.4,-0.1 0.4,-0.1c0,0 -0.4,0.3 -1.2,0.6c-0.8,0.3 -1.8,0.6 -2.9,0.8c-1.1,0.2 -2.2,0.2 -3,0.2c-0.9,0 -1.4,-0.1 -1.4,-0.1c0,0 0.5,-0.1 1.3,-0.3z" fill="#a16a51"/><g><path d="M233.24375,90.8c-0.7,-0.9 -0.4,-4 -0.4,-4c-0.5,1.5 -0.7,4 -0.7,4c-1.5,-3.2 0.5,-6.5 0.5,-6.5c-2.2,2.5 -1.8,7 -1.8,7c-2,0.1 -4.2,1.7 -4.2,1.7c-0.5,-5.2 1.3,-9.5 3.5,-11.8c4.9,-5.2 11,-3.4 11,-3.4c2.6,-0.8 8.9,-0.1 12.7,4.3c4.1,4.7 5.1,13.1 6.1,21.9c0.5,3.8 0.9,4.8 3.1,8.5c2.5,4.1 -1.1,6 -1.1,6c2.2,-2.7 -1.9,-7.2 -1.9,-7.2c0,0 1.9,7.2 -0.1,9.8c-2.1,2.6 -7.3,1.9 -7.3,1.9c3.4,-2 1.6,-10.3 1.6,-10.3c0.8,10 -4.3,10.3 -4.3,10.3c5.8,-1.4 1.3,-28 1.3,-28c-1.6,-1.4 -4.4,-2.2 -4.4,-2.2c0.9,-1.4 0.4,-4.9 0.4,-4.9c0.2,2.8 -1.5,4.4 -1.5,4.4c0.5,-2.1 -0.7,-5 -0.7,-5c0.5,2 -0.1,4.7 -0.1,4.7c-4.8,-1.3 -10.5,-1.3 -10.5,-1.3c-1.2,-3.9 0.7,-7.6 0.7,-7.6c-1.6,2.1 -1.7,7.7 -1.9,7.7z" fill="#382a1b"/><path d="M250.44375,122.9c0.2,-0.1 0.5,-0.2 0.7,-0.4c0.3,-0.2 0.5,-0.4 0.8,-0.7c0.3,-0.3 0.5,-0.6 0.7,-1c0.2,-0.4 0.3,-0.9 0.5,-1.3c0.1,-0.5 0.3,-1 0.4,-1.5c0,-0.5 0.2,-1 0.2,-1.5c0.1,-0.6 0.2,-1.1 0.2,-1.6c0.1,-0.5 0.1,-1 0.1,-1.5c0,-0.5 0,-0.9 0,-1.4c0,-0.5 0,-0.9 0,-1.3c-0.1,-1.6 -0.1,-2.7 -0.1,-2.7c0,0 0.2,1 0.4,2.6c0,0.4 0.1,0.8 0.1,1.3c0,0.4 0.1,0.9 0.1,1.4c0,0.5 0,1 0,1.5c0,0.5 -0.1,1.1 -0.1,1.6c-0.1,0.6 -0.2,1.1 -0.3,1.6c-0.1,0.5 -0.3,1 -0.4,1.5c-0.2,0.4 -0.3,0.9 -0.6,1.3c-0.2,0.5 -0.5,0.8 -0.8,1.1c-0.3,0.3 -0.6,0.5 -0.9,0.7c-0.3,0.1 -0.6,0.2 -0.8,0.3c-0.2,0.1 -0.4,0.1 -0.5,0.1c-0.1,0 -0.2,0 -0.2,0c0,0 0.2,0 0.5,-0.1z" fill="#241b10"/><path d="M252.74375,123.1c0.2,0 0.4,0 0.6,-0.1c0.2,0 0.4,-0.1 0.7,-0.2c0.1,-0.1 0.3,-0.1 0.4,-0.2c0.1,-0.1 0.3,-0.2 0.4,-0.3c0.2,-0.1 0.3,-0.2 0.4,-0.3c0.1,-0.1 0.2,-0.3 0.3,-0.4c0.1,-0.1 0.2,-0.2 0.3,-0.4l0.3,-0.5c0.2,-0.3 0.3,-0.7 0.4,-1c0.1,-0.4 0.2,-0.7 0.3,-1.1c0.1,-0.4 0.1,-0.8 0.2,-1.1c0.1,-0.7 0.1,-1.3 0.2,-1.9c0,-1.1 0.1,-1.9 0.1,-1.9c0,0 0.2,0.7 0.3,1.9c0,0.6 0.1,1.3 0,2c0,0.3 0,0.7 -0.1,1.1c-0.1,0.3 -0.2,0.7 -0.3,1.1c-0.2,0.4 -0.3,0.8 -0.5,1.1c-0.2,0.4 -0.4,0.7 -0.7,1c-0.1,0.2 -0.2,0.3 -0.4,0.4c-0.1,0.1 -0.2,0.2 -0.4,0.3c-0.1,0 -0.3,0.1 -0.4,0.2c-0.1,0.1 -0.3,0.2 -0.4,0.2c-0.3,0.1 -0.6,0.1 -0.8,0.1c-0.2,0 -0.4,0 -0.6,0c-0.3,0 -0.5,-0.1 -0.5,-0.1c0,0 0.2,0 0.2,0.1z" fill="#241b10"/><path d="M254.84375,123c0.6,0 1.4,-0.1 2.3,-0.4c0.5,-0.2 1,-0.4 1.4,-0.7c0.5,-0.3 0.9,-0.7 1.2,-1.2c0.4,-0.4 0.6,-1 0.7,-1.6c0.1,-0.6 0.1,-1.3 0.1,-1.9c0,-1.2 -0.2,-2.5 -0.4,-3.7c-0.2,-1.2 -0.4,-2.3 -0.6,-3.3c-0.4,-1.9 -0.6,-3.2 -0.6,-3.2c0,0 0.4,1.2 0.9,3.2c0.5,1.9 1.2,4.5 1.3,7.1c0,0.7 -0.1,1.3 -0.2,2c-0.2,0.6 -0.4,1.3 -0.8,1.8c-0.3,0.5 -0.8,0.9 -1.3,1.2c-0.5,0.3 -1,0.5 -1.5,0.6c-1,0.2 -1.8,0.2 -2.4,0.2c-0.6,0 -0.9,-0.1 -0.9,-0.1c0,0 0.4,0 0.8,0z" fill="#241b10"/><path d="M241.74375,77.8c0.4,-0.1 1,-0.2 1.7,-0.2c1.4,0 3.6,0.1 5.9,1.1c1.2,0.5 2.4,1.2 3.4,2.2c1,1 2,2.2 2.8,3.5c1.7,2.7 2.6,5.9 3.2,9.2c0.6,3.3 0.9,6.6 1.3,9.7c0.2,1.6 0.4,3.1 0.8,4.4c0.4,1.4 1,2.6 1.7,3.6c0.6,1.1 1.2,2.2 1.4,3.2c0.3,1 0,2 -0.4,2.6c-0.4,0.7 -0.9,1.1 -1.2,1.3c-0.3,0.2 -0.5,0.3 -0.5,0.3c0,0 0.2,-0.1 0.5,-0.4c0.3,-0.2 0.7,-0.7 1,-1.3c0.3,-0.6 0.5,-1.5 0.2,-2.4c-0.3,-0.9 -0.8,-1.9 -1.5,-2.9c-0.7,-1 -1.2,-2.3 -1.6,-3.7c-0.4,-1.4 -0.6,-2.9 -0.8,-4.5c-0.4,-3.1 -0.6,-6.4 -1.2,-9.7c-0.6,-3.3 -1.5,-6.5 -3.1,-9.2c-0.7,-1.3 -1.7,-2.5 -2.7,-3.5c-1.1,-1 -2.2,-1.8 -3.3,-2.3c-2.2,-1.1 -4.4,-1.2 -5.8,-1.2c-0.7,0 -1.3,0 -1.7,0.1c-0.4,0.1 -0.6,0.1 -0.6,0.1c0,0 0.2,-0.1 0.5,0z" fill="#241b10"/><path d="M252.44375,106.9c-0.3,-2.1 -0.6,-4.9 -1,-7.7c-0.1,-1.4 -0.3,-2.8 -0.5,-4.1c-0.2,-1.3 -0.3,-2.6 -0.5,-3.6c-0.2,-1 -0.4,-1.9 -0.5,-2.5c-0.2,-0.6 -0.4,-1 -0.4,-1c0,0 0.1,0.3 0.3,0.9c0.2,0.6 0.4,1.5 0.7,2.5c0.6,2 1,4.8 1.4,7.6c0.2,0.7 0.2,1.4 0.3,2.1c0.1,0.7 0.1,1.3 0.2,2c0.2,1.3 0.2,2.5 0.3,3.6c0.1,1.1 0.1,2 0.1,2.6c0,0.6 0,1 0,1c0,0 -0.1,-1.4 -0.4,-3.4z" fill="#241b10"/><path d="M246.34375,90.9c0.1,-0.4 0.3,-0.9 0.4,-1.4c0.1,-0.5 0.1,-1 0.1,-1.6c0,-0.2 0,-0.5 0,-0.8c0,-0.3 0,-0.5 -0.1,-0.8c0,-0.3 -0.1,-0.6 -0.1,-0.8c-0.1,-0.3 -0.2,-0.5 -0.2,-0.7c-0.1,-0.4 -0.2,-0.7 -0.3,-1c-0.1,-0.3 -0.1,-0.4 -0.1,-0.4c0,0 0.1,0.1 0.2,0.3c0.1,0.3 0.3,0.6 0.5,1c0.2,0.5 0.4,0.9 0.5,1.5c0.1,0.3 0.2,0.6 0.2,0.9c0.1,0.3 0.1,0.6 0.1,0.9c0,0.6 0,1.3 -0.2,1.8c-0.1,0.5 -0.4,1 -0.6,1.4c-0.5,0.8 -1,1.1 -1,1.1c0,0 0.4,-0.5 0.6,-1.4z" fill="#241b10"/><path d="M244.94375,90.8c0,-0.7 0,-1.6 -0.1,-2.5c-0.1,-0.9 -0.2,-1.8 -0.3,-2.5c-0.1,-0.3 -0.1,-0.6 -0.2,-0.8c-0.1,-0.2 -0.1,-0.3 -0.1,-0.3c0,0 0.1,0.1 0.2,0.3c0.1,0.2 0.3,0.5 0.4,0.8c0.3,0.6 0.5,1.6 0.6,2.5c0,1 -0.1,1.9 -0.2,2.6c-0.1,0.7 -0.3,1.1 -0.3,1.1c0,0 0,-0.4 0,-1.2z" fill="#241b10"/><path d="M242.04375,78.6c0.5,0.1 1.1,0.2 1.7,0.6c0.3,0.2 0.6,0.4 0.8,0.6c0.2,0.2 0.4,0.5 0.5,0.7c0.1,0.3 0.2,0.5 0.2,0.6c0.1,0.1 0.1,0.2 0.1,0.2c-0.1,0 -0.3,-0.3 -0.6,-0.6c-0.3,-0.3 -0.8,-0.7 -1.3,-1c-0.5,-0.4 -1.1,-0.6 -1.5,-0.8c-0.4,-0.2 -0.7,-0.3 -0.7,-0.3c0,0 0.4,-0.1 0.8,0z" fill="#241b10"/><path d="M236.34375,89.3c0,-0.9 0,-2.1 0.1,-3.3c0.1,-0.6 0.1,-1.2 0.3,-1.8c0.1,-0.6 0.3,-1.1 0.5,-1.5c0.2,-0.5 0.4,-0.8 0.6,-1c0.2,-0.2 0.3,-0.3 0.3,-0.3c0,0 -0.1,0.2 -0.2,0.4c-0.1,0.2 -0.2,0.6 -0.3,1c-0.2,0.9 -0.4,2 -0.5,3.2c-0.1,1.2 -0.2,2.4 -0.3,3.3c-0.1,0.9 -0.2,1.5 -0.2,1.5c0,0 -0.1,-0.6 -0.3,-1.5z" fill="#241b10"/><path d="M233.34375,89.4c0,-0.9 0.1,-2.1 0.4,-3.3c0.1,-0.6 0.3,-1.2 0.5,-1.7c0.2,-0.5 0.4,-1 0.7,-1.4c0.1,-0.2 0.3,-0.4 0.4,-0.5c0.1,-0.1 0.2,-0.2 0.3,-0.3c0.2,-0.2 0.3,-0.3 0.3,-0.3c0,0 -0.1,0.1 -0.2,0.3c0,0.1 -0.1,0.2 -0.2,0.4c-0.1,0.1 -0.2,0.3 -0.3,0.5c-0.3,0.7 -0.6,1.9 -0.9,3c-0.2,1.2 -0.4,2.3 -0.6,3.2c-0.2,0.9 -0.3,1.5 -0.3,1.5c0,0 -0.1,-0.6 -0.1,-1.4z" fill="#241b10"/><path d="M231.64375,89.6c-0.1,-0.4 -0.2,-1 -0.2,-1.5c0,-0.6 0.1,-1.1 0.2,-1.7c0.1,-0.3 0.2,-0.5 0.3,-0.8c0.2,-0.3 0.3,-0.6 0.4,-0.8c0.2,-0.5 0.5,-0.9 0.8,-1.2c0.2,-0.4 0.5,-0.6 0.7,-0.8c0.2,-0.2 0.3,-0.3 0.3,-0.3c0,0 -0.1,0.1 -0.2,0.3c-0.1,0.2 -0.3,0.5 -0.5,0.9c-0.1,0.2 -0.2,0.4 -0.3,0.6c-0.1,0.2 -0.2,0.5 -0.3,0.7c-0.1,0.2 -0.2,0.5 -0.3,0.7c-0.1,0.3 -0.1,0.5 -0.2,0.8c-0.2,0.6 -0.3,1.1 -0.3,1.6c-0.1,0.5 0,1 0,1.4c0.1,0.8 0.3,1.3 0.3,1.3c0,0 -0.4,-0.4 -0.7,-1.2z" fill="#241b10"/><path d="M228.34375,90.7c-0.2,-0.7 -0.3,-1.5 -0.2,-2.4c0.1,-0.4 0.2,-0.8 0.3,-1.2c0.2,-0.4 0.3,-0.7 0.5,-1c0.1,-0.2 0.3,-0.4 0.4,-0.6c0.1,-0.1 0.2,-0.2 0.2,-0.2c0,0 0,0.1 -0.1,0.3c0,0.1 -0.1,0.4 -0.2,0.7c-0.1,0.6 -0.3,1.4 -0.4,2.2c-0.1,0.8 -0.1,1.6 -0.1,2.2c0,0.6 0.1,1 0.1,1c0,0 -0.2,-0.3 -0.5,-1z" fill="#241b10"/><path d="M226.34375,91.7c0,-0.7 -0.1,-1.7 0,-2.8c0.1,-1.1 0.4,-2.5 0.9,-3.8c0.5,-1.4 1.3,-2.7 2.3,-3.9c0.5,-0.6 1,-1.1 1.6,-1.6c0.6,-0.5 1.2,-0.9 1.8,-1.3c1.3,-0.7 2.7,-1 3.8,-1.1c1.2,-0.1 2.1,0 2.8,0.1c0.6,0.1 1,0.2 1,0.2c0,0 -0.3,0 -1,0c-0.6,0 -1.6,0 -2.7,0.2c-1.1,0.2 -2.3,0.6 -3.5,1.3c-1.1,0.7 -2.3,1.8 -3.2,2.9c-1,1.1 -1.8,2.4 -2.3,3.7c-0.5,1.3 -0.8,2.6 -1,3.7c-0.3,2.2 -0.1,3.7 -0.1,3.7c0,0 -0.1,-0.4 -0.4,-1.3z" fill="#241b10"/><path d="M239.04375,78.7c-0.7,0.1 -1.6,0.3 -2.5,0.7c-0.2,0.1 -0.4,0.2 -0.6,0.3c-0.2,0.1 -0.4,0.2 -0.6,0.3c-0.4,0.2 -0.8,0.4 -1.1,0.6c-0.4,0.1 -0.6,0.3 -0.8,0.4c-0.2,0.1 -0.3,0.2 -0.3,0.2c0,0 0.1,-0.1 0.2,-0.3c0.1,-0.1 0.3,-0.4 0.6,-0.6c0.5,-0.6 1.4,-1.1 2.3,-1.5c0.4,-0.2 0.9,-0.3 1.4,-0.4c0.5,-0.1 0.9,-0.1 1.3,-0.1c0.8,0.1 1.2,0.3 1.2,0.3c0,0 -0.5,0 -1.1,0.1z" fill="#241b10"/></g></g><path d="M239.04375,117.5c0.7,-0.3 1.5,-0.6 2.3,-0.9c0.8,-0.4 1.7,-0.8 2.5,-1.2c0.4,-0.3 0.8,-0.5 1.2,-0.7c0.4,-0.2 0.8,-0.4 1.2,-0.7c0.4,-0.2 0.8,-0.5 1.1,-0.7c0.3,-0.2 0.6,-0.5 0.9,-0.7c0.2,-0.2 0.5,-0.4 0.7,-0.6c0.2,-0.2 0.3,-0.4 0.5,-0.5c0.3,-0.3 0.5,-0.5 0.5,-0.5c0,0 -0.1,0.2 -0.3,0.5c-0.2,0.3 -0.6,0.8 -1.1,1.3c-0.3,0.3 -0.6,0.5 -0.9,0.8c-0.3,0.3 -0.6,0.5 -1,0.8c-0.4,0.3 -0.8,0.5 -1.2,0.8c-0.4,0.2 -0.9,0.5 -1.3,0.7c-0.9,0.4 -1.8,0.8 -2.6,1.1c-0.9,0.3 -1.7,0.5 -2.4,0.7c-1.4,0.3 -2.4,0.4 -2.4,0.4c0,0 0.9,-0.2 2.3,-0.6z" fill="#bd875f"/></g><g><g><path d="M229.74375,82c0,0 3.5,-14 20.4,-34c0,0 6.5,29.1 6.6,38.4c0,0 -2.6,-3.1 -12.7,-4.3c-3.9,-0.5 -9.9,-1.8 -14.3,-0.1z" fill="#122f42"/><path d="M256.34375,83.4c-0.1,-1 -0.3,-2.5 -0.6,-4.2c-0.3,-1.7 -0.6,-3.7 -1,-5.9c-0.4,-2.2 -0.8,-4.5 -1.2,-6.8c-0.4,-2.3 -0.8,-4.6 -1.2,-6.8c-0.4,-2.2 -0.8,-4.2 -1.1,-5.9c-0.6,-3.5 -1.1,-5.8 -1.1,-5.8c0,0 0.7,2.3 1.6,5.7c0.4,1.7 0.9,3.7 1.3,5.9c0.4,2.2 0.9,4.5 1.3,6.8c0.4,2.3 0.8,4.6 1.1,6.8c0.3,2.2 0.6,4.3 0.8,6c0.2,1.7 0.3,3.2 0.4,4.2c0.1,1 0.1,1.6 0.1,1.6c0,0 -0.1,-0.6 -0.4,-1.6z" fill="#141b30"/><path d="M230.44375,79.4c0.4,-1 0.9,-2.4 1.6,-4.1c0.8,-1.6 1.6,-3.6 2.7,-5.6c0.5,-1 1.1,-2.1 1.7,-3.1c0.5,-1 1.2,-2.1 1.8,-3.1c1.3,-2 2.7,-4 4,-5.9c0.7,-0.9 1.4,-1.8 2,-2.6c0.7,-0.8 1.3,-1.5 2,-2.3c0.6,-0.7 1.1,-1.4 1.6,-1.9c0.5,-0.5 0.9,-1 1.3,-1.4c0.7,-0.8 1.1,-1.2 1.1,-1.2c0,0 -0.4,0.5 -1.1,1.3c-0.3,0.4 -0.7,0.9 -1.2,1.5c-0.5,0.6 -1,1.3 -1.6,2c-0.6,0.7 -1.2,1.4 -1.8,2.3c-0.6,0.9 -1.2,1.8 -1.9,2.7c-1.3,1.8 -2.6,3.8 -3.9,5.9c-0.7,1 -1.3,2.1 -1.9,3.1c-0.6,1.1 -1.2,2.1 -1.7,3.1c-1.1,2 -2,3.9 -2.8,5.5c-0.8,1.6 -1.4,3 -1.8,4c-0.4,1 -0.6,1.6 -0.6,1.6c0,0 0.2,-0.6 0.5,-1.8z" fill="#141b30"/></g><g><path d="M230.54375,79.5c13.2,-1.5 25.9,3.2 25.9,3.2c0.6,1.2 0.3,2.3 0.3,2.3c0,0 -8.1,-2.5 -13.3,-3.3c-5.2,-0.8 -13.4,-0.6 -13.4,-0.6c-0.3,-0.9 0.5,-1.6 0.5,-1.6z" fill="#63b7ce"/><path d="M234.24375,80.8c1.2,0.1 2.7,0.1 4.3,0.2c1.6,0.1 3.3,0.3 5,0.5c0.8,0.1 1.7,0.3 2.5,0.4c0.8,0.2 1.6,0.3 2.4,0.5c0.8,0.1 1.5,0.3 2.2,0.5c0.7,0.2 1.4,0.4 2,0.6c1.2,0.4 2.2,0.8 2.9,1c0.7,0.3 1.1,0.4 1.1,0.4c0,0 -0.4,-0.1 -1.1,-0.3c-0.4,-0.1 -0.8,-0.2 -1.3,-0.3c-0.5,-0.1 -1.1,-0.2 -1.7,-0.4c-0.6,-0.2 -1.3,-0.4 -2,-0.5c-0.7,-0.2 -1.4,-0.3 -2.2,-0.5c-1.6,-0.3 -3.2,-0.6 -4.9,-0.8c-1.7,-0.2 -3.3,-0.5 -4.9,-0.6c-1.6,-0.1 -3,-0.2 -4.3,-0.3c-2.5,-0.1 -4.2,-0.1 -4.2,-0.1c0,0 1.7,-0.2 4.2,-0.3z" fill="#466d8c"/><path d="M231.74375,79.3c0.7,-0.1 1.8,-0.2 3,-0.3c1.2,-0.1 2.7,-0.1 4.2,-0.1c1.5,0.1 3.2,0.2 4.8,0.4c1.7,0.2 3.3,0.5 4.8,0.8c0.8,0.1 1.5,0.3 2.2,0.5c0.7,0.2 1.3,0.4 1.9,0.6c1.2,0.3 2.1,0.7 2.8,1c0.6,0.2 1,0.4 1,0.4c0,0 -0.4,-0.1 -1.1,-0.3c-0.3,-0.1 -0.7,-0.3 -1.2,-0.4c-0.5,-0.1 -1,-0.2 -1.6,-0.4c-0.6,-0.2 -1.2,-0.4 -1.9,-0.5c-0.7,-0.1 -1.4,-0.3 -2.2,-0.4c-1.6,-0.3 -3.2,-0.5 -4.8,-0.7c-1.6,-0.2 -3.3,-0.3 -4.8,-0.4c-1.5,0 -3,-0.1 -4.2,-0.1c-2.5,0 -4.1,0.1 -4.1,0.1c0,0 0.4,-0.1 1.2,-0.2z" fill="#466d8c"/></g><g><g><path d="M249.14375,82.6c17.2,4.4 26,13.9 26,13.9c-6.1,-6.5 -31.7,-11.8 -34.3,-11.9c-28.7,-1.6 -31.5,4.3 -31.5,4.3c4.1,-5.9 22.6,-10.7 39.8,-6.3z" fill="#122f42"/><path d="M210.04375,87.8c0.3,-0.3 0.7,-0.6 1.1,-1c0.4,-0.3 0.9,-0.7 1.5,-1.1c0.6,-0.4 1.2,-0.8 1.9,-1.2c0.7,-0.4 1.5,-0.8 2.3,-1.1c0.8,-0.3 1.6,-0.6 2.5,-0.9c0.4,-0.1 0.9,-0.3 1.3,-0.4l1.3,-0.3l1.4,-0.3c0.5,0 1,-0.1 1.4,-0.2c0.4,-0.1 0.9,-0.1 1.3,-0.2c0.4,0 0.9,-0.1 1.3,-0.1c0.9,-0.1 1.7,-0.2 2.5,-0.2c0.8,0 1.5,-0.1 2.2,-0.1c1.3,0 2.5,0.1 3.3,0.1c0.8,0.1 1.3,0.1 1.3,0.1c0,0 -0.5,0.1 -1.3,0.1c-0.8,0.1 -1.9,0.1 -3.3,0.2c-0.7,0.1 -1.4,0.1 -2.2,0.2c-0.8,0.1 -1.6,0.2 -2.5,0.3c-0.4,0.1 -0.9,0.1 -1.3,0.2c-0.4,0 -0.9,0.1 -1.3,0.2c-0.4,0 -0.9,0.1 -1.3,0.2l-1.3,0.3l-1.3,0.3c-0.4,0.1 -0.9,0.3 -1.3,0.4c-0.9,0.3 -1.7,0.6 -2.5,0.9c-0.8,0.3 -1.6,0.7 -2.3,1c-0.7,0.4 -1.3,0.7 -1.9,1.1c-0.6,0.3 -1.1,0.7 -1.6,1c-0.4,0.3 -0.8,0.6 -1.1,0.9c-0.6,0.5 -0.9,0.9 -0.9,0.9c0,0 0.2,-0.4 0.8,-1.3z" fill="#141b30"/><path d="M250.94375,83c0.7,0.2 1.9,0.4 3.2,0.8c0.6,0.2 1.4,0.4 2.1,0.7c0.7,0.3 1.5,0.6 2.3,0.9c0.8,0.3 1.6,0.7 2.4,1.1c0.9,0.3 1.7,0.8 2.5,1.2c0.8,0.5 1.6,0.9 2.4,1.4c0.7,0.5 1.5,1 2.2,1.5c0.7,0.5 1.4,1 2,1.5c0.6,0.5 1.2,1 1.7,1.4c1.1,0.8 1.9,1.7 2.5,2.2c0.6,0.6 0.9,0.9 0.9,0.9c0,0 -0.4,-0.3 -1,-0.8c-0.3,-0.2 -0.7,-0.6 -1.1,-0.9c-0.4,-0.3 -1,-0.7 -1.5,-1.1c-0.6,-0.4 -1.1,-0.9 -1.8,-1.3c-0.6,-0.4 -1.3,-0.9 -2,-1.4c-0.7,-0.4 -1.4,-0.9 -2.2,-1.4c-0.8,-0.5 -1.6,-0.9 -2.4,-1.4c-0.8,-0.5 -1.6,-0.9 -2.4,-1.3c-0.8,-0.4 -1.6,-0.8 -2.4,-1.1c-0.8,-0.4 -1.6,-0.7 -2.3,-1c-0.8,-0.3 -1.5,-0.6 -2.1,-0.8c-1.3,-0.5 -2.4,-0.8 -3.2,-1c-0.7,-0.2 -1.2,-0.3 -1.2,-0.3c0,0 0.5,0 1.4,0.2z" fill="#141b30"/></g><path d="M216.74375,85.7c1.4,-0.4 3.6,-0.8 6.2,-1.1c2.6,-0.3 5.6,-0.5 8.9,-0.5c3.3,0 6.8,0.2 10.3,0.6c3.5,0.5 6.9,1.2 10.1,2c3.2,0.9 6.1,1.8 8.6,2.6c2.5,0.8 4.5,1.7 5.9,2.3c1.4,0.6 2.2,1 2.2,1c0,0 -0.8,-0.3 -2.2,-0.9c-1.5,-0.6 -3.5,-1.3 -6,-2.1c-2.5,-0.8 -5.4,-1.6 -8.6,-2.4c-3.1,-0.8 -6.6,-1.5 -10,-1.9c-3.5,-0.4 -6.9,-0.7 -10.2,-0.7c-3.3,-0.1 -6.3,0.1 -8.9,0.3c-2.6,0.2 -4.8,0.5 -6.3,0.8c-1.5,0.3 -2.3,0.5 -2.3,0.6c0,-0.1 0.8,-0.4 2.3,-0.6z" fill="#141b30"/></g></g></g></g></g></g></svg>