<svg version="1.1" xmlns="http://www.w3.org/2000/svg" xmlns:xlink="http://www.w3.org/1999/xlink" width="93.55396" height="264.94375" viewBox="0,0,93.55396,264.94375"><g transform="translate(-192.9898,-48)"><g data-paper-data="{&quot;isPaintingLayer&quot;:true}" fill-rule="nonzero" stroke="none" stroke-width="1" stroke-linecap="butt" stroke-linejoin="miter" stroke-miterlimit="10" stroke-dasharray="" stroke-dashoffset="0" style="mix-blend-mode: normal"><path d="M234.73355,92.6c13.9,-5.6 15.7,26.9 15.7,26.9c-1.7,-2 -6.9,-4.5 -17.7,-4.4c-10.8,0.1 -10.1,2.7 -10.1,2.7c0,0 -1.8,-19.6 12.1,-25.2z" data-paper-data="{&quot;index&quot;:null}" fill="#211910"/><g data-paper-data="{&quot;index&quot;:null}"><g><path d="M202.83355,197.9c-0.6,5.6 -2,4.2 -2,4.2c-1.6,2.2 -1.9,0 -1.9,0c-0.5,1.4 -1.4,0.8 -1.7,-0.3c-0.4,-1.2 -0.1,-3.5 -0.1,-3.5c-0.6,2.7 -0.9,4.2 -1.7,3.6c-0.5,-0.4 -0.3,-3 0,-4.2c0.3,-1.3 1.4,-5.2 1.4,-5.2c0,0 -2.3,4 -3.7,3c-0.7,-0.5 1.3,-2.1 2.9,-4.6c2.3,-3.7 5.2,-4.3 5.2,-4.3c7.8,0.5 1.7,9 1.6,11.3z" fill="#ffe9b8"/><path d="M200.53355,201.2c-0.1,-0.6 -0.1,-1.5 0,-2.3c0.1,-0.8 0.3,-1.6 0.5,-2.2c0.2,-0.6 0.4,-1 0.4,-1c0,0 0,0.4 -0.1,1c0,0.4 -0.1,0.7 -0.1,1.1c-0.1,0.4 -0.1,0.8 -0.2,1.2c-0.1,0.4 -0.1,0.8 -0.2,1.2c0,0.3 -0.1,0.7 -0.1,1c-0.1,0.6 -0.1,1 -0.1,1c0,0 -0.1,-0.4 -0.1,-1z" fill="#bd875f"/><path d="M198.33355,201.4c-0.1,-0.4 -0.1,-0.8 -0.1,-1.2c0,-0.4 0,-0.9 0.1,-1.3c0.1,-0.5 0.2,-0.9 0.3,-1.3c0.1,-0.4 0.3,-0.8 0.4,-1.1c0.3,-0.6 0.5,-1 0.5,-1c0,0 0,0.1 0,0.3c0,0.2 0,0.5 -0.1,0.8c-0.1,0.3 -0.1,0.7 -0.2,1.1c-0.1,0.4 -0.1,0.9 -0.2,1.3c-0.1,0.9 -0.2,1.7 -0.3,2.4c-0.1,0.7 -0.1,1.1 -0.1,1.1c0,0 -0.1,-0.4 -0.3,-1.1z" fill="#bd875f"/><path d="M196.63355,199.3c0,-0.3 0,-0.6 0,-0.9c0,-0.3 0.1,-0.7 0.1,-1c0.1,-0.7 0.3,-1.3 0.5,-1.8c0.2,-0.5 0.4,-0.8 0.4,-0.8c0,0 0,0.3 -0.1,0.8c0,0.3 -0.1,0.6 -0.1,0.9c0,0.3 -0.1,0.7 -0.1,1c-0.1,0.6 -0.2,1.3 -0.3,1.8c-0.1,0.5 -0.2,0.8 -0.2,0.8c0,0 0,-0.4 -0.2,-0.8z" fill="#bd875f"/><path d="M200.03355,187.2c-0.1,0.1 -0.3,0.2 -0.5,0.4c-0.2,0.1 -0.5,0.4 -0.7,0.6c-0.2,0.2 -0.5,0.4 -0.7,0.7c-0.5,0.5 -1,1 -1.4,1.4c-0.4,0.4 -0.7,0.6 -0.7,0.6c0,0 0.1,-0.3 0.4,-0.8c0.1,-0.2 0.3,-0.5 0.5,-0.8c0.2,-0.2 0.4,-0.5 0.7,-0.8c0.6,-0.5 1.2,-1 1.7,-1.2c0.5,-0.3 0.9,-0.2 0.9,-0.2c0,0 -0.1,0 -0.2,0.1z" fill="#bd875f"/><path d="M197.63355,192.3c0.2,0 0.4,-0.1 0.7,-0.2c0.3,-0.1 0.5,-0.2 0.8,-0.3c0.2,-0.1 0.5,-0.3 0.7,-0.4c0.2,-0.1 0.4,-0.3 0.6,-0.4c0.1,-0.1 0.3,-0.2 0.4,-0.3c0.1,-0.1 0.2,-0.1 0.2,-0.1c0,0 0,0.1 -0.1,0.2c-0.1,0.1 -0.1,0.3 -0.3,0.5c-0.2,0.2 -0.4,0.4 -0.6,0.6c-0.2,0.2 -0.5,0.4 -0.8,0.5c-0.3,0.1 -0.6,0.3 -0.9,0.3c-0.3,0 -0.6,0 -0.8,0c-0.5,0 -0.8,-0.2 -0.8,-0.2c0,0 0.4,0 0.9,-0.2z" fill="#bd875f"/></g><g><g><path d="M219.13355,159.7c0.8,2.7 -4.4,14.3 -8.5,20.5c-3.8,5.7 -5.7,8.7 -5.7,8.7c-1.8,0 -3.6,-0.1 -4.3,-1.9c0,0 2.8,-7.2 4.1,-11.3c2,-6.3 5.1,-15.5 8.4,-18.6c1.6,-1.5 5.1,-0.5 6,2.6z" fill="#714fab"/><path d="M209.93355,162.2c-0.4,0.9 -0.8,2 -1.3,3.1c-0.5,1.1 -1,2.3 -1.4,3.5c-0.5,1.2 -0.9,2.5 -1.3,3.6c-0.4,1.1 -0.8,2.2 -1.1,3.1c-0.6,1.9 -1,3.1 -1,3.1c0,0 0.1,-0.3 0.2,-0.9c0.1,-0.6 0.2,-1.4 0.5,-2.3c0.1,-0.5 0.2,-1 0.4,-1.5c0.2,-0.6 0.3,-1.1 0.5,-1.7c0.4,-1.2 0.8,-2.4 1.3,-3.6c0.5,-1.2 1,-2.4 1.5,-3.5c0.5,-1.1 1.1,-2.1 1.5,-3c0.9,-1.7 1.6,-2.8 1.6,-2.8c0,0 -0.6,1.2 -1.4,2.9z" fill="#3b2b78"/></g><path d="M207.63355,184.9c0.7,-1.1 1.5,-2.4 2.4,-3.8c0.9,-1.4 1.8,-3 2.6,-4.5c0.8,-1.5 1.7,-3 2.4,-4.5c0.7,-1.5 1.4,-2.9 1.9,-4.1c0.2,-0.6 0.5,-1.1 0.7,-1.6c0.2,-0.5 0.4,-0.9 0.5,-1.3c0.3,-0.7 0.5,-1.1 0.5,-1.1c0,0 -0.2,0.5 -0.4,1.2c-0.3,0.7 -0.6,1.8 -1.1,3c-0.2,0.6 -0.5,1.3 -0.8,2c-0.3,0.7 -0.6,1.5 -1,2.2c-0.7,1.5 -1.5,3.1 -2.4,4.6c-0.9,1.5 -1.8,3 -2.7,4.4c-0.9,1.4 -1.7,2.6 -2.5,3.7c-0.7,1 -1.4,1.9 -1.9,2.5c-0.5,0.6 -0.8,0.9 -0.8,0.9c0,0 1,-1.4 2.6,-3.6z" fill="#3b2b78"/></g><g><path d="M216.13355,136c1.3,-3.8 8.1,-19 12.6,-9c4.3,9.7 -9.9,41.1 -14.6,36.9c-4.8,-4.2 -1,-19.4 2,-27.9z" fill="#714fab"/><path d="M217.63355,133.4c-0.4,0.9 -0.7,2 -1.1,3.1c-0.4,1.1 -0.8,2.3 -1.2,3.5c-0.4,1.2 -0.8,2.5 -1.1,3.6c-0.4,1.1 -0.7,2.2 -0.9,3.1c-0.3,0.9 -0.5,1.7 -0.6,2.2c-0.1,0.5 -0.2,0.8 -0.2,0.8c0,0 0,-0.3 0.1,-0.9c0.1,-0.6 0.2,-1.4 0.4,-2.3c0.2,-1 0.4,-2 0.7,-3.2c0.3,-1.2 0.6,-2.4 1,-3.6c0.4,-1.2 0.8,-2.4 1.2,-3.5c0.5,-1.1 0.9,-2.1 1.3,-3c0.8,-1.8 1.4,-2.9 1.4,-2.9c0,0 -0.5,1.2 -1,3.1z" fill="#3b2b78"/><path d="M226.13355,124c0.2,0.1 0.5,0.2 0.9,0.5c0.3,0.2 0.7,0.6 1.1,1.1c0.2,0.2 0.3,0.5 0.5,0.8c0,0.2 0.1,0.3 0.2,0.5c0.1,0.1 0.1,0.3 0.2,0.5c0.3,0.7 0.4,1.5 0.6,2.4c0.1,0.4 0.1,0.8 0.1,1.3c0,0.5 0,0.9 0,1.4c0,0.9 0,1.9 -0.2,2.9c-0.1,1 -0.3,2 -0.5,3c-0.2,1 -0.4,2 -0.7,2.9c-0.3,1 -0.5,1.9 -0.8,2.8c-0.3,0.9 -0.6,1.8 -0.9,2.6c-0.3,0.8 -0.6,1.6 -0.9,2.3c-1.2,2.8 -2,4.6 -2,4.6c0,0 0.6,-1.9 1.7,-4.7c0.3,-0.7 0.5,-1.5 0.8,-2.3c0.2,-0.9 0.5,-1.7 0.8,-2.6c0.3,-0.9 0.5,-1.9 0.8,-2.8c0.3,-0.9 0.5,-1.9 0.7,-2.9c0.2,-0.9 0.4,-1.9 0.5,-2.9c0.2,-1 0.2,-2 0.3,-2.9c0,-0.5 0,-1 0,-1.4c0,-0.4 0,-0.9 0,-1.3c-0.2,-0.8 -0.2,-1.6 -0.5,-2.3c-0.1,-0.2 -0.2,-0.3 -0.2,-0.5c-0.1,-0.2 -0.1,-0.3 -0.2,-0.5c-0.1,-0.3 -0.2,-0.6 -0.4,-0.8c-0.3,-0.5 -0.7,-0.9 -1,-1.2c-0.7,-0.6 -1.2,-0.7 -1.2,-0.7c0,0 0.1,0 0.3,0.2z" fill="#3b2b78"/></g></g><g data-paper-data="{&quot;index&quot;:null}"><g><g><path d="M259.03355,242.7c5.4,9.5 -0.6,54.9 -0.6,54.9c-2.9,3.3 -6.7,0.8 -6.7,0.8l-4.5,-50.8c-0.3,-9.5 8.3,-10.9 11.8,-4.9z" fill="#63b7ce"/><g fill="#3b8293"><path d="M260.73355,271.6c0,0.6 -0.1,1.2 -0.1,1.8c-2,0.8 -4.2,1.1 -6.1,1.1c-1.9,0 -3.7,-0.4 -5,-0.7l-0.1,-1.7c2.5,0.7 7.2,1.5 11.3,-0.5z"/><path d="M261.23355,265.9c-0.1,0.6 -0.1,1.2 -0.1,1.8c-2.2,1 -4.4,1.3 -6.4,1.3c-2.2,0 -4.2,-0.4 -5.6,-0.8l-0.2,-1.7c2.4,0.8 7.6,1.8 12.3,-0.6z"/><path d="M250.23355,240c1.6,-1.1 3.6,-1.2 5.4,-0.4c-1.5,0.3 -2.9,0.4 -4.2,0.4c-0.4,0 -0.7,0 -1.2,0z"/><path d="M254.53355,279.3c-1.7,0 -3.3,-0.2 -4.6,-0.5l-0.1,-1.7c2.6,0.6 6.8,1.2 10.7,-0.6c0,0.6 -0.1,1.2 -0.1,1.8c-2,0.7 -4,1 -5.9,1z"/><path d="M254.63355,284.8c-1.5,0 -2.9,-0.2 -4.1,-0.4l-0.1,-1.7c2.5,0.6 6.2,0.9 9.7,-0.5c-0.1,0.5 -0.1,1.1 -0.2,1.7c-1.8,0.6 -3.7,0.8 -5.3,0.9z"/><path d="M254.63355,263.6c-2.4,0 -4.6,-0.4 -6.1,-0.8l-0.1,-1.7c2.6,0.7 7.9,1.8 12.8,-0.3c0,0.6 0,1.1 0,1.7c-2.2,0.8 -4.5,1.1 -6.6,1.1z"/><path d="M254.33355,257.6c-2.6,0 -4.8,-0.4 -6.4,-0.8l-0.1,-1.7c2.7,0.7 8.2,1.7 13.2,-0.2c0,-1.4 -0.1,-2.7 -0.2,-3.9c-2.2,0.7 -4.4,0.9 -6.4,0.9c-2.8,0 -5.3,-0.5 -6.9,-0.9l-0.1,-1.7c2.4,0.7 8,1.9 13.3,0.1c0.3,2.2 0.4,4.6 0.5,7.2c-2.3,0.8 -4.7,1.1 -6.9,1z"/><path d="M253.13355,245.3c-2.2,0 -4.2,-0.3 -5.7,-0.6c0.1,-0.5 0.2,-1 0.4,-1.5c2.8,0.6 7.2,1 11.3,-0.3c0.2,0.5 0.4,1 0.6,1.5c-2.2,0.8 -4.5,1 -6.6,0.9z"/></g><path d="M259.53355,244.1c0.1,0.3 0.3,0.7 0.4,1.2c0.2,0.5 0.3,1.1 0.5,1.9c0.2,0.7 0.3,1.6 0.4,2.5c0.1,0.9 0.2,1.9 0.3,3c0.1,1.1 0.2,2.2 0.2,3.4c0.1,1.1 0.1,2.4 0.1,3.6c0,1.2 0,2.4 0,3.7c0,2.5 -0.2,5.1 -0.3,7.4c0,1.2 -0.1,2.3 -0.2,3.4c0,1 -0.1,2.1 -0.2,3c-0.2,1.9 -0.4,3.4 -0.5,4.5c-0.1,1.1 -0.2,1.7 -0.2,1.7c0,0 0.1,-2.5 0.3,-6.3c0.1,-1.9 0.2,-4.1 0.3,-6.4c0.1,-2.3 0.2,-4.8 0.2,-7.3c0.1,-1.2 0.1,-2.5 0.1,-3.7c0,-1.2 0,-2.4 0,-3.6c0,-1.2 -0.1,-2.3 -0.1,-3.4c-0.1,-1.1 -0.1,-2.1 -0.2,-3c-0.1,-1.9 -0.4,-3.4 -0.6,-4.5c-0.1,-0.5 -0.2,-0.9 -0.3,-1.2c-0.1,-0.3 -0.2,-0.4 -0.2,-0.4c0,0 0.1,0.2 0,0.5z" fill="#466d8c"/><path d="M247.73355,253.2c0.2,1.2 0.4,3 0.6,5c0.2,2 0.4,4.4 0.7,7c0.3,2.5 0.5,5.3 0.8,8c0.3,2.7 0.5,5.4 0.7,8c0.2,2.5 0.3,4.9 0.5,7c0.1,2.1 0.2,3.8 0.3,5c0.1,1.2 0.1,1.9 0.1,1.9c0,0 -0.1,-0.7 -0.2,-1.9c-0.2,-1.2 -0.4,-3 -0.6,-5c-0.2,-2 -0.4,-4.4 -0.7,-7c-0.3,-2.5 -0.5,-5.3 -0.8,-8c-0.3,-2.7 -0.5,-5.4 -0.7,-8c-0.2,-2.5 -0.3,-4.9 -0.5,-7c-0.1,-2.1 -0.2,-3.8 -0.3,-5c-0.1,-1.2 -0.1,-1.9 -0.1,-1.9c0,0 0.1,0.7 0.2,1.9z" fill="#466d8c"/></g><g><path d="M260.23355,305.5l-0.1,4.1c-1.7,1.2 -4.6,1.2 -4.6,1.2v-1c-0.9,0 -5.3,1.8 -8.9,2.8c-3.6,1 -10,-0.5 -10,-0.5l-0.1,-1.3c3.4,-7.3 23.8,-5.3 23.7,-5.3z" fill="#17110b"/><path d="M250.13355,285.5c0,0 3.4,3.7 10.1,-0.1c0,0 -0.3,13.9 -0.3,16.5c0,2.5 2,5.8 -2.9,6.6c-4.9,0.8 -7.4,3 -12.6,3.2c-5.2,0.2 -7.9,-0.9 -7.9,-0.9c0,0 -0.2,-3 1.9,-4.4c2.2,-1.4 8.9,-3.4 10.7,-6.2c1.8,-2.8 1,-14.7 1,-14.7z" fill="#4f3b26"/><path d="M236.83355,309.4c0.1,-0.5 0.2,-1 0.4,-1.6c0.2,-0.6 0.7,-1.2 1.4,-1.6c0.6,-0.3 1.4,-0.6 2.2,-1c0.8,-0.3 1.6,-0.7 2.5,-1.1c1.7,-0.8 3.5,-1.7 4.9,-3.1c0.7,-0.7 1.2,-1.5 1.4,-2.4c0.1,-1 0.2,-2 0.3,-2.9c0.1,-1.9 0.2,-3.7 0.2,-5.2c0.1,-3.1 0.1,-5.1 0.1,-5.1c0,0 0.1,2.1 0.2,5.1c0,1.5 0,3.3 -0.1,5.2c-0.1,0.9 -0.1,1.9 -0.3,2.9c-0.2,1.1 -0.9,2 -1.6,2.7c-1.5,1.5 -3.4,2.4 -5.1,3.2c-1.7,0.9 -3.4,1.4 -4.8,2c-0.7,0.3 -1.1,0.9 -1.4,1.4c-0.3,0.5 -0.4,1.1 -0.5,1.5c-0.1,0.9 -0.1,1.4 -0.1,1.4c0,0 0,-0.5 0.3,-1.4z" fill="#241b10"/><path d="M251.43355,286.3c0.2,0.1 0.5,0.2 0.9,0.3c0.7,0.2 1.8,0.3 2.9,0.2c0.3,-0.1 0.5,0 0.8,-0.1c0.3,0 0.6,0 0.8,-0.1c0.2,0 0.5,-0.1 0.7,-0.1c0.2,-0.1 0.4,-0.1 0.6,-0.2c0.4,-0.1 0.8,-0.2 1,-0.3c0.3,-0.1 0.4,-0.1 0.4,-0.1c0,0 -0.1,0.1 -0.3,0.2c-0.2,0.1 -0.5,0.4 -0.9,0.5c-0.4,0.2 -0.9,0.4 -1.4,0.5c-0.2,0.1 -0.5,0.1 -0.8,0.2c-0.3,0.1 -0.6,0.1 -0.9,0.1c-0.6,0 -1.2,0 -1.7,-0.1c-0.5,-0.1 -1,-0.2 -1.4,-0.4c-0.8,-0.4 -1.2,-0.8 -1.2,-0.8c0,0 0.2,0.1 0.5,0.2z" fill="#241b10"/><path d="M260.13355,291c0,1.1 0,2.3 0,3.7c0,1.4 0,2.8 0,4.3c0,0.8 0,1.5 0,2.2c0,0.8 0.1,1.4 0.2,2.1c0.2,1.4 0.3,2.7 -0.2,3.8c-0.3,0.5 -0.7,0.9 -1.1,1.1c-0.2,0 -0.4,0.1 -0.6,0.2c-0.2,0 -0.3,0.1 -0.5,0.1c-0.3,0.1 -0.5,0.1 -0.7,0.1c-0.2,0 -0.3,0 -0.3,0c0,0 0.1,0 0.3,0c0.1,-0.1 0.4,-0.1 0.7,-0.2c0.2,-0.1 0.3,-0.1 0.5,-0.2c0.1,-0.1 0.3,-0.2 0.5,-0.3c0.3,-0.3 0.7,-0.6 0.9,-1.1c0.4,-1 0.2,-2.3 0,-3.6c-0.1,-0.6 -0.2,-1.4 -0.2,-2.1c0,-0.7 0,-1.5 0,-2.2c0,-1.5 0.1,-2.9 0.1,-4.3c0.1,-1.3 0.2,-2.6 0.2,-3.7c0.1,-2.2 0.2,-3.6 0.2,-3.6c0,0 0.1,1.5 0,3.7z" fill="#241b10"/><path d="M242.13355,305.2c0.3,0.1 0.7,0.3 1,0.6c0.3,0.3 0.6,0.6 0.7,0.9c0.1,0.3 0.2,0.5 0.2,0.5c0,0 -0.2,-0.1 -0.4,-0.3c-0.2,-0.2 -0.5,-0.4 -0.8,-0.7c-0.3,-0.2 -0.6,-0.5 -0.8,-0.7c-0.2,-0.2 -0.4,-0.3 -0.4,-0.3c0,0 0.2,-0.1 0.5,0z" fill="#241b10"/><path d="M246.33355,303.1c0.3,0 0.8,0.2 1.1,0.5c0.3,0.3 0.6,0.7 0.7,1c0.2,0.3 0.2,0.5 0.2,0.5c0,0 0,0 -0.1,-0.1c-0.1,0 -0.2,-0.1 -0.3,-0.2c-0.3,-0.2 -0.6,-0.5 -0.9,-0.7c-0.3,-0.3 -0.7,-0.5 -0.9,-0.7c-0.2,-0.2 -0.4,-0.3 -0.4,-0.3c0,0 0.2,0 0.6,0z" fill="#241b10"/><path d="M249.43355,300c0.3,0 0.7,0 1.1,0.2c0.2,0.1 0.3,0.2 0.5,0.3c0.2,0.2 0.3,0.3 0.4,0.4c0.2,0.2 0.3,0.4 0.3,0.4c0,0 0,0 -0.1,0c-0.1,0 -0.2,0 -0.3,-0.1c-0.2,-0.1 -0.6,-0.3 -0.9,-0.4c-0.2,-0.1 -0.3,-0.1 -0.5,-0.2c-0.1,-0.1 -0.3,-0.2 -0.4,-0.2c-0.2,-0.1 -0.4,-0.2 -0.4,-0.2c0,0 0.2,-0.1 0.3,-0.2z" fill="#241b10"/><path d="M250.73355,295.3c0.3,0.1 0.7,0.1 1.1,0.1c0.2,0 0.4,0 0.6,0c0.2,0 0.3,0 0.5,0c0.3,0 0.5,0 0.5,0c0,0 -0.2,0.2 -0.5,0.3c-0.1,0.1 -0.3,0.2 -0.5,0.2c-0.2,0.1 -0.5,0.1 -0.7,0.1c-0.3,0 -0.5,0 -0.7,-0.1c-0.2,0 -0.4,-0.1 -0.5,-0.2c-0.3,-0.2 -0.4,-0.4 -0.4,-0.4c0,0 0.2,0 0.6,0z" fill="#241b10"/><path d="M250.83355,289.7c0.1,0 0.3,0.1 0.5,0.1c0.2,0 0.4,0.1 0.6,0.1c0.4,0 0.8,0.1 1.1,0.1c0.3,0 0.5,0 0.5,0c0,0 0,0 -0.1,0.1c-0.1,0 -0.2,0.1 -0.4,0.2c-0.2,0 -0.4,0.1 -0.6,0.1c-0.2,0.1 -0.5,0 -0.7,0c-0.4,-0.1 -0.8,-0.3 -1.1,-0.5c-0.3,-0.2 -0.4,-0.4 -0.4,-0.4c0,0 0.2,0 0.6,0.2z" fill="#241b10"/><path d="M255.73355,306.9c0,-0.4 0.1,-0.9 0.2,-1.4c0,-0.3 0.1,-0.5 0.2,-0.8c0,-0.3 0.2,-0.5 0.3,-0.8c0.3,-0.5 0.6,-1 1,-1.3c0.2,-0.1 0.4,-0.3 0.6,-0.4c0.2,-0.1 0.4,-0.2 0.6,-0.3c0.4,-0.1 0.8,-0.2 1,-0.2c0.3,0 0.4,0 0.4,0c0,0 -0.1,0 -0.3,0.1c-0.1,0.1 -0.3,0.1 -0.4,0.2c-0.2,0.1 -0.3,0.2 -0.5,0.3c-0.2,0.1 -0.3,0.3 -0.5,0.4c-0.2,0.2 -0.3,0.3 -0.5,0.5c-0.2,0.2 -0.3,0.4 -0.5,0.6c-0.1,0.2 -0.3,0.4 -0.4,0.6c-0.5,0.9 -0.8,1.9 -1,2.7c-0.2,0.8 -0.3,1.3 -0.3,1.3c0,0 -0.1,-0.5 0.1,-1.5z" fill="#241b10"/></g></g><g><path d="M251.63355,249.7c-8.2,1.2 -10.9,-39.7 -8,-50.9c2.9,-11.1 15.6,-12.3 17.1,5.5c1.5,17.8 1.8,43.8 -9.1,45.4z" fill="#63b7ce"/><g><g fill="#3b8293"><path d="M247.43355,233.9c-1.3,-0.3 -2.5,-0.7 -3.4,-1.1c-0.1,-0.6 -0.2,-1.3 -0.3,-1.9c0.9,0.5 2.3,1.1 4.1,1.5c3,0.6 7.6,0.8 13.3,-1.9c-0.1,0.6 -0.1,1.2 -0.2,1.8c-3.6,1.5 -6.8,2 -9.4,2c-1.6,0 -3,-0.2 -4.1,-0.4z"/><path d="M247.13355,211.3c-2,-0.4 -3.5,-1 -4.6,-1.5c0.1,-0.6 0.1,-1.1 0.1,-1.7c1,0.5 2.6,1.2 4.9,1.7c3,0.6 7.7,0.8 13.5,-1.5c0,0.5 0.1,1 0.1,1.6c-3.6,1.4 -6.9,1.8 -9.6,1.8c-1.7,0 -3.2,-0.2 -4.4,-0.4z"/><path d="M245.73355,194.2c0.3,-0.5 0.7,-0.9 1.1,-1.3c0.2,0.1 0.5,0.1 0.8,0.2c2.2,0.4 5.4,0.6 9.2,-0.2c0.4,0.4 0.8,0.9 1.1,1.4c-2.3,0.6 -4.4,0.8 -6.3,0.8c-1.7,0 -3.2,-0.1 -4.4,-0.4c-0.6,-0.1 -1.1,-0.2 -1.5,-0.5z"/><path d="M247.13355,199.7c-1.4,-0.2 -2.6,-0.6 -3.5,-1c0.2,-0.5 0.3,-1 0.5,-1.5c0.9,0.4 2.1,0.7 3.4,1c2.7,0.6 6.7,0.8 11.7,-0.8c0.2,0.5 0.4,1 0.5,1.5c-3.1,1 -5.8,1.3 -8.2,1.3c-1.6,-0.1 -3.1,-0.2 -4.4,-0.5z"/><path d="M247.13355,205.5c-1.8,-0.4 -3.2,-0.9 -4.3,-1.4c0.1,-0.6 0.1,-1.2 0.2,-1.7c1,0.5 2.5,1.1 4.5,1.5c2.9,0.6 7.4,0.8 13,-1.3c0.1,0.5 0.2,1 0.2,1.6c-3.5,1.2 -6.6,1.6 -9.2,1.6c-1.7,0 -3.1,-0.2 -4.4,-0.3z"/><path d="M247.33355,239.6c-0.8,-0.2 -1.5,-0.5 -2.2,-0.7c-0.1,-0.6 -0.3,-1.3 -0.4,-1.9c0.9,0.4 1.9,0.7 3.1,1c2.8,0.6 7.2,0.8 12.5,-1.5c-0.1,0.7 -0.3,1.3 -0.4,1.9c-3.3,1.2 -6.1,1.6 -8.5,1.6c-1.5,0 -2.9,-0.2 -4.1,-0.4z"/><path d="M253.13355,245.5c-2.5,0 -4.7,-0.4 -6.3,-0.8c-0.2,-0.6 -0.4,-1.2 -0.6,-1.8c2.3,0.6 7.3,1.6 12.2,0.3c-0.3,0.6 -0.6,1.2 -0.9,1.8c-1.5,0.3 -3,0.4 -4.4,0.5z"/><path d="M247.13355,228.8c-1.6,-0.4 -2.8,-0.8 -3.8,-1.3c-0.1,-0.7 -0.1,-1.3 -0.2,-1.9c1,0.5 2.4,1.2 4.4,1.6c3.1,0.7 7.9,0.8 13.9,-2c0,0.6 -0.1,1.2 -0.1,1.8c-3.9,1.7 -7.3,2.2 -10.1,2.2c-1.6,0 -3,-0.2 -4.1,-0.4z"/><path d="M247.03355,223.1c-1.7,-0.4 -3.1,-0.9 -4.2,-1.4c0,-0.6 -0.1,-1.2 -0.1,-1.8c1,0.5 2.6,1.2 4.7,1.6c3.1,0.6 8,0.8 14,-1.7c0,0.6 0,1.1 0,1.7c-3.8,1.5 -7.2,2 -10,2c-1.7,0 -3.1,-0.2 -4.4,-0.4z"/><path d="M246.93355,216.9c-1.9,-0.4 -3.4,-1 -4.5,-1.5c0,-0.6 0,-1.2 0,-1.8c1,0.6 2.7,1.3 5,1.8c3.2,0.6 8,0.8 13.9,-1.6c0.1,0.6 0.1,1.1 0.1,1.7c-3.8,1.4 -7.1,1.9 -9.9,1.9c-1.7,0 -3.2,-0.2 -4.6,-0.5z"/></g><path d="M258.93355,241.7c0.4,-1.1 0.8,-2.7 1.1,-4.6c0.2,-0.9 0.3,-2 0.5,-3.1c0.1,-1.1 0.3,-2.3 0.4,-3.5c0.1,-1.3 0.2,-2.5 0.3,-3.8c0.1,-1.3 0.1,-2.6 0.1,-3.9c0,-1.3 0,-2.6 0,-3.9c0,-1.3 0,-2.6 -0.1,-3.8c0,-1.2 0,-2.4 -0.1,-3.5c-0.1,-1.2 -0.1,-2.2 -0.2,-3.2c-0.1,-1.9 -0.2,-3.6 -0.3,-4.7c-0.1,-1.1 -0.1,-1.8 -0.1,-1.8c0,0 0.1,0.7 0.2,1.8c0.1,1.1 0.3,2.7 0.5,4.7c0.1,1 0.2,2.1 0.3,3.2c0.1,1.1 0.1,2.3 0.2,3.5c0.1,1.2 0.1,2.5 0.1,3.8c0,1.3 0,2.6 0,3.9c-0.1,1.3 -0.1,2.6 -0.2,3.9c-0.1,1.3 -0.2,2.6 -0.3,3.8c-0.1,1.2 -0.4,2.4 -0.5,3.5c-0.2,1.1 -0.4,2.1 -0.6,3.1c-0.1,1 -0.4,1.8 -0.6,2.6c-0.2,0.8 -0.4,1.5 -0.6,2c-0.4,1.1 -0.7,1.7 -0.7,1.7c0,0 0.3,-0.6 0.6,-1.7z" fill="#466d8c"/><path d="M243.83355,198.2c0,0.3 -0.1,0.7 -0.2,1.3c-0.2,1.1 -0.3,2.8 -0.5,4.8c-0.2,2 -0.3,4.3 -0.3,6.8c0,1.3 0,2.6 0,3.9c0,1.3 0.1,2.7 0.1,4c0,1.4 0.1,2.7 0.2,4c0.2,1.3 0.3,2.6 0.4,3.8c0.1,1.3 0.3,2.5 0.4,3.6c0.2,1.1 0.4,2.2 0.5,3.2c0.1,1 0.2,1.9 0.4,2.7c0.2,0.8 0.3,1.5 0.4,2.1c0.2,1.1 0.3,1.8 0.3,1.8c0,0 -0.1,-0.7 -0.4,-1.8c-0.2,-0.6 -0.3,-1.3 -0.5,-2.1c-0.2,-0.8 -0.3,-1.7 -0.5,-2.7c-0.2,-1 -0.4,-2.1 -0.6,-3.2c-0.2,-1.2 -0.4,-2.4 -0.5,-3.6c-0.1,-1.2 -0.3,-2.5 -0.4,-3.8c-0.1,-1.3 -0.2,-2.7 -0.3,-4c0,-1.3 -0.1,-2.7 -0.1,-4c0,-1.3 0,-2.6 0,-3.9c0,-1.2 0.1,-2.5 0.2,-3.6c0.1,-1.1 0.2,-2.2 0.3,-3.2c0.2,-2 0.5,-3.7 0.7,-4.8c0.1,-0.5 0.2,-1 0.3,-1.3c0.1,-0.4 0.2,-0.5 0.2,-0.5c0,0 -0.1,0.1 -0.1,0.5z" fill="#466d8c"/></g></g></g><g data-paper-data="{&quot;index&quot;:null}"><g><g><path d="M233.43355,237.5c5.4,9.5 -0.6,54.9 -0.6,54.9c-2.9,3.3 -6.7,0.8 -6.7,0.8l-4.5,-50.8c-0.3,-9.5 8.3,-11 11.8,-4.9z" fill="#63b7ce"/><g fill="#3b8293"><path d="M235.03355,266.4c0,0.6 -0.1,1.2 -0.1,1.8c-2,0.8 -4.2,1.1 -6.1,1.1c-1.9,0 -3.7,-0.4 -5,-0.7l-0.1,-1.7c2.6,0.7 7.3,1.5 11.3,-0.5z"/><path d="M235.53355,260.7c-0.1,0.6 -0.1,1.2 -0.1,1.8c-2.2,1 -4.4,1.3 -6.4,1.3c-2.2,0 -4.2,-0.4 -5.6,-0.8l-0.2,-1.7c2.5,0.7 7.7,1.8 12.3,-0.6z"/><path d="M224.63355,234.8c1.6,-1.1 3.6,-1.2 5.4,-0.4c-1.5,0.3 -2.9,0.4 -4.2,0.4c-0.4,0 -0.8,0 -1.2,0z"/><path d="M228.83355,274.1c-1.7,0 -3.3,-0.2 -4.6,-0.5l-0.1,-1.7c2.6,0.6 6.8,1.2 10.7,-0.6c0,0.6 -0.1,1.2 -0.1,1.8c-2,0.7 -4,1 -5.9,1z"/><path d="M228.93355,279.6c-1.5,0 -2.9,-0.2 -4.1,-0.4l-0.1,-1.7c2.5,0.6 6.2,0.9 9.7,-0.5c-0.1,0.5 -0.1,1.1 -0.2,1.7c-1.8,0.6 -3.6,0.8 -5.3,0.9z"/><path d="M228.93355,258.3c-2.4,0 -4.6,-0.4 -6.1,-0.8l-0.1,-1.7c2.6,0.7 7.9,1.8 12.8,-0.3c0,0.6 0,1.1 0,1.7c-2.2,0.9 -4.5,1.2 -6.6,1.1z"/><path d="M228.63355,252.4c-2.6,0 -4.8,-0.4 -6.4,-0.8l-0.1,-1.7c2.7,0.7 8.2,1.7 13.2,-0.2c0,-1.4 -0.1,-2.7 -0.2,-3.9c-2.2,0.7 -4.4,0.9 -6.4,0.9c-2.8,0 -5.3,-0.5 -6.9,-0.9l-0.1,-1.7c2.4,0.7 8,1.9 13.3,0.1c0.3,2.2 0.4,4.6 0.5,7.2c-2.3,0.8 -4.6,1.1 -6.9,1z"/><path d="M227.53355,240.1c-2.2,0 -4.2,-0.3 -5.7,-0.6c0.1,-0.5 0.2,-1 0.4,-1.5c2.8,0.6 7.2,1 11.3,-0.3c0.2,0.5 0.4,1 0.6,1.5c-2.3,0.7 -4.6,1 -6.6,0.9z"/></g><path d="M233.83355,238.9c0.1,0.3 0.3,0.7 0.4,1.2c0.2,0.5 0.3,1.1 0.5,1.9c0.2,0.7 0.3,1.6 0.4,2.5c0.1,0.9 0.2,1.9 0.3,3c0.1,1.1 0.2,2.2 0.2,3.4c0.1,1.1 0.1,2.4 0.1,3.6c0,1.2 0,2.4 0,3.7c0,2.5 -0.2,5.1 -0.3,7.4c0,1.2 -0.1,2.3 -0.2,3.4c0,1 -0.1,2.1 -0.2,3c-0.2,1.9 -0.4,3.4 -0.5,4.5c-0.1,1.1 -0.2,1.7 -0.2,1.7c0,0 0.1,-2.5 0.3,-6.3c0.1,-1.9 0.2,-4.1 0.3,-6.4c0.1,-2.3 0.2,-4.8 0.2,-7.3c0.1,-1.2 0.1,-2.5 0.1,-3.7c0,-1.2 0,-2.4 0,-3.6c0,-1.2 -0.1,-2.3 -0.1,-3.4c-0.1,-1.1 -0.1,-2.1 -0.2,-3c-0.1,-1.9 -0.4,-3.4 -0.6,-4.5c-0.1,-0.5 -0.2,-0.9 -0.3,-1.2c-0.1,-0.3 -0.2,-0.4 -0.2,-0.4c0,0 0.1,0.2 0,0.5z" fill="#466d8c"/><path d="M222.13355,248c0.2,1.2 0.4,3 0.6,5c0.2,2 0.4,4.4 0.7,7c0.3,2.5 0.5,5.3 0.8,8c0.3,2.7 0.5,5.4 0.7,8c0.2,2.5 0.3,4.9 0.5,7c0.1,2.1 0.2,3.8 0.3,5c0.1,1.2 0.1,1.9 0.1,1.9c0,0 -0.1,-0.7 -0.2,-1.9c-0.2,-1.2 -0.4,-3 -0.6,-5c-0.2,-2 -0.4,-4.4 -0.7,-7c-0.3,-2.5 -0.5,-5.3 -0.8,-8c-0.3,-2.7 -0.5,-5.4 -0.7,-8c-0.2,-2.5 -0.3,-4.9 -0.5,-7c-0.1,-2.1 -0.2,-3.8 -0.3,-5c-0.1,-1.2 -0.1,-1.9 -0.1,-1.9c0,0 0.1,0.7 0.2,1.9z" fill="#466d8c"/></g><g><path d="M234.63355,300.3l-0.1,4.1c-1.7,1.2 -4.6,1.2 -4.6,1.2v-1c-0.9,0 -5.3,1.8 -8.9,2.8c-3.6,1 -10,-0.5 -10,-0.5l-0.1,-1.3c3.3,-7.4 23.8,-5.4 23.7,-5.3z" fill="#17110b"/><path d="M224.53355,280.3c0,0 3.4,3.7 10.1,-0.1c0,0 -0.3,13.9 -0.3,16.5c0,2.5 2,5.8 -2.9,6.6c-4.9,0.7 -7.4,3 -12.6,3.2c-5.2,0.2 -7.9,-0.9 -7.9,-0.9c0,0 -0.2,-3 1.9,-4.4c2.1,-1.4 8.9,-3.4 10.7,-6.2c1.8,-2.8 1,-14.7 1,-14.7z" fill="#4f3b26"/><path d="M211.23355,304.2c0.1,-0.5 0.2,-1 0.4,-1.6c0.2,-0.6 0.7,-1.2 1.4,-1.6c0.6,-0.3 1.4,-0.6 2.2,-1c0.8,-0.3 1.6,-0.7 2.5,-1.1c1.7,-0.8 3.5,-1.7 4.9,-3.1c0.7,-0.7 1.2,-1.5 1.4,-2.4c0.1,-1 0.2,-2 0.3,-2.9c0.1,-1.9 0.2,-3.7 0.2,-5.2c0.1,-3.1 0.1,-5.1 0.1,-5.1c0,0 0.1,2.1 0.2,5.1c0,1.5 0,3.3 -0.1,5.2c-0.1,0.9 -0.1,1.9 -0.3,2.9c-0.2,1.1 -0.9,2 -1.6,2.7c-1.5,1.5 -3.4,2.4 -5.1,3.2c-1.7,0.9 -3.4,1.4 -4.8,2c-0.7,0.3 -1.1,0.9 -1.4,1.4c-0.3,0.5 -0.4,1.1 -0.5,1.5c-0.1,0.9 -0.1,1.4 -0.1,1.4c0,0 -0.1,-0.5 0.3,-1.4z" fill="#241b10"/><path d="M225.83355,281.1c0.2,0.1 0.5,0.2 0.9,0.3c0.7,0.2 1.8,0.3 2.9,0.2c0.3,-0.1 0.5,0 0.8,-0.1c0.3,0 0.6,0 0.8,-0.1c0.2,0 0.5,-0.1 0.7,-0.1c0.2,-0.1 0.4,-0.1 0.6,-0.2c0.4,-0.1 0.8,-0.2 1,-0.3c0.3,-0.1 0.4,-0.1 0.4,-0.1c0,0 -0.1,0.1 -0.3,0.2c-0.2,0.1 -0.5,0.4 -0.9,0.5c-0.4,0.2 -0.9,0.4 -1.4,0.5c-0.2,0.1 -0.5,0.1 -0.8,0.2c-0.3,0.1 -0.6,0.1 -0.9,0.1c-0.6,0 -1.2,0 -1.7,-0.1c-0.5,-0.1 -1,-0.2 -1.4,-0.4c-0.8,-0.4 -1.2,-0.8 -1.2,-0.8c0,0 0.1,0 0.5,0.2z" fill="#241b10"/><path d="M234.53355,285.8c0,1.1 0,2.3 0,3.7c0,1.4 0,2.8 0,4.3c0,0.8 0,1.5 0,2.2c0,0.8 0.1,1.4 0.2,2.1c0.2,1.4 0.3,2.7 -0.2,3.8c-0.3,0.5 -0.7,0.9 -1.1,1.1c-0.2,0 -0.4,0.1 -0.6,0.2c-0.2,0 -0.3,0.1 -0.5,0.1c-0.3,0.1 -0.5,0.1 -0.7,0.1c-0.2,0 -0.3,0 -0.3,0c0,0 0.1,0 0.3,0c0.1,-0.1 0.4,-0.1 0.7,-0.2c0.2,-0.1 0.3,-0.1 0.5,-0.2c0.1,-0.1 0.3,-0.2 0.5,-0.3c0.3,-0.3 0.7,-0.6 0.9,-1.1c0.4,-1 0.2,-2.3 0,-3.6c-0.1,-0.6 -0.2,-1.4 -0.2,-2.1c0,-0.7 0,-1.5 0,-2.2c0,-1.5 0.1,-2.9 0.1,-4.3c0.1,-1.3 0.2,-2.6 0.2,-3.7c0.1,-2.2 0.2,-3.6 0.2,-3.6c0,0 0,1.5 0,3.7z" fill="#241b10"/><path d="M216.43355,299.9c0.3,0.1 0.7,0.3 1,0.6c0.3,0.3 0.6,0.6 0.7,0.9c0.1,0.3 0.2,0.5 0.2,0.5c0,0 -0.2,-0.1 -0.4,-0.3c-0.2,-0.2 -0.5,-0.4 -0.8,-0.7c-0.3,-0.2 -0.6,-0.5 -0.8,-0.7c-0.2,-0.2 -0.4,-0.3 -0.4,-0.3c0,0 0.2,0 0.5,0z" fill="#241b10"/><path d="M220.73355,297.9c0.3,0 0.8,0.2 1.1,0.5c0.3,0.3 0.6,0.7 0.7,1c0.2,0.3 0.2,0.5 0.2,0.5c0,0 0,0 -0.1,-0.1c-0.1,0 -0.2,-0.1 -0.3,-0.2c-0.3,-0.2 -0.6,-0.5 -0.9,-0.7c-0.3,-0.3 -0.7,-0.5 -0.9,-0.7c-0.2,-0.2 -0.4,-0.3 -0.4,-0.3c0,0 0.2,0 0.6,0z" fill="#241b10"/><path d="M223.83355,294.8c0.3,0 0.7,0 1.1,0.2c0.2,0.1 0.3,0.2 0.5,0.3c0.2,0.2 0.3,0.3 0.4,0.4c0.2,0.2 0.3,0.4 0.3,0.4c0,0 0,0 -0.1,0c-0.1,0 -0.2,0 -0.3,-0.1c-0.2,-0.1 -0.6,-0.3 -0.9,-0.4c-0.2,-0.1 -0.3,-0.1 -0.5,-0.2c-0.1,-0.1 -0.3,-0.2 -0.4,-0.2c-0.2,-0.1 -0.4,-0.2 -0.4,-0.2c0,0 0.2,-0.1 0.3,-0.2z" fill="#241b10"/><path d="M225.03355,290.1c0.3,0.1 0.7,0.1 1.1,0.1c0.2,0 0.4,0 0.6,0c0.2,0 0.3,0 0.5,0c0.3,0 0.5,0 0.5,0c0,0 -0.2,0.2 -0.5,0.3c-0.1,0.1 -0.3,0.2 -0.5,0.2c-0.2,0.1 -0.5,0.1 -0.7,0.1c-0.3,0 -0.5,0 -0.7,-0.1c-0.2,0 -0.4,-0.1 -0.5,-0.2c-0.3,-0.2 -0.4,-0.4 -0.4,-0.4c0,0 0.2,0 0.6,0z" fill="#241b10"/><path d="M225.13355,284.5c0.1,0 0.3,0.1 0.5,0.1c0.2,0 0.4,0.1 0.6,0.1c0.4,0 0.8,0.1 1.1,0.1c0.3,0 0.5,0 0.5,0c0,0 0,0 -0.1,0.1c-0.1,0 -0.2,0.1 -0.4,0.2c-0.2,0 -0.4,0.1 -0.6,0.1c-0.2,0.1 -0.5,0 -0.7,0c-0.4,-0.1 -0.8,-0.3 -1.1,-0.5c-0.3,-0.2 -0.4,-0.4 -0.4,-0.4c0,0 0.3,0 0.6,0.2z" fill="#241b10"/><path d="M230.13355,301.7c0,-0.4 0.1,-0.9 0.2,-1.4c0,-0.3 0.1,-0.5 0.2,-0.8c0,-0.3 0.2,-0.5 0.3,-0.8c0.3,-0.5 0.6,-1 1,-1.3c0.2,-0.1 0.4,-0.3 0.6,-0.4c0.2,-0.1 0.4,-0.2 0.6,-0.3c0.4,-0.1 0.8,-0.2 1,-0.2c0.3,0 0.4,0 0.4,0c0,0 -0.1,0 -0.3,0.1c-0.1,0.1 -0.3,0.1 -0.4,0.2c-0.2,0.1 -0.3,0.2 -0.5,0.3c-0.2,0.1 -0.3,0.3 -0.5,0.4c-0.2,0.2 -0.3,0.3 -0.5,0.5c-0.2,0.2 -0.3,0.4 -0.5,0.6c-0.1,0.2 -0.3,0.4 -0.4,0.6c-0.5,0.9 -0.8,1.9 -1,2.7c-0.2,0.8 -0.3,1.3 -0.3,1.3c0,0 -0.2,-0.5 0.1,-1.5z" fill="#241b10"/></g></g><g><path d="M226.03355,244.4c-8.2,1.2 -10.9,-39.7 -8,-50.9c2.9,-11.1 15.6,-12.3 17.1,5.5c1.5,17.8 1.7,43.9 -9.1,45.4z" fill="#63b7ce"/><g><g fill="#3b8293"><path d="M221.73355,228.7c-1.3,-0.3 -2.5,-0.7 -3.4,-1.1c-0.1,-0.6 -0.2,-1.3 -0.3,-1.9c0.9,0.5 2.3,1.1 4.1,1.5c3,0.6 7.6,0.8 13.3,-1.9c-0.1,0.6 -0.1,1.2 -0.2,1.8c-3.6,1.5 -6.8,2 -9.4,2c-1.6,0 -2.9,-0.2 -4.1,-0.4z"/><path d="M221.43355,206.1c-2,-0.4 -3.5,-1 -4.6,-1.5c0.1,-0.6 0.1,-1.1 0.1,-1.7c1,0.5 2.6,1.2 4.9,1.7c3,0.6 7.7,0.8 13.5,-1.5c0,0.5 0.1,1 0.1,1.6c-3.6,1.4 -6.9,1.8 -9.6,1.8c-1.6,0 -3.1,-0.2 -4.4,-0.4z"/><path d="M220.03355,189c0.3,-0.5 0.7,-0.9 1.1,-1.3c0.2,0.1 0.5,0.1 0.8,0.2c2.2,0.4 5.4,0.6 9.2,-0.2c0.4,0.4 0.8,0.9 1.1,1.4c-2.3,0.6 -4.4,0.8 -6.3,0.8c-1.7,0 -3.2,-0.1 -4.4,-0.4c-0.5,-0.1 -1,-0.2 -1.5,-0.5z"/><path d="M221.53355,194.4c-1.4,-0.2 -2.6,-0.6 -3.5,-1c0.2,-0.5 0.3,-1 0.5,-1.5c0.9,0.4 2.1,0.7 3.4,1c2.7,0.6 6.7,0.8 11.7,-0.8c0.2,0.5 0.4,1 0.5,1.5c-3.1,1 -5.8,1.3 -8.2,1.3c-1.7,0 -3.2,-0.2 -4.4,-0.5z"/><path d="M221.53355,200.3c-1.8,-0.4 -3.2,-0.9 -4.3,-1.4c0.1,-0.6 0.1,-1.2 0.2,-1.7c1,0.5 2.5,1.1 4.5,1.5c2.9,0.6 7.4,0.8 13,-1.3c0.1,0.5 0.2,1 0.2,1.6c-3.5,1.2 -6.6,1.6 -9.2,1.6c-1.7,0 -3.2,-0.2 -4.4,-0.3z"/><path d="M221.73355,234.4c-0.8,-0.2 -1.5,-0.5 -2.2,-0.7c-0.1,-0.6 -0.3,-1.3 -0.4,-1.9c0.9,0.4 1.9,0.7 3.1,1c2.8,0.6 7.2,0.8 12.5,-1.5c-0.1,0.7 -0.3,1.3 -0.4,1.9c-3.3,1.2 -6.1,1.6 -8.5,1.6c-1.6,0 -2.9,-0.2 -4.1,-0.4z"/><path d="M227.53355,240.3c-2.5,0 -4.7,-0.4 -6.3,-0.8c-0.2,-0.6 -0.4,-1.2 -0.6,-1.8c2.3,0.6 7.3,1.6 12.2,0.3c-0.3,0.6 -0.6,1.2 -0.9,1.8c-1.5,0.3 -3,0.4 -4.4,0.5z"/><path d="M221.53355,223.6c-1.6,-0.4 -2.8,-0.8 -3.8,-1.3c-0.1,-0.7 -0.1,-1.3 -0.2,-1.9c1,0.5 2.4,1.2 4.4,1.6c3.1,0.7 7.9,0.8 13.9,-2c0,0.6 -0.1,1.2 -0.1,1.8c-3.9,1.7 -7.3,2.2 -10.1,2.2c-1.6,0 -3,-0.2 -4.1,-0.4z"/><path d="M221.43355,217.9c-1.7,-0.4 -3.1,-0.9 -4.2,-1.4c0,-0.6 -0.1,-1.2 -0.1,-1.8c1,0.5 2.6,1.2 4.7,1.6c3.1,0.6 8,0.8 14,-1.7c0,0.6 0,1.1 0,1.7c-3.8,1.5 -7.2,2 -10,2c-1.7,0 -3.2,-0.2 -4.4,-0.4z"/><path d="M221.23355,211.7c-1.9,-0.4 -3.4,-1 -4.5,-1.5c0,-0.6 0,-1.2 0,-1.8c1,0.6 2.7,1.3 5,1.8c3.2,0.6 8,0.8 13.9,-1.6c0.1,0.6 0.1,1.1 0.1,1.7c-3.8,1.4 -7.1,1.9 -9.9,1.9c-1.7,0 -3.1,-0.2 -4.6,-0.5z"/></g><path d="M233.33355,236.5c0.4,-1.1 0.8,-2.7 1.1,-4.6c0.2,-0.9 0.3,-2 0.5,-3.1c0.1,-1.1 0.3,-2.3 0.4,-3.5c0.1,-1.3 0.2,-2.5 0.3,-3.8c0.1,-1.3 0.1,-2.6 0.1,-3.9c0,-1.3 0,-2.6 0,-3.9c0,-1.3 0,-2.6 -0.1,-3.8c0,-1.2 0,-2.4 -0.1,-3.5c-0.1,-1.2 -0.1,-2.2 -0.2,-3.2c-0.1,-1.9 -0.2,-3.6 -0.3,-4.7c-0.1,-1.1 -0.1,-1.8 -0.1,-1.8c0,0 0.1,0.7 0.2,1.8c0.1,1.1 0.3,2.7 0.5,4.7c0.1,1 0.2,2.1 0.3,3.2c0.1,1.1 0.1,2.3 0.2,3.5c0.1,1.2 0.1,2.5 0.1,3.8c0,1.3 0,2.6 0,3.9c-0.1,1.3 -0.1,2.6 -0.2,3.9c-0.1,1.3 -0.2,2.6 -0.3,3.8c-0.1,1.2 -0.4,2.4 -0.5,3.5c-0.2,1.1 -0.4,2.1 -0.6,3.1c-0.1,1 -0.4,1.8 -0.6,2.6c-0.2,0.8 -0.4,1.5 -0.6,2c-0.4,1.1 -0.7,1.7 -0.7,1.7c0,0 0.3,-0.6 0.6,-1.7z" fill="#466d8c"/><path d="M218.13355,192.9c0,0.3 -0.1,0.7 -0.2,1.3c-0.2,1.1 -0.3,2.8 -0.5,4.8c-0.2,2 -0.3,4.3 -0.3,6.8c0,1.3 0,2.6 0,3.9c0,1.3 0.1,2.7 0.1,4c0,1.4 0.1,2.7 0.2,4c0.2,1.3 0.3,2.6 0.4,3.8c0.1,1.3 0.3,2.5 0.4,3.6c0.2,1.1 0.4,2.2 0.5,3.2c0.1,1 0.2,1.9 0.4,2.7c0.2,0.8 0.3,1.5 0.4,2.1c0.2,1.1 0.3,1.8 0.3,1.8c0,0 -0.1,-0.7 -0.4,-1.8c-0.2,-0.6 -0.3,-1.3 -0.5,-2.1c-0.2,-0.8 -0.3,-1.7 -0.5,-2.7c-0.2,-1 -0.4,-2.1 -0.6,-3.2c-0.2,-1.2 -0.4,-2.4 -0.5,-3.6c-0.1,-1.2 -0.3,-2.5 -0.4,-3.8c-0.1,-1.3 -0.2,-2.7 -0.3,-4c0,-1.3 -0.1,-2.7 -0.1,-4c0,-1.3 0,-2.6 0,-3.9c0,-1.2 0.1,-2.5 0.2,-3.6c0.1,-1.1 0.2,-2.2 0.3,-3.2c0.2,-2 0.5,-3.7 0.7,-4.8c0.1,-0.5 0.2,-1 0.3,-1.3c0.1,-0.4 0.2,-0.5 0.2,-0.5c0,0 0,0.2 -0.1,0.5z" fill="#466d8c"/></g></g></g><g data-paper-data="{&quot;index&quot;:null}"><g><path d="M247.73355,162.9c28.3,14.3 35.2,91.9 35.2,91.9c-46.7,25 -86.6,-2 -86.6,-2c2,-22.3 11.5,-73.1 28,-89.5c6.8,-6.8 18.4,-2.8 23.4,-0.4z" fill="#714fab"/><path d="M222.43355,165.3c-0.2,0.2 -0.5,0.7 -0.9,1.2c-0.4,0.6 -0.8,1.2 -1.3,2c-0.5,0.7 -1,1.6 -1.6,2.6c-0.6,1 -1.2,2 -1.8,3.2c-0.6,1.1 -1.2,2.3 -1.8,3.6c-0.6,1.3 -1.2,2.6 -1.8,4c-0.6,1.4 -1.2,2.8 -1.7,4.2c-0.6,1.4 -1.1,2.8 -1.6,4.2c-0.5,1.4 -0.9,2.8 -1.4,4.1c-0.5,1.4 -0.9,2.7 -1.3,3.9c-0.4,1.2 -0.8,2.4 -1.1,3.5c-0.3,1.1 -0.7,2.1 -0.9,3c-0.3,0.9 -0.5,1.7 -0.7,2.3c-0.4,1.3 -0.6,2 -0.6,2c0,0 0.2,-0.7 0.5,-2c0.1,-0.6 0.3,-1.4 0.5,-2.3c0.2,-0.9 0.5,-1.9 0.8,-3c0.3,-1.1 0.6,-2.3 1,-3.5c0.4,-1.2 0.7,-2.6 1.2,-3.9c0.4,-1.3 0.9,-2.7 1.4,-4.1c0.5,-1.4 1,-2.8 1.6,-4.2c0.6,-1.4 1.2,-2.8 1.8,-4.2c0.5,-1.4 1.2,-2.7 1.8,-4c0.6,-1.2 1.3,-2.5 1.9,-3.6c0.7,-1.2 1.3,-2.2 1.9,-3.2c0.6,-1 1.2,-1.8 1.7,-2.6c0.5,-0.7 1,-1.4 1.4,-1.9c0.4,-0.5 0.8,-0.9 1,-1.2c0.2,-0.3 0.3,-0.4 0.3,-0.4c0,0 -0.1,0.1 -0.3,0.3z" fill="#3b2b78"/><path d="M251.13355,164.6c0.4,0.3 0.9,0.7 1.6,1.2c0.4,0.2 0.7,0.6 1.1,0.9c0.4,0.3 0.8,0.7 1.2,1.1c0.9,0.8 1.8,1.8 2.7,2.9c0.4,0.6 0.9,1.2 1.4,1.8c0.5,0.6 0.9,1.2 1.4,1.9c0.5,0.7 0.9,1.4 1.4,2.1c0.5,0.8 1,1.5 1.4,2.3c0.5,0.8 0.9,1.6 1.4,2.4c0.5,0.8 0.9,1.7 1.3,2.5c0.9,1.7 1.6,3.5 2.4,5.2c0.7,1.7 1.4,3.5 2.1,5.3c0.6,1.7 1.2,3.5 1.8,5.2c0.5,1.8 1,3.4 1.5,5c0.5,1.6 0.8,3.1 1.2,4.5c0.3,1.4 0.7,2.7 0.9,3.8c0.3,1.2 0.5,2.2 0.7,3c0.4,1.7 0.6,2.6 0.6,2.6c0,0 -0.3,-1 -0.7,-2.6c-0.2,-0.8 -0.5,-1.8 -0.8,-2.9c-0.3,-1.2 -0.7,-2.4 -1.1,-3.8c-0.4,-1.3 -0.8,-2.8 -1.3,-4.4c-0.5,-1.5 -1,-3.2 -1.6,-4.9c-0.6,-1.7 -1.3,-3.4 -1.9,-5.2c-0.7,-1.8 -1.4,-3.5 -2.2,-5.3c-0.8,-1.8 -1.5,-3.5 -2.4,-5.2c-0.5,-0.8 -0.9,-1.7 -1.3,-2.5c-0.4,-0.8 -0.9,-1.6 -1.3,-2.4c-0.5,-0.8 -1,-1.6 -1.4,-2.3c-0.5,-0.7 -0.9,-1.4 -1.4,-2.1c-0.5,-0.7 -0.9,-1.4 -1.4,-2c-0.5,-0.6 -1,-1.2 -1.4,-1.8c-0.9,-1.1 -1.8,-2.1 -2.6,-2.9c-0.4,-0.5 -0.8,-0.9 -1.2,-1.2c-0.4,-0.3 -0.7,-0.6 -1,-0.9c-0.6,-0.5 -1.1,-0.9 -1.5,-1.2c-0.4,-0.3 -0.6,-0.4 -0.6,-0.4c0,0 0.2,0.2 1,0.3z" fill="#3b2b78"/><path d="M250.83355,167.8c0.6,0.6 1.3,1.2 1.9,2c0.7,0.7 1.3,1.6 1.9,2.5c0.5,0.9 1,1.8 1.5,2.7c0.4,0.9 0.8,1.8 1.1,2.5c0.3,0.7 0.4,1.4 0.6,1.8c0.1,0.4 0.2,0.7 0.2,0.7c0,0 -0.1,-0.3 -0.3,-0.7c-0.2,-0.4 -0.4,-1 -0.8,-1.7c-0.4,-0.7 -0.8,-1.5 -1.3,-2.4c-0.5,-0.9 -1,-1.8 -1.6,-2.7c-0.6,-0.8 -1.2,-1.7 -1.8,-2.5c-0.6,-0.8 -1.2,-1.5 -1.7,-2.1c-0.5,-0.6 -1,-1.1 -1.3,-1.4c-0.3,-0.3 -0.5,-0.5 -0.5,-0.5c0,0 0.9,0.6 2.1,1.8z" fill="#3b2b78"/><path d="M230.03355,173.5c-0.3,1.5 -0.7,3.3 -1.1,5.2c-0.3,1.9 -0.7,4 -1.1,6c-0.3,2 -0.7,4.1 -1,6c-0.1,1 -0.3,1.9 -0.4,2.8c-0.1,0.9 -0.2,1.7 -0.3,2.5c-0.1,1.5 -0.3,2.8 -0.4,3.7c-0.1,0.9 -0.2,1.4 -0.2,1.4c0,0 0,-0.5 0,-1.4c0,-1 0.1,-2.2 0.2,-3.8c0,-0.8 0.1,-1.6 0.2,-2.5c0,-0.9 0.2,-1.8 0.3,-2.8c0.3,-1.9 0.6,-4 1,-6c0.4,-2.1 0.8,-4.1 1.2,-6c0.5,-1.9 0.9,-3.7 1.3,-5.2c0.8,-3 1.4,-5 1.4,-5c0,0 -0.4,2 -1.1,5.1z" fill="#3b2b78"/><path d="M234.33355,171.2c0,1 0,2.1 -0.1,3.3c0,1.2 -0.1,2.5 -0.2,3.8c-0.1,1.2 -0.2,2.5 -0.3,3.7c-0.1,1.2 -0.2,2.3 -0.3,3.3c-0.2,1.9 -0.4,3.2 -0.4,3.2c0,0 0,-1.3 0.1,-3.2c0,-1 0,-2.1 0.1,-3.3c0,-1.2 0.1,-2.5 0.2,-3.8c0.1,-1.2 0.2,-2.5 0.3,-3.7c0.1,-1.2 0.2,-2.3 0.3,-3.3c0.2,-1.9 0.4,-3.2 0.4,-3.2c0,0 0,1.2 -0.1,3.2z" fill="#3b2b78"/></g><path d="M199.73355,254.7c1.1,0.6 2.4,1.3 4,2c1.5,0.8 3.3,1.5 5.3,2.3c2,0.7 4.2,1.5 6.5,2.2c2.3,0.7 4.8,1.3 7.4,1.9c2.5,0.6 5.2,1 8,1.4c2.8,0.3 5.6,0.6 8.4,0.6h2.1c0.7,0 1.4,0 2.1,0c1.4,0 2.8,-0.1 4.2,-0.2c2.8,-0.2 5.5,-0.5 8.1,-1c1.3,-0.1 2.6,-0.5 3.8,-0.7c1.2,-0.3 2.4,-0.6 3.6,-0.9c2.4,-0.5 4.6,-1.3 6.6,-1.9c1,-0.3 2,-0.7 2.9,-1c0.4,-0.2 0.9,-0.3 1.3,-0.5c0.4,-0.2 0.8,-0.3 1.2,-0.5c1.6,-0.7 3,-1.2 4.1,-1.8c2.2,-1.1 3.5,-1.7 3.5,-1.7c0,0 -1.3,0.7 -3.5,1.8c-1.1,0.6 -2.5,1.2 -4.1,1.9c-1.6,0.8 -3.4,1.4 -5.4,2.2c-2.1,0.6 -4.2,1.4 -6.6,2c-1.1,0.3 -2.3,0.6 -3.6,0.9c-1.2,0.3 -2.5,0.6 -3.8,0.8c-2.6,0.4 -5.3,0.8 -8.1,1c-1.4,0.1 -2.8,0.2 -4.2,0.2c-1.5,0 -2.9,0 -4.3,0c-2.9,0 -5.7,-0.3 -8.5,-0.6c-2.8,-0.4 -5.5,-0.8 -8.1,-1.4c-2.6,-0.6 -5.1,-1.3 -7.4,-2c-2.4,-0.7 -4.5,-1.5 -6.5,-2.3c-3.9,-1.6 -7.1,-3.3 -9.2,-4.5c-2.1,-1.3 -3.3,-2.1 -3.3,-2.1c0,0 1.2,0.8 3.5,1.9z" fill="#3b2b78"/></g><g data-paper-data="{&quot;index&quot;:null}"><path d="M243.23355,109c0,0 -2,8.7 -0.1,10.9c2,2.2 9.8,5.9 9.8,5.9c0,0 -10.1,15.3 -20.6,8.3c-10.5,-7 -4.7,-11.1 -4.7,-11.1c0,0 6.1,-1 5.2,-8.2c0,0 4.9,-9.8 10.4,-5.8z" fill="#ffe9b8"/><g><path d="M232.43355,119.1c-0.1,1.5 3.1,2.3 5.9,2.1c2.8,-0.2 4.6,-1.6 4.1,-3c0,0 4.9,5.5 11.9,6.9c7,1.4 2.5,13.7 -0.8,18.7c-3.4,5 -1,18.2 -4.5,21.9c-1.2,1.3 -2.3,0.8 -2.3,0.8c0,0 -1,1 -3.3,1.2c-4.4,0.4 -4.8,-1 -7.4,0c-4.4,1.6 -6.7,0.2 -6.7,0.2c0,0 -2.6,0.2 -3.6,-1c-0.3,-0.4 -0.9,-0.7 -0.9,-0.7c0,0 -0.9,0 -1.7,-1.4c-1.4,-2.4 0.2,-9.5 0.5,-16.5c0.2,-4.7 0.7,-9 -0.1,-11.4c-1.6,-5.4 -1.3,-13.1 1.6,-13.5c4.4,-0.7 7.3,-4.3 7.3,-4.3z" fill="#714fab"/><path d="M251.13355,160.6c0.1,0.4 0.1,0.9 0,1.5c-0.1,0.5 -0.2,1.1 -0.4,1.7c-0.1,0.2 -0.3,0.5 -0.4,0.8c-0.1,0.2 -0.3,0.5 -0.5,0.7c-0.2,0.2 -0.4,0.4 -0.6,0.6c-0.3,0.2 -0.5,0.3 -0.7,0.4c-0.2,0.1 -0.4,0.2 -0.6,0.2c-0.2,0 -0.4,0 -0.5,0c-0.3,0 -0.4,0 -0.4,0c0,0 0.1,0 0.4,-0.1c0.1,0 0.2,0 0.4,-0.1c0.1,0 0.3,-0.1 0.5,-0.2c0.1,-0.1 0.3,-0.3 0.5,-0.4c0.2,-0.2 0.3,-0.4 0.5,-0.6c0.1,-0.2 0.3,-0.4 0.4,-0.7c0.1,-0.3 0.2,-0.5 0.3,-0.8c0.2,-0.5 0.3,-1.1 0.4,-1.6c0.1,-0.6 0.2,-1.1 0.2,-1.5c0.1,-0.9 0.1,-1.5 0.1,-1.5c0,0 0.2,0.6 0.4,1.6z" fill="#3b2b78"/><path d="M224.63355,166c-0.2,0 -0.5,0 -0.9,-0.2c-0.4,-0.2 -0.7,-0.6 -1,-1.1c-0.3,-0.5 -0.5,-1.1 -0.6,-1.8c-0.2,-1.4 -0.2,-3 0,-4.7c0.1,-0.8 0.2,-1.7 0.3,-2.6c0.1,-0.9 0.2,-1.8 0.3,-2.7c0.2,-1.8 0.4,-3.6 0.5,-5.3c0.2,-1.7 0.3,-3.3 0.4,-4.7c0.1,-1.4 0.2,-2.5 0.2,-3.3c0,-0.8 0,-1.3 0,-1.3c0,0 0.1,0.5 0.1,1.3c0,0.8 0,1.9 0,3.3c-0.1,1.4 -0.1,3 -0.2,4.7c-0.1,1.8 -0.3,3.6 -0.4,5.4c-0.1,0.9 -0.2,1.8 -0.3,2.7c-0.1,0.9 -0.2,1.8 -0.3,2.6c-0.2,1.7 -0.4,3.3 -0.2,4.6c0,0.7 0.2,1.3 0.4,1.8c0.2,0.5 0.6,0.9 0.9,1.1c0.4,0.2 0.7,0.3 0.9,0.3c0.2,0 0.3,0 0.3,0c0,0 -0.2,0 -0.4,-0.1z" fill="#3b2b78"/><path d="M224.73355,165.8c0.2,0.2 0.4,0.4 0.7,0.6c0.3,0.2 0.6,0.4 0.9,0.6c0.3,0.2 0.7,0.3 1,0.4c0.3,0.1 0.6,0.2 0.9,0.2c0.3,0.1 0.5,0.1 0.7,0.1c0.2,0 0.3,0 0.3,0c0,0 -0.1,0.1 -0.3,0.1c-0.2,0 -0.4,0.1 -0.7,0.1c-0.3,0.1 -0.6,0.1 -1,0c-0.4,-0.1 -0.7,-0.2 -1.1,-0.4c-0.7,-0.3 -1.2,-1 -1.5,-1.5c-0.2,-0.3 -0.2,-0.5 -0.3,-0.7c-0.1,-0.2 -0.1,-0.3 -0.1,-0.3c0,0 0.2,0.4 0.5,0.8z" fill="#3b2b78"/><path d="M226.53355,165c0.3,0.6 0.9,1.3 1.8,2c0.9,0.7 2.1,1.2 3.5,1.1c0.7,0 1.4,-0.2 2.1,-0.4c0.7,-0.2 1.4,-0.5 2.2,-0.6c0.8,-0.1 1.6,-0.2 2.4,0c0.4,0.1 0.8,0.2 1.1,0.3c0.3,0.1 0.6,0.1 1,0.1c1.4,0 2.7,0 3.8,-0.2c0.6,-0.2 1,-0.4 1.4,-0.6c0.4,-0.2 0.7,-0.5 0.8,-0.8c0.1,-0.3 0.2,-0.5 0.2,-0.7c0,-0.2 0,-0.3 0,-0.3c0,0 0.1,0.4 -0.1,1c-0.1,0.3 -0.3,0.7 -0.7,1c-0.3,0.3 -0.8,0.5 -1.4,0.7c-1.1,0.4 -2.5,0.4 -3.9,0.4c-0.3,0 -0.7,0 -1.1,-0.1c-0.4,0 -0.8,-0.1 -1.1,-0.2c-0.7,-0.1 -1.4,-0.1 -2.1,0c-0.7,0.1 -1.4,0.4 -2.1,0.6c-0.7,0.3 -1.5,0.4 -2.2,0.4c-1.5,0 -2.8,-0.5 -3.7,-1.3c-0.9,-0.8 -1.4,-1.6 -1.7,-2.2c-0.3,-0.6 -0.4,-1 -0.4,-1c0,0 0.1,0.3 0.2,0.8z" fill="#3b2b78"/><path d="M242.53355,118.6c0,0.3 0,0.7 -0.4,1.3c-0.1,0.2 -0.3,0.4 -0.5,0.6c-0.2,0.2 -0.4,0.4 -0.7,0.5c-0.3,0.1 -0.6,0.2 -0.9,0.3c-0.4,0.1 -0.7,0.2 -1,0.2c-0.7,0 -1.3,0 -1.9,0c-0.3,0 -0.6,-0.1 -0.9,-0.1c-0.3,0 -0.6,-0.1 -0.8,-0.1c-0.9,-0.2 -1.5,-0.4 -1.5,-0.4c0,0 0.7,0 1.6,0.1c0.5,0 1,0 1.6,0c0.6,0 1.2,0 1.8,-0.1c0.3,0 0.6,-0.1 0.9,-0.1c0.3,-0.1 0.5,-0.2 0.8,-0.3c0.3,-0.2 0.5,-0.2 0.7,-0.4c0.2,-0.2 0.4,-0.3 0.5,-0.5c0.3,-0.4 0.5,-0.7 0.5,-1c0.1,-0.2 0.1,-0.4 0.1,-0.4c0,0 0.1,0.1 0.1,0.4z" fill="#3b2b78"/><path d="M235.83355,123c-0.1,1.3 -0.3,3.1 -0.5,4.8c-0.2,1.8 -0.5,3.5 -0.7,4.8c-0.1,0.7 -0.2,1.2 -0.3,1.6c-0.1,0.4 -0.1,0.6 -0.1,0.6c0,0 0,-0.2 0,-0.6c0,-0.4 0,-0.9 0,-1.6c0.1,-1.3 0.3,-3.1 0.5,-4.8c0.2,-1.8 0.5,-3.5 0.8,-4.8c0.3,-1.2 0.5,-2.1 0.5,-2.1c0,0 0,0.9 -0.2,2.1z" fill="#3b2b78"/><path d="M245.33355,120.5c0.6,0.4 1.4,1 2.3,1.6c0.5,0.3 0.9,0.5 1.3,0.8c0.4,0.3 0.8,0.5 1.1,0.7c0.3,0.2 0.6,0.3 0.8,0.4c0.2,0.1 0.3,0.2 0.3,0.2c0,0 -0.5,-0.1 -1.3,-0.3c-0.4,-0.1 -0.9,-0.3 -1.3,-0.5c-0.4,-0.2 -0.9,-0.5 -1.3,-0.8c-0.4,-0.3 -0.8,-0.6 -1.2,-0.9c-0.4,-0.3 -0.7,-0.6 -1,-0.9c-0.6,-0.6 -0.9,-1 -0.9,-1c0,0 0.5,0.2 1.2,0.7z" fill="#3b2b78"/><path d="M231.93355,119.8c-0.2,0.2 -0.4,0.5 -0.7,0.7c-0.3,0.2 -0.6,0.5 -0.9,0.7c-0.4,0.2 -0.7,0.4 -1,0.6c-0.3,0.2 -0.6,0.3 -0.9,0.4c-0.6,0.2 -1,0.2 -1,0.2c0,0 0.1,0 0.2,-0.1c0.2,-0.1 0.4,-0.3 0.6,-0.4c0.3,-0.1 0.5,-0.3 0.8,-0.5c0.3,-0.2 0.6,-0.4 0.9,-0.6c0.6,-0.4 1.2,-0.9 1.7,-1.2c0.5,-0.3 0.8,-0.5 0.8,-0.5c0,0 -0.2,0.4 -0.5,0.7z" fill="#3b2b78"/><path d="M234.42824,124.40086c-0.55228,-0.00263 -0.99786,-0.45247 -0.99523,-1.00475c0.00263,-0.55228 0.45247,-0.99786 1.00475,-0.99523c0.55228,0.00263 0.99786,0.45247 0.99523,1.00475c-0.00263,0.55228 -0.45247,0.99786 -1.00475,0.99523z" fill="#9ea69a"/><path d="M233.72821,128.90093c-0.55228,-0.00263 -0.99786,-0.45247 -0.99523,-1.00475c0.00263,-0.55228 0.45247,-0.99786 1.00475,-0.99523c0.55228,0.00263 0.99786,0.45247 0.99523,1.00475c-0.00263,0.55228 -0.45247,0.99786 -1.00475,0.99523z" fill="#9ea69a"/><path d="M233.22822,132.70095c-0.55228,-0.00263 -0.99786,-0.45247 -0.99523,-1.00475c0.00263,-0.55228 0.45247,-0.99786 1.00475,-0.99523c0.55228,0.00263 0.99786,0.45247 0.99523,1.00475c-0.00263,0.55228 -0.45247,0.99786 -1.00475,0.99523z" fill="#9ea69a"/></g></g><g data-paper-data="{&quot;index&quot;:null}"><g><g><path d="M286.23355,201.3c0.8,2.3 -0.2,2.4 -0.2,2.4c1.1,4.5 -0.8,3 -0.8,3c0,1.6 -0.7,1.4 -1.4,0.2c-0.7,-1.1 -1.5,-3.3 -1.5,-3.3c0.5,1.9 1.1,4.9 0.5,5c-0.6,0.1 -1.8,-1.7 -1.9,-3c-0.1,-1.7 -3,-5 -3,-5c0,0 2.1,4.2 0.5,4.7c-0.8,0.2 -1,-2.3 -2.3,-5c-1.9,-4 -0.8,-6.7 -0.8,-6.7c4.7,-5.9 10,5.5 10.9,7.7z" fill="#ffe9b8"/><path d="M282.83355,206.7c0,-0.3 -0.2,-0.8 -0.3,-1.2c-0.2,-0.5 -0.3,-0.9 -0.5,-1.4c-0.1,-0.4 -0.3,-0.9 -0.5,-1.3c-0.2,-0.5 -0.3,-0.9 -0.5,-1.2c-0.2,-0.3 -0.3,-0.6 -0.4,-0.8c-0.1,-0.2 -0.1,-0.3 -0.1,-0.3c0,0 0.1,0.1 0.2,0.3c0.2,0.1 0.4,0.4 0.6,0.7c0.2,0.3 0.5,0.7 0.7,1.1c0.2,0.5 0.4,0.9 0.6,1.4c0.2,0.4 0.3,0.9 0.4,1.4c0,0.5 0.1,0.9 0.1,1.3c0,0.8 -0.1,1.3 -0.1,1.3c0,0 0,-0.5 -0.2,-1.3z" fill="#bd875f"/><path d="M284.93355,205.7c-0.2,-0.7 -0.5,-1.6 -0.8,-2.4c-0.1,-0.4 -0.3,-0.8 -0.5,-1.2c-0.2,-0.4 -0.3,-0.8 -0.5,-1.1c-0.2,-0.3 -0.3,-0.6 -0.4,-0.8c-0.1,-0.2 -0.1,-0.3 -0.1,-0.3c0,0 0.1,0 0.2,0.2c0.1,0.2 0.3,0.4 0.5,0.7c0.5,0.6 0.9,1.4 1.3,2.3c0.1,0.4 0.3,0.9 0.4,1.3c0.1,0.4 0.2,0.8 0.2,1.2c0.1,0.7 0,1.2 0,1.2c0,0 -0.1,-0.5 -0.3,-1.1z" fill="#bd875f"/><path d="M285.53355,202.8c-0.2,-0.4 -0.5,-1.1 -0.8,-1.7c-0.1,-0.3 -0.3,-0.6 -0.4,-0.9c-0.1,-0.3 -0.2,-0.6 -0.3,-0.8c-0.2,-0.5 -0.3,-0.8 -0.3,-0.8c0,0 0.3,0.3 0.6,0.7c0.3,0.4 0.7,1 1,1.7c0.2,0.4 0.3,0.7 0.4,1c0.1,0.3 0.1,0.6 0.2,0.9c0.1,0.5 0.1,0.9 0.1,0.9c0,0 -0.2,-0.3 -0.5,-1z" fill="#bd875f"/></g><path d="M275.03355,195.1c0,0.1 0,0.3 0,0.6c0.1,0.3 0.1,0.6 0.2,0.9c0,0.3 0.1,0.7 0.2,1c0.1,0.7 0.3,1.4 0.4,1.9c0.2,0.5 0.2,0.9 0.2,0.9c0,0 -0.2,-0.3 -0.5,-0.8c-0.1,-0.3 -0.3,-0.6 -0.4,-0.9c-0.1,-0.3 -0.2,-0.6 -0.3,-1c-0.1,-0.8 -0.2,-1.5 -0.1,-2.1c0,-0.3 0.1,-0.6 0.2,-0.7c0.1,-0.2 0.2,-0.2 0.2,-0.2c0,0 0,0 -0.1,0.4z" fill="#bd875f"/></g><g><g><path d="M267.63355,160.2c2.6,1.5 7.6,14 9.3,21.6c1.7,7.1 2.5,10.7 2.5,10.7c-1.3,1.3 -2.7,2.5 -4.5,1.6c0,0 -3.3,-7.4 -5.5,-11.4c-3.4,-6.2 -8,-15.3 -8,-20c0,-2.3 3.3,-3.9 6.2,-2.5z" fill="#714fab"/><path d="M262.93355,168.9c0.4,0.9 0.9,2 1.4,3.2c0.5,1.2 1.1,2.5 1.7,3.7c0.5,1.2 1.1,2.5 1.7,3.6c0.6,1.1 1.1,2.2 1.6,3.1c1,1.8 1.6,3 1.6,3c0,0 -0.2,-0.3 -0.5,-0.8c-0.3,-0.5 -0.8,-1.2 -1.3,-2.1c-0.2,-0.4 -0.5,-0.9 -0.8,-1.4c-0.3,-0.5 -0.6,-1 -0.9,-1.6c-0.6,-1.1 -1.2,-2.4 -1.8,-3.6c-0.6,-1.2 -1.1,-2.5 -1.6,-3.7c-0.5,-1.2 -0.9,-2.3 -1.2,-3.3c-0.7,-2 -1,-3.3 -1,-3.3c0,0 0.5,1.3 1.1,3.2z" fill="#3b2b78"/></g><path d="M278.33355,187.9c-0.3,-1.4 -0.8,-2.9 -1.2,-4.6c-0.4,-1.7 -0.9,-3.4 -1.5,-5.2c-0.5,-1.8 -1.1,-3.6 -1.7,-5.2c-0.6,-1.6 -1.2,-3.1 -1.7,-4.4c-0.3,-0.7 -0.5,-1.3 -0.7,-1.8c-0.2,-0.5 -0.4,-0.9 -0.6,-1.3c-0.3,-0.8 -0.5,-1.2 -0.5,-1.2c0,0 0.2,0.4 0.6,1.1c0.4,0.7 0.9,1.7 1.5,3c0.3,0.7 0.6,1.4 0.9,2.1c0.3,0.7 0.6,1.5 0.9,2.3c0.6,1.7 1.2,3.4 1.8,5.2c0.6,1.8 1.1,3.6 1.5,5.3c0.4,1.6 0.7,3.2 1,4.6c0.2,1.3 0.4,2.5 0.5,3.3c0.2,0.8 0.2,1.3 0.2,1.3c0,0 -0.4,-1.9 -1,-4.5z" fill="#3b2b78"/></g><g><path d="M251.63355,141.5c-1.2,-4.1 -4.5,-21.4 5.2,-14.9c9.3,6.3 16.2,42.1 9.7,41c-6.5,-1.2 -12.3,-16.9 -14.9,-26.1z" fill="#714fab"/><path d="M251.23355,138.2c0.3,0.9 0.6,2.1 0.9,3.3c0.3,1.2 0.7,2.5 1.1,3.8c0.4,1.3 0.8,2.6 1.2,3.8c0.4,1.2 0.7,2.4 1.1,3.3c0.4,1 0.7,1.8 0.9,2.3c0.2,0.6 0.3,0.9 0.3,0.9c0,0 -0.1,-0.3 -0.4,-0.8c-0.3,-0.5 -0.7,-1.3 -1.1,-2.2c-0.4,-0.9 -0.9,-2 -1.3,-3.2c-0.5,-1.2 -0.9,-2.5 -1.3,-3.8c-0.4,-1.3 -0.8,-2.6 -1.1,-3.8c-0.3,-1.2 -0.5,-2.4 -0.7,-3.4c-0.4,-2 -0.5,-3.3 -0.5,-3.3c0,0 0.4,1.3 0.9,3.1z" fill="#3b2b78"/><path d="M252.93355,124.7c0.2,0 0.6,0 1.1,0c0.5,0.1 1.1,0.2 1.7,0.5c0.3,0.1 0.6,0.3 0.9,0.5c0.4,0.2 0.7,0.4 1,0.7c0.7,0.5 1.2,1.2 1.9,1.9c0.3,0.4 0.6,0.8 0.9,1.2c0.1,0.2 0.3,0.4 0.4,0.6c0.1,0.3 0.3,0.5 0.4,0.7c0.5,0.9 1.1,1.8 1.5,2.8c0.4,1 0.9,2 1.3,3c0.4,1.1 0.8,2.1 1.1,3.1c0.4,1 0.7,2 1,3c0.3,1 0.5,2 0.7,2.9c0.2,0.9 0.4,1.8 0.6,2.6c0.6,3.3 1,5.4 1,5.4c0,0 -0.5,-2.1 -1.3,-5.3c-0.2,-0.8 -0.4,-1.6 -0.7,-2.5c-0.2,-0.9 -0.5,-1.8 -0.8,-2.8c-0.3,-1 -0.7,-2 -1,-3c-0.3,-1 -0.7,-2 -1.1,-3c-0.4,-1.1 -0.8,-2 -1.3,-3c-0.5,-1 -1,-1.9 -1.5,-2.8c-0.2,-0.3 -0.3,-0.5 -0.4,-0.7c-0.1,-0.2 -0.3,-0.4 -0.4,-0.6c-0.3,-0.4 -0.5,-0.8 -0.8,-1.2c-0.6,-0.7 -1.2,-1.4 -1.8,-1.9c-0.3,-0.3 -0.6,-0.5 -0.9,-0.7c-0.3,-0.1 -0.6,-0.4 -0.9,-0.5c-0.6,-0.3 -1.1,-0.4 -1.6,-0.5c-0.5,0 -0.8,0 -1.1,0c-0.3,0 -0.4,0.1 -0.4,0.1c0,0 0.1,0 0.5,-0.5z" fill="#3b2b78"/></g></g><g data-paper-data="{&quot;index&quot;:null}"><g><path d="M247.63355,122c27.8,4.1 26,45.6 26,45.6c-3.3,10.2 -35,7.3 -35,7.3c-0.5,-20.5 -3.9,-46 -3.9,-46l2.9,-9.4c6.5,-3.6 10.2,-4 10.2,-4z" fill="#122f42"/><path d="M226.53355,115.8c0,0 2,0.2 7.1,3.9l1.3,9.6c0,0 -6.5,25.8 -8.3,45.9c0,0 -16.8,-0.5 -21.2,-7.2c0,0 2.3,-41.4 21.7,-45.8z" fill="#122f42"/><g><path d="M232.03355,129.7c0.1,-0.2 0.2,-0.4 0.3,-0.6c0.3,-0.3 0.6,-0.6 0.9,-0.9l0.2,-0.1l0.1,0.1c0.2,0.2 0.5,0.3 0.7,0.4c0.3,0.1 0.5,0.2 0.8,0.2c0.3,0 0.6,0 0.8,-0.1c0.1,-0.1 0.2,-0.1 0.3,-0.2l0.1,-0.1l0.1,-0.1v-0.1h0.3c0.3,0.1 0.7,0.2 1,0.4c0.1,0.1 0.3,0.2 0.4,0.4c0.1,0.2 0.1,0.5 0.1,0.7c-0.1,0.2 -0.2,0.4 -0.3,0.5c-0.1,0.2 -0.2,0.3 -0.4,0.4c-0.3,0.2 -0.7,0.3 -1,0.4c-0.7,0.1 -1.4,0.1 -2.1,0c-0.3,-0.1 -0.7,-0.1 -1,-0.2c-0.2,0 -0.3,0 -0.5,-0.1c-0.2,0 -0.4,-0.1 -0.5,-0.2c-0.2,-0.1 -0.4,-0.5 -0.3,-0.8zM232.83355,130.5c0.2,0.1 0.3,0.2 0.5,0.2c0.3,0.1 0.7,0.2 1,0.2c0.7,0 1.4,0 2,-0.1c0.3,-0.1 0.6,-0.2 0.9,-0.4c0.1,-0.1 0.2,-0.2 0.3,-0.3c0.1,-0.2 0.2,-0.3 0.2,-0.4c0,-0.3 -0.1,-0.5 -0.4,-0.6c-0.3,-0.2 -0.6,-0.2 -0.9,-0.3l0.3,-0.1c-0.1,0.1 -0.1,0.2 -0.2,0.2c-0.1,0 -0.1,0.1 -0.2,0.1c-0.2,0 -0.3,0.1 -0.5,0.1c-0.3,0 -0.6,0 -0.9,0c-0.6,0 -1.1,-0.2 -1.7,-0.4h0.3c-0.3,0.3 -0.6,0.5 -0.8,0.8c-0.1,0.1 -0.2,0.3 -0.2,0.4c0,0.1 0,0.2 0.1,0.3c0.1,0 0.2,0.1 0.2,0.3z" fill="#141b30"/><g><path d="M232.9272,130.50093c-0.66274,-0.00316 -1.19744,-0.54297 -1.19429,-1.20571c0.00316,-0.66274 0.54297,-1.19744 1.20571,-1.19429c0.66274,0.00316 1.19744,0.54297 1.19429,1.20571c-0.00316,0.66274 -0.54297,1.19744 -1.20571,1.19429z" fill="#b5aec4"/><path d="M232.13355,129.4c-0.1,-0.2 -0.1,-0.5 0.1,-0.8c0.2,-0.3 0.6,-0.3 0.8,-0.3c0.3,0.1 0.4,0.1 0.4,0.1c0,0 -0.2,0 -0.4,0c-0.1,0 -0.2,0.1 -0.3,0.1c-0.1,0 -0.2,0.1 -0.3,0.2c-0.2,0.2 -0.2,0.5 -0.2,0.7c0,0.3 0,0.4 0,0.4c0,0 0,-0.1 -0.1,-0.4z" fill="#ffffff"/><path d="M233.93355,129.2c0.1,0.2 0.1,0.5 -0.1,0.8c-0.2,0.3 -0.6,0.3 -0.8,0.3c-0.3,-0.1 -0.4,-0.1 -0.4,-0.1c0,0 0.2,0 0.4,0c0.1,0 0.2,-0.1 0.3,-0.1c0.1,0 0.2,-0.1 0.3,-0.2c0.2,-0.2 0.2,-0.5 0.2,-0.7c0,-0.3 0,-0.4 0,-0.4c0,0 0.1,0.1 0.1,0.4z" fill="#ffffff"/></g><g><path d="M237.2273,130.5009c-0.66274,-0.00316 -1.19744,-0.54297 -1.19429,-1.20571c0.00316,-0.66274 0.54297,-1.19744 1.20571,-1.19429c0.66274,0.00316 1.19744,0.54297 1.19429,1.20571c-0.00316,0.66274 -0.54297,1.19744 -1.20571,1.19429z" fill="#b5aec4"/><path d="M236.43355,129.4c-0.1,-0.2 -0.1,-0.5 0.1,-0.8c0.2,-0.3 0.6,-0.3 0.8,-0.3c0.3,0.1 0.4,0.1 0.4,0.1c0,0 -0.2,0 -0.4,0c-0.1,0 -0.2,0.1 -0.3,0.1c-0.1,0 -0.2,0.1 -0.3,0.2c-0.2,0.2 -0.2,0.5 -0.2,0.7c0,0.3 0,0.4 0,0.4c0,0 -0.1,-0.1 -0.1,-0.4z" fill="#ffffff"/><path d="M238.23355,129.2c0.1,0.2 0.1,0.5 -0.1,0.8c-0.2,0.3 -0.6,0.3 -0.8,0.3c-0.3,-0.1 -0.4,-0.1 -0.4,-0.1c0,0 0.2,0 0.4,0c0.1,0 0.2,-0.1 0.3,-0.1c0.1,0 0.2,-0.1 0.3,-0.2c0.2,-0.2 0.2,-0.5 0.2,-0.7c0,-0.3 0,-0.4 0,-0.4c0,0 0,0.1 0.1,0.4z" fill="#ffffff"/></g></g></g><path d="M250.43355,122.7c1.5,0.3 3.6,1 6,2.3c1.2,0.6 2.4,1.4 3.6,2.4c1.2,1 2.4,2.1 3.5,3.4c1.1,1.3 2.2,2.7 3.1,4.2c0.9,1.5 1.7,3.1 2.5,4.7c0.3,0.8 0.7,1.7 1,2.5c0.2,0.8 0.5,1.7 0.8,2.5c0.2,0.8 0.5,1.7 0.7,2.5c0.2,0.8 0.4,1.7 0.6,2.5c0.3,1.7 0.6,3.3 0.8,4.8c0.2,1.5 0.3,3 0.4,4.3c0.2,1.4 0.2,2.6 0.2,3.7c0,1.1 0,2 0,2.8c0,1.6 0,2.5 0,2.5c0,0 0,-0.9 -0.1,-2.5c0,-0.8 0,-1.7 -0.1,-2.8c-0.1,-1 -0.1,-2.3 -0.3,-3.6c-0.1,-1.4 -0.3,-2.8 -0.5,-4.3c-0.2,-1.5 -0.6,-3.1 -0.9,-4.7c-0.2,-0.8 -0.4,-1.7 -0.6,-2.5c-0.2,-0.8 -0.5,-1.7 -0.7,-2.5c-0.3,-0.8 -0.6,-1.7 -0.9,-2.5c-0.3,-0.9 -0.7,-1.7 -1,-2.5c-0.7,-1.6 -1.5,-3.2 -2.4,-4.7c-0.9,-1.6 -2,-2.9 -3,-4.2c-1.1,-1.3 -2.2,-2.4 -3.4,-3.4c-1.2,-1 -2.4,-1.8 -3.5,-2.5c-2.3,-1.3 -4.4,-2.1 -5.9,-2.5c-1.5,-0.4 -2.4,-0.5 -2.4,-0.5c0,0 0.9,0 2.5,0.6z" fill="#141b30"/><path d="M235.13355,133.6c0.2,1.2 0.4,2.9 0.7,4.9c0.2,2 0.5,4.4 0.8,6.9c0.2,2.5 0.5,5.2 0.8,7.9c0.2,2.7 0.4,5.4 0.6,7.9c0.2,2.5 0.3,4.9 0.4,6.9c0.1,2 0.1,3.7 0.1,4.9c0,1.2 0,1.9 0,1.9c0,0 -0.1,-0.7 -0.1,-1.9c0,-1.2 -0.2,-2.9 -0.3,-4.9c-0.1,-2 -0.3,-4.4 -0.5,-6.9c-0.2,-2.5 -0.4,-5.2 -0.7,-7.9c-1,-10.8 -2,-21.6 -2,-21.6c0,0 0.1,0.7 0.2,1.9z" fill="#141b30"/><path d="M226.83355,173.5c0.1,-1.1 0.3,-2.8 0.5,-4.8c0.2,-2 0.5,-4.3 0.9,-6.8c0.3,-2.5 0.8,-5.2 1.2,-7.8c0.4,-2.6 0.9,-5.2 1.4,-7.7c0.5,-2.5 1,-4.7 1.5,-6.7c0.4,-2 0.9,-3.6 1.2,-4.7c0.3,-1.2 0.5,-1.8 0.5,-1.8c0,0 -0.1,0.7 -0.4,1.8c-0.3,1.1 -0.6,2.7 -1,4.7c-0.4,1.9 -0.8,4.2 -1.3,6.7c-0.5,2.4 -1,5.1 -1.4,7.7c-0.5,2.6 -0.9,5.2 -1.3,7.7c-0.4,2.5 -0.8,4.8 -1.1,6.8c-0.3,2 -0.5,3.6 -0.7,4.8c-0.1,1.1 -0.2,1.8 -0.2,1.8c0,0 0,-0.7 0.2,-1.7z" fill="#141b30"/><path d="M205.53355,165.6c0.1,-1.4 0.3,-3.5 0.6,-6c0.3,-2.4 0.7,-5.3 1.4,-8.4c0.4,-1.5 0.8,-3.1 1.2,-4.7c0.4,-1.6 0.9,-3.2 1.5,-4.8c0.6,-1.5 1.2,-3.1 1.9,-4.6c0.7,-1.5 1.5,-3 2.3,-4.3c0.4,-0.6 0.8,-1.3 1.3,-1.9c0.4,-0.7 0.8,-1.2 1.3,-1.8c0.9,-1.1 1.9,-2.1 2.8,-2.9c0.4,-0.4 0.9,-0.8 1.4,-1.1c0.3,-0.2 0.5,-0.3 0.7,-0.5c0.3,-0.1 0.5,-0.3 0.7,-0.4c0.8,-0.5 1.6,-0.9 2.3,-1.2c0.7,-0.3 1.2,-0.5 1.6,-0.6c0.4,-0.1 0.6,-0.2 0.6,-0.2c0,0 -0.2,0.1 -0.6,0.2c-0.4,0.2 -1,0.4 -1.6,0.7c-0.7,0.3 -1.5,0.7 -2.3,1.3c-0.2,0.1 -0.4,0.3 -0.6,0.4c-0.2,0.1 -0.4,0.3 -0.6,0.5c-0.5,0.4 -1,0.8 -1.4,1.2c-0.9,0.9 -1.8,1.9 -2.7,3c-0.5,0.6 -0.9,1.2 -1.3,1.8c-0.4,0.6 -0.8,1.2 -1.2,1.9c-0.8,1.3 -1.5,2.7 -2.2,4.2c-0.6,1.5 -1.2,3 -1.8,4.6c-0.5,1.5 -1.1,3.1 -1.5,4.7c-0.5,1.6 -0.8,3.2 -1.2,4.7c-0.7,3.1 -1.2,5.9 -1.6,8.4c-0.4,2.5 -0.7,4.5 -0.8,6c-0.1,1.5 -0.2,2.3 -0.2,2.3c0,0 0,-0.9 0,-2.5z" fill="#141b30"/><path d="M227.93355,124.1c0.5,0.4 1.1,1 1.7,1.6c0.3,0.3 0.6,0.6 0.9,0.8c0.3,0.2 0.6,0.4 0.9,0.6c0.3,0.1 0.5,0.2 0.7,0.3c0.2,0.1 0.3,0.1 0.3,0.1c0,0 -0.1,0 -0.3,0c-0.2,-0.1 -0.5,-0.1 -0.8,-0.2c-0.3,-0.1 -0.6,-0.3 -1,-0.5c-0.3,-0.2 -0.7,-0.5 -1,-0.8c-0.7,-0.6 -1.2,-1.3 -1.6,-1.9c-0.3,-0.6 -0.5,-1 -0.5,-1c0,0 0.3,0.3 0.7,1z" fill="#141b30"/><path d="M246.73355,124.1c-0.4,0.5 -0.9,1.2 -1.6,1.8c-0.4,0.3 -0.7,0.6 -1.1,0.8c-0.3,0.2 -0.7,0.4 -1,0.5c-0.3,0.1 -0.6,0.1 -0.8,0.1c-0.2,0 -0.3,0 -0.3,0c0,0 0.1,0 0.3,-0.1c0.2,0 0.4,-0.2 0.7,-0.3c0.3,-0.1 0.6,-0.4 0.9,-0.6c0.4,-0.3 0.7,-0.5 1,-0.8c0.6,-0.6 1.2,-1.1 1.7,-1.6c0.5,-0.5 0.8,-0.8 0.8,-0.8c0,0 -0.2,0.4 -0.6,1z" fill="#141b30"/></g><g data-paper-data="{&quot;index&quot;:null}"><path d="M235.53355,82.8c15.7,1.2 34.7,12.6 34.2,13.9c-1.1,2.9 -30.4,0 -36.4,0c-6,0 -31,-5.3 -29.4,-7.8c2.2,-3.4 15.9,-7.3 31.6,-6.1z" fill="#0c252b"/><g><g><path d="M222.63355,114.3c-2.1,5.3 1.5,7.3 1.5,7.3c-6.2,-0.7 -4.1,-11.5 -4.1,-11.5c-3.1,5.4 0.9,8.8 0.9,8.8c-4,-0.7 -3.9,-9 -1,-13c2.9,-4.1 2.2,-10.9 2,-16.5c0,0 6.8,8.8 0.7,24.9z" fill="#382a1b"/><path d="M223.43355,121.5c-0.4,0 -1.2,-0.3 -1.8,-0.9c-0.7,-0.7 -1.2,-1.6 -1.5,-2.6c-0.1,-0.5 -0.2,-1 -0.3,-1.6c-0.1,-0.6 -0.2,-1.1 -0.2,-1.7c0,-1.1 0.1,-2.2 0.2,-3.3c0.2,-1 0.4,-2 0.7,-2.8c0.2,-0.8 0.6,-1.5 0.8,-1.9c0.1,-0.2 0.2,-0.4 0.3,-0.5c0.1,-0.1 0.1,-0.2 0.1,-0.2c0,0 -0.1,0.3 -0.3,0.7c-0.1,0.2 -0.2,0.5 -0.3,0.8c-0.1,0.3 -0.2,0.7 -0.3,1.1c-0.2,0.8 -0.4,1.8 -0.5,2.8c-0.1,1 -0.2,2.1 -0.1,3.2c0,0.5 0,1.1 0.1,1.6c0.1,0.6 0.2,1.1 0.3,1.6c0.3,0.9 0.7,1.8 1.2,2.4c0.5,0.6 1.1,1 1.6,1.1c0.4,0.2 0.7,0.2 0.7,0.2c0,0 -0.3,0.1 -0.7,0z" fill="#241b10"/><path d="M219.63355,118.3c-0.5,-0.4 -1.1,-1.1 -1.5,-2.1c-0.2,-0.5 -0.3,-1.1 -0.4,-1.7c0,-0.6 0,-1.3 0,-1.9c0,-1.3 0.2,-2.7 0.7,-4.1c0.5,-1.3 1.4,-2.4 1.9,-3.6c0.5,-1.2 0.9,-2.3 1.2,-3.3c0.2,-1 0.4,-1.9 0.5,-2.5c0.1,-0.6 0.1,-1 0.1,-1c0,0 0,0.4 0,1c0,0.6 -0.1,1.5 -0.3,2.5c-0.3,1.1 -0.5,2.3 -1.1,3.5c-0.5,1.2 -1.4,2.3 -1.8,3.6c-0.5,1.2 -0.7,2.6 -0.8,3.9c-0.1,0.6 -0.1,1.2 -0.1,1.8c0,0.6 0.1,1.1 0.3,1.6c0.3,1 0.8,1.7 1.3,2.1c0.5,0.4 0.8,0.5 0.8,0.5c0,0 -0.4,0 -0.8,-0.3z" fill="#241b10"/></g><g><path d="M249.43355,100.3c-1.8,5.8 -2.9,8.9 -5.8,11.8c-4.9,4.9 -12.2,6.1 -12.2,6.1c-12.2,-9.5 -8.1,-18.7 -8.1,-18.7c0,0 -2.5,-9.3 0.6,-14c9.4,-14.5 30.9,-3.7 25.5,14.8z" fill="#ffe9b8"/><path d="M226.83355,96.2c1.9,-0.3 2.3,3.7 2.3,3.7c-2.9,-2.1 -4.5,-0.7 -4.5,-0.7c0,0 0.3,-2.7 2.2,-3z" fill="#ffc8a6"/><path d="M239.73355,99.3c0,0 -1.5,-1.4 -4.5,0.7c0,0 0.4,-3.7 2.3,-3.5c1.9,0.2 2.2,2.8 2.2,2.8z" fill="#ffc8a6"/><path d="M228.73355,99.9c-0.5,-0.2 -1.1,-0.6 -1.8,-0.7c-0.2,0 -0.3,-0.1 -0.5,-0.1c-0.2,0 -0.3,0 -0.5,0c-0.3,0 -0.6,0 -0.9,0.1c-0.2,0.1 -0.5,0.1 -0.6,0.2c-0.1,0.1 -0.2,0.1 -0.2,0.1c0.1,0 0.3,-0.3 0.8,-0.6c0.1,-0.1 0.2,-0.2 0.4,-0.2c0.1,0 0.3,-0.1 0.5,-0.1c0.4,0 0.8,0 1.2,0.1c0.4,0.1 0.8,0.2 1.1,0.4c0.3,0.2 0.6,0.4 0.8,0.6c0.4,0.4 0.6,0.7 0.6,0.7c0,0 -0.3,-0.2 -0.9,-0.5z" fill="#382a1b"/><path d="M235.33355,99.6c0.2,-0.2 0.5,-0.4 0.8,-0.6c0.4,-0.2 0.7,-0.3 1.1,-0.4c0.4,0 0.8,-0.1 1.2,0c0.2,0 0.3,0 0.5,0.1c0.1,0.1 0.3,0.1 0.4,0.2c0.5,0.3 0.7,0.6 0.7,0.6c0,0 0,0 -0.2,-0.1c-0.1,-0.1 -0.3,-0.2 -0.6,-0.2c-0.3,-0.1 -0.6,-0.1 -0.9,-0.1c-0.2,0 -0.3,0 -0.5,0c-0.2,0 -0.3,0.1 -0.5,0.1c-0.7,0.1 -1.3,0.5 -1.8,0.7c-0.5,0.3 -0.8,0.5 -0.8,0.5c0,0 0.2,-0.3 0.6,-0.8z" fill="#382a1b"/><path d="M235.43355,94.3c0.3,-0.1 0.7,-0.3 1.1,-0.4c0.4,-0.1 0.8,-0.1 1.3,-0.1c0.5,0.1 0.9,0.2 1.3,0.4c0.4,0.2 0.7,0.4 1,0.6c0.3,0.2 0.5,0.5 0.6,0.6c0.1,0.1 0.2,0.2 0.2,0.2c0,0 -0.1,0 -0.3,-0.1c-0.2,-0.1 -0.4,-0.3 -0.7,-0.4c-0.2,0 -0.3,-0.1 -0.5,-0.2c-0.1,-0.1 -0.3,-0.1 -0.5,-0.2c-0.3,-0.1 -0.7,-0.2 -1.1,-0.3c-0.2,0 -0.4,0 -0.6,0c-0.2,0 -0.4,0 -0.6,0c-0.4,0 -0.7,0.1 -1,0.2c-0.6,0.2 -1,0.4 -1,0.4c0,0 0.2,-0.3 0.8,-0.7z" fill="#382a1b"/><path d="M224.23355,94.5c0.5,-0.5 1.3,-1 2.3,-1.1c0.2,-0.1 0.5,0 0.7,0c0.3,0.1 0.5,0.1 0.7,0.2c0.4,0.2 0.7,0.4 1,0.6c0.3,0.2 0.5,0.5 0.6,0.6c0.1,0.1 0.2,0.2 0.2,0.2c0,0 -0.1,0 -0.3,-0.1c-0.2,-0.1 -0.4,-0.3 -0.7,-0.4c-0.3,-0.2 -0.6,-0.3 -1,-0.4c-0.4,-0.1 -0.8,-0.2 -1.2,-0.1c-0.8,0.1 -1.6,0.4 -2.1,0.8c-0.6,0.4 -0.9,0.7 -0.9,0.7c0,0 0.2,-0.4 0.7,-1z" fill="#382a1b"/><g fill="#a16a51"><path d="M229.23355,107.6c-0.2,-0.2 -0.4,-0.5 -0.5,-0.9c-0.1,-0.4 -0.1,-1 0,-1.5c0,-0.3 0.1,-0.6 0.2,-0.8c0.1,-0.3 0.2,-0.5 0.3,-0.8c0.8,-2.1 1.5,-4.1 1.5,-4.1c0,0 -0.6,2.1 -1.1,4.2c-0.2,0.5 -0.3,1 -0.4,1.5c0,0.5 0,0.9 0,1.3c0.1,0.8 0.3,1.3 0.3,1.3c0,0 -0.1,-0.1 -0.3,-0.2z"/><path d="M231.23355,106.8c0.2,0 0.4,0.1 0.5,0.2c0.1,0.1 0.2,0.3 0.2,0.5c0,0.2 -0.1,0.3 -0.1,0.3c0,0 -0.1,-0.1 -0.2,-0.1c-0.1,-0.1 -0.2,-0.1 -0.3,-0.2c-0.1,-0.1 -0.1,-0.2 -0.2,-0.3c-0.1,-0.1 -0.1,-0.2 -0.1,-0.2c0,0 0.1,0 0.2,-0.2z"/></g><g><path d="M228.03355,109.9c1,-0.6 2.1,0.4 3.6,0.2c1.5,-0.2 3.3,-0.9 4.1,0.3c0.6,0.9 -2.8,2.8 -5.1,2.1c-2.3,-0.7 -3.6,-2 -2.6,-2.6z" fill="#d96c4e"/><path d="M231.53355,110.1c0.1,0 0.1,0 0.2,0c1.4,-0.2 3.2,-0.9 4.1,0.3c0.7,0.9 -2.8,2.8 -5.1,2.1c-0.5,-0.1 -0.9,-0.3 -1.3,-0.5c0.4,-0.6 1.1,-1.3 2.1,-1.9z" fill="#ff9d7a"/><path d="M229.03355,109.7c0.7,0.1 1.6,0.5 2.6,0.4c0.8,-0.1 1.7,-0.4 2.5,-0.4c-0.4,0.3 -1.3,0.9 -2.8,0.9c-1.5,0 -2.1,-0.5 -2.3,-0.9z" fill="#ffffff"/></g><path d="M240.33355,103.4c-2.3,0.4 -2.8,-2.1 0.2,-2.6c3,-0.5 5.1,1.7 -0.2,2.6z" fill="#ffd0ab"/><path d="M224.53355,103.3c-0.9,-0.2 -1.4,-0.5 -1.8,-0.8c0,-0.7 0.1,-1.2 0.2,-1.7c0.3,-0.2 0.8,-0.2 1.4,-0.1c2.1,0.5 1.7,3 0.2,2.6z" fill="#ffd0ab"/><path d="M233.63355,117.5c0.7,-0.3 1.5,-0.6 2.3,-0.9c0.8,-0.4 1.7,-0.8 2.5,-1.2c0.4,-0.3 0.8,-0.5 1.2,-0.7c0.4,-0.2 0.8,-0.4 1.2,-0.7c0.4,-0.2 0.8,-0.5 1.1,-0.7c0.3,-0.2 0.6,-0.5 0.9,-0.7c0.2,-0.2 0.5,-0.4 0.7,-0.6c0.2,-0.2 0.3,-0.4 0.5,-0.5c0.3,-0.3 0.5,-0.5 0.5,-0.5c0,0 -0.1,0.2 -0.3,0.5c-0.2,0.3 -0.6,0.8 -1.1,1.3c-0.3,0.3 -0.6,0.5 -0.9,0.8c-0.3,0.3 -0.6,0.5 -1,0.8c-0.4,0.3 -0.8,0.5 -1.2,0.8c-0.4,0.2 -0.9,0.5 -1.3,0.7c-0.9,0.4 -1.8,0.8 -2.6,1.1c-0.9,0.3 -1.7,0.5 -2.4,0.7c-1.4,0.3 -2.4,0.4 -2.4,0.4c0,0 1,-0.2 2.3,-0.6z" fill="#bd875f"/></g><g><path d="M227.83355,90.8c-0.7,-0.9 -0.4,-4 -0.4,-4c-0.5,1.5 -0.7,4 -0.7,4c-1.5,-3.2 0.5,-6.5 0.5,-6.5c-2.2,2.5 -1.8,7 -1.8,7c-2,0.1 -4.2,1.7 -4.2,1.7c-0.5,-5.2 1.3,-9.5 3.5,-11.8c4.9,-5.2 11,-3.4 11,-3.4c2.6,-0.8 8.9,-0.1 12.7,4.3c4.1,4.7 5.1,13.1 6.1,21.9c0.5,3.8 0.9,4.8 3.1,8.5c2.5,4.1 -1.1,6 -1.1,6c2.2,-2.7 -1.9,-7.2 -1.9,-7.2c0,0 2,7.2 -0.1,9.8c-2.1,2.6 -7.3,1.9 -7.3,1.9c3.4,-2 1.6,-10.3 1.6,-10.3c0.8,10 -4.3,10.3 -4.3,10.3c5.8,-1.4 1.3,-28 1.3,-28c-1.6,-1.4 -4.4,-2.2 -4.4,-2.2c0.9,-1.4 0.4,-4.9 0.4,-4.9c0.2,2.8 -1.5,4.4 -1.5,4.4c0.5,-2.1 -0.7,-5 -0.7,-5c0.5,2 -0.1,4.7 -0.1,4.7c-4.8,-1.3 -10.5,-1.3 -10.5,-1.3c-1.2,-3.9 0.7,-7.6 0.7,-7.6c-1.6,2.1 -1.7,7.7 -1.9,7.7z" fill="#382a1b"/><path d="M245.03355,122.9c0.2,-0.1 0.5,-0.2 0.7,-0.4c0.3,-0.2 0.5,-0.4 0.8,-0.7c0.3,-0.3 0.5,-0.6 0.7,-1c0.2,-0.4 0.3,-0.9 0.5,-1.3c0.1,-0.5 0.3,-1 0.4,-1.5c0,-0.5 0.2,-1 0.2,-1.5c0.1,-0.6 0.2,-1.1 0.2,-1.6c0.1,-0.5 0.1,-1 0.1,-1.5c0,-0.5 0,-0.9 0,-1.4c0,-0.5 0,-0.9 0,-1.3c-0.1,-1.6 -0.1,-2.7 -0.1,-2.7c0,0 0.2,1 0.4,2.6c0,0.4 0.1,0.8 0.1,1.3c0,0.4 0.1,0.9 0.1,1.4c0,0.5 0,1 0,1.5c0,0.5 -0.1,1.1 -0.1,1.6c-0.1,0.6 -0.2,1.1 -0.3,1.6c-0.1,0.5 -0.3,1 -0.4,1.5c-0.2,0.4 -0.3,0.9 -0.6,1.3c-0.2,0.5 -0.5,0.8 -0.8,1.1c-0.3,0.3 -0.6,0.5 -0.9,0.7c-0.3,0.1 -0.6,0.2 -0.8,0.3c-0.2,0.1 -0.4,0.1 -0.5,0.1c-0.1,0 -0.2,0 -0.2,0c0,0 0.3,0 0.5,-0.1z" fill="#241b10"/><path d="M247.43355,123.1c0.2,0 0.4,0 0.6,-0.1c0.2,0 0.4,-0.1 0.7,-0.2c0.1,-0.1 0.3,-0.1 0.4,-0.2c0.1,-0.1 0.3,-0.2 0.4,-0.3c0.2,-0.1 0.3,-0.2 0.4,-0.3c0.1,-0.1 0.2,-0.3 0.3,-0.4c0.1,-0.1 0.2,-0.2 0.3,-0.4l0.3,-0.5c0.2,-0.3 0.3,-0.7 0.4,-1c0.1,-0.4 0.2,-0.7 0.3,-1.1c0.1,-0.4 0.1,-0.8 0.2,-1.1c0.1,-0.7 0.1,-1.3 0.2,-1.9c0,-1.1 0.1,-1.9 0.1,-1.9c0,0 0.2,0.7 0.3,1.9c0,0.6 0.1,1.3 0,2c0,0.3 0,0.7 -0.1,1.1c-0.1,0.3 -0.2,0.7 -0.3,1.1c-0.2,0.4 -0.3,0.8 -0.5,1.1c-0.2,0.4 -0.4,0.7 -0.7,1c-0.1,0.2 -0.2,0.3 -0.4,0.4c-0.1,0.1 -0.2,0.2 -0.4,0.3c-0.1,0 -0.3,0.1 -0.4,0.2c-0.1,0.1 -0.3,0.2 -0.4,0.2c-0.3,0.1 -0.6,0.1 -0.8,0.1c-0.2,0 -0.4,0 -0.6,0c-0.3,0 -0.5,-0.1 -0.5,-0.1c0,0 0.2,0 0.2,0.1z" fill="#241b10"/><path d="M249.43355,123c0.6,0 1.4,-0.1 2.3,-0.4c0.5,-0.2 1,-0.4 1.4,-0.7c0.5,-0.3 0.9,-0.7 1.2,-1.2c0.4,-0.4 0.6,-1 0.7,-1.6c0.1,-0.6 0.1,-1.3 0.1,-1.9c0,-1.2 -0.2,-2.5 -0.4,-3.7c-0.2,-1.2 -0.4,-2.3 -0.6,-3.3c-0.4,-1.9 -0.6,-3.2 -0.6,-3.2c0,0 0.4,1.2 1,3.2c0.5,1.9 1.2,4.5 1.3,7.1c0,0.7 -0.1,1.3 -0.2,2c-0.2,0.6 -0.4,1.3 -0.8,1.8c-0.3,0.5 -0.8,0.9 -1.3,1.2c-0.5,0.3 -1,0.5 -1.5,0.6c-1,0.2 -1.8,0.2 -2.4,0.2c-0.6,0 -0.9,-0.1 -0.9,-0.1c0,0 0.3,0 0.7,0z" fill="#241b10"/><path d="M236.33355,77.8c0.4,-0.1 1,-0.2 1.7,-0.2c1.4,0 3.6,0.1 5.9,1.1c1.2,0.5 2.4,1.2 3.4,2.2c1,1 2,2.2 2.8,3.5c1.7,2.7 2.6,5.9 3.2,9.2c0.6,3.3 0.9,6.6 1.3,9.7c0.2,1.6 0.4,3.1 0.8,4.4c0.4,1.4 1,2.6 1.7,3.6c0.6,1.1 1.2,2.2 1.4,3.2c0.3,1 0,2 -0.4,2.6c-0.4,0.7 -0.9,1.1 -1.2,1.3c-0.3,0.2 -0.5,0.3 -0.5,0.3c0,0 0.2,-0.1 0.5,-0.4c0.3,-0.2 0.7,-0.7 1,-1.3c0.3,-0.6 0.5,-1.5 0.2,-2.4c-0.3,-0.9 -0.8,-1.9 -1.5,-2.9c-0.7,-1 -1.2,-2.3 -1.6,-3.7c-0.4,-1.4 -0.6,-2.9 -0.8,-4.5c-0.4,-3.1 -0.6,-6.4 -1.2,-9.7c-0.6,-3.3 -1.5,-6.5 -3.1,-9.2c-0.7,-1.3 -1.7,-2.5 -2.7,-3.5c-1.1,-1 -2.2,-1.8 -3.3,-2.3c-2.2,-1.1 -4.4,-1.2 -5.8,-1.2c-0.7,0 -1.3,0 -1.7,0.1c-0.4,0.1 -0.6,0.1 -0.6,0.1c0,0 0.2,-0.1 0.5,0z" fill="#241b10"/><path d="M247.03355,106.9c-0.3,-2.1 -0.6,-4.9 -1,-7.7c-0.1,-1.4 -0.3,-2.8 -0.5,-4.1c-0.2,-1.3 -0.3,-2.6 -0.5,-3.6c-0.2,-1 -0.4,-1.9 -0.5,-2.5c-0.2,-0.6 -0.4,-1 -0.4,-1c0,0 0.1,0.3 0.3,0.9c0.2,0.6 0.4,1.5 0.7,2.5c0.6,2 1,4.8 1.4,7.6c0.2,0.7 0.2,1.4 0.3,2.1c0.1,0.7 0.1,1.3 0.2,2c0.2,1.3 0.2,2.5 0.3,3.6c0.1,1.1 0.1,2 0.1,2.6c0,0.6 0,1 0,1c0,0 -0.1,-1.4 -0.4,-3.4z" fill="#241b10"/><path d="M241.03355,91c0.1,-0.4 0.3,-0.9 0.4,-1.4c0.1,-0.5 0.1,-1 0.1,-1.6c0,-0.2 0,-0.5 0,-0.8c0,-0.3 0,-0.6 -0.2,-0.9c0,-0.3 -0.1,-0.6 -0.1,-0.8c-0.1,-0.3 -0.2,-0.5 -0.2,-0.7c-0.1,-0.4 -0.2,-0.7 -0.3,-1c-0.1,-0.3 -0.1,-0.4 -0.1,-0.4c0,0 0.1,0.1 0.2,0.3c0.1,0.3 0.3,0.6 0.5,1c0.2,0.5 0.4,0.9 0.5,1.5c0.1,0.3 0.2,0.6 0.2,0.9c0.1,0.3 0.1,0.6 0.1,0.9c0,0.6 0,1.3 -0.2,1.8c-0.1,0.5 -0.4,1 -0.6,1.4c-0.5,0.8 -1,1.1 -1,1.1c0,0 0.4,-0.5 0.7,-1.3z" fill="#241b10"/><path d="M239.53355,90.8c0,-0.7 0,-1.6 -0.1,-2.5c-0.1,-0.9 -0.2,-1.8 -0.3,-2.5c-0.1,-0.3 -0.1,-0.6 -0.2,-0.8c-0.1,-0.2 -0.1,-0.3 -0.1,-0.3c0,0 0.1,0.1 0.2,0.3c0.1,0.2 0.3,0.5 0.4,0.8c0.3,0.6 0.5,1.6 0.6,2.5c0,1 -0.1,1.9 -0.2,2.6c-0.1,0.7 -0.3,1.1 -0.3,1.1c0,0 0,-0.4 0,-1.2z" fill="#241b10"/><path d="M236.63355,78.6c0.5,0.1 1.1,0.2 1.7,0.6c0.3,0.2 0.6,0.4 0.8,0.6c0.2,0.2 0.4,0.5 0.5,0.7c0.1,0.3 0.2,0.5 0.2,0.6c0.1,0.1 0.1,0.2 0.1,0.2c-0.1,0 -0.3,-0.3 -0.6,-0.6c-0.3,-0.3 -0.8,-0.7 -1.3,-1c-0.5,-0.4 -1.1,-0.6 -1.5,-0.8c-0.4,-0.2 -0.7,-0.3 -0.7,-0.3c0,0 0.4,-0.1 0.8,0z" fill="#241b10"/><path d="M230.93355,89.3c0,-0.9 0,-2.1 0.1,-3.3c0.1,-0.6 0.1,-1.2 0.3,-1.8c0.1,-0.6 0.3,-1.1 0.5,-1.5c0.2,-0.5 0.4,-0.8 0.6,-1c0.2,-0.2 0.3,-0.3 0.3,-0.3c0,0 -0.1,0.2 -0.2,0.4c-0.1,0.2 -0.2,0.6 -0.3,1c-0.2,0.9 -0.4,2 -0.5,3.2c-0.1,1.2 -0.2,2.4 -0.3,3.3c-0.1,0.9 -0.2,1.5 -0.2,1.5c0,0 -0.1,-0.6 -0.3,-1.5z" fill="#241b10"/><path d="M227.93355,89.4c0,-0.9 0.1,-2.1 0.4,-3.3c0.1,-0.6 0.3,-1.2 0.5,-1.7c0.2,-0.5 0.4,-1 0.7,-1.4c0.1,-0.2 0.3,-0.4 0.4,-0.5c0.1,-0.1 0.2,-0.2 0.3,-0.3c0.2,-0.2 0.3,-0.3 0.3,-0.3c0,0 -0.1,0.1 -0.2,0.3c0,0.1 -0.1,0.2 -0.2,0.4c-0.1,0.1 -0.2,0.3 -0.3,0.5c-0.3,0.7 -0.6,1.9 -0.9,3c-0.2,1.2 -0.4,2.3 -0.6,3.2c-0.2,0.9 -0.3,1.5 -0.3,1.5c0,0 -0.1,-0.6 -0.1,-1.4z" fill="#241b10"/><path d="M226.23355,89.6c-0.1,-0.4 -0.2,-1 -0.2,-1.5c0,-0.6 0.1,-1.1 0.2,-1.7c0.1,-0.3 0.2,-0.5 0.3,-0.8c0.2,-0.3 0.3,-0.6 0.4,-0.8c0.2,-0.5 0.5,-0.9 0.8,-1.2c0.2,-0.4 0.5,-0.6 0.7,-0.8c0.2,-0.2 0.3,-0.3 0.3,-0.3c0,0 -0.1,0.1 -0.2,0.3c-0.1,0.2 -0.3,0.5 -0.5,0.9c-0.1,0.2 -0.2,0.4 -0.3,0.6c-0.1,0.2 -0.2,0.5 -0.3,0.7c-0.1,0.2 -0.2,0.5 -0.3,0.7c-0.1,0.3 -0.1,0.5 -0.2,0.8c-0.2,0.6 -0.3,1.1 -0.3,1.6c-0.1,0.5 0,1 0,1.4c0.1,0.8 0.3,1.3 0.3,1.3c0,0 -0.4,-0.4 -0.7,-1.2z" fill="#241b10"/><path d="M223.03355,90.7c-0.2,-0.7 -0.3,-1.5 -0.2,-2.4c0.1,-0.4 0.2,-0.8 0.3,-1.2c0.2,-0.4 0.3,-0.7 0.5,-1c0.1,-0.2 0.3,-0.4 0.4,-0.6c0.1,-0.1 0.2,-0.2 0.2,-0.2c0,0 0,0.1 -0.1,0.3c0,0.1 -0.1,0.4 -0.2,0.7c-0.1,0.6 -0.3,1.4 -0.4,2.2c-0.1,0.8 -0.1,1.6 -0.1,2.2c0,0.6 0.1,1 0.1,1c0,0 -0.3,-0.3 -0.5,-1z" fill="#241b10"/><path d="M221.03355,91.7c0,-0.7 -0.1,-1.7 0,-2.8c0.1,-1.1 0.4,-2.5 0.9,-3.8c0.5,-1.4 1.3,-2.7 2.3,-3.9c0.5,-0.6 1,-1.1 1.6,-1.6c0.6,-0.5 1.2,-0.9 1.8,-1.3c1.3,-0.7 2.7,-1 3.8,-1.1c1.2,-0.1 2.1,0 2.8,0.1c0.6,0.1 1,0.2 1,0.2c0,0 -0.3,0 -1,0c-0.6,0 -1.6,0 -2.7,0.2c-1.1,0.2 -2.3,0.6 -3.5,1.3c-1.1,0.7 -2.3,1.8 -3.2,2.9c-1,1.1 -1.8,2.4 -2.3,3.7c-0.5,1.3 -0.8,2.6 -1,3.7c-0.3,2.2 -0.1,3.7 -0.1,3.7c0,0 -0.1,-0.4 -0.4,-1.3z" fill="#241b10"/><path d="M233.63355,78.7c-0.7,0.1 -1.6,0.3 -2.5,0.7c-0.2,0.1 -0.4,0.2 -0.6,0.3c-0.2,0.1 -0.4,0.2 -0.6,0.3c-0.4,0.2 -0.8,0.4 -1.1,0.6c-0.4,0.1 -0.6,0.3 -0.8,0.4c-0.2,0.1 -0.3,0.2 -0.3,0.2c0,0 0.1,-0.1 0.2,-0.3c0.1,-0.1 0.3,-0.4 0.6,-0.6c0.5,-0.6 1.4,-1.1 2.3,-1.5c0.4,-0.2 0.9,-0.3 1.4,-0.4c0.5,-0.1 0.9,-0.1 1.3,-0.1c0.8,0.1 1.2,0.3 1.2,0.3c0,0 -0.5,0 -1.1,0.1z" fill="#241b10"/></g></g><g><g><path d="M224.33355,82c0,0 3.5,-14 20.4,-34c0,0 6.5,29.1 6.6,38.4c0,0 -2.6,-3.1 -12.7,-4.3c-3.8,-0.5 -9.9,-1.8 -14.3,-0.1z" fill="#122f42"/><path d="M251.03355,83.4c-0.1,-1 -0.3,-2.5 -0.6,-4.2c-0.3,-1.7 -0.6,-3.7 -1,-5.9c-0.4,-2.2 -0.8,-4.5 -1.2,-6.8c-0.4,-2.3 -0.8,-4.6 -1.2,-6.8c-0.4,-2.2 -0.8,-4.2 -1.1,-5.9c-0.6,-3.5 -1.1,-5.8 -1.1,-5.8c0,0 0.6,2.3 1.5,5.7c0.4,1.7 0.9,3.7 1.3,5.9c0.4,2.2 0.9,4.5 1.3,6.8c0.4,2.3 0.8,4.6 1.1,6.8c0.3,2.2 0.6,4.3 0.8,6c0.2,1.7 0.3,3.2 0.4,4.2c0.1,1 0.1,1.6 0.1,1.6c0,0 -0.1,-0.6 -0.3,-1.6z" fill="#141b30"/><path d="M225.03355,79.4c0.4,-1 0.9,-2.4 1.6,-4.1c0.8,-1.6 1.6,-3.6 2.7,-5.6c0.5,-1 1.1,-2.1 1.7,-3.1c0.5,-1 1.2,-2.1 1.8,-3.1c1.3,-2 2.7,-4 4,-5.9c0.7,-0.9 1.4,-1.8 2,-2.6c0.7,-0.8 1.3,-1.5 2,-2.3c0.6,-0.7 1.1,-1.4 1.6,-1.9c0.5,-0.5 0.9,-1 1.3,-1.4c0.7,-0.8 1.1,-1.2 1.1,-1.2c0,0 -0.4,0.5 -1.1,1.3c-0.3,0.4 -0.7,0.9 -1.2,1.5c-0.5,0.6 -1,1.3 -1.5,2c-0.6,0.7 -1.2,1.4 -1.8,2.3c-0.6,0.9 -1.2,1.8 -1.9,2.7c-1.3,1.8 -2.6,3.8 -3.9,5.9c-0.7,1 -1.3,2.1 -1.9,3.1c-0.6,1.1 -1.2,2.1 -1.7,3.1c-1.1,2 -2,3.9 -2.8,5.5c-0.8,1.6 -1.4,3 -1.8,4c-0.4,1 -0.6,1.6 -0.6,1.6c0,0 0.1,-0.6 0.4,-1.8z" fill="#141b30"/></g><g><path d="M225.13355,79.5c13.2,-1.5 25.9,3.2 25.9,3.2c0.6,1.2 0.3,2.3 0.3,2.3c0,0 -8.1,-2.5 -13.3,-3.3c-5.2,-0.8 -13.4,-0.6 -13.4,-0.6c-0.3,-0.9 0.5,-1.6 0.5,-1.6z" fill="#63b7ce"/><path d="M228.83355,80.8c1.2,0.1 2.7,0.1 4.3,0.2c1.6,0.1 3.3,0.3 5,0.5c0.8,0.1 1.7,0.3 2.5,0.4c0.8,0.2 1.6,0.3 2.4,0.5c0.8,0.1 1.5,0.3 2.2,0.5c0.7,0.2 1.4,0.4 2,0.6c1.2,0.4 2.2,0.8 2.9,1c0.7,0.3 1.1,0.4 1.1,0.4c0,0 -0.4,-0.1 -1.1,-0.3c-0.4,-0.1 -0.8,-0.2 -1.3,-0.3c-0.5,-0.1 -1.1,-0.2 -1.7,-0.4c-0.6,-0.2 -1.3,-0.4 -2,-0.5c-0.7,-0.2 -1.4,-0.3 -2.2,-0.5c-1.6,-0.3 -3.2,-0.6 -4.9,-0.8c-1.7,-0.2 -3.3,-0.5 -4.9,-0.6c-1.6,-0.1 -3,-0.2 -4.3,-0.3c-2.5,-0.1 -4.2,-0.1 -4.2,-0.1c0,0 1.7,-0.2 4.2,-0.3z" fill="#466d8c"/><path d="M226.33355,79.3c0.7,-0.1 1.8,-0.2 3,-0.3c1.2,-0.1 2.7,-0.1 4.2,-0.1c1.5,0.1 3.2,0.2 4.8,0.4c1.7,0.2 3.3,0.5 4.8,0.8c0.8,0.1 1.5,0.3 2.2,0.5c0.7,0.2 1.3,0.4 1.9,0.6c1.2,0.3 2.1,0.7 2.8,1c0.6,0.2 1,0.4 1,0.4c0,0 -0.4,-0.1 -1.1,-0.3c-0.3,-0.1 -0.7,-0.3 -1.2,-0.4c-0.5,-0.1 -1,-0.2 -1.6,-0.4c-0.6,-0.2 -1.2,-0.4 -1.9,-0.5c-0.7,-0.1 -1.4,-0.3 -2.2,-0.4c-1.6,-0.3 -3.2,-0.5 -4.8,-0.7c-1.6,-0.2 -3.3,-0.3 -4.8,-0.4c-1.5,0 -3,-0.1 -4.2,-0.1c-2.5,0 -4.1,0.1 -4.1,0.1c0,0 0.4,-0.1 1.2,-0.2z" fill="#466d8c"/></g><g><g><path d="M243.73355,82.6c17.2,4.4 26,13.9 26,13.9c-6.1,-6.5 -31.7,-11.8 -34.3,-11.9c-28.7,-1.6 -31.5,4.3 -31.5,4.3c4.1,-5.9 22.6,-10.7 39.8,-6.3z" fill="#122f42"/><path d="M204.63355,87.8c0.3,-0.3 0.7,-0.6 1.1,-1c0.4,-0.3 0.9,-0.7 1.5,-1.1c0.6,-0.4 1.2,-0.8 1.9,-1.2c0.7,-0.4 1.5,-0.8 2.3,-1.1c0.8,-0.3 1.6,-0.6 2.5,-0.9c0.4,-0.1 0.9,-0.3 1.3,-0.4l1.3,-0.3l1.4,-0.3c0.5,0 1,-0.1 1.4,-0.2c0.4,-0.1 0.9,-0.1 1.3,-0.2c0.4,0 0.9,-0.1 1.3,-0.1c0.9,-0.1 1.7,-0.2 2.5,-0.2c0.8,0 1.5,-0.1 2.2,-0.1c1.3,0 2.5,0.1 3.3,0.1c0.8,0.1 1.3,0.1 1.3,0.1c0,0 -0.5,0.1 -1.3,0.1c-0.8,0.1 -1.9,0.1 -3.3,0.2c-0.7,0.1 -1.4,0.1 -2.2,0.2c-0.8,0.1 -1.6,0.2 -2.5,0.3c-0.4,0.1 -0.9,0.1 -1.3,0.2c-0.4,0 -0.9,0.1 -1.3,0.2c-0.4,0 -0.9,0.1 -1.3,0.2l-1.3,0.3l-1.3,0.3c-0.4,0.1 -0.9,0.3 -1.3,0.4c-0.9,0.3 -1.7,0.6 -2.5,0.9c-0.8,0.3 -1.6,0.7 -2.3,1c-0.7,0.4 -1.3,0.7 -1.9,1.1c-0.6,0.3 -1.1,0.7 -1.6,1c-0.4,0.3 -0.8,0.6 -1.1,0.9c-0.6,0.5 -0.9,0.9 -0.9,0.9c0,0 0.3,-0.4 0.8,-1.3z" fill="#141b30"/><path d="M245.53355,83c0.7,0.2 1.9,0.4 3.2,0.8c0.6,0.2 1.4,0.4 2.1,0.7c0.7,0.3 1.5,0.6 2.3,0.9c0.8,0.3 1.6,0.7 2.4,1.1c0.9,0.3 1.7,0.8 2.5,1.2c0.8,0.5 1.6,0.9 2.4,1.4c0.7,0.5 1.5,1 2.2,1.5c0.7,0.5 1.4,1 2,1.5c0.6,0.5 1.2,1 1.7,1.4c1.1,0.8 1.9,1.7 2.5,2.2c0.6,0.6 0.9,0.9 0.9,0.9c0,0 -0.4,-0.3 -1,-0.8c-0.3,-0.2 -0.7,-0.6 -1.1,-0.9c-0.4,-0.3 -1,-0.7 -1.5,-1.1c-0.6,-0.4 -1.1,-0.9 -1.8,-1.3c-0.6,-0.4 -1.3,-0.9 -2,-1.4c-0.7,-0.4 -1.4,-0.9 -2.2,-1.4c-0.8,-0.5 -1.6,-0.9 -2.4,-1.4c-0.8,-0.5 -1.6,-0.9 -2.4,-1.3c-0.8,-0.4 -1.6,-0.8 -2.4,-1.1c-0.8,-0.4 -1.6,-0.7 -2.3,-1c-0.8,-0.3 -1.5,-0.6 -2.1,-0.8c-1.3,-0.5 -2.4,-0.8 -3.2,-1c-0.7,-0.2 -1.2,-0.3 -1.2,-0.3c0,0 0.5,0 1.4,0.2z" fill="#141b30"/></g><path d="M211.33355,85.7c1.4,-0.4 3.6,-0.8 6.2,-1.1c2.6,-0.3 5.6,-0.5 8.9,-0.5c3.3,0 6.8,0.2 10.3,0.6c3.5,0.5 6.9,1.2 10.1,2c3.2,0.9 6.1,1.8 8.6,2.6c2.5,0.8 4.5,1.7 5.9,2.3c1.4,0.6 2.2,1 2.2,1c0,0 -0.8,-0.3 -2.2,-0.9c-1.5,-0.6 -3.5,-1.3 -6,-2.1c-2.5,-0.8 -5.4,-1.6 -8.6,-2.4c-3.1,-0.8 -6.6,-1.5 -10,-1.9c-3.5,-0.4 -6.9,-0.7 -10.2,-0.7c-3.3,-0.1 -6.3,0.1 -8.9,0.3c-2.6,0.2 -4.8,0.5 -6.3,0.8c-1.5,0.3 -2.3,0.5 -2.3,0.6c0,-0.1 0.8,-0.4 2.3,-0.6z" fill="#141b30"/></g></g></g></g></g></svg>